<?xml version="1.0" standalone="no"?>
  <!DOCTYPE svg PUBLIC "-//W3C//DTD SVG 1.1//EN" "http://www.w3.org/Graphics/SVG/1.1/DTD/svg11.dtd" >
  <svg>
  <metadata>
  Created by font-carrier
  </metadata>
  <defs>
  <font id="PFSquareSansPro-Light" horiz-adv-x="1818" vert-adv-y="1818" >
    <font-face
      
      font-family="PF Square Sans Pro Light"
      
      font-weight="400"
      
      font-stretch="normal"
      
      units-per-em="1000"
      
      ascent="750"
      
      descent="-250"
      
    />
      <missing-glyph />

      

      
      <glyph glyph-name="uni22" unicode="&#x22;" d="M77 488Q70 488 69 497L60 652Q59 663 71 663L99 663Q107 663 108 659.50Q109 656 109 652L99 497Q99 492 97.50 490Q96 488 89 488L77 488M162 488Q154 488 153 497L144 652Q143 663 155 663L183 663Q191 663 192 659.50Q193 656 193 652L183 497Q183 492 181.50 490Q180 488 173 488L162 488Z"  horiz-adv-x="254" vert-adv-y="1000"  />

      
      <glyph glyph-name="uni23" unicode="&#x23;" d="M327 281L358 413L228 413L197 281L327 281M19 242Q9 242 11 250L17 270Q19 281 31 281L153 281L184 413L59 413Q48 413 51 421L57 441Q59 452 71 452L193 452L241 653Q243 663 254 663L279 663Q287 661 285 651L237 452L367 452L415 653Q417 663 428 663L453 663Q461 661 459 651L411 452L540 452Q553 452 549 441L544 421Q541 413 531 413L402 413L371 281L500 281Q513 281 509 270L504 250Q501 242 491 242L362 242L306 8Q305 0 296 0L271 0Q264 0 262.50 4.50Q261 9 263 14L317 242L188 242L132 8Q131 0 122 0L97 0Q90 0 88.50 4.50Q87 9 89 14L143 242L19 242Z"  horiz-adv-x="540" vert-adv-y="1000"  />

      
      <glyph glyph-name="uni24" unicode="&#x24;" d="M290-87Q290-94 282-94L255-94Q246-94 246-88L246-1Q197 0 148.50 6.50Q100 13 71 25Q60 29 63 41L66 59Q67 67 76 65Q99 62 126.50 59.50Q154 57 180.50 55Q207 53 228 51.50Q249 50 259 50Q337 50 379.50 80.50Q422 111 422 170Q422 207 414.50 232Q407 257 390 273Q373 289 343.50 298.50Q314 308 271 315Q224 323 186 332.50Q148 342 120 360Q92 378 77 407Q62 436 62 483Q62 564 109 610Q156 656 246 661L246 741Q246 747 254 747L281 747Q290 747 290 739L290 661Q306 661 327 659Q348 657 369 654Q390 651 410 646.50Q430 642 445 636Q450 634 451 630.50Q452 627 451 622L447 606Q447 603 444.50 599Q442 595 434 596Q396 601 355.50 606Q315 611 268 611Q226 611 197 602Q168 593 150.50 577Q133 561 125.50 537.50Q118 514 118 486Q118 452 127.50 431.50Q137 411 156.50 399Q176 387 205 380.50Q234 374 273 367Q318 359 355.50 349Q393 339 420 319.50Q447 300 462.50 267.50Q478 235 478 183Q478 136 464 102.50Q450 69 424.50 47Q399 25 364.50 14Q330 3 290 0L290-87Z"  horiz-adv-x="540" vert-adv-y="1000"  />

      
      <glyph glyph-name="uni26" unicode="&#x26;" d="M641-42Q635-52 623-47Q608-40 588.50-27.50Q569-15 548 0Q527 15 505.50 32.50Q484 50 466 67Q413 29 356 9.50Q299-10 245-10Q201-10 163 1Q125 12 97 35Q69 58 52.50 92.50Q36 127 36 175Q36 243 79 296.50Q122 350 203 396Q177 434 162.50 470.50Q148 507 148 533Q148 563 157.50 588.50Q167 614 184.50 632.50Q202 651 227 662Q252 673 284 673Q347 673 382 637.50Q417 602 417 550Q417 496 381 456Q345 416 279 378Q319 314 369.50 251Q420 188 473 135Q521 183 555 246.50Q589 310 599 389Q601 394 603 396.50Q605 399 611 399L632 398Q639 397 640.50 393Q642 389 642 384Q639 342 626 300.50Q613 259 594 221.50Q575 184 552 152.50Q529 121 507 100Q541 68 578 40Q615 12 649-7Q658-13 653-21L641-42M364 546Q364 581 341 603.50Q318 626 282 626Q260 626 245 617Q230 608 221 594.50Q212 581 208 566Q204 551 204 538Q204 512 216.50 482.50Q229 453 252 420Q276 432 296.50 445.50Q317 459 332 474Q347 489 355.50 507Q364 525 364 546M431 103Q404 129 375.50 161Q347 193 320.50 227Q294 261 270.50 294Q247 327 229 356Q166 321 126.50 278Q87 235 87 177Q87 140 99 113.50Q111 87 132 70Q153 53 181 44.50Q209 36 240 36Q285 36 333.50 52Q382 68 431 103Z"  horiz-adv-x="675" vert-adv-y="1000"  />

      
      <glyph glyph-name="uni27" unicode="&#x27;" d="M77 488Q70 488 69 497L60 652Q59 663 71 663L99 663Q107 663 108 659.50Q109 656 109 652L99 497Q99 492 97.50 490Q96 488 89 488L77 488Z"  horiz-adv-x="175" vert-adv-y="1000"  />

      
      <glyph glyph-name="uni28" unicode="&#x28;" d="M225-90Q229-94 223-99L210-106Q203-111 198-105Q185-88 162.50-54.50Q140-21 118.50 31Q97 83 81.50 155Q66 227 66 320Q66 398 82 460Q98 522 119.50 569.50Q141 617 163.50 649Q186 681 198 698Q204 705 209 701L222 694Q229 691 224 684Q212 667 195 637Q178 607 162 562.50Q146 518 134.50 458Q123 398 123 320Q123 232 134.50 163.50Q146 95 162 44Q178-7 195.50-40Q213-73 225-90Z"  horiz-adv-x="273" vert-adv-y="1000"  />

      
      <glyph glyph-name="uni29" unicode="&#x29;" d="M222 320Q222 227 206.50 155Q191 83 169 31Q147-21 124.50-54.50Q102-88 89-105Q85-111 77-106L65-99Q59-94 63-90Q75-73 92.50-40Q110-7 125.50 44Q141 95 152.50 163.50Q164 232 164 320Q164 398 152.50 458Q141 518 125.50 562.50Q110 607 93 637Q76 667 64 684Q59 691 66 694L78 701Q84 706 89 699Q101 681 123.50 649Q146 617 168 569.50Q190 522 206 460Q222 398 222 320Z"  horiz-adv-x="275" vert-adv-y="1000"  />

      
      <glyph glyph-name="uni2a" unicode="&#x2a;" d="M195 532L270 482Q274 480 275 477Q276 474 272 468L267 459Q263 452 255 457L177 498L175 411Q175 406 173.50 403.50Q172 401 165 401L153 401Q144 401 144 410L139 500L58 459Q50 455 45 463L39 472Q35 480 43 484L119 533L43 581Q35 587 40 595L45 604Q49 612 58 607L139 565L142 654Q143 659 144.50 661Q146 663 153 663L165 663Q174 663 174 654L177 565L255 605Q263 610 268 601L273 592Q278 585 270 580L195 532Z"  horiz-adv-x="301" vert-adv-y="1000"  />

      
      <glyph glyph-name="uni2b" unicode="&#x2b;" d="M239 501Q239 513 249 513L282 513Q290 513 290 503L290 353L440 353Q446 353 449 351.50Q452 350 452 343L452 310Q452 302 441 302L290 302L290 148Q290 137 282 137L249 137Q239 137 239 150L239 302L86 302Q76 302 76 310L76 343Q76 350 79 351.50Q82 353 88 353L239 353L239 501L239 501Z"  horiz-adv-x="527" vert-adv-y="1000"  />

      
      <glyph glyph-name="uni2c" unicode="&#x2c;" d="M138 16Q138-31 116.50-68Q95-105 69-122Q67-124 62.50-125.50Q58-127 56-125L44-112Q40-108 47-101Q63-87 69.50-69.50Q76-52 76-35Q76-20 70-3Q64 14 54 26Q52 29 52 34Q52 39 58 44L92 72Q103 80 114 71Q127 59 132.50 44Q138 29 138 16Z"  horiz-adv-x="179" vert-adv-y="1000"  />

      
      <glyph glyph-name="uni2d" unicode="&#x2d;" d="M45 299Q35 299 35 307L35 340Q35 350 47 350L308 350Q320 350 320 340L320 307Q320 299 310 299L45 299L45 299Z"  horiz-adv-x="354" vert-adv-y="1000"  />

      
      <glyph glyph-name="uni2e" unicode="&#x2e;" d="M129 33Q129 16 122 3.50Q115-9 90-9Q64-9 57.50 3.50Q51 16 51 33Q51 51 58.50 62.50Q66 74 90 74Q115 74 122 63Q129 52 129 33Z"  horiz-adv-x="183" vert-adv-y="1000"  />

      
      <glyph glyph-name="uni2f" unicode="&#x2f;" d="M51-59Q50-67 41-67L18-67Q11-67 10-62.50Q9-58 10-53L187 683Q189 689 191 691Q193 693 200 692L223 692Q231 692 228 680L51-59L51-59Z"  horiz-adv-x="240" vert-adv-y="1000"  />

      
      <glyph glyph-name="uni30" unicode="&#x30;" d="M500 341Q500 307 498 267.50Q496 228 488.50 189Q481 150 466 114Q451 78 425 51Q399 24 360 7.50Q321-9 266-9Q212-9 174 6Q136 21 111 47.50Q86 74 71.50 108.50Q57 143 50 182Q43 221 41.50 261.50Q40 302 40 341Q40 368 42 402.50Q44 437 51 474Q58 511 72.50 546Q87 581 112 609Q137 637 174.50 654Q212 671 266 671Q346 671 392.50 642Q439 613 463 566Q487 519 493.50 460Q500 401 500 341M443 331Q443 395 438 449Q433 503 414.50 541Q396 579 361 600.50Q326 622 266 622Q209 622 176 597.50Q143 573 125.50 532.50Q108 492 103 439.50Q98 387 98 331Q98 271 102.50 218.50Q107 166 124.50 126.50Q142 87 175.50 64.50Q209 42 266 42Q324 42 358.50 65.50Q393 89 412 128.50Q431 168 437 220.50Q443 273 443 331Z"  horiz-adv-x="540" vert-adv-y="1000"  />

      
      <glyph glyph-name="uni31" unicode="&#x31;" d="M446 9Q446 0 435 0L103 0Q93 0 93 9L93 43Q93 52 103 52L239 52L239 591L119 591Q109 591 109 600L109 616Q109 626 117 628L221 658Q236 663 251 663L284 663Q292 663 294 659.50Q296 656 296 651L296 52L435 52Q446 52 446 43L446 9Z"  horiz-adv-x="540" vert-adv-y="1000"  />

      
      <glyph glyph-name="uni32" unicode="&#x32;" d="M473 9Q473 1 463 1L58 1Q51 1 49.50 3Q48 5 48 10L48 48Q48 59 50 63Q52 67 56 71Q122 134 188 198.50Q254 263 324 335Q357 370 380 405.50Q403 441 403 488Q403 521 397.50 545.50Q392 570 375 586Q358 602 326.50 610Q295 618 244 618Q197 618 156.50 613Q116 608 78 603Q70 602 67.50 605.50Q65 609 64 612L61 629Q60 634 61 638Q62 642 67 644Q85 651 109.50 656Q134 661 158.50 664Q183 667 205.50 668.50Q228 670 243 670Q307 670 349 658.50Q391 647 415.50 625Q440 603 450 571.50Q460 540 460 501Q460 468 455 443Q450 418 439.50 396Q429 374 411.50 352.50Q394 331 370 305Q339 273 313 247Q287 221 258.50 193Q230 165 195.50 131.50Q161 98 112 52L461 52Q473 52 473 41L473 9L473 9Z"  horiz-adv-x="540" vert-adv-y="1000"  />

      
      <glyph glyph-name="uni33" unicode="&#x33;" d="M420 226Q420 278 389.50 301.50Q359 325 307 333L189 353Q174 356 174 369L174 395Q174 403 177 407.50Q180 412 183 415L390 611L67 611Q61 611 58 612.50Q55 614 55 621L55 655Q55 663 65 663L436 663Q444 663 447.50 660.50Q451 658 451 648L451 616Q451 607 450.50 602Q450 597 445 592L243 400L331 385Q363 379 390 368Q417 357 436.50 338.50Q456 320 467 294Q478 268 478 232Q478 160 460.50 113.50Q443 67 410.50 40Q378 13 332 2.50Q286-8 228-8Q213-8 191-6.50Q169-5 144-2Q119 1 95.50 6Q72 11 54 18Q49 20 48 24Q47 28 48 33L51 50Q52 53 54.50 56.50Q57 60 65 59Q103 54 145.50 48.50Q188 43 235 43Q270 43 303 49Q336 55 362 74.50Q388 94 404 130Q420 166 420 226Z"  horiz-adv-x="540" vert-adv-y="1000"  />

      
      <glyph glyph-name="uni34" unicode="&#x34;" d="M519 194Q519 186 509 186L423 186L423 12Q423 0 412 0L377 0Q369 0 369 10L369 186L28 186Q18 186 18 194L18 228Q18 242 28 255L359 652Q364 658 368 660.50Q372 663 380 663L416 663Q423 663 423 655L423 237L507 237Q519 237 519 226L519 194M369 585L78 237L369 237L369 585Z"  horiz-adv-x="540" vert-adv-y="1000"  />

      
      <glyph glyph-name="uni35" unicode="&#x35;" d="M121 417L329 385Q394 374 434.50 339Q475 304 475 232Q475 161 458 114.50Q441 68 409.50 41Q378 14 332.50 3Q287-8 230-8Q215-8 193-6.50Q171-5 147-2Q123 1 99.50 6Q76 11 58 18Q53 20 52 24Q51 28 52 33L55 50Q56 53 58.50 56.50Q61 60 69 59Q107 54 148.50 48.50Q190 43 237 43Q272 43 304.50 50Q337 57 362 76.50Q387 96 402 132Q417 168 417 226Q417 252 408 270.50Q399 289 383.50 302Q368 315 347.50 322Q327 329 304 333L85 368Q74 370 69 374.50Q64 379 66 391L105 652Q106 660 109 661.50Q112 663 120 663L432 663Q442 663 442 656L442 621Q442 614 439 612.50Q436 611 430 611L151 611L121 417Z"  horiz-adv-x="540" vert-adv-y="1000"  />

      
      <glyph glyph-name="uni36" unicode="&#x36;" d="M501 181Q501 129 483 93Q465 57 434 34.50Q403 12 361 1.50Q319-9 270-9Q185-9 139 13.50Q93 36 72 77.50Q51 119 47.50 177Q44 235 44 306Q44 372 51 437Q58 502 83.50 554Q109 606 158.50 638Q208 670 292 670Q307 670 327.50 668.50Q348 667 371 664Q394 661 416.50 656Q439 651 457 644Q462 642 463 638Q464 634 463 629L460 613Q459 609 456.50 605.50Q454 602 446 603Q408 608 372.50 613Q337 618 290 618Q232 618 196 597.50Q160 577 140 543Q120 509 112 463.50Q104 418 103 369Q146 374 177 377Q208 380 233 382Q258 384 279.50 384.50Q301 385 325 385Q415 385 458 337Q501 289 501 181M443 179Q443 215 437 243.50Q431 272 416 292Q401 312 375.50 322.50Q350 333 311 333Q282 333 230 329Q178 325 102 316L102 293Q102 237 104.50 191Q107 145 123 111Q139 77 174 58.50Q209 40 274 40Q301 40 331 45Q361 50 386 65Q411 80 427 107.50Q443 135 443 179Z"  horiz-adv-x="540" vert-adv-y="1000"  />

      
      <glyph glyph-name="uni37" unicode="&#x37;" d="M484 622Q484 620 482.50 613Q481 606 479 601L186 1Q181-9 175-4L138 12Q129 17 134 28L423 611L48 611Q38 611 38 620L38 652Q38 663 50 663L472 663Q484 663 484 652L484 622Z"  horiz-adv-x="540" vert-adv-y="1000"  />

      
      <glyph glyph-name="uni38" unicode="&#x38;" d="M501 173Q501 90 439.50 40.50Q378-9 265-9Q151-9 92.50 34Q34 77 34 171Q34 313 164 351Q117 363 86.50 400.50Q56 438 56 489Q56 581 110 626.50Q164 672 268 672Q367 672 422 628Q477 584 477 491Q477 469 469.50 447Q462 425 447.50 406Q433 387 412 372.50Q391 358 364 351Q427 336 464 292.50Q501 249 501 173M418 495Q418 531 406.50 555.50Q395 580 375 595Q355 610 327.50 617Q300 624 268 624Q183 624 149.50 592Q116 560 116 495Q116 465 129 444.50Q142 424 163 410.50Q184 397 211 388.50Q238 380 266 373Q345 388 381.50 415Q418 442 418 495M441 171Q441 211 427.50 237Q414 263 389.50 280Q365 297 332 308Q299 319 260 330Q232 324 202.50 315.50Q173 307 149 291.50Q125 276 109.50 249Q94 222 94 179Q94 137 109 110.50Q124 84 148 68Q172 52 202.50 46Q233 40 265 40Q295 40 326.50 47Q358 54 383.50 69.50Q409 85 425 110Q441 135 441 171Z"  horiz-adv-x="540" vert-adv-y="1000"  />

      
      <glyph glyph-name="uni39" unicode="&#x39;" d="M41 480Q41 531 59 567.50Q77 604 108 626.50Q139 649 180.50 659.50Q222 670 270 670Q355 670 401.50 647Q448 624 469.50 583Q491 542 494.50 483.50Q498 425 498 355Q498 289 490.50 224Q483 159 457.50 107Q432 55 383 23Q334-9 250-9Q235-9 214-7.50Q193-6 170.50-3Q148 0 125.50 5Q103 10 85 17Q80 19 79 23Q78 27 79 32L82 48Q83 51 85.50 55Q88 59 96 58Q134 53 169 48Q204 43 252 43Q310 43 345.50 63Q381 83 401.50 117.50Q422 152 429.50 197Q437 242 439 292Q396 287 365 284Q334 281 309 279Q284 277 262 276Q240 275 216 275Q127 275 84 323.50Q41 372 41 480M99 481Q99 445 104.50 417Q110 389 125 369Q140 349 165.50 338.50Q191 328 230 328Q260 328 311.50 332Q363 336 440 345L440 368Q440 423 437.50 469.50Q435 516 419 549.50Q403 583 368 602Q333 621 268 621Q241 621 211 616Q181 611 156 596Q131 581 115 553.50Q99 526 99 481Z"  horiz-adv-x="540" vert-adv-y="1000"  />

      
      <glyph glyph-name="uni3a" unicode="&#x3a;" d="M129 401Q129 384 122 371.50Q115 359 90 359Q64 359 57.50 371.50Q51 384 51 401Q51 418 58.50 430Q66 442 90 442Q115 442 122 431Q129 420 129 401M129 33Q129 16 122 3.50Q115-9 90-9Q64-9 57.50 3.50Q51 16 51 33Q51 51 58.50 62.50Q66 74 90 74Q115 74 122 63Q129 52 129 33Z"  horiz-adv-x="179" vert-adv-y="1000"  />

      
      <glyph glyph-name="uni3b" unicode="&#x3b;" d="M129 401Q129 384 122 371.50Q115 359 90 359Q64 359 57.50 371.50Q51 384 51 401Q51 418 58.50 430Q66 442 90 442Q115 442 122 431Q129 420 129 401M130 16Q130-31 108.50-68Q87-105 61-122Q59-124 54.50-125.50Q50-127 48-125L36-112Q32-108 39-101Q55-87 61.50-70Q68-53 68-35Q68-19 62-2.50Q56 14 46 26Q44 29 44 34Q44 39 50 44L84 72Q95 80 106 71Q119 59 124.50 44Q130 29 130 16Z"  horiz-adv-x="179" vert-adv-y="1000"  />

      
      <glyph glyph-name="uni3c" unicode="&#x3c;" d="M452 530Q452 522 449 518.50Q446 515 441 512L141 330L141 327L439 131Q445 128 448.50 125Q452 122 452 114L452 85Q452 69 439 76L86 303Q81 306 78.50 309Q76 312 76 320L76 338Q76 347 79 350.50Q82 354 87 356L441 570Q452 575 452 562L452 530Z"  horiz-adv-x="527" vert-adv-y="1000"  />

      
      <glyph glyph-name="uni3d" unicode="&#x3d;" d="M439 443Q445 443 448 441.50Q451 440 451 433L451 400Q451 392 440 392L85 392Q75 392 75 400L75 433Q75 440 78 441.50Q81 443 87 443L439 443M440 271Q446 271 449 269.50Q452 268 452 261L452 228Q452 220 441 220L86 220Q76 220 76 228L76 261Q76 268 79 269.50Q82 271 88 271L440 271Z"  horiz-adv-x="527" vert-adv-y="1000"  />

      
      <glyph glyph-name="uni3e" unicode="&#x3e;" d="M76 562Q76 575 87 570L441 356Q446 354 449 350.50Q452 347 452 338L452 320Q452 312 449.50 309Q447 306 442 303L89 76Q76 69 76 85L76 114Q76 122 79.50 125Q83 128 89 131L387 327L387 330L87 512Q82 515 79 518.50Q76 522 76 530L76 562Z"  horiz-adv-x="527" vert-adv-y="1000"  />

      
      <glyph glyph-name="uni3f" unicode="&#x3f;" d="M328 526Q328 502 321 483Q314 464 302.50 449.50Q291 435 277 423Q263 411 249 401Q227 384 207.50 368Q188 352 173.50 332.50Q159 313 150.50 289.50Q142 266 142 236Q142 231 141.50 223Q141 215 141 205.50Q141 196 141.50 187.50Q142 179 142 173Q142 162 132 162L108 162Q96 162 95 172Q92 194 92 213.50Q92 233 92 246Q92 277 101.50 302.50Q111 328 127.50 350.50Q144 373 165 392Q186 411 209 429Q223 440 235 449.50Q247 459 256 469.50Q265 480 270 492.50Q275 505 275 522Q275 578 242 600.50Q209 623 137 623Q114 623 90.50 621Q67 619 44 617Q36 617 33.50 620.50Q31 624 31 628L28 644Q26 655 35 659Q58 667 86.50 670.50Q115 674 144 674Q236 674 282 636Q328 598 328 526M167 33Q167 16 160 3.50Q153-9 128-9Q102-9 95.50 3.50Q89 16 89 33Q89 51 96.50 62.50Q104 74 128 74Q153 74 160 63Q167 52 167 33Z"  horiz-adv-x="348" vert-adv-y="1000"  />

      
      <glyph glyph-name="uni40" unicode="&#x40;" d="M759 350Q759 300 745.50 262Q732 224 710 198Q688 172 659.50 158.50Q631 145 602 145Q550 145 525 161.50Q500 178 490 212Q453 191 419 177.50Q385 164 340 164Q291 164 269 190Q247 216 247 261Q247 324 276.50 353.50Q306 383 375 383L421 383Q439 383 457.50 382.50Q476 382 485 383L485 413Q485 433 482.50 447.50Q480 462 471 471.50Q462 481 445 485.50Q428 490 399 490Q378 490 349.50 489Q321 488 295 484Q284 482 282 487.50Q280 493 278 501Q275 513 287 517Q309 525 343 528.50Q377 532 404 532Q447 532 472 522Q497 512 510 494.50Q523 477 526.50 454Q530 431 530 404L530 245Q530 235 532 223.50Q534 212 541.50 202.50Q549 193 562.50 187Q576 181 600 181Q627 181 648.50 193.50Q670 206 686 228.50Q702 251 710.50 282.50Q719 314 719 351Q719 420 698.50 475Q678 530 639.50 568Q601 606 546 626.50Q491 647 422 647Q351 647 290 623Q229 599 183.50 557Q138 515 112 458Q86 401 86 334Q86 263 110.50 204.50Q135 146 178.50 105Q222 64 282.50 41.50Q343 19 415 19Q419 19 431 19.50Q443 20 459 21Q475 22 492.50 24.50Q510 27 525 30Q529 31 532 30Q535 29 537 24L540 14Q543 7 536 3Q513-8 477.50-12.50Q442-17 408-17Q330-17 263.50 8Q197 33 149 79Q101 125 73.50 189.50Q46 254 46 333Q46 409 76 473.50Q106 538 157 584.50Q208 631 276.50 657.50Q345 684 422 684Q503 684 566 660Q629 636 672 592Q715 548 737 486.50Q759 425 759 350M485 345L368 345Q330 345 311 329Q292 313 292 264Q292 228 305 215.50Q318 203 354 203Q370 203 389 208Q408 213 426.50 220Q445 227 460.50 234.50Q476 242 485 247L485 345Z"  horiz-adv-x="797" vert-adv-y="1000"  />

      
      <glyph glyph-name="uni41" unicode="&#x41;" d="M464 0Q453 0 450 10L397 183L130 183L76 14Q73 5 68.50 2.50Q64 0 56 0L28 0Q17 0 21 12L227 648Q229 656 232 659.50Q235 663 243 663L285 663Q293 663 296.50 658.50Q300 654 302 648L510 10Q514 0 505 0L464 0M293 513Q284 543 279.50 557.50Q275 572 273 579.50Q271 587 269.50 592.50Q268 598 265 611L263 611Q260 598 258.50 592.50Q257 587 254.50 579.50Q252 572 247.50 558Q243 544 234 514L146 233L381 233L293 513Z"  horiz-adv-x="532" vert-adv-y="1000"  />

      
      <glyph glyph-name="uni42" unicode="&#x42;" d="M501 177Q501 136 487.50 103.50Q474 71 450.50 48Q427 25 395.50 12.50Q364 0 329 0L93 0Q79 0 75.50 3.50Q72 7 72 15L72 647Q72 654 75 658.50Q78 663 88 663L295 663Q390 663 435.50 617Q481 571 481 498Q481 480 477.50 459Q474 438 464 417Q454 396 436 377.50Q418 359 389 347Q422 338 443.50 319Q465 300 477.50 276Q490 252 495.50 226Q501 200 501 177M421 491Q421 544 387.50 577.50Q354 611 284 611L129 611L129 368L284 368Q354 368 387.50 402.50Q421 437 421 491M441 184Q441 210 433 234.50Q425 259 408 278Q391 297 365.50 308.50Q340 320 304 320L129 320L129 50L304 50Q344 50 370.50 61Q397 72 412.50 90.50Q428 109 434.50 133.50Q441 158 441 184Z"  horiz-adv-x="546" vert-adv-y="1000"  />

      
      <glyph glyph-name="uni43" unicode="&#x43;" d="M120 324Q120 273 126.50 222.50Q133 172 153 132.50Q173 93 209.50 68.50Q246 44 307 44Q355 44 395.50 49Q436 54 474 59Q482 60 484 56.50Q486 53 487 50L491 33Q492 28 491 24Q490 20 485 18Q467 11 443 6Q419 1 394-2Q369-5 346.50-6.50Q324-8 309-8Q233-8 185 19Q137 46 109.50 91.50Q82 137 72 197Q62 257 62 324Q62 392 71.50 454.50Q81 517 108 565Q135 613 183 641.50Q231 670 309 670Q324 670 346.50 668.50Q369 667 394 664Q419 661 443 656Q467 651 485 644Q490 642 491 638Q492 634 491 629L487 613Q486 609 484 605.50Q482 602 474 603Q436 608 395.50 613Q355 618 307 618Q243 618 205.50 593Q168 568 149 527Q130 486 125 433Q120 380 120 324Z"  horiz-adv-x="512" vert-adv-y="1000"  />

      
      <glyph glyph-name="uni44" unicode="&#x44;" d="M534 333Q534 262 523 201Q512 140 482.50 95.50Q453 51 402.50 25.50Q352 0 273 0L92 0Q79 0 75.50 3.50Q72 7 72 15L72 647Q72 654 75 658.50Q78 663 88 663L273 663Q351 663 401.50 637.50Q452 612 481.50 568Q511 524 522.50 463.50Q534 403 534 333M474 325Q474 397 463.50 446Q453 495 436 526.50Q419 558 397.50 575.50Q376 593 353.50 600.50Q331 608 310 609.50Q289 611 273 611L130 611L130 52L265 52Q279 52 300 52.50Q321 53 344 60Q367 67 390.50 83Q414 99 432.50 129.50Q451 160 462.50 207.50Q474 255 474 325Z"  horiz-adv-x="596" vert-adv-y="1000"  />

      
      <glyph glyph-name="uni45" unicode="&#x45;" d="M126 319L126 52L426 52Q435 52 438 48.50Q441 45 441 37L441 13Q441 5 438 2.50Q435 0 426 0L84 0Q75 0 72 2.50Q69 5 69 13L69 649Q69 656 72 659.50Q75 663 84 663L419 663Q428 663 431 660Q434 657 434 650L434 625Q434 617 431 614Q428 611 419 611L126 611L126 370L389 370Q398 370 401 367.50Q404 365 404 357L404 334Q404 326 401 322.50Q398 319 389 319L126 319Z"  horiz-adv-x="476" vert-adv-y="1000"  />

      
      <glyph glyph-name="uni46" unicode="&#x46;" d="M382 370Q391 370 394 367.50Q397 365 397 357L397 334Q397 326 394 322.50Q391 319 382 319L129 319L128 15Q128 6 125.50 3Q123 0 115 0L88 0Q80 0 76 3Q72 6 72 15L72 650Q72 657 75 660Q78 663 87 663L417 663Q426 663 429 660Q432 657 432 650L432 625Q432 617 429 614Q426 611 417 611L129 611L129 370L382 370L382 370Z"  horiz-adv-x="458" vert-adv-y="1000"  />

      
      <glyph glyph-name="uni47" unicode="&#x47;" d="M494 15Q418-7 334-7Q261-7 210 14Q159 35 126.50 76.50Q94 118 79 180Q64 242 64 325Q64 393 74 455.50Q84 518 111.50 565.50Q139 613 187 641.50Q235 670 312 670Q327 670 349.50 668.50Q372 667 397 664Q422 661 446 656Q470 651 488 644Q493 642 494 638Q495 634 494 629L490 613Q489 609 487 605.50Q485 602 477 603Q439 608 398.50 613Q358 618 310 618Q248 618 211.50 593Q175 568 155.50 527Q136 486 130 433Q124 380 124 324Q124 268 133 217Q142 166 166.50 127Q191 88 233 65Q275 42 341 42Q368 42 401 49Q434 56 458 65L458 292L364 292Q355 292 352 295.50Q349 299 349 307L349 332Q349 340 352 342.50Q355 345 364 345L501 345Q517 345 517 330L518 46Q518 32 513 26Q508 20 494 15Z"  horiz-adv-x="578" vert-adv-y="1000"  />

      
      <glyph glyph-name="uni48" unicode="&#x48;" d="M128 15Q128 6 125.50 3Q123 0 115 0L87 0Q79 0 75.50 3Q72 6 72 15L72 647Q72 657 75.50 660Q79 663 87 663L115 663Q128 663 128 647L128 379L454 379L454 647Q454 657 457 660Q460 663 468 663L496 663Q509 663 509 647L509 15Q509 6 506.50 3Q504 0 496 0L468 0Q460 0 457 3Q454 6 454 15L454 325L128 325L128 15L128 15Z"  horiz-adv-x="580" vert-adv-y="1000"  />

      
      <glyph glyph-name="uni49" unicode="&#x49;" d="M89 647Q89 657 92.50 660Q96 663 104 663L132 663Q145 663 145 647L145 15Q145 6 142.50 3Q140 0 132 0L104 0Q96 0 92.50 3Q89 6 89 15L89 647L89 647Z"  horiz-adv-x="234" vert-adv-y="1000"  />

      
      <glyph glyph-name="uni4a" unicode="&#x4a;" d="M322 154Q322 115 312.50 85Q303 55 281.50 34Q260 13 225.50 2Q191-9 141-9Q101-9 73.50-4Q46 1 23 10Q15 14 13.50 19Q12 24 14 28L18 46Q21 54 30 53Q55 49 79.50 47Q104 45 134 45Q173 45 198 52.50Q223 60 237.50 75Q252 90 258 111.50Q264 133 264 161L264 646Q264 663 280 663L307 663Q322 663 322 646L322 154L322 154Z"  horiz-adv-x="412" vert-adv-y="1000"  />

      
      <glyph glyph-name="uni4b" unicode="&#x4b;" d="M516 9Q518 6 516.50 3Q515 0 509 0L471 0Q456 0 451 11L254 340L128 183L128 15Q128 6 125.50 3Q123 0 115 0L87 0Q79 0 75.50 3Q72 6 72 15L72 647Q72 657 75.50 660Q79 663 87 663L115 663Q128 663 128 647L128 257L212 366L444 653Q448 658 451 660.50Q454 663 464 663L504 663Q509 663 510.50 660.50Q512 658 508 653L290 384L516 9L516 9Z"  horiz-adv-x="527" vert-adv-y="1000"  />

      
      <glyph glyph-name="uni4c" unicode="&#x4c;" d="M452 13Q452 5 449 2.50Q446 0 437 0L87 0Q78 0 75 2.50Q72 5 72 13L72 647Q72 657 75.50 660Q79 663 87 663L116 663Q129 663 129 647L129 52L437 52Q446 52 449 48.50Q452 45 452 37L452 13L452 13Z"  horiz-adv-x="466" vert-adv-y="1000"  />

      
      <glyph glyph-name="uni4d" unicode="&#x4d;" d="M650 15Q650 6 647.50 3Q645 0 637 0L610 0Q602 0 598.50 3Q595 6 595 15L595 546L592 547L554 459L389 115Q384 104 374 104L349 104Q338 104 333 114L163 467L129 546L126 546L126 15Q126 6 123.50 3Q121 0 113 0L88 0Q80 0 76.50 3Q73 6 73 15L73 651Q73 663 83 663L116 663Q125 663 128 661Q131 659 134 651L309 279L361 163L363 163L416 281L591 649Q595 657 599.50 660Q604 663 614 663L639 663Q650 663 650 651L650 15L650 15Z"  horiz-adv-x="723" vert-adv-y="1000"  />

      
      <glyph glyph-name="uni4e" unicode="&#x4e;" d="M542 14Q542 0 530 0L505 0Q494 0 489 3Q484 6 479 14L190 465L126 569L123 569L124 15Q124 6 121.50 3Q119 0 111 0L86 0Q78 0 74.50 3Q71 6 71 15L71 651Q71 656 74 659.50Q77 663 83 663L112 663Q121 663 126 659Q131 655 135 650L432 185L487 99L489 99L490 647Q490 657 493 660Q496 663 504 663L528 663Q541 663 541 647L542 14L542 14Z"  horiz-adv-x="613" vert-adv-y="1000"  />

      
      <glyph glyph-name="uni4f" unicode="&#x4f;" d="M562 341Q562 280 555 218Q548 156 522 105.50Q496 55 445.50 23Q395-9 309-9Q224-9 175 23Q126 55 101 105.50Q76 156 69 218Q62 280 62 341Q62 373 65 409.50Q68 446 77 483Q86 520 102.50 554Q119 588 146.50 614Q174 640 213.50 655.50Q253 671 309 671Q392 671 442 642.50Q492 614 518.50 567.50Q545 521 553.50 461.50Q562 402 562 341M506 331Q506 398 497 452Q488 506 466 544Q444 582 405.50 603Q367 624 309 624Q254 624 217.50 602Q181 580 159.50 541Q138 502 129 448.50Q120 395 120 331Q120 269 128.50 216Q137 163 158.50 124Q180 85 216.50 62.50Q253 40 309 40Q365 40 402.50 61Q440 82 463 120Q486 158 496 212Q506 266 506 331Z"  horiz-adv-x="626" vert-adv-y="1000"  />

      
      <glyph glyph-name="uni51" unicode="&#x51;" d="M309-9Q224-9 175 23Q126 55 101 105.50Q76 156 69 218Q62 280 62 341Q62 373 65 409.50Q68 446 77 483Q86 520 102.50 554Q119 588 146.50 614Q174 640 213.50 655.50Q253 671 309 671Q392 671 442 642.50Q492 614 518.50 567.50Q545 521 553.50 461.50Q562 402 562 341Q562 294 558 245.50Q554 197 540.50 153.50Q527 110 502 74Q477 38 434 17L568-18Q576-20 577-25Q578-30 576-35L564-64Q560-75 555.50-77Q551-79 541-76L335-8Q329-9 322.50-9Q316-9 309-9M309 624Q254 624 217.50 602Q181 580 159.50 541Q138 502 129 448.50Q120 395 120 331Q120 269 128.50 216Q137 163 158.50 124Q180 85 216.50 62.50Q253 40 309 40Q365 40 402.50 61Q440 82 463 120Q486 158 496 212Q506 266 506 331Q506 398 497 452Q488 506 466 544Q444 582 405.50 603Q367 624 309 624Z"  horiz-adv-x="625" vert-adv-y="1000"  />

      
      <glyph glyph-name="uni52" unicode="&#x52;" d="M412 481Q412 521 399 546Q386 571 365.50 585.50Q345 600 319 605.50Q293 611 266 611L128 611L128 338L265 338Q288 338 314 342.50Q340 347 361.50 362Q383 377 397.50 405.50Q412 434 412 481M479 14Q482 9 480.50 4.50Q479 0 472 0L437 0Q429 0 424.50 1Q420 2 417 10L289 288L128 288L128 16Q128 0 114 0L86 0Q78 0 75 3Q72 6 72 15L72 650Q72 657 75 660Q78 663 87 663L286 663Q323 663 356.50 652.50Q390 642 415.50 620Q441 598 456 563.50Q471 529 471 480Q471 452 464.50 424Q458 396 443 371Q428 346 404 327Q380 308 346 298L480 14L479 14Z"  horiz-adv-x="513" vert-adv-y="1000"  />

      
      <glyph glyph-name="uni53" unicode="&#x53;" d="M241-9Q215-9 188.50-7Q162-5 137.50-1.50Q113 2 91 7Q69 12 54 18Q42 23 46 34L49 53Q50 61 59 59Q82 56 109.50 53.50Q137 51 163.50 49Q190 47 211 45.50Q232 44 242 44Q320 44 362.50 75.50Q405 107 405 167Q405 205 397.50 230Q390 255 373 271.50Q356 288 326.50 297.50Q297 307 254 315Q207 323 169 333Q131 343 103 361.50Q75 380 60 409.50Q45 439 45 487Q45 575 98 622Q151 669 253 669Q268 669 290 667.50Q312 666 337 663Q362 660 386 655Q410 650 428 643Q433 641 434 637Q435 633 434 628L430 612Q430 608 427.50 604.50Q425 601 417 602Q379 607 338.50 612Q298 617 251 617Q209 617 180 608Q151 599 133.50 582.50Q116 566 108.50 542Q101 518 101 489Q101 454 110.50 433.50Q120 413 139.50 400.50Q159 388 188 381.50Q217 375 256 368Q301 360 338.50 349.50Q376 339 403 319Q430 299 445.50 266Q461 233 461 179Q461 126 444 90Q427 54 397 32Q367 10 327 0.50Q287-9 241-9Z"  horiz-adv-x="506" vert-adv-y="1000"  />

      
      <glyph glyph-name="uni54" unicode="&#x54;" d="M32 611Q23 611 20 614.50Q17 618 17 626L17 650Q17 657 20 660Q23 663 32 663L435 663Q444 663 447 660Q450 657 450 650L450 626Q450 618 447 614.50Q444 611 435 611L262 611L261 15Q261 6 258.50 3Q256 0 248 0L220 0Q212 0 208.50 3Q205 6 205 15L205 611L32 611L32 611Z"  horiz-adv-x="465" vert-adv-y="1000"  />

      
      <glyph glyph-name="uni55" unicode="&#x55;" d="M474 647Q474 657 477.50 660Q481 663 489 663L517 663Q530 663 530 647L529 237Q529 205 526 176Q523 147 512 120Q485 52 428 22.50Q371-7 296-7Q218-7 162 23Q106 53 82 119Q72 146 68.50 175.50Q65 205 65 237L65 647Q65 657 68.50 660Q72 663 80 663L108 663Q121 663 121 647L121 234Q121 144 163.50 93.50Q206 43 296 43Q383 43 428.50 90Q474 137 474 234L474 647L474 647Z"  horiz-adv-x="595" vert-adv-y="1000"  />

      
      <glyph glyph-name="uni56" unicode="&#x56;" d="M511 662Q522 662 518 651L307 11Q305 6 301.50 3Q298 0 289 0L254 0Q240 0 237 10L26 650Q24 655 25.50 658.50Q27 662 35 662L65 662Q73 662 77 659Q81 656 83 650L225 224Q235 190 245 160Q253 134 260.50 109.50Q268 85 273 73L276 73Q280 85 287.50 109.50Q295 134 303 160Q312 189 323 223L462 651Q465 662 479 662L511 662Z"  horiz-adv-x="542" vert-adv-y="1000"  />

      
      <glyph glyph-name="uni57" unicode="&#x57;" d="M379 372L276 12Q274 5 271.50 2.50Q269 0 261 0L221 0Q209 0 206 11L24 652Q21 663 33 663L65 663Q73 663 76 660.50Q79 658 81 651L218 165L242 72L245 72L269 164L372 532L338 651Q335 663 347 663L379 663Q392 663 395 652L533 166L557 72L559 72L582 164L716 652Q718 658 721 660.50Q724 663 733 663L764 663Q775 663 772 649L591 13Q589 5 585.50 2.50Q582 0 574 0L538 0Q524 0 521 11L417 375L400 439L396 439L379 372Z"  horiz-adv-x="799" vert-adv-y="1000"  />

      
      <glyph glyph-name="uni58" unicode="&#x58;" d="M254 292L90 12Q85 5 81.50 2.50Q78 0 67 0L31 0Q19 0 26 11L224 340L40 651Q37 656 38 659.50Q39 663 44 663L82 663Q92 663 95.50 660Q99 657 102 652L254 389L405 651Q412 663 428 663L459 663Q467 663 468 659Q469 655 467 651L283 340L482 10Q484 6 482.50 3Q481 0 475 0L439 0Q425 0 418 11L254 292Z"  horiz-adv-x="506" vert-adv-y="1000"  />

      
      <glyph glyph-name="uni59" unicode="&#x59;" d="M16 653Q14 656 15 659.50Q16 663 21 663L61 663Q69 663 72.50 660.50Q76 658 78 653L241 353L409 654Q411 659 414.50 661Q418 663 427 663L458 663Q471 663 466 652L269 298L269 15Q269 6 266.50 3Q264 0 256 0L228 0Q220 0 216.50 3Q213 6 213 15L213 298L16 653L16 653Z"  horiz-adv-x="483" vert-adv-y="1000"  />

      
      <glyph glyph-name="uni5a" unicode="&#x5a;" d="M436 15Q436 7 433 3.50Q430 0 421 0L44 0Q35 0 32.50 3Q30 6 30 14L30 32Q30 39 31.50 46Q33 53 39 62L370 611L63 611Q53 611 50.50 614.50Q48 618 48 626L48 650Q48 657 51 660Q54 663 63 663L421 663Q426 663 429.50 660.50Q433 658 433 653L433 627Q433 616 425 603L97 52L421 52Q430 52 433 49.50Q436 47 436 39L436 15L436 15Z"  horiz-adv-x="466" vert-adv-y="1000"  />

      
      <glyph glyph-name="uni5b" unicode="&#x5b;" d="M182-90Q182-100 170-100L54-100Q38-100 38-87L38 683Q38 695 53 695L172 695Q182 695 182 687L182 660Q182 649 170 649L91 649L91-54L172-55Q182-55 182-62L182-90L182-90Z"  horiz-adv-x="237" vert-adv-y="1000"  />

      
      <glyph glyph-name="uni5c" unicode="&#x5c;" d="M226-53Q228-58 227-62.50Q226-67 219-67L196-67Q188-67 185-59L9 680Q6 692 14 692L37 692Q44 693 46 691Q48 689 50 683L226-53L226-53Z"  horiz-adv-x="240" vert-adv-y="1000"  />

      
      <glyph glyph-name="uni5d" unicode="&#x5d;" d="M198-89Q198-100 182-100L64-100Q52-100 52-90L52-62Q52-55 62-55L145-54L145 649L64 649Q52 649 52 660L52 687Q52 695 62 695L183 695Q198 695 198 683L198-89L198-89Z"  horiz-adv-x="235" vert-adv-y="1000"  />

      
      <glyph glyph-name="uni5e" unicode="&#x5e;" d="M458 376Q447 367 442 375L256 618L68 378Q63 372 58.50 372.50Q54 373 49 377L35 387Q30 391 30.50 393Q31 395 34 400L214 651Q219 658 224.50 660Q230 662 240 662L271 662Q285 662 290.50 659.50Q296 657 300 652L472 402Q479 390 473 387L458 376Z"  horiz-adv-x="501" vert-adv-y="1000"  />

      
      <glyph glyph-name="uni5f" unicode="&#x5f;" d="M0-126Q-11-126-11-118L-11-101Q-11-94-8-92.50Q-5-91 1-91L499-91Q505-91 508-92.50Q511-94 511-101L511-118Q511-126 501-126L0-126L0-126Z"  horiz-adv-x="500" vert-adv-y="1000"  />

      
      <glyph glyph-name="uni60" unicode="&#x60;" d="M266 543Q260 541 258 540.50Q256 540 253 544L167 669Q165 672 164 676Q163 680 170 683L203 698Q214 704 218 696L288 561Q293 552 286 549L266 543Z"  horiz-adv-x="485" vert-adv-y="1000"  />

      
      <glyph glyph-name="uni61" unicode="&#x61;" d="M377 57Q355 44 333 32.50Q311 21 286 12Q261 3 233-2.50Q205-8 172-8Q104-8 74 25.50Q44 59 44 125Q44 210 86.50 250Q129 290 223 290L378 290L378 335Q378 365 372.50 386Q367 407 352.50 420.50Q338 434 313 440.50Q288 447 250 447Q218 447 179 444Q140 441 105 437Q91 436 90 444L86 462Q86 472 97 477Q113 483 134 487Q155 491 177 493.50Q199 496 219.50 497Q240 498 256 498Q312 498 346.50 487.50Q381 477 400.50 455.50Q420 434 427 401.50Q434 369 434 326L434 80Q434 66 436 58.50Q438 51 442.50 47Q447 43 455 41.50Q463 40 476 39Q487 39 487 30L487 10Q487 5 484 2Q481-1 472-3Q423-8 402 4Q381 16 378 57L377 57M378 242L216 242Q190 242 169 237Q148 232 133 219Q118 206 110 184Q102 162 102 128Q102 78 121.50 60Q141 42 192 42Q214 42 241 49Q268 56 294 66Q320 76 342 86.50Q364 97 378 105L378 242Z"  horiz-adv-x="505" vert-adv-y="1000"  />

      
      <glyph glyph-name="uni62" unicode="&#x62;" d="M445 246Q445 181 436 133.50Q427 86 405 54Q383 22 346 6.50Q309-9 254-9Q190-9 149.50-2.50Q109 4 77 12Q58 17 54.50 26.50Q51 36 51 47L51 685Q51 694 53.50 697Q56 700 64 700L92 700Q100 700 103.50 697Q107 694 107 685L107 466L109 464Q161 485 194.50 491Q228 497 258 497Q314 497 350 480Q386 463 407 430.50Q428 398 436.50 351.50Q445 305 445 246M386 236Q386 294 380.50 334.50Q375 375 361.50 400Q348 425 324 436Q300 447 263 447Q228 447 190 440.50Q152 434 108 421L108 56Q133 51 170 48Q207 45 251 45Q284 45 309 51Q334 57 351 77Q368 97 377 134.50Q386 172 386 236Z"  horiz-adv-x="489" vert-adv-y="1000"  />

      
      <glyph glyph-name="uni63" unicode="&#x63;" d="M235 497Q248 497 267 496Q286 495 306 492.50Q326 490 345 486Q364 482 379 476Q387 473 387.50 468Q388 463 388 459L384 442Q383 437 378 436Q373 435 366 436Q353 437 336.50 439Q320 441 302 442.50Q284 444 266.50 445Q249 446 234 446Q195 446 169.50 436.50Q144 427 129.50 404Q115 381 109.50 343Q104 305 104 248Q104 189 110 149.50Q116 110 130.50 86.50Q145 63 170 53Q195 43 234 43Q244 43 261 44Q278 45 297.50 46.50Q317 48 336.50 49.50Q356 51 372 53Q384 53 385 44L388 31Q389 26 387 21.50Q385 17 377 13Q353 3 313-2Q273-7 235-7Q173-7 135.50 12Q98 31 78 65Q58 99 51.50 145.50Q45 192 45 247Q45 296 51.50 341.50Q58 387 78 421.50Q98 456 135.50 476.50Q173 497 235 497Z"  horiz-adv-x="409" vert-adv-y="1000"  />

      
      <glyph glyph-name="uni64" unicode="&#x64;" d="M379 421Q334 435 296.50 441Q259 447 224 447Q187 447 163 436Q139 425 125.50 400Q112 375 106.50 334Q101 293 101 233Q101 174 106 137Q111 100 122.50 78.50Q134 57 153.50 49Q173 41 202 41Q222 41 248 48.50Q274 56 299.50 66Q325 76 346.50 87Q368 98 379 104L379 421M380 684Q380 694 383.50 697Q387 700 395 700L421 700Q434 700 434 684L434 15Q434 6 431.50 3Q429 0 421 0L395 0Q387 0 383.50 3Q380 6 380 15L380 61Q370 55 350.50 43Q331 31 306 20Q281 9 252 0.50Q223-8 195-8Q151-8 121.50 7Q92 22 74.50 52.50Q57 83 50 129Q43 175 43 236Q43 300 51 348.50Q59 397 80 430Q101 463 137 480Q173 497 229 497Q259 497 296 490.50Q333 484 378 464L380 465L380 684Z"  horiz-adv-x="489" vert-adv-y="1000"  />

      
      <glyph glyph-name="uni65" unicode="&#x65;" d="M243 497Q306 497 344.50 478Q383 459 405 428.50Q427 398 434.50 358.50Q442 319 442 278Q442 255 433.50 242Q425 229 401 229L104 229Q106 179 111.50 143.50Q117 108 131.50 86Q146 64 172.50 54Q199 44 243 44Q258 44 279 45.50Q300 47 322 49.50Q344 52 364.50 54Q385 56 398 57Q408 58 411 49L414 33Q417 22 403 16Q391 12 371 7.50Q351 3 328-0.50Q305-4 281.50-6Q258-8 239-8Q172-8 133.50 13Q95 34 75.50 69Q56 104 51 150.50Q46 197 46 247Q46 290 51 334.50Q56 379 75.50 415Q95 451 134.50 474Q174 497 243 497M243 447Q197 447 170.50 435.50Q144 424 129.50 402Q115 380 110.50 348Q106 316 104 275L384 275Q383 306 379 337Q375 368 360.50 392.50Q346 417 318.50 432Q291 447 243 447Z"  horiz-adv-x="482" vert-adv-y="1000"  />

      
      <glyph glyph-name="uni66" unicode="&#x66;" d="M99 487L99 564Q99 633 133.50 670Q168 707 242 707Q256 707 287.50 703.50Q319 700 350 688Q363 684 360 672L357 656Q353 645 337 648Q308 653 285.50 654.50Q263 656 252 656Q202 656 177.50 634.50Q153 613 153 562L153 487L286 487Q298 487 298 476L298 453Q298 442 286 442L153 442L153 12Q153 0 143 0L111 0Q98 0 98 12L98 442L46 442Q34 442 34 453L34 475Q34 487 46 487L99 487Z"  horiz-adv-x="338" vert-adv-y="1000"  />

      
      <glyph glyph-name="uni67" unicode="&#x67;" d="M440-11Q440-47 435-79Q430-111 412.50-134.50Q395-158 361-171.50Q327-185 268-185Q249-185 227-184Q205-183 183-180.50Q161-178 141-174Q121-170 106-164Q95-160 94.50-155Q94-150 96-146L99-132Q100-123 115-126Q150-131 190.50-132.50Q231-134 261-134Q302-134 327-127.50Q352-121 365-107.50Q378-94 381.50-73Q385-52 385-24L384 22L382 24Q330 3 297-3Q264-9 234-9Q178-9 142 8Q106 25 85 57Q64 89 55.50 136Q47 183 47 242Q47 305 56.50 352.50Q66 400 88.50 432.50Q111 465 147.50 481Q184 497 238 497Q302 497 342.50 490.50Q383 484 415 476Q434 471 437.50 461.50Q441 452 441 441L440-11M384 432Q359 437 322 441Q285 445 241 445Q212 445 187 438.50Q162 432 144 412Q126 392 116 353.50Q106 315 106 251Q106 193 111.50 153Q117 113 131.50 88Q146 63 170 51.50Q194 40 231 40Q260 40 300 47Q340 54 384 67L384 432Z"  horiz-adv-x="489" vert-adv-y="1000"  />

      
      <glyph glyph-name="uni68" unicode="&#x68;" d="M378 307Q378 349 374.50 376Q371 403 361.50 419Q352 435 334 441.50Q316 448 287 448Q266 448 239.50 440.50Q213 433 187.50 422.50Q162 412 140 401.50Q118 391 107 385L107 15Q107 0 93 0L67 0Q59 0 56.50 3Q54 6 54 15L54 684Q54 700 67 700L93 700Q101 700 104.50 697Q108 694 108 684L108 428Q118 435 137.50 446.50Q157 458 182 469Q207 480 236 488.50Q265 497 294 497Q340 497 367 484.50Q394 472 408.50 448.50Q423 425 427.50 392Q432 359 432 318L432 15Q432 0 417 0L391 0Q383 0 380.50 3Q378 6 378 15L378 307L378 307Z"  horiz-adv-x="482" vert-adv-y="1000"  />

      
      <glyph glyph-name="uni69" unicode="&#x69;" d="M77 472Q77 481 80.50 484Q84 487 92 487L117 487Q125 487 127.50 484Q130 481 130 472L130 15Q130 6 127.50 3Q125 0 117 0L92 0Q84 0 80.50 3Q77 6 77 15L77 472M138 607Q138 592 132 581Q126 570 104 570Q81 570 75.50 581Q70 592 70 607Q70 622 76.50 632Q83 642 104 642Q125 642 131.50 632.50Q138 623 138 607Z"  horiz-adv-x="208" vert-adv-y="1000"  />

      
      <glyph glyph-name="uni6a" unicode="&#x6a;" d="M146-64Q146-90 141-115.50Q136-141 119-161Q102-181 69.50-192.50Q37-204-19-202Q-21-202-27-199.50Q-33-197-33-188L-34-172Q-35-164-31.50-161.50Q-28-159-22-158Q14-154 36-146.50Q58-139 70-127.50Q82-116 86-99.50Q90-83 90-60L90 476Q90 487 102 487L134 487Q146 487 146 476L146-64M152 617Q152 602 146 591.50Q140 581 118 581Q95 581 89.50 592Q84 603 84 617Q84 632 90.50 642Q97 652 118 652Q139 652 145.50 642.50Q152 633 152 617Z"  horiz-adv-x="232" vert-adv-y="1000"  />

      
      <glyph glyph-name="uni6b" unicode="&#x6b;" d="M225 304L411 12Q414 7 412.50 3.50Q411 0 404 0L366 0Q354 0 347 11L187 265L106 184L106 11Q106 0 95 0L63 0Q51 0 51 11L51 692Q51 703 63 703L95 703Q106 703 106 692L105 254L106 254L183 332L330 478Q335 483 337.50 485.50Q340 488 348 488L388 488Q396 488 396.50 483Q397 478 392 473L225 304Z"  horiz-adv-x="418" vert-adv-y="1000"  />

      
      <glyph glyph-name="uni6c" unicode="&#x6c;" d="M195 16Q196 6 186 2Q174-3 162-4.50Q150-6 139-6Q103-6 89 11Q75 28 75 61L75 691Q75 703 87 703L119 703Q125 703 127.50 701Q130 699 130 691L130 82Q130 69 132 62Q134 55 139 51.50Q144 48 153.50 47Q163 46 178 46Q191 46 192 39L195 16Z"  horiz-adv-x="222" vert-adv-y="1000"  />

      
      <glyph glyph-name="uni6d" unicode="&#x6d;" d="M670 316Q670 352 667 377Q664 402 654.50 418Q645 434 628 441Q611 448 583 448Q564 448 540.50 441Q517 434 493.50 424.50Q470 415 448 404Q426 393 411 384Q413 373 414 357.50Q415 342 415 327L415 15Q415 0 400 0L371 0Q363 0 362 3Q361 6 361 15L361 327Q361 351 358.50 373Q356 395 347 411.50Q338 428 321 438Q304 448 275 448Q257 448 236.50 442.50Q216 437 193.50 428.50Q171 420 148.50 408.50Q126 397 104 385L104 15Q104 0 90 0L64 0Q56 0 53.50 3Q51 6 51 15L51 472Q51 487 64 487L89 487Q97 487 100.50 484Q104 481 104 472L104 430Q119 440 138 451.50Q157 463 179.50 473Q202 483 227 490Q252 497 278 497Q332 497 361.50 478Q391 459 403 422Q443 452 490 474.50Q537 497 588 497Q631 497 657.50 485.50Q684 474 699 452Q714 430 719.50 398.50Q725 367 725 327L725 15Q725 0 710 0L683 0Q675 0 672.50 3Q670 6 670 15L670 316L670 316Z"  horiz-adv-x="775" vert-adv-y="1000"  />

      
      <glyph glyph-name="uni6e" unicode="&#x6e;" d="M374 307Q374 349 370.50 376Q367 403 357.50 419Q348 435 330 441.50Q312 448 283 448Q263 448 236.50 440.50Q210 433 184 422.50Q158 412 136.50 401.50Q115 391 104 385L104 15Q104 0 90 0L64 0Q56 0 53.50 3Q51 6 51 15L51 472Q51 481 53.50 484Q56 487 64 487L90 487Q98 487 101 484.50Q104 482 104 472L104 428Q114 435 133.50 446.50Q153 458 178.50 469Q204 480 233 488.50Q262 497 291 497Q337 497 364 484.50Q391 472 405.50 448.50Q420 425 424.50 392Q429 359 429 318L429 15Q429 0 414 0L387 0Q379 0 376.50 3Q374 6 374 15L374 307L374 307Z"  horiz-adv-x="479" vert-adv-y="1000"  />

      
      <glyph glyph-name="uni6f" unicode="&#x6f;" d="M240-8Q171-8 132 15Q93 38 73.50 75.50Q54 113 49.50 159Q45 205 45 252Q45 290 50.50 333Q56 376 76.50 412.50Q97 449 135.50 473Q174 497 240 497Q307 497 347 476.50Q387 456 408 421.50Q429 387 435.50 343Q442 299 442 252Q442 206 437 159.50Q432 113 412 76Q392 39 351.50 15.50Q311-8 240-8M240 448Q196 448 169 434.50Q142 421 127 394.50Q112 368 106.50 330.50Q101 293 101 245Q101 197 106.50 159.50Q112 122 127 95.50Q142 69 169 55.50Q196 42 240 42Q285 42 313.50 55Q342 68 358 94Q374 120 380 157.50Q386 195 386 245Q386 294 380.50 331.50Q375 369 359 395Q343 421 314.50 434.50Q286 448 240 448Z"  horiz-adv-x="487" vert-adv-y="1000"  />

      
      <glyph glyph-name="uni70" unicode="&#x70;" d="M116 68Q161 54 198.50 48Q236 42 272 42Q309 42 332.50 53Q356 64 370 88.50Q384 113 389.50 154Q395 195 395 255Q395 314 390 351.50Q385 389 373.50 410.50Q362 432 342.50 440Q323 448 294 448Q273 448 247.50 440.50Q222 433 197 423Q172 413 150.50 402.50Q129 392 116 385L116 68M116-160Q116-170 112.50-173Q109-176 101-176L74-176Q61-176 61-160L61 472Q61 487 74 487L101 487Q109 487 112.50 484Q116 481 116 472L116 428Q126 435 145.50 446.50Q165 458 190 469Q215 480 243.50 488.50Q272 497 301 497Q345 497 374.50 482Q404 467 421.50 436.50Q439 406 446 360Q453 314 453 253Q453 189 444.50 140Q436 91 415 58Q394 25 357.50 8.50Q321-8 266-8Q237-8 199.50-1.50Q162 5 117 25L116 23L116-160Z"  horiz-adv-x="498" vert-adv-y="1000"  />

      
      <glyph glyph-name="uni71" unicode="&#x71;" d="M45 242Q45 305 54.50 352.50Q64 400 86.50 432.50Q109 465 145.50 481Q182 497 236 497Q300 497 340.50 490.50Q381 484 413 476Q432 471 435.50 461.50Q439 452 439 441L439-160Q439-176 426-176L398-176Q390-176 386.50-173Q383-170 383-160L383 22L381 24Q329 3 295.50-3Q262-9 232-9Q176-9 140 8Q104 25 83 57Q62 89 53.50 136Q45 183 45 242M104 251Q104 193 109.50 153Q115 113 129.50 88Q144 63 168 51.50Q192 40 229 40Q258 40 298 47Q338 54 382 67L382 432Q357 437 320 441Q283 445 239 445Q210 445 185 438.50Q160 432 142 412Q124 392 114 353.50Q104 315 104 251Z"  horiz-adv-x="489" vert-adv-y="1000"  />

      
      <glyph glyph-name="uni72" unicode="&#x72;" d="M257 437Q237 433 217.50 426Q198 419 180 411.50Q162 404 147.50 397Q133 390 125 386L125 15Q125 0 110 0L83 0Q75 0 72.50 3Q70 6 70 15L70 472Q70 487 83 487L109 487Q117 487 120.50 484Q124 481 124 472L124 428Q131 433 145 442Q159 451 176.50 460Q194 469 213.50 478Q233 487 253 492Q258 494 259.50 492Q261 490 262 485L266 451Q267 440 257 437Z"  horiz-adv-x="278" vert-adv-y="1000"  />

      
      <glyph glyph-name="uni73" unicode="&#x73;" d="M373 136Q373 96 359.50 68.50Q346 41 322 24.50Q298 8 266 0.50Q234-7 198-7Q159-7 117.50-2Q76 3 52 13Q44 17 42.50 21.50Q41 26 42 31L45 44Q46 53 57 53Q73 51 93.50 49Q114 47 134 45.50Q154 44 171.50 42.50Q189 41 199 41Q258 41 286.50 60Q315 79 315 127Q315 153 310.50 170Q306 187 294 197.50Q282 208 261 214.50Q240 221 207 226Q171 232 141 239.50Q111 247 89 261.50Q67 276 54.50 299.50Q42 323 42 359Q42 426 84.50 461.50Q127 497 207 497Q219 497 237 496Q255 495 275 492.50Q295 490 314 486.50Q333 483 347 477Q355 474 355.50 469Q356 464 356 460L352 442Q351 437 346 436Q341 435 334 436Q308 438 275 442Q242 446 206 446Q143 446 120.50 426Q98 406 98 361Q98 337 104.50 323Q111 309 124.50 300.50Q138 292 159.50 287.50Q181 283 211 278Q245 272 275 264.50Q305 257 326.50 242Q348 227 360.50 201.50Q373 176 373 136Z"  horiz-adv-x="414" vert-adv-y="1000"  />

      
      <glyph glyph-name="uni74" unicode="&#x74;" d="M303 22Q304 16 302 13Q300 10 296 8Q289 5 277 2Q265-1 251-3.50Q237-6 222-7Q207-8 194-8Q138-8 118.50 17.50Q99 43 99 91L99 442L41 442Q29 442 29 453L29 475Q29 487 41 487L100 487L100 598Q100 609 111 612L140 621Q149 624 151.50 621Q154 618 154 610L154 487L264 487Q272 487 273.50 484.50Q275 482 275 476L275 453Q275 447 273.50 444.50Q272 442 264 442L154 442L154 108Q154 91 156 79Q158 67 165 59Q172 51 185.50 47Q199 43 221 43Q226 43 234.50 43.50Q243 44 252.50 44.50Q262 45 270.50 45.50Q279 46 285 47Q293 48 295.50 46Q298 44 300 38L303 22Z"  horiz-adv-x="309" vert-adv-y="1000"  />

      
      <glyph glyph-name="uni75" unicode="&#x75;" d="M110 180Q110 138 113.50 111Q117 84 127.50 68Q138 52 156.50 45.50Q175 39 204 39Q224 39 250.50 46.50Q277 54 303 64.50Q329 75 350.50 85.50Q372 96 383 102L383 472Q383 487 397 487L423 487Q431 487 433.50 484Q436 481 436 472L436 15Q436 6 433.50 3Q431 0 423 0L397 0Q389 0 385.50 3Q382 6 382 15L382 60Q372 53 353 41.50Q334 30 308.50 18.50Q283 7 254-1Q225-9 196-9Q150-9 122.50 3.50Q95 16 80 39Q65 62 60 95.50Q55 129 55 170L55 472Q55 487 70 487L97 487Q105 487 107.50 484Q110 481 110 472L110 180L110 180Z"  horiz-adv-x="491" vert-adv-y="1000"  />

      
      <glyph glyph-name="uni76" unicode="&#x76;" d="M256 9Q252 0 244 0L208 0Q202 0 199.50 2Q197 4 195 9L23 474Q21 479 22 482.50Q23 486 29 486L66 486Q74 486 77 475L196 149Q203 130 209 112Q214 97 218.50 82.50Q223 68 225 61Q227 68 232 82.50Q237 97 242 113Q248 131 255 152L372 478Q374 483 375.50 485Q377 487 382 487L421 487Q427 487 427.50 484Q428 481 426 476L256 9Z"  horiz-adv-x="447" vert-adv-y="1000"  />

      
      <glyph glyph-name="uni77" unicode="&#x77;" d="M500 9Q496 0 487 0L452 0Q442 0 439 9L362 243L336 326L308 237L235 9Q231 0 223 0L188 0Q178 0 175 9L22 474Q20 479 21 482.50Q22 486 28 486L65 486Q73 486 76 475L172 173Q180 146 187 123Q193 103 198 85Q203 67 205 60Q207 67 212.50 85.50Q218 104 224 124Q231 147 239 175L309 402L286 474Q284 479 285 482.50Q286 486 292 486L329 486Q337 486 340 475L433 182Q441 153 449 128Q455 107 461 87Q467 67 469 60Q471 67 477 86.50Q483 106 489 128Q496 153 505 183L597 478Q599 483 600.50 485Q602 487 607 487L646 487Q652 487 652.50 484Q653 481 651 476L500 9Z"  horiz-adv-x="672" vert-adv-y="1000"  />

      
      <glyph glyph-name="uni78" unicode="&#x78;" d="M385 12Q387 8 385.50 4Q384 0 378 0L338 0Q333 0 331 3Q329 6 326 10L198 203L71 10Q68 6 66 3Q64 0 59 0L18 0Q12 0 10.50 4Q9 8 12 12L168 249L19 475Q16 480 17.50 483.50Q19 487 25 487L65 487Q70 487 72 484.50Q74 482 77 477L198 294L320 477Q322 482 324 484.50Q326 487 332 487L372 487Q378 487 379.50 483.50Q381 480 378 475L228 249L385 12L385 12Z"  horiz-adv-x="402" vert-adv-y="1000"  />

      
      <glyph glyph-name="uni79" unicode="&#x79;" d="M196-164Q194-170 190-173Q186-176 178-176L149-176Q138-176 141-164L195-8L19 474Q17 479 18 482.50Q19 486 25 486L61 486Q69 486 72 475L205 110L223 55L240 113L362 478Q364 483 365.50 485Q367 487 372 487L411 487Q417 487 417.50 484Q418 481 416 476L196-164Z"  horiz-adv-x="438" vert-adv-y="1000"  />

      
      <glyph glyph-name="uni7a" unicode="&#x7a;" d="M382 454Q382 443 378.50 438Q375 433 372 428L97 49L366 49Q382 49 382 36L382 15Q382 7 379 3.50Q376 0 366 0L42 0Q31 0 31 10L31 28Q31 38 33 43.50Q35 49 40 55L321 440L62 440Q53 440 50 443.50Q47 447 47 455L47 474Q47 482 50 484.50Q53 487 62 487L366 487Q374 487 378 485.50Q382 484 382 476L382 454L382 454Z"  horiz-adv-x="417" vert-adv-y="1000"  />

      
      <glyph glyph-name="uni7b" unicode="&#x7b;" d="M82 172Q82 190 81 207.50Q80 225 74.50 239.50Q69 254 58.50 265Q48 276 29 281Q19 284 19 292L19 306Q19 314 29 317Q48 323 58.50 334Q69 345 74.50 360Q80 375 81 392Q82 409 82 427L83 620Q83 634 85 649Q87 664 94 676Q101 688 115 695.50Q129 703 152 703Q167 703 178.50 701Q190 699 196 698Q206 697 206 685L206 670Q206 663 203 661.50Q200 660 195 660L167 658Q146 656 140 647.50Q134 639 134 621L134 423Q134 405 132 385.50Q130 366 124.50 349.50Q119 333 109 319.50Q99 306 82 300L82 298Q100 287 110 274.50Q120 262 125 247.50Q130 233 131.50 215.50Q133 198 133 176L133-33Q133-50 139.50-58.50Q146-67 167-69L195-71Q200-72 203-73Q206-74 206-81L206-97Q206-109 196-110Q190-111 178.50-113Q167-115 152-115Q129-115 115-106.50Q101-98 94-84.50Q87-71 85-55Q83-39 83-25L82 172L82 172Z"  horiz-adv-x="242" vert-adv-y="1000"  />

      
      <glyph glyph-name="uni7c" unicode="&#x7c;" d="M134-101Q134-110 131.50-113Q129-116 121-116L101-116Q93-116 89.50-113Q86-110 86-101L86 681Q86 690 89.50 693Q93 696 101 696L121 696Q129 696 131.50 693Q134 690 134 681L134-101L134-101Z"  horiz-adv-x="221" vert-adv-y="1000"  />

      
      <glyph glyph-name="uni7d" unicode="&#x7d;" d="M144-25Q144-39 142-55Q140-71 133-84.50Q126-98 112-106.50Q98-115 75-115Q60-115 48.50-113Q37-111 31-110Q21-109 21-97L21-81Q21-74 24-73Q27-72 32-71L60-69Q81-67 87.50-58.50Q94-50 94-33L94 176Q94 198 95.50 215.50Q97 233 102 247.50Q107 262 117 274.50Q127 287 145 298L145 300Q128 306 118 319.50Q108 333 102.50 349.50Q97 366 95 385.50Q93 405 93 423L93 621Q93 639 87 647.50Q81 656 60 658L32 660Q27 660 24 661.50Q21 663 21 670L21 685Q21 697 31 698Q37 699 48.50 701Q60 703 75 703Q98 703 112 695.50Q126 688 133 676Q140 664 142 649Q144 634 144 620L145 427Q145 409 146 392Q147 375 152.50 360Q158 345 168.50 334Q179 323 199 317Q208 314 208 306L208 292Q208 285 199 281Q179 276 168.50 265Q158 254 152.50 239.50Q147 225 146 207.50Q145 190 145 172L144-25Z"  horiz-adv-x="242" vert-adv-y="1000"  />

      
      <glyph glyph-name="uni7e" unicode="&#x7e;" d="M363 244Q340 244 315.50 254Q291 264 266 276Q241 288 218 298Q195 308 175 308Q152 308 137 296.50Q122 285 103 262Q98 256 95.50 254Q93 252 85 256L70 265Q62 270 63.50 274.50Q65 279 67 283Q89 324 118 340Q147 356 177 356Q201 356 226.50 346Q252 336 277 324.50Q302 313 325 303Q348 293 367 293Q392 293 406.50 305Q421 317 435 336Q439 341 442.50 345Q446 349 454 344L469 335Q477 330 476 326Q475 322 474 320Q453 282 426 263Q399 244 363 244Z"  horiz-adv-x="540" vert-adv-y="1000"  />

      
      <glyph glyph-name="uni0385" unicode="&#x0385;" d="M218 549Q211 552 216 561L286 696Q290 704 301 698L334 683Q341 680 340 676Q339 672 337 669L251 544Q248 540 246 540.50Q244 541 238 543L218 549M197 605Q197 591 191.50 580.50Q186 570 165 570Q144 570 138.50 580.50Q133 591 133 605Q133 619 139 628.50Q145 638 165 638Q185 638 191 629Q197 620 197 605M411 605Q411 591 405 580.50Q399 570 379 570Q357 570 352 580.50Q347 591 347 605Q347 619 353 628.50Q359 638 379 638Q399 638 405 629Q411 620 411 605Z"  horiz-adv-x="485" vert-adv-y="1000"  />

      
      <glyph glyph-name="uni0384" unicode="&#x0384;" d="M266 551Q262 545 255 549L234 557Q231 559 230 561Q229 563 231 568L300 704Q303 711 313 707L350 691Q357 687 353 679L266 551Z"  horiz-adv-x="485" vert-adv-y="1000"  />

      
      <glyph glyph-name="unia8" unicode="&#xa8;" d="M199 605Q199 591 193.50 580.50Q188 570 167 570Q146 570 140.50 580.50Q135 591 135 605Q135 619 141 628.50Q147 638 167 638Q187 638 193 629Q199 620 199 605M374 605Q374 591 368 580.50Q362 570 342 570Q320 570 315 580.50Q310 591 310 605Q310 619 316 628.50Q322 638 342 638Q362 638 368 629Q374 620 374 605Z"  horiz-adv-x="485" vert-adv-y="1000"  />

      
      <glyph glyph-name="unia3" unicode="&#xa3;" d="M77 52Q99 62 111 81.50Q123 101 128 125Q133 149 134 174.50Q135 200 135 224L135 302L88 302Q79 302 76 305.50Q73 309 73 317L73 334Q73 342 76 344.50Q79 347 88 347L135 347L135 502Q135 540 149 571Q163 602 186.50 624Q210 646 242 658Q274 670 310 670Q325 670 345 668.50Q365 667 386 664Q407 661 428.50 656Q450 651 468 644Q473 642 474 638Q475 634 474 629L470 613Q469 609 467 605.50Q465 602 457 603Q438 605 421.50 607.50Q405 610 388 612.50Q371 615 352.50 616.50Q334 618 310 618Q255 618 222.50 587Q190 556 190 498L191 347L385 347Q394 347 397 344.50Q400 342 400 334L400 317Q400 309 397 305.50Q394 302 385 302L191 302L191 224Q191 199 189.50 172Q188 145 183.50 121Q179 97 170.50 78.50Q162 60 149 52L461 52Q470 52 473 48.50Q476 45 476 37L476 10Q476 2 473 1Q470 0 461 0L74 0Q63 0 63 10L63 32Q63 46 77 52Z"  horiz-adv-x="540" vert-adv-y="1000"  />

      
      <glyph glyph-name="uni2122" unicode="&#x2122;" d="M448 401Q444 391 434 391L422 391Q416 391 413 393.50Q410 396 408 401L318 587L318 373Q319 364 316 361Q313 358 305 358L292 358Q284 358 280.50 361Q277 364 277 373L276 653Q276 658 278 660.50Q280 663 288 663L310 663Q318 663 321.50 660Q325 657 328 651L429 444L529 651Q532 657 535.50 660Q539 663 547 663L569 663Q577 663 579 660.50Q581 658 581 653L581 373Q581 364 577.50 361Q574 358 566 358L552 358Q544 358 541.50 361Q539 364 539 373L539 587L448 401M41 621Q32 621 29 624.50Q26 628 26 636L26 650Q26 657 29 660Q32 663 41 663L240 663Q249 663 252 660Q255 657 255 650L255 636Q255 628 252 624.50Q249 621 240 621L162 621L162 373Q162 364 159.50 361Q157 358 149 358L135 358Q127 358 123.50 361Q120 364 120 373L120 621L41 621Z"  horiz-adv-x="626" vert-adv-y="1000"  />

      
      <glyph glyph-name="uni2022" unicode="&#x2022;" d="M221 255Q221 237 214 221Q207 205 195 193Q183 181 167 174Q151 167 133 167Q115 167 99.50 174Q84 181 72 193Q60 205 53 221Q46 237 46 255Q46 273 53 289.50Q60 306 72 318.50Q84 331 99.50 338Q115 345 133 345Q151 345 167 338Q183 331 195 318.50Q207 306 214 289.50Q221 273 221 255Z"  horiz-adv-x="268" vert-adv-y="1000"  />

      
      <glyph glyph-name="uni2020" unicode="&#x2020;" d="M444 449Q444 441 441 438Q438 435 429 435L261 435L261-34Q261-43 258.50-46Q256-49 248-49L224-49Q216-49 212.50-46Q209-43 209-34L209 435L40 435Q31 435 28 438Q25 441 25 449L25 473Q25 481 28 483.50Q31 486 40 486L209 486L209 676Q209 685 212.50 688Q216 691 224 691L248 691Q256 691 258.50 688Q261 685 261 676L261 486L429 486Q438 486 441 483.50Q444 481 444 473L444 449L444 449Z"  horiz-adv-x="467" vert-adv-y="1000"  />

      
      <glyph glyph-name="uni0393" unicode="&#x0393;" d="M437 621Q437 610 425 610L132 610L132 12Q132 0 121 0L86 0Q74 0 74 12L74 651Q74 663 86 663L426 663Q437 663 437 652L437 621L437 621Z"  horiz-adv-x="451" vert-adv-y="1000"  />

      
      <glyph glyph-name="uni0394" unicode="&#x0394;" d="M514 10Q515 8 515 5Q515 0 508 0L26 0Q18 0 18 5Q18 9 19 11L230 651Q234 662 245 662L285 662Q293 662 296 659Q299 656 301 650L514 10M438 51Q429 80 414.50 126Q400 172 383 225.50Q366 279 347.50 337Q329 395 312 448Q298 493 286 531Q274 569 266 597L263 597L236 504L91 51L438 51Z"  horiz-adv-x="535" vert-adv-y="1000"  />

      
      <glyph glyph-name="uni2206" unicode="&#x2206;" d="M514 10Q515 8 515 5Q515 0 508 0L26 0Q18 0 18 5Q18 9 19 11L230 651Q234 662 245 662L285 662Q293 662 296 659Q299 656 301 650L514 10M438 51Q429 80 414.50 126Q400 172 383 225.50Q366 279 347.50 337Q329 395 312 448Q298 493 286 531Q274 569 266 597L263 597L236 504L91 51L438 51Z"  horiz-adv-x="535" vert-adv-y="1000"  />

      
      <glyph glyph-name="uni0398" unicode="&#x0398;" d="M569 341Q569 280 561.50 218Q554 156 527.50 105.50Q501 55 450 23Q399-9 312-9Q226-9 176.50 23Q127 55 101.50 105Q76 155 69 217.50Q62 280 62 341Q62 389 70 446.50Q78 504 104 554Q130 604 179.50 637.50Q229 671 312 671Q395 671 445.50 642.50Q496 614 523.50 567.50Q551 521 560 462Q569 403 569 341M511 331Q511 398 502 451.50Q493 505 470 542.50Q447 580 408.50 600Q370 620 312 620Q256 620 219.50 599Q183 578 161 539.50Q139 501 130 448Q121 395 121 331Q121 269 129 216.50Q137 164 158.50 125.50Q180 87 217 65Q254 43 312 43Q369 43 407.50 63.50Q446 84 469 121.50Q492 159 501.50 212.50Q511 266 511 331M458 329Q458 319 447 319L189 319Q178 319 178 329L178 362Q178 371 189 371L447 371Q458 371 458 362L458 329Z"  horiz-adv-x="632" vert-adv-y="1000"  />

      
      <glyph glyph-name="uni039B" unicode="&#x039B;" d="M514 10Q515 8 515 5Q515 0 508 0L466 0Q456 0 453 9Q421 108 391 200Q378 239 364.50 281.50Q351 324 338.50 364.50Q326 405 314.50 442Q303 479 294 508Q280 551 274 570Q268 589 266 597L263 597L234 498Q231 488 218.50 450Q206 412 189.50 361Q173 310 154.50 252.50Q136 195 119.50 144Q103 93 91 56.50Q79 20 76 11Q74 3 71 1.50Q68 0 62 0L26 0Q18 0 18 5Q18 9 19 11L230 651Q234 662 245 662L285 662Q293 662 296 659Q299 656 301 650L514 10L514 10Z"  horiz-adv-x="535" vert-adv-y="1000"  />

      
      <glyph glyph-name="uni039E" unicode="&#x039E;" d="M475 11Q475 0 463 0L37 0Q24 0 24 11L24 41Q24 52 36 52L221 52L221 319L72 319Q61 319 61 330L61 360Q61 371 72 371L221 371L221 610L42 610Q30 610 30 621L30 652Q30 663 42 663L458 663Q469 663 469 652L469 621Q469 615 467 612.50Q465 610 457 610L279 610L279 371L427 371Q439 371 439 360L439 330Q439 319 427 319L279 319L279 52L463 52Q475 52 475 41L475 11L475 11Z"  horiz-adv-x="503" vert-adv-y="1000"  />

      
      <glyph glyph-name="uni03A0" unicode="&#x03A0;" d="M512 12Q512 0 501 0L467 0Q455 0 455 12L455 610L129 610L129 12Q129 0 119 0L84 0Q73 0 73 12L73 651Q73 663 84 663L501 663Q512 663 512 651L512 12L512 12Z"  horiz-adv-x="583" vert-adv-y="1000"  />

      
      <glyph glyph-name="unidf" unicode="&#xdf;" d="M441 203Q441 157 431 118.50Q421 80 399 52Q377 24 342.50 8.50Q308-7 259-7Q248-7 232-6.50Q216-6 199-1Q186 3 188 13L192 33Q194 39 196.50 41.50Q199 44 211 42Q220 41 230 40.50Q240 40 248 40Q322 40 352 83Q382 126 382 206Q382 250 375.50 281.50Q369 313 352.50 333.50Q336 354 309 363.50Q282 373 240 373Q229 373 229 382L229 405Q229 415 241 418Q266 423 285 436Q304 449 317 466.50Q330 484 337 505Q344 526 344 547Q344 605 311.50 632.50Q279 660 226 660Q172 660 138 624Q104 588 104 521L104 5Q104-7 93-7L60-7Q49-7 49 5L49 514Q49 567 65.50 604.50Q82 642 108 665.50Q134 689 165 699.50Q196 710 225 710Q263 710 295.50 700Q328 690 351.50 670Q375 650 388.50 619Q402 588 402 546Q402 533 398 514.50Q394 496 385.50 477Q377 458 362.50 440.50Q348 423 327 411Q365 402 387.50 382.50Q410 363 422 336Q434 309 437.50 275Q441 241 441 203Z"  horiz-adv-x="487" vert-adv-y="1000"  />

      
      <glyph glyph-name="uniae" unicode="&#xae;" d="M259 286Q213 286 173 303Q133 320 103 350Q73 380 55.50 420Q38 460 38 506Q38 552 55.50 592Q73 632 103 661.50Q133 691 173 708Q213 725 259 725Q306 725 346.50 708Q387 691 416.50 661.50Q446 632 463 592Q480 552 480 506Q480 460 462.50 420Q445 380 415 350Q385 320 345 303Q305 286 259 286M259 695Q220 695 185.50 680Q151 665 125.50 639.50Q100 614 85 579.50Q70 545 70 506Q70 467 85 432Q100 397 125.50 371.50Q151 346 185.50 331Q220 316 259 316Q298 316 332.50 331Q367 346 392.50 371.50Q418 397 433 432Q448 467 448 506Q448 545 433 579.50Q418 614 392.50 639.50Q367 665 332.50 680Q298 695 259 695M332 369Q325 369 320 376L272 477L217 477L217 381Q217 376 215.50 372.50Q214 369 208 369L194 369Q188 369 186.50 372Q185 375 185 380L185 628Q185 633 188.50 634.50Q192 636 196 636L274 636Q304 636 327.50 618Q351 600 351 558Q351 535 340.50 514Q330 493 304 483L355 379Q357 376 356 372.50Q355 369 350 369L332 369M217 606L217 506L265 506Q274 506 283.50 507.50Q293 509 300.50 514.50Q308 520 313 530.50Q318 541 318 559Q318 588 302 597Q286 606 266 606L217 606Z"  horiz-adv-x="519" vert-adv-y="1000"  />

      
      <glyph glyph-name="unia9" unicode="&#xa9;" d="M749 335Q749 262 721 198Q693 134 645 87Q597 40 532.50 12.50Q468-15 395-15Q322-15 257.50 12.50Q193 40 145 87Q97 134 69.50 198Q42 262 42 335Q42 408 69.50 472Q97 536 145 583Q193 630 257.50 657.50Q322 685 395 685Q470 685 535 657.50Q600 630 647.50 583Q695 536 722 472Q749 408 749 335M710 335Q710 400 685 457.50Q660 515 617.50 557.50Q575 600 517.50 625Q460 650 395 650Q330 650 272.50 625Q215 600 172.50 557.50Q130 515 105.50 457.50Q81 400 81 335Q81 270 105.50 212.50Q130 155 172.50 112Q215 69 272.50 44.50Q330 20 395 20Q460 20 517.50 44.50Q575 69 617.50 112Q660 155 685 212.50Q710 270 710 335M501 150Q501 147 500 144Q499 141 495 139Q485 135 470.50 133Q456 131 441.50 129.50Q427 128 414.50 127.50Q402 127 395 127Q352 127 324 143Q296 159 279.50 185.50Q263 212 256.50 247Q250 282 250 321Q250 360 256 396Q262 432 278 460Q294 488 323 504.50Q352 521 397 521Q406 521 418.50 520.50Q431 520 444.50 518.50Q458 517 471.50 514.50Q485 512 495 509Q502 505 501 498L499 484Q499 482 497 479Q495 476 490 477Q469 479 445 481Q421 483 397 483Q361 483 340 468.50Q319 454 307.50 431Q296 408 293 379Q290 350 290 321Q290 292 294 264.50Q298 237 309.50 214.50Q321 192 342 178.50Q363 165 396 165Q419 165 442.50 166.50Q466 168 488 170Q495 170 496.50 168Q498 166 500 160Q500 158 500.50 155Q501 152 501 150Z"  horiz-adv-x="789" vert-adv-y="1000"  />

      
      <glyph glyph-name="uni03A3" unicode="&#x03A3;" d="M428 12Q428 0 418 0L34 0Q23 0 23 11L23 37Q23 50 30 63L197 345L28 601Q24 606 23 612Q22 618 22 623L22 653Q22 663 32 663L407 663Q418 663 418 652L418 621Q418 610 406 610L85 610L250 364Q258 353 257 344Q256 335 250 325L91 52L417 52Q428 52 428 41L428 12L428 12Z"  horiz-adv-x="439" vert-adv-y="1000"  />

      
      <glyph glyph-name="unia7" unicode="&#xa7;" d="M376 260Q376 222 362.50 188Q349 154 314 120Q347 94 359 68Q371 42 371 12Q371-38 351-69.50Q331-101 301-118.50Q271-136 237-142Q203-148 176-148Q143-148 107.50-138.50Q72-129 46-114Q38-108 42-99L49-84Q51-81 53.50-79.50Q56-78 62-80Q97-91 123.50-96.50Q150-102 177-102Q203-102 228.50-96.50Q254-91 274-78.50Q294-66 306.50-44.50Q319-23 319 10Q319 23 313.50 36Q308 49 300 60Q292 71 281.50 79.50Q271 88 261 94Q230 112 197.50 125Q165 138 133 154Q120 161 104 171.50Q88 182 73.50 197Q59 212 49.50 231Q40 250 40 275Q40 308 55 348Q70 388 102 415Q66 439 55 466Q44 493 44 525Q44 561 60.50 588Q77 615 103.50 633Q130 651 163 660Q196 669 230 669Q262 669 299 662Q336 655 362 639Q370 635 366 624L359 609Q357 602 347 605Q325 611 294 615.50Q263 620 230 619Q205 619 182 614Q159 609 140.50 598.50Q122 588 110 570.50Q98 553 97 527Q95 498 113 477Q131 456 151 444Q183 425 215.50 411.50Q248 398 281 383Q320 364 348 334.50Q376 305 376 260M324 243Q324 263 317.50 278.50Q311 294 300.50 306Q290 318 276.50 327Q263 336 249 343Q222 357 194 368Q166 379 138 394Q117 374 103.50 348Q90 322 90 294Q90 256 112.50 233.50Q135 211 167 194Q193 180 223 169Q253 158 279 145Q299 169 311.50 191.50Q324 214 324 243Z"  horiz-adv-x="410" vert-adv-y="1000"  />

      
      <glyph glyph-name="unib0" unicode="&#xb0;" d="M177 664Q203 664 225.50 654Q248 644 264.50 626.50Q281 609 290.50 586.50Q300 564 300 539Q300 513 290.50 490.50Q281 468 264.50 451.50Q248 435 225.50 425.50Q203 416 177 416Q117 416 84 451.50Q51 487 51 539Q51 564 61 587Q71 610 88 627Q105 644 128 654Q151 664 177 664M256 537Q256 554 249.50 569.50Q243 585 232 596.50Q221 608 206 614.50Q191 621 175 621Q141 621 117.50 596.50Q94 572 94 537Q94 504 117.50 480.50Q141 457 175 457Q208 457 232 480.50Q256 504 256 537Z"  horiz-adv-x="337" vert-adv-y="1000"  />

      
      <glyph glyph-name="unib7" unicode="&#xb7;" d="M130 253Q130 236 123 224.50Q116 213 92 213Q66 213 60 225Q54 237 54 253Q54 270 61 281Q68 292 92 292Q115 292 122.50 281.50Q130 271 130 253Z"  horiz-adv-x="182" vert-adv-y="1000"  />

      
      <glyph glyph-name="unia5" unicode="&#xa5;" d="M75 269Q68 269 68 276L68 304Q68 311 76 311L233 311L45 653Q41 662 51 662L94 662Q100 662 102.50 660Q105 658 107 653L261 362L273 345Q315 423 355 499.50Q395 576 437 653Q442 662 451 662L491 662Q502 662 497 652L308 311L471 311Q479 311 479 303L479 275Q479 269 472 269L75 269M471 213Q479 213 479 204L479 177Q479 171 472 171L299 171L299 12Q299 0 288 0L254 0Q242 0 242 12L242 171L75 171Q68 171 68 178L68 206Q68 213 76 213L471 213Z"  horiz-adv-x="543" vert-adv-y="1000"  />

      
      <glyph glyph-name="uni03A8" unicode="&#x03A8;" d="M606 411Q606 360 590 315.50Q574 271 543 237Q512 203 466.50 182Q421 161 362 158L362 12Q362 0 351 0L316 0Q305 0 305 12L304 158Q241 162 195 183.50Q149 205 119.50 238.50Q90 272 76.50 316.50Q63 361 63 411L63 651Q63 663 74 663L109 663Q120 663 120 651L120 411Q120 318 170.50 267.50Q221 217 304 212L305 651Q305 663 316 663L352 663Q362 663 362 651L362 212Q403 215 437.50 229Q472 243 496.50 268Q521 293 535 329Q549 365 549 411L549 651Q549 663 561 663L595 663Q606 663 606 651L606 411L606 411Z"  horiz-adv-x="677" vert-adv-y="1000"  />

      
      <glyph glyph-name="uni03A9" unicode="&#x03A9;" d="M584 52Q596 52 596 41L596 12Q596 0 584 0L392 0Q380 0 380 11L380 47Q380 58 392 62Q432 75 458 101.50Q484 128 499 164.50Q514 201 520 245.50Q526 290 526 340Q526 387 518 437Q510 487 488 528Q466 569 426.50 595Q387 621 324 621Q265 621 225.50 599Q186 577 162.50 539Q139 501 129 450.50Q119 400 119 342Q119 233 147.50 160Q176 87 246 63Q254 60 256 57.50Q258 55 258 47L258 11Q258 0 246 0L53 0Q42 0 42 12L42 41Q42 52 53 52L160 52L160 53Q128 76 109 108Q90 140 79 178Q68 216 64.50 258.50Q61 301 61 344Q61 405 73.50 464Q86 523 116 569Q146 615 196.50 643Q247 671 323 671Q400 671 450.50 643.50Q501 616 530.50 570.50Q560 525 571.50 466Q583 407 583 344Q583 300 579 258.50Q575 217 563.50 179Q552 141 532 109Q512 77 480 53Q480 52 481 52L584 52Z"  horiz-adv-x="645" vert-adv-y="1000"  />

      
      <glyph glyph-name="uniab" unicode="&#xab;" d="M349 38Q352 34 350.50 32Q349 30 347 30L307 30Q299 30 295.50 32Q292 34 288 39L188 162Q185 166 184 170Q183 174 189 182L285 303Q289 308 293 311.50Q297 315 306 315L340 315Q345 315 346.50 312Q348 309 345 305L239 172L349 38M209 38Q212 34 210.50 32Q209 30 207 30L167 30Q159 30 155.50 32Q152 34 148 39L48 162Q45 166 44 170Q43 174 49 182L145 303Q149 308 153 311.50Q157 315 166 315L200 315Q205 315 206.50 312Q208 309 205 305L99 172L209 38Z"  horiz-adv-x="385" vert-adv-y="1000"  />

      
      <glyph glyph-name="unibb" unicode="&#xbb;" d="M241 39Q237 34 233.50 32Q230 30 222 30L182 30Q180 30 178.50 32Q177 34 180 38L290 172L184 305Q181 309 182.50 312Q184 315 189 315L223 315Q232 315 236 311.50Q240 308 244 303L340 182Q346 174 345 170Q344 166 341 162L241 39M101 39Q97 34 93.50 32Q90 30 82 30L42 30Q40 30 38.50 32Q37 34 40 38L150 172L44 305Q41 309 42.50 312Q44 315 49 315L83 315Q92 315 96 311.50Q100 308 104 303L200 182Q206 174 205 170Q204 166 201 162L101 39Z"  horiz-adv-x="385" vert-adv-y="1000"  />

      
      <glyph glyph-name="uni2026" unicode="&#x2026;" d="M126 33Q126 16 119 3.50Q112-9 87-9Q61-9 54.50 3.50Q48 16 48 33Q48 51 55.50 62.50Q63 74 87 74Q112 74 119 63Q126 52 126 33M354 33Q354 16 347 3.50Q340-9 315-9Q289-9 282.50 3.50Q276 16 276 33Q276 51 283.50 62.50Q291 74 315 74Q340 74 347 63Q354 52 354 33M579 33Q579 16 572 3.50Q565-9 540-9Q514-9 507.50 3.50Q501 16 501 33Q501 51 508.50 62.50Q516 74 540 74Q565 74 572 63Q579 52 579 33Z"  horiz-adv-x="626" vert-adv-y="1000"  />

      
      <glyph glyph-name="uni0153" unicode="&#x0153;" d="M241 446Q197 446 170 431.50Q143 417 128 391Q113 365 107.50 328Q102 291 102 245Q102 198 107.50 160.50Q113 123 128 97Q143 71 170 56.50Q197 42 241 42Q287 42 315.50 55.50Q344 69 360 95.50Q376 122 381.50 159.50Q387 197 387 245Q387 293 381.50 330Q376 367 360 393Q344 419 315.50 432.50Q287 446 241 446M413 79Q393 41 353 16.50Q313-8 241-8Q172-8 132.50 15.50Q93 39 73.50 76.50Q54 114 49.50 160.50Q45 207 45 252Q45 289 51 331.50Q57 374 77 411Q97 448 136 472.50Q175 497 241 497Q316 497 357 471Q398 445 418 403L419 403Q439 442 478 467Q517 492 587 492Q650 492 689 473Q728 454 749.50 422.50Q771 391 779 350.50Q787 310 787 268Q787 247 779.50 235.50Q772 224 750 224L448 224Q448 180 453.50 145.50Q459 111 474 87Q489 63 516 50.50Q543 38 587 38Q622 38 664.50 42Q707 46 741 50Q748 50 751.50 48.50Q755 47 757 41Q757 36 758.50 31.50Q760 27 760 22Q760 15 751 11Q737 5 715.50 1Q694-3 670.50-6Q647-9 624-10.50Q601-12 583-12Q511-12 471.50 12.50Q432 37 414 79L413 79M586 443Q543 443 516.50 430Q490 417 475.50 394Q461 371 455.50 339Q450 307 448 269L727 269Q726 301 721 332.50Q716 364 701.50 388.50Q687 413 659.50 428Q632 443 586 443Z"  horiz-adv-x="822" vert-adv-y="1000"  />

      
      <glyph glyph-name="uni2013" unicode="&#x2013;" d="M38 233Q27 233 27 241L27 267Q27 278 39 278L464 278Q476 278 476 267L476 241Q476 233 465 233L38 233L38 233Z"  horiz-adv-x="500" vert-adv-y="1000"  />

      
      <glyph glyph-name="uni2015" unicode="&#x2015;" d="M974 241Q974 232 964 232L41 232Q31 232 31 241L31 266Q31 276 42 276L964 276Q974 276 974 266L974 241L974 241Z"  horiz-adv-x="1008" vert-adv-y="1000"  />

      
      <glyph glyph-name="uni201C" unicode="&#x201C;" d="M41 529Q41 576 62.50 612.50Q84 649 110 667Q113 669 117 670Q121 671 123 669L135 657Q139 652 132 645Q103 617 103 580Q103 564 109.50 547Q116 530 125 518Q127 515 127 510Q127 505 121 500L87 472Q81 467 75.50 468Q70 469 66 473Q53 486 47 500.50Q41 515 41 529M153 529Q153 576 174.50 612.50Q196 649 222 667Q225 669 229 670Q233 671 235 669L247 657Q251 652 244 645Q215 617 215 580Q215 564 221 547Q227 530 237 518Q239 515 239 510Q239 505 233 500L199 472Q193 467 187.50 468Q182 469 178 473Q164 486 158.50 500.50Q153 515 153 529Z"  horiz-adv-x="288" vert-adv-y="1000"  />

      
      <glyph glyph-name="uni201D" unicode="&#x201D;" d="M247 613Q247 566 225.50 529Q204 492 178 475Q175 473 171 471.50Q167 470 165 472L153 485Q148 490 156 496Q185 525 185 562Q185 578 179 594.50Q173 611 163 623Q161 627 161 632Q161 637 167 642L201 669Q213 678 222 668Q235 656 241 641Q247 626 247 613M135 613Q135 566 113.50 529Q92 492 66 475Q63 473 59 471.50Q55 470 53 472L41 485Q36 490 44 496Q73 525 73 562Q73 578 67 594.50Q61 611 51 623Q49 627 49 632Q49 637 55 642L89 669Q101 678 110 668Q124 656 129.50 641Q135 626 135 613Z"  horiz-adv-x="288" vert-adv-y="1000"  />

      
      <glyph glyph-name="uni2018" unicode="&#x2018;" d="M51 529Q51 576 72.50 612.50Q94 649 120 667Q123 669 127 670Q131 671 133 669L145 657Q149 652 142 645Q113 617 113 580Q113 564 119.50 547Q126 530 135 518Q137 515 137 510Q137 505 131 500L97 472Q91 467 85.50 468Q80 469 76 473Q63 486 57 500.50Q51 515 51 529Z"  horiz-adv-x="197" vert-adv-y="1000"  />

      
      <glyph glyph-name="uni2019" unicode="&#x2019;" d="M145 613Q145 566 123.50 529Q102 492 76 475Q73 473 69 471.50Q65 470 63 472L51 485Q46 490 54 496Q83 525 83 562Q83 578 77 594.50Q71 611 61 623Q59 627 59 632Q59 637 65 642L99 669Q111 678 120 668Q134 656 139.50 641Q145 626 145 613Z"  horiz-adv-x="197" vert-adv-y="1000"  />

      
      <glyph glyph-name="unif7" unicode="&#xf7;" d="M311 482Q311 465 304.50 453Q298 441 273 441Q248 441 242 453Q236 465 236 482Q236 498 243 508.50Q250 519 273 519Q297 519 304 509Q311 499 311 482M311 171Q311 154 304.50 142Q298 130 273 130Q248 130 242 142.50Q236 155 236 171Q236 188 243 198.50Q250 209 273 209Q297 209 304 198.50Q311 188 311 171M461 312Q461 304 451 304L93 304Q83 304 83 312L83 341Q83 351 93 351L451 351Q461 351 461 341L461 312Z"  horiz-adv-x="543" vert-adv-y="1000"  />

      
      <glyph glyph-name="uni03B1" unicode="&#x03B1;" d="M438 80Q438 66 440 58Q442 50 447 46.50Q452 43 460 41.50Q468 40 481 39Q492 38 492 29L492 10Q492 5 489 2Q486-1 477-2Q466-4 457-4Q448-4 440-4Q411-2 398.50 11.50Q386 25 383 57L382 57Q338 31 293 11.50Q248-8 197-8Q153-8 123.50 7.50Q94 23 76.50 54Q59 85 51.50 131Q44 177 44 237Q44 367 90 432Q136 497 236 497Q264 497 303.50 488Q343 479 383 458L384 459L384 476Q384 487 396 487L427 487Q438 487 438 476L438 80M383 411Q340 429 302.50 438Q265 447 241 447Q170 447 135.50 399Q101 351 101 235Q101 176 107 138.50Q113 101 126 79.50Q139 58 158.50 50Q178 42 205 42Q225 42 250.50 49Q276 56 301 65.50Q326 75 348 85.50Q370 96 383 103L383 411Z"  horiz-adv-x="507" vert-adv-y="1000"  />

      
      <glyph glyph-name="uni03B2" unicode="&#x03B2;" d="M443 232Q443 171 433.50 126Q424 81 401 51Q378 21 340 6Q302-9 245-9Q214-9 178.50-2.50Q143 4 105 20Q104 20 104 19.50Q104 19 103 19L103-125Q103-138 90-138L65-138Q57-138 53-136Q49-134 49-125L49 505Q49 557 63 595.50Q77 634 102 659Q127 684 160 696.50Q193 709 232 709Q308 709 355.50 670Q403 631 403 553Q403 534 399 513.50Q395 493 385.50 474.50Q376 456 361 439.50Q346 423 325 411L326 410Q360 405 382.50 390Q405 375 418.50 352Q432 329 437.50 298.50Q443 268 443 232M228 658Q195 658 171.50 646Q148 634 133 613Q118 592 111 564.50Q104 537 104 506L104 67Q150 53 183.50 47Q217 41 249 41Q325 41 354.50 85Q384 129 384 227Q384 269 375.50 296Q367 323 352 339Q337 355 315.50 361Q294 367 268 367Q262 367 256 367Q250 367 242.50 366.50Q235 366 224 365Q213 364 196 363Q190 363 186 364.50Q182 366 182 372L182 398Q182 404 185 406Q188 408 196 410Q226 414 253 424Q280 434 300.50 450.50Q321 467 333.50 491.50Q346 516 346 550Q346 580 337 600.50Q328 621 312 633.50Q296 646 274.50 652Q253 658 228 658Z"  horiz-adv-x="485" vert-adv-y="1000"  />

      
      <glyph glyph-name="uni03C8" unicode="&#x03C8;" d="M307-164Q307-175 297-175L264-175Q253-175 253-164L253-7Q142-1 97.50 44.50Q53 90 53 173Q53 250 53.50 324Q54 398 54 475Q54 483 56.50 485Q59 487 66 487L99 487Q109 487 109 475Q109 399 108.50 325.50Q108 252 108 175Q108 148 114.50 124.50Q121 101 137.50 83Q154 65 182 54.50Q210 44 253 42L253 513Q253 525 264 525L297 525Q307 525 307 513L307 42Q349 43 377 54Q405 65 422 82.50Q439 100 446 124Q453 148 453 175Q453 250 452.50 325Q452 400 452 475Q452 483 455 485Q458 487 464 487L497 487Q507 487 507 475L507 173Q507 90 460.50 44.50Q414-1 307-8L307-164L307-164Z"  horiz-adv-x="561" vert-adv-y="1000"  />

      
      <glyph glyph-name="uni03B4" unicode="&#x03B4;" d="M447 243Q447 199 441.50 154Q436 109 415 73Q394 37 353.50 14.50Q313-8 243-8Q175-8 136 14.50Q97 37 77 72.50Q57 108 52 153Q47 198 47 243Q47 270 51 301Q55 332 68 361.50Q81 391 103.50 417Q126 443 164 460Q123 476 105 504.50Q87 533 87 572Q87 639 127.50 674.50Q168 710 251 710Q265 710 283 708.50Q301 707 320 704.50Q339 702 358 698Q377 694 392 689Q402 686 400 674L397 657Q396 651 391.50 650Q387 649 380 650Q351 655 316.50 657.50Q282 660 250 660Q190 660 167 640Q144 620 144 574Q144 544 163 527.50Q182 511 209.50 500.50Q237 490 269.50 481.50Q302 473 329 458Q359 444 381.50 426.50Q404 409 418.50 384Q433 359 440 325Q447 291 447 243M390 235Q391 278 384 312.50Q377 347 358 372.50Q339 398 307 414Q275 430 227 438Q196 427 173 410.50Q150 394 134.50 370Q119 346 111.50 313Q104 280 104 235Q104 189 110 153Q116 117 132 92.50Q148 68 175 55Q202 42 244 42Q288 42 316.50 54.50Q345 67 361.50 91.50Q378 116 384 152Q390 188 390 235Z"  horiz-adv-x="493" vert-adv-y="1000"  />

      
      <glyph glyph-name="uni03B5" unicode="&#x03B5;" d="M397 29Q398 20 389 15Q375 8 355 3.50Q335-1 313.50-3.50Q292-6 272.50-7Q253-8 241-8Q204-8 169-0.50Q134 7 106.50 24Q79 41 62.50 69.50Q46 98 46 140Q46 159 50.50 178Q55 197 65.50 214Q76 231 92.50 244Q109 257 133 264L133 266Q93 275 74 300.50Q55 326 55 362Q55 401 71.50 427Q88 453 114 469Q140 485 172.50 491.50Q205 498 237 498Q251 498 270.50 497Q290 496 310 493.50Q330 491 348.50 487Q367 483 381 477Q390 472 389 464L386 447Q385 437 371 438Q342 440 306.50 443.50Q271 447 241 447Q221 447 198.50 444.50Q176 442 157.50 433Q139 424 127 407.50Q115 391 115 363Q115 336 128 320.50Q141 305 160 297.50Q179 290 201.50 288.50Q224 287 243 287L286 287Q297 287 297 276L297 251Q297 239 286 239L245 239Q222 239 197.50 237Q173 235 152.50 225.50Q132 216 119 196.50Q106 177 106 143Q106 110 117.50 90Q129 70 148.50 59.50Q168 49 193 45.50Q218 42 245 42Q274 42 311.50 45.50Q349 49 379 53Q393 55 394 44L397 29L397 29Z"  horiz-adv-x="417" vert-adv-y="1000"  />

      
      <glyph glyph-name="uni03C6" unicode="&#x03C6;" d="M573 243Q573 131 515 64.50Q457-2 336-7L336-164Q336-176 325-176L293-176Q281-176 281-164L281-8Q207-5 161 19Q115 43 89.50 79.50Q64 116 55 161Q46 206 46 252Q46 285 52 319.50Q58 354 73 385.50Q88 417 112 443Q136 469 172 485Q182 489 187 480L199 461Q203 454 195 448Q167 431 149.50 408Q132 385 122 358Q112 331 108 301.50Q104 272 104 244Q104 150 147 97Q190 44 282 42L283 476Q283 495 301 495L341 495Q413 495 458 473Q503 451 528.50 415.50Q554 380 563.50 334.50Q573 289 573 243M516 238Q516 279 508.50 316.50Q501 354 481 382.50Q461 411 426 428Q391 445 336 445L336 42Q427 49 471.50 96.50Q516 144 516 238Z"  horiz-adv-x="619" vert-adv-y="1000"  />

      
      <glyph glyph-name="uni03B3" unicode="&#x03B3;" d="M375 477Q377 482 379.50 484.50Q382 487 388 487L425 487Q431 487 432.50 483.50Q434 480 432 476L253 6L253-164Q253-176 242-176L209-176Q198-176 198-164L198 12Q161 112 125.50 212.50Q90 313 52 413Q47 428 41.50 437.50Q36 447 18 447Q13 447 10 447Q7 447 5 453Q3 458 2.50 464Q2 470 1 475Q1 479 2 481.50Q3 484 9 486Q20 490 29 492Q38 494 48 494Q67 494 77.50 482.50Q88 471 97 448L181 208L227 78L229 78Q234 91 241.50 110.50Q249 130 256 149.50Q263 169 269 186.50Q275 204 278 213L375 477Z"  horiz-adv-x="436" vert-adv-y="1000"  />

      
      <glyph glyph-name="uni03B7" unicode="&#x03B7;" d="M295 496Q345 496 373.50 481.50Q402 467 415.50 442.50Q429 418 432 384.50Q435 351 435 313L435 11Q435 0 423 0L390 0Q379 0 379 11L379 316Q379 349 376 373.50Q373 398 363 414.50Q353 431 335 439Q317 447 286 447Q266 447 240 439.50Q214 432 188.50 422Q163 412 140.50 401.50Q118 391 106 385L106 11Q106 0 94 0L62 0Q52 0 52 11L52 475Q52 487 62 487L94 487Q100 487 103 485Q106 483 106 475L106 430L108 430Q121 438 141.50 449.50Q162 461 187 471.50Q212 482 239.50 489Q267 496 295 496Z"  horiz-adv-x="487" vert-adv-y="1000"  />

      
      <glyph glyph-name="uni03B9" unicode="&#x03B9;" d="M132 12Q132 0 122 0L90 0Q77 0 77 12L77 475Q77 483 80 485Q83 487 90 487L122 487Q132 487 132 475L132 12L132 12Z"  horiz-adv-x="210" vert-adv-y="1000"  />

      
      <glyph glyph-name="uni03BE" unicode="&#x03BE;" d="M145 394Q87 411 63.50 447.50Q40 484 40 529Q40 618 93.50 663.50Q147 709 236 709Q250 709 270.50 708Q291 707 312.50 704.50Q334 702 354 697.50Q374 693 388 687Q396 684 395 675L392 657Q391 647 377 648Q363 649 345.50 650.50Q328 652 309.50 653.50Q291 655 273.50 656Q256 657 241 657Q175 657 137.50 624.50Q100 592 100 529Q100 495 115 473.50Q130 452 152.50 440Q175 428 202 423.50Q229 419 252 419L334 419Q347 419 347 408L347 383Q347 371 336 371L252 371Q169 370 128.50 327.50Q88 285 88 190Q88 139 107.50 110Q127 81 159 66.50Q191 52 232.50 48.50Q274 45 318 45L355 45Q365 45 369 43.50Q373 42 376 35L385 15Q390 6 389 0Q388-6 380-20Q373-32 364-50Q355-68 347-86.50Q339-105 331.50-123Q324-141 320-153Q314-168 301-163L278-156Q271-154 269-150.50Q267-147 270-137Q273-125 280-106.50Q287-88 295.50-69.50Q304-51 313-34Q322-17 329-7Q271-7 217-1.50Q163 4 121.50 23.50Q80 43 55 82Q30 121 30 189Q30 220 34.50 251Q39 282 51.50 309Q64 336 86.50 357.50Q109 379 145 391L145 394L145 394Z"  horiz-adv-x="387" vert-adv-y="1000"  />

      
      <glyph glyph-name="uni03BA" unicode="&#x03BA;" d="M225 304L410 12Q413 7 411.50 3.50Q410 0 403 0L365 0Q353 0 346 11L187 265L106 184L106 11Q106 0 95 0L63 0Q51 0 51 11L51 476Q51 487 63 487L95 487Q106 487 106 476L105 254L106 254L183 332L330 478Q335 483 337.50 485.50Q340 488 348 488L388 488Q396 488 396.50 483Q397 478 392 473L225 304Z"  horiz-adv-x="418" vert-adv-y="1000"  />

      
      <glyph glyph-name="uni03BB" unicode="&#x03BB;" d="M179 291Q162 249 144.50 206.50Q127 164 111.50 126Q96 88 84 57.50Q72 27 65 10Q61 0 52 0L16 0Q9 0 9 6Q9 10 10 12L202 476L163 603Q153 637 141 651.50Q129 666 105 666Q98 666 93.50 665.50Q89 665 80 664Q69 662 68 670L65 691Q65 696 66 698.50Q67 701 75 703Q84 705 96 707Q108 709 119 709Q141 709 156 703Q171 697 181.50 686Q192 675 199 657.50Q206 640 214 618L389 64Q393 52 398.50 44Q404 36 418 36L428 36Q433 36 435 35.50Q437 35 438 30L440 11Q441 4 431 1Q426-1 416-2Q406-3 400-3Q370-3 356 15Q342 33 334 60L252 325L226 407L225 407L179 291Z"  horiz-adv-x="442" vert-adv-y="1000"  />

      
      <glyph glyph-name="uni03BD" unicode="&#x03BD;" d="M256 9Q252 0 244 0L208 0Q202 0 199.50 2Q197 4 195 9L23 474Q21 479 22 482.50Q23 486 29 486L66 486Q74 486 77 475L196 149Q203 130 209 112Q214 97 218.50 82.50Q223 68 225 61Q227 68 232 82.50Q237 97 242 113Q248 131 255 152L372 478Q374 483 375.50 485Q377 487 382 487L421 487Q427 487 427.50 484Q428 481 426 476L256 9Z"  horiz-adv-x="447" vert-adv-y="1000"  />

      
      <glyph glyph-name="uni03BF" unicode="&#x03BF;" d="M445 252Q445 208 440 161.50Q435 115 414.50 77.50Q394 40 353.50 16Q313-8 242-8Q173-8 133.50 15.50Q94 39 74.50 76.50Q55 114 50.50 160.50Q46 207 46 252Q46 289 51.50 331.50Q57 374 77.50 411Q98 448 137 472.50Q176 497 242 497Q309 497 349 475.50Q389 454 410.50 419.50Q432 385 438.50 341Q445 297 445 252M387 245Q387 293 381.50 330Q376 367 360 393Q344 419 316 432.50Q288 446 242 446Q198 446 171 431.50Q144 417 129 391Q114 365 108.50 328Q103 291 103 245Q103 198 108.50 161Q114 124 129 97.50Q144 71 171 57Q198 43 242 43Q287 43 315.50 56.50Q344 70 360 96Q376 122 381.50 159.50Q387 197 387 245Z"  horiz-adv-x="490" vert-adv-y="1000"  />

      
      <glyph glyph-name="uni03C0" unicode="&#x03C0;" d="M437 12Q437 0 425 0L392 0Q381 0 381 12L381 439L108 439L108 12Q108 0 96 0L64 0Q53 0 53 12L53 476Q53 487 66 487L426 487Q437 487 437 476L437 12L437 12Z"  horiz-adv-x="490" vert-adv-y="1000"  />

      
      <glyph glyph-name="uni03C1" unicode="&#x03C1;" d="M446 252Q446 189 437 140Q428 91 406.50 58Q385 25 348 8Q311-9 255-9Q227-9 187.50-3Q148 3 104 20L102 18L102-163Q102-176 91-176L59-176Q47-176 47-163L47 259Q47 324 61.50 369.50Q76 415 102.50 443.50Q129 472 165.50 484.50Q202 497 247 497Q350 497 398 437Q446 377 446 252M387 255Q387 313 376 350Q365 387 346.50 408.50Q328 430 302.50 438Q277 446 247 446Q198 446 169.50 427.50Q141 409 126 380.50Q111 352 107 318.50Q103 285 103 255L103 66Q150 52 187.50 46.50Q225 41 260 41Q296 41 320 53Q344 65 359 90.50Q374 116 380.50 156.50Q387 197 387 255Z"  horiz-adv-x="492" vert-adv-y="1000"  />

      
      <glyph glyph-name="uni03C3" unicode="&#x03C3;" d="M240 436Q196 436 169 422Q142 408 127 382.50Q112 357 107 320.50Q102 284 102 239Q102 193 107 156.50Q112 120 127 94.50Q142 69 169 55.50Q196 42 240 42Q286 42 314.50 55Q343 68 359 93Q375 118 380.50 154.50Q386 191 386 239Q386 286 380.50 323Q375 360 359 385Q343 410 314.50 423Q286 436 240 436M477 488Q488 488 488 477L488 450Q488 439 477 439L378 439Q377 439 377 438Q399 423 412 402Q425 381 432 356Q439 331 441.50 302.50Q444 274 444 246Q444 202 439 157Q434 112 413.50 75Q393 38 352.50 15Q312-8 240-8Q171-8 131.50 15Q92 38 72.50 74Q53 110 48.50 155.50Q44 201 44 246Q44 282 50 324.50Q56 367 76 403.50Q96 440 135.50 464Q175 488 241 488L477 488Z"  horiz-adv-x="500" vert-adv-y="1000"  />

      
      <glyph glyph-name="uni03C4" unicode="&#x03C4;" d="M326 22Q327 16 325 13Q323 10 319 8Q312 5 300 2Q288-1 274-3.50Q260-6 245-7Q230-8 217-8Q161-8 141.50 17.50Q122 43 122 91L122 439L25 439Q13 439 13 450L13 475Q13 487 25 487L302 487Q310 487 311.50 484.50Q313 482 313 476L313 450Q313 444 311.50 441.50Q310 439 302 439L177 439L177 108Q177 91 179 79Q181 67 188 59Q195 51 208.50 47Q222 43 244 43Q249 43 257.50 43.50Q266 44 275.50 44.50Q285 45 293.50 45.50Q302 46 308 47Q316 48 318.50 46Q321 44 323 38L326 22Z"  horiz-adv-x="333" vert-adv-y="1000"  />

      
      <glyph glyph-name="uni03B8" unicode="&#x03B8;" d="M469 362Q469 293 463 227Q457 161 435 108.50Q413 56 370 24Q327-8 253-8Q181-8 139 22Q97 52 75.50 103Q54 154 48.50 221Q43 288 43 362Q43 420 50 482Q57 544 79.50 594Q102 644 143 676.50Q184 709 253 709Q322 709 364.50 682.50Q407 656 430 609.50Q453 563 461 499.50Q469 436 469 362M411 396Q409 462 401 511.50Q393 561 375 594Q357 627 327.50 643.50Q298 660 253 660Q211 660 183 642.50Q155 625 137.50 591.50Q120 558 111.50 509Q103 460 101 396L411 396M101 350Q101 276 107.50 218.50Q114 161 131 122Q148 83 177.50 62.50Q207 42 253 42Q300 42 330.50 60Q361 78 379 115.50Q397 153 404 211.50Q411 270 411 350L101 350Z"  horiz-adv-x="512" vert-adv-y="1000"  />

      
      <glyph glyph-name="uni03C9" unicode="&#x03C9;" d="M366 66Q349 36 314.50 14Q280-8 223-8Q171-8 137 10.50Q103 29 82.50 62Q62 95 53.50 140Q45 185 45 239Q45 277 49 315Q53 353 66.50 386.50Q80 420 104 446Q128 472 169 487Q174 489 177.50 489Q181 489 185 483L196 465Q202 455 191 449Q163 433 145.50 411.50Q128 390 118.50 363.50Q109 337 106 305.50Q103 274 103 238Q103 141 130 91.50Q157 42 223 42Q262 42 285 54.50Q308 67 320 86.50Q332 106 335.50 129.50Q339 153 339 175L339 324Q339 336 351 336L383 336Q393 336 393 324L393 175Q393 153 397 129.50Q401 106 414 86.50Q427 67 450.50 54.50Q474 42 513 42Q579 42 605.50 91.50Q632 141 632 238Q632 277 628.50 308Q625 339 615.50 364.50Q606 390 589 410.50Q572 431 544 449Q540 451 538 455.50Q536 460 539 465L551 483Q556 492 566 487Q606 470 630 443.50Q654 417 667.50 384Q681 351 685.50 314Q690 277 690 239Q690 185 681.50 140Q673 95 652.50 62Q632 29 598 10.50Q564-8 512-8Q455-8 419.50 14Q384 36 367 66L366 66Z"  horiz-adv-x="735" vert-adv-y="1000"  />

      
      <glyph glyph-name="uni03C2" unicode="&#x03C2;" d="M379 136Q379 96 365 68.50Q351 41 327 24Q303 7 270.50-0.50Q238-8 201-8Q184-8 164-7Q144-6 123.50-3.50Q103-1 84 3Q65 7 51 13Q41 17 43 28L46 43Q47 54 61 52Q75 50 94.50 48.50Q114 47 133.50 45Q153 43 171.50 42Q190 41 203 41Q260 41 290.50 60Q321 79 321 127Q321 153 315.50 169.50Q310 186 297.50 197Q285 208 263.50 214.50Q242 221 211 226Q175 232 144.50 239Q114 246 91.50 260.50Q69 275 56 298Q43 321 43 358Q43 426 86 461.50Q129 497 211 497Q225 497 243.50 496Q262 495 282 492.50Q302 490 321.50 486Q341 482 356 476Q365 472 363 461L360 444Q359 436 344 436Q315 439 278 443Q241 447 210 447Q150 447 125 427Q100 407 100 361Q100 338 106.50 324Q113 310 127 301.50Q141 293 163 288Q185 283 215 278Q249 272 279 264.50Q309 257 331.50 242Q354 227 366.50 202Q379 177 379 136Z"  horiz-adv-x="420" vert-adv-y="1000"  />

      
      <glyph glyph-name="uni03C5" unicode="&#x03C5;" d="M428 487Q439 487 439 475L439 174Q439 135 428 102Q417 69 393.50 45Q370 21 333.50 7Q297-7 245-7Q193-7 157 5.50Q121 18 98.50 41.50Q76 65 66 98.50Q56 132 56 174L56 475Q56 487 68 487L100 487Q110 487 110 475L111 175Q111 148 116 123.50Q121 99 135 81Q149 63 175.50 52.50Q202 42 244 42Q284 42 310.50 52Q337 62 353 80Q369 98 375.50 122Q382 146 382 175L382 475Q382 487 394 487L428 487L428 487Z"  horiz-adv-x="494" vert-adv-y="1000"  />

      
      <glyph glyph-name="uni03B6" unicode="&#x03B6;" d="M430 448Q430 443 428.50 437.50Q427 432 422 430Q398 417 365 399Q332 381 296 360.50Q260 340 225.50 316Q191 292 163 265.50Q135 239 118 211Q101 183 101 153Q101 121 118.50 100.50Q136 80 167.50 67Q199 54 243 49Q287 44 339 44L376 45Q386 45 390 43Q394 41 397 34L407 15Q411 6 410.50-0.50Q410-7 402-20Q395-31 386-48.50Q377-66 368-85Q359-104 352-122Q345-140 341-152Q338-161 334.50-163Q331-165 323-163L300-157Q293-155 291-151.50Q289-148 291-137Q294-125 301-107Q308-89 316.50-69.50Q325-50 334.50-33Q344-16 351-6Q300-6 245.50-1Q191 4 146 20Q101 36 72 66.50Q43 97 43 148Q43 200 73 243.50Q103 287 148 323Q193 359 245 388Q297 417 342 439L341 440L66 440Q54 440 54 451L54 476Q54 487 66 487L418 487Q430 487 430 477L430 448L430 448Z"  horiz-adv-x="440" vert-adv-y="1000"  />

      
      <glyph glyph-name="uni20AC" unicode="&#x20AC;" d="M30 356Q23 356 23 363L23 392Q23 399 31 399L85 399Q89 455 103 504.50Q117 554 145.50 590.50Q174 627 219.50 648.50Q265 670 332 670Q347 670 369.50 669Q392 668 416.50 665.50Q441 663 464.50 658.50Q488 654 506 647Q518 642 515 631L512 612Q510 607 508 604.50Q506 602 498 604Q466 607 422 611Q378 615 336 615Q282 615 246.50 597.50Q211 580 189.50 550.50Q168 521 158 481.50Q148 442 145 399L435 399Q443 399 443 391L443 363Q443 356 435 356L30 356M434 301Q443 301 443 292L443 265Q443 259 435 259L145 259Q149 215 160 176.50Q171 138 192.50 109Q214 80 249 63.50Q284 47 335 47Q375 47 420 50.50Q465 54 497 58Q505 59 507.50 56.50Q510 54 512 49L515 30Q517 19 507 15Q490 8 465.50 3.50Q441-1 415.50-3.50Q390-6 367.50-7Q345-8 332-8Q265-8 219.50 13Q174 34 145.50 70Q117 106 103 154.50Q89 203 85 259L30 258Q23 258 23 266L23 294Q23 301 31 301L434 301Z"  horiz-adv-x="540" vert-adv-y="1000"  />

      
      <glyph glyph-name="uni0192" unicode="&#x0192;" d="M44-19Q46-12 49.50-10.50Q53-9 60-10Q75-13 90-14.50Q105-16 116-16Q160-16 177.50 15Q195 46 203 95L247 343L160 343Q148 343 148 354L148 378Q148 390 160 390L253 390L277 522Q281 544 288.50 570.50Q296 597 311.50 620Q327 643 351.50 658.50Q376 674 415 674Q435 674 456.50 670Q478 666 495 658Q498 656 500 653Q502 650 500 644L495 628Q490 617 477 620Q463 622 446.50 624Q430 626 422 626Q398 626 383 618Q368 610 358 595.50Q348 581 342.50 561Q337 541 333 517L310 390L403 390Q416 390 416 380L416 354Q416 343 404 343L302 343L256 78Q252 56 243.50 31Q235 6 220-15Q205-36 181.50-49.50Q158-63 125-63Q105-63 83-59Q61-55 44-48Q35-44 39-34L44-19Z"  horiz-adv-x="540" vert-adv-y="1000"  />

      
      <glyph glyph-name="uni2021" unicode="&#x2021;" d="M444 169Q444 161 441 158.50Q438 156 429 156L261 156L261-34Q261-43 258.50-46Q256-49 248-49L219-49Q216-49 214-47Q213-47 211-45Q211-44 210.50-44Q210-44 210-43Q210-43 209-41L209 156L40 156Q31 156 28 158.50Q25 161 25 169L25 193Q25 201 28 204Q31 207 40 207L209 207L209 435L40 435Q31 435 28 438Q25 441 25 449L25 473Q25 481 28 483.50Q31 486 40 486L209 486L209 676Q210 686 213 688Q216 690 224 691L248 691Q261 691 261 676L261 486L429 486Q438 486 441 483.50Q444 481 444 473L444 449Q444 441 441 438Q438 435 429 435L261 435L261 207L429 207Q438 207 441 204Q444 201 444 193L444 169Z"  horiz-adv-x="467" vert-adv-y="1000"  />

      
      <glyph glyph-name="unia2" unicode="&#xa2;" d="M446 28Q447 18 438 13Q415 4 382-0.50Q349-5 319-7L319-122Q319-133 310-133L288-133Q277-133 277-122L277-8Q217-7 182 13Q147 33 128 67Q109 101 103.50 147Q98 193 98 247Q98 295 103.50 339.50Q109 384 128 418Q147 452 182 473.50Q217 495 277 497L277 613Q277 624 287 624L309 624Q319 624 319 613L319 496Q348 494 380.50 489.50Q413 485 438 475Q448 472 446 461L443 444Q441 436 426 436Q397 439 358.50 443Q320 447 291 447Q253 447 227.50 436.50Q202 426 186 402.50Q170 379 163.50 341Q157 303 157 248Q157 190 164 150.50Q171 111 187 87Q203 63 228.50 52.50Q254 42 291 42Q304 42 322 43Q340 44 358.50 45.50Q377 47 395.50 48.50Q414 50 428 52Q435 53 438 51.50Q441 50 443 43L446 28L446 28Z"  horiz-adv-x="543" vert-adv-y="1000"  />

      
      <glyph glyph-name="unic6" unicode="&#xc6;" d="M406 0Q395 0 395 10L395 182L163 182L76 11Q72 3 69 1.50Q66 0 61 0L24 0Q16 0 16 5Q16 5 18 11L338 652Q342 663 353 663L750 663Q761 663 761 652L761 621Q761 610 750 610L451 610L451 370L720 370Q731 370 731 360L731 330Q731 319 720 319L451 319L451 52L757 52Q768 52 768 41L768 10Q768 0 756 0L406 0M371 610Q355 576 334 533.50Q313 491 292 447L189 234L395 234L395 610L371 610Z"  horiz-adv-x="812" vert-adv-y="1000"  />

      
      <glyph glyph-name="unid8" unicode="&#xd8;" d="M562 341Q562 280 555 218Q548 156 522 105.50Q496 55 445.50 23Q395-9 309-9Q247-9 205.50 8Q164 25 136 54L99 4Q96 0 93-2Q90-4 86-1L68 13Q60 18 65 26L110 88Q94 114 84.50 144.50Q75 175 70 207.50Q65 240 63.50 274Q62 308 62 341Q62 373 65 409.50Q68 446 77 483Q86 520 102.50 554Q119 588 146.50 614Q174 640 213.50 655.50Q253 671 309 671Q372 671 415.50 654Q459 637 488 607L529 663Q532 667 534.50 669Q537 671 542 668L560 654Q568 649 563 641L514 574Q543 526 552.50 465.50Q562 405 562 341M120 331Q120 276 126.50 228Q133 180 149 142L455 561Q432 591 396.50 607.50Q361 624 309 624Q254 624 217.50 602Q181 580 159.50 541Q138 502 129 448.50Q120 395 120 331M506 331Q506 389 499.50 437Q493 485 477 522L171 103Q193 73 226.50 56.50Q260 40 309 40Q365 40 402.50 61Q440 82 463 120Q486 158 496 212Q506 266 506 331Z"  horiz-adv-x="627" vert-adv-y="1000"  />

      
      <glyph glyph-name="unide" unicode="&#xde;" d="M466 339Q466 304 455.50 269Q445 234 422 206Q399 178 361.50 160Q324 142 270 142L122 142L122 12Q122 0 111 0L77 0Q65 0 65 12L65 651Q65 663 76 663L110 663Q122 663 122 651L122 527L268 527Q310 527 346 515.50Q382 504 408.50 480.50Q435 457 450.50 421.50Q466 386 466 339M408 338Q408 409 366.50 442Q325 475 259 475L122 475L122 193L270 193Q296 193 320.50 201Q345 209 364.50 226Q384 243 396 271Q408 299 408 338Z"  horiz-adv-x="495" vert-adv-y="1000"  />

      
      <glyph glyph-name="unie6" unicode="&#xe6;" d="M255 498Q327 498 364.50 480Q402 462 416 424Q438 456 475.50 476.50Q513 497 575 497Q637 497 676 479Q715 461 737 431Q759 401 767 362Q775 323 776 281Q776 258 769 244Q762 230 738 230L436 230Q436 186 441.50 151.50Q447 117 462 93Q477 69 504 56Q531 43 575 43Q610 43 653 47Q696 51 729 54Q736 54 739.50 53.50Q743 53 745 45L748 30Q750 19 740 16Q725 10 703.50 5.50Q682 1 659-2Q636-5 613-6.50Q590-8 572-8Q505-8 466 13Q427 34 407 70L372 49Q351 37 329.50 27Q308 17 283.50 9Q259 1 230-3.50Q201-8 166-8Q101-8 72 26Q43 60 43 124Q43 206 85 242Q127 278 221 278L377 278L377 335Q377 365 371.50 386Q366 407 351.50 420.50Q337 434 312 440.50Q287 447 249 447Q217 447 177.50 444Q138 441 103 437Q98 437 94.50 437.50Q91 438 89 444L85 462Q82 471 96 477Q112 483 133 487Q154 491 176 493.50Q198 496 218.50 497Q239 498 255 498M215 230Q189 230 168 226Q147 222 132 210.50Q117 199 108.50 179Q100 159 100 128Q100 78 119.50 60Q139 42 190 42Q212 42 240.50 50Q269 58 297.50 69.50Q326 81 350.50 93Q375 105 390 113Q382 142 379.50 168.50Q377 195 377 230L215 230M575 447Q532 447 505.50 434.50Q479 422 464 399.50Q449 377 443 345.50Q437 314 436 277L716 277Q715 309 710 339.50Q705 370 690.50 394Q676 418 648.50 432.50Q621 447 575 447Z"  horiz-adv-x="802" vert-adv-y="1000"  />

      
      <glyph glyph-name="unif8" unicode="&#xf8;" d="M240-8Q196-8 165.50 1Q135 10 113 27L88-8Q85-12 82.50-13.50Q80-15 75-12L57 2Q50 7 55 15L85 56Q71 75 63 98Q55 121 51 146.50Q47 172 46 198.50Q45 225 45 252Q45 290 50.50 333Q56 376 76.50 412.50Q97 449 135.50 473Q174 497 240 497Q288 497 321 486.50Q354 476 377 456L408 498Q413 508 421 503L438 490Q446 485 441 476L404 426Q427 391 434.50 345.50Q442 300 442 252Q442 206 437 159.50Q432 113 412 76Q392 39 351.50 15.50Q311-8 240-8M240 448Q196 448 169 434.50Q142 421 127 394.50Q112 368 106.50 330.50Q101 293 101 245Q101 201 105 166.50Q109 132 121 106L345 413Q328 430 303 439Q278 448 240 448M386 245Q386 286 382.50 318.50Q379 351 368 376L146 71Q178 42 240 42Q285 42 313.50 55Q342 68 358 94Q374 120 380 157.50Q386 195 386 245Z"  horiz-adv-x="490" vert-adv-y="1000"  />

      
      <glyph glyph-name="uni203A" unicode="&#x203A;" d="M131 42Q128 37 123.50 34Q119 31 111 31L71 31Q66 31 66 36Q66 38 68 40L181 178Q153 212 126 246Q99 280 71 315Q70 317 70 320Q70 326 76 326L112 326Q121 326 124.50 322.50Q128 319 132 314L231 189Q237 181 237 177Q237 172 232 167L131 42Z"  horiz-adv-x="304" vert-adv-y="1000"  />

      
      <glyph glyph-name="uni2039" unicode="&#x2039;" d="M43 162Q40 166 39 170Q38 174 44 182L140 303Q144 308 148 311.50Q152 315 161 315L195 315Q200 315 201.50 312Q203 309 200 305L94 172L204 38Q207 34 205.50 32Q204 30 202 30L162 30Q154 30 150.50 32Q147 34 143 39L43 162Z"  horiz-adv-x="258" vert-adv-y="1000"  />

      
      <glyph glyph-name="unife" unicode="&#xfe;" d="M62 651Q62 663 72 663L105 663Q116 663 116 651L116 431Q117 431 118 430Q132 439 152.50 450Q173 461 197 471.50Q221 482 248.50 489Q276 496 303 496Q347 496 376.50 480.50Q406 465 423.50 434.50Q441 404 448.50 357.50Q456 311 456 250Q456 186 447.50 137.50Q439 89 418 56.50Q397 24 360.50 7.50Q324-9 268-9Q239-9 200.50-3Q162 3 118 20Q118 20 116 19L116-163Q116-176 105-176L78-176Q62-176 62-160L62 651M117 66Q162 52 200.50 46.50Q239 41 274 41Q309 41 333 52.50Q357 64 371.50 89.50Q386 115 392.50 155Q399 195 399 253Q399 311 392.50 348.50Q386 386 373.50 408Q361 430 341.50 438Q322 446 295 446Q275 446 249.50 439Q224 432 199 422Q174 412 152 401Q130 390 117 383L117 66Z"  horiz-adv-x="492" vert-adv-y="1000"  />

      
      <glyph glyph-name="unia6" unicode="&#xa6;" d="M134-101Q134-110 131.50-113Q129-116 121-116L101-116Q93-116 89.50-113Q86-110 86-101L86 257Q86 266 89.50 269Q93 272 101 272L121 272Q129 272 131.50 269Q134 266 134 257L134-101M134 320Q134 311 131.50 308Q129 305 121 305L101 305Q93 305 89.50 308Q86 311 86 320L86 678Q86 687 89.50 690Q93 693 101 693L121 693Q129 693 131.50 690Q134 687 134 678L134 320Z"  horiz-adv-x="221" vert-adv-y="1000"  />

      
      <glyph glyph-name="uni0152" unicode="&#x0152;" d="M739 11Q739 0 727 0L380 0Q344-9 300-9Q215-9 165.50 23Q116 55 91 105Q66 155 59 217.50Q52 280 52 341Q52 389 59.50 446.50Q67 504 93 554Q119 604 168 637.50Q217 671 300 671Q341 671 378 663L721 663Q732 663 732 652L732 621Q732 610 720 610L422 610L422 371L690 371Q702 371 702 360L702 330Q702 319 690 319L422 319L422 53L727 52Q739 52 739 41L739 11M300 43Q318 43 334 44.50Q350 46 364 51L364 612Q334 620 300 620Q245 620 208.50 599Q172 578 150.50 539.50Q129 501 120 448Q111 395 111 331Q111 269 119.50 216.50Q128 164 149 125.50Q170 87 206.50 65Q243 43 300 43Z"  horiz-adv-x="781" vert-adv-y="1000"  />

      
      <glyph glyph-name="uni2014" unicode="&#x2014;" d="M38 233Q27 233 27 241L27 267Q27 278 39 278L957 278Q969 278 969 267L969 241Q969 233 958 233L38 233L38 233Z"  horiz-adv-x="1000" vert-adv-y="1000"  />

      
      <glyph glyph-name="unia1" unicode="&#xa1;" d="M86 297Q86 306 88.50 309Q91 312 99 312L111 312Q117 312 119 309Q121 306 122 297L135-173Q135-189 122-189L92-189Q84-189 80.50-186Q77-183 77-173L86 297M142 445Q142 426 134.50 415Q127 404 102 404Q78 404 70.50 415.50Q63 427 63 445Q63 462 69.50 474.50Q76 487 102 487Q128 487 135 474.50Q142 462 142 445Z"  horiz-adv-x="208" vert-adv-y="1000"  />

      
      <glyph glyph-name="unibf" unicode="&#xbf;" d="M30-49Q30-25 37-6Q44 13 55 27.50Q66 42 80.50 53.50Q95 65 109 76Q131 92 150.50 108.50Q170 125 184.50 144.50Q199 164 207.50 187.50Q216 211 216 241Q216 245 216.50 253.50Q217 262 217 271.50Q217 281 216.50 289.50Q216 298 216 304Q216 315 226 315L250 315Q262 315 263 305Q266 283 266 263.50Q266 244 266 231Q266 200 256.50 174.50Q247 149 230.50 126.50Q214 104 193 85Q172 66 149 48Q135 37 123 27.50Q111 18 102 7.50Q93-3 88-15.50Q83-28 83-45Q83-101 116-123.50Q149-146 221-146Q244-146 267.50-144Q291-142 314-140Q322-140 324.50-143.50Q327-147 327-151L330-167Q332-178 323-182Q300-190 271.50-193.50Q243-197 214-197Q122-197 76-159Q30-121 30-49M191 444Q191 461 198 473.50Q205 486 230 486Q256 486 262.50 473.50Q269 461 269 444Q269 426 261.50 414.50Q254 403 230 403Q205 403 198 414Q191 425 191 444Z"  horiz-adv-x="348" vert-adv-y="1000"  />

      
      <glyph glyph-name="uni0104" unicode="&#x0104;" d="M459-101Q460-136 490.50-143Q521-150 568-139Q573-137 574.50-138.50Q576-140 577-142L584-162Q586-168 577-172Q563-179 544.50-182.50Q526-186 511-187Q461-189 437-166Q413-143 413-108Q413-83 425.50-54.50Q438-26 465 0L464 0Q453 0 450 10L397 183L130 183L76 14Q73 5 68.50 2.50Q64 0 56 0L28 0Q17 0 21 12L227 648Q229 656 232 659.50Q235 663 243 663L285 663Q293 663 296.50 658.50Q300 654 302 648L510 10Q510 9 510.50 8.50Q511 8 511 7L511 5Q511 0 506 0Q480-30 469.50-55.50Q459-81 459-101M293 513Q284 543 279.50 557.50Q275 572 273 579.50Q271 587 269.50 592.50Q268 598 265 611L263 611Q260 598 258.50 592.50Q257 587 254.50 579.50Q252 572 247.50 558Q243 544 234 514L146 233L381 233L293 513Z"  horiz-adv-x="532" vert-adv-y="1000"  />

      
      <glyph glyph-name="uni0141" unicode="&#x0141;" d="M452 13Q452 5 449 2.50Q446 0 437 0L87 0Q78 0 75 2.50Q72 5 72 13L72 244L18 215Q9 209 4 217L-7 237Q-13 247-4 251L72 293L72 647Q72 657 75.50 660Q79 663 87 663L116 663Q129 663 129 647L129 324L256 395Q266 402 270 391L282 371Q287 363 278 357L129 275L129 52L437 52Q446 52 449 48.50Q452 45 452 37L452 13L452 13Z"  horiz-adv-x="484" vert-adv-y="1000"  />

      
      <glyph glyph-name="uni0118" unicode="&#x0118;" d="M126 319L126 52L426 52Q435 52 438 48.50Q441 45 441 37L441 13Q441 7 440 5Q411-27 399.50-53.50Q388-80 388-101Q389-136 419.50-143Q450-150 497-139Q502-137 503.50-138.50Q505-140 506-142L513-162Q515-168 506-172Q492-179 473.50-182.50Q455-186 440-187Q390-189 366-166Q342-143 342-108Q342-83 354.50-54.50Q367-26 394 0L84 0Q75 0 72 2.50Q69 5 69 13L69 649Q69 656 72 659.50Q75 663 84 663L419 663Q428 663 431 660Q434 657 434 650L434 625Q434 617 431 614Q428 611 419 611L126 611L126 370L389 370Q398 370 401 367.50Q404 365 404 357L404 334Q404 326 401 322.50Q398 319 389 319L126 319Z"  horiz-adv-x="476" vert-adv-y="1000"  />

      
      <glyph glyph-name="uni0119" unicode="&#x0119;" d="M299-101Q300-136 330.50-143Q361-150 408-139Q413-137 414.50-138.50Q416-140 417-142L424-162Q426-168 417-172Q403-179 384.50-182.50Q366-186 351-187Q301-189 277-166Q253-143 253-108Q253-84 264.50-56.50Q276-29 301-4Q284-6 268.50-7Q253-8 239-8Q172-8 133.50 13Q95 34 75.50 69Q56 104 51 150.50Q46 197 46 247Q46 290 51 334.50Q56 379 75.50 415Q95 451 134.50 474Q174 497 243 497Q306 497 344.50 478Q383 459 405 428.50Q427 398 434.50 358.50Q442 319 442 278Q442 255 433.50 242Q425 229 401 229L104 229Q106 179 111.50 143.50Q117 108 131.50 86Q146 64 172.50 54Q199 44 243 44Q258 44 279 45.50Q300 47 322 49.50Q344 52 364.50 54Q385 56 398 57Q408 58 411 49L414 33Q417 22 403 16Q394 13 380 9.50Q366 6 349 3Q320-29 309.50-54.50Q299-80 299-101M243 447Q197 447 170.50 435.50Q144 424 129.50 402Q115 380 110.50 348Q106 316 104 275L384 275Q383 306 379 337Q375 368 360.50 392.50Q346 417 318.50 432Q291 447 243 447Z"  horiz-adv-x="482" vert-adv-y="1000"  />

      
      </font>
</defs>
</svg>
