<?xml version="1.0" standalone="no"?>
  <!DOCTYPE svg PUBLIC "-//W3C//DTD SVG 1.1//EN" "http://www.w3.org/Graphics/SVG/1.1/DTD/svg11.dtd" >
  <svg>
  <metadata>
  Created by font-carrier
  </metadata>
  <defs>
  <font id="PFSquareSansPro-LightItalic" horiz-adv-x="1818" vert-adv-y="1818" >
    <font-face
      
      font-family="PF Square Sans Pro Light"
      
      font-weight="400"
      
      font-stretch="normal"
      
      units-per-em="1000"
      
      ascent="750"
      
      descent="-250"
      
    />
      <missing-glyph />

      

      
      <glyph glyph-name="uni22" unicode="&#x22;" d="M241 491Q240 483 232 483L216 483Q209 483 211 491L233 654Q235 663 244 663L277 663Q282 663 283 660Q284 657 283 654L241 491M152 491Q151 483 143 483L126 483Q121 483 121 491L144 654Q146 663 155 663L187 663Q192 663 193.50 660Q195 657 193 654L152 491Z"  horiz-adv-x="254" vert-adv-y="1000"  />

      
      <glyph glyph-name="uni23" unicode="&#x23;" d="M552 423Q549 415 540 415L406 415L348 281L478 281Q490 281 485 271L477 250Q473 242 464 242L332 242L231 9Q227 0 220 0L194 0Q183 0 188 11L288 242L160 242L60 9Q56 0 48 0L24 0Q12 0 17 11L117 242L-8 242Q-20 242-15 251L-7 271Q-3 281 7 281L134 281L191 415L67 415Q57 415 60 424L69 444Q72 454 82 454L208 454L295 653Q299 662 308 662L331 662Q341 662 337 652L251 454L379 454L466 653Q468 658 470.50 660Q473 662 479 662L503 662Q513 662 509 652L423 454L552 454Q565 454 560 443L552 423M235 415L177 281L305 281L363 415L235 415Z"  horiz-adv-x="543" vert-adv-y="1000"  />

      
      <glyph glyph-name="uni24" unicode="&#x24;" d="M518 604Q516 599 513 597Q510 595 502 596Q489 598 470 600Q451 602 429 604Q407 606 383.50 607Q360 608 339 608Q302 608 270 599Q238 590 214 571.50Q190 553 176.50 525Q163 497 163 460Q163 436 172 421Q181 406 198.50 396Q216 386 240 380Q264 374 294 369Q328 363 359.50 354Q391 345 415.50 328.50Q440 312 455 284.50Q470 257 470 214Q470 161 452 122Q434 83 403 57Q372 31 330 17.50Q288 4 239 1L221-88Q221-94 213-94L187-94Q180-94 181-88L197 1Q178 1 153.50 3Q129 5 104 8Q79 11 57.50 15.50Q36 20 23 26Q12 30 18 41L25 60Q29 69 41 68Q86 62 130 58Q174 54 217 54Q256 54 290.50 63Q325 72 351 90.50Q377 109 392 138Q407 167 407 208Q407 260 373.50 282Q340 304 282 314Q243 320 210.50 329Q178 338 154 353.50Q130 369 116.50 393.50Q103 418 103 456Q103 505 120.50 542.50Q138 580 168 605.50Q198 631 238.50 645Q279 659 325 661L342 741Q343 747 350 747L377 747Q384 747 382 740L366 660Q404 660 446.50 655Q489 650 519 638Q530 634 525 623L518 604Z"  horiz-adv-x="543" vert-adv-y="1000"  />

      
      <glyph glyph-name="uni26" unicode="&#x26;" d="M204-10Q168-10 136-1.50Q104 7 80 25Q56 43 42 70Q28 97 28 134Q28 185 46.50 224.50Q65 264 95 295Q125 326 163.50 349Q202 372 241 392Q213 454 213 511Q213 544 224 573Q235 602 255 624.50Q275 647 304 660Q333 673 369 673Q421 673 453.50 645.50Q486 618 486 571Q486 533 470 503Q454 473 428.50 450Q403 427 371.50 408.50Q340 390 310 375Q337 312 376 250Q415 188 460 134Q520 182 566 248Q612 314 635 389Q639 399 649 399L670 398Q677 397 678 393Q679 389 678 384Q667 342 647 301Q627 260 601.50 223.50Q576 187 547 155.50Q518 124 489 100Q517 68 548 40.50Q579 13 608-7Q616-12 610-21L594-42Q585-52 575-47Q546-28 510.50 3Q475 34 444 69Q390 33 328.50 11.50Q267-10 204-10M435 561Q435 591 414.50 608.50Q394 626 363 626Q340 626 322.50 616.50Q305 607 293 591.50Q281 576 274.50 556.50Q268 537 268 518Q268 493 275 467.50Q282 442 293 416Q318 428 343.50 442Q369 456 389 473.50Q409 491 422 512.50Q435 534 435 561M416 103Q368 160 328 223.50Q288 287 259 352Q226 335 193 316Q160 297 134.50 272Q109 247 93 215.50Q77 184 77 143Q77 116 88 95.50Q99 75 117 61.50Q135 48 158.50 41Q182 34 208 34Q264 34 316 53Q368 72 416 103Z"  horiz-adv-x="675" vert-adv-y="1000"  />

      
      <glyph glyph-name="uni27" unicode="&#x27;" d="M163 491Q162 483 153 483L137 483Q131 483 131 491L154 654Q156 663 166 663L198 663Q203 663 204 660Q205 657 204 654L163 491Z"  horiz-adv-x="189" vert-adv-y="1000"  />

      
      <glyph glyph-name="uni28" unicode="&#x28;" d="M319 683Q222 572 173.50 440Q125 308 125 165Q125 75 139.50 10.50Q154-54 171-89Q174-97 165-101L151-108Q141-115 137-107Q126-86 114.50-59.50Q103-33 93 0.50Q83 34 77 76Q71 118 71 169Q71 329 128.50 460.50Q186 592 293 700Q300 707 307 703L318 696Q325 692 319 683Z"  horiz-adv-x="276" vert-adv-y="1000"  />

      
      <glyph glyph-name="uni29" unicode="&#x29;" d="M259 436Q259 284 199 144.50Q139 5 32-107Q25-115 18-108L7-101Q0-97 6-89Q52-37 89 26.50Q126 90 152 159Q178 228 191.50 300.50Q205 373 205 443Q205 527 189.50 589Q174 651 158 683Q154 690 164 696L178 703Q187 708 190 700Q217 649 238 584Q259 519 259 436Z"  horiz-adv-x="277" vert-adv-y="1000"  />

      
      <glyph glyph-name="uni2a" unicode="&#x2a;" d="M264 532L329 482Q333 480 333 477Q333 474 328 468L322 459Q317 452 309 457L239 498L220 411Q219 401 208 401L196 401Q188 401 189 410L202 500L113 459Q108 457 105 457.50Q102 458 100 463L96 472Q93 480 103 484L188 533L121 581Q118 584 117.50 587Q117 590 121 595L128 604Q133 612 141 607L214 565L235 654Q237 659 238.50 661Q240 663 247 663L259 663Q268 663 267 654L252 565L338 605Q347 610 350 601L354 592Q357 584 348 580L264 532Z"  horiz-adv-x="317" vert-adv-y="1000"  />

      
      <glyph glyph-name="uni2b" unicode="&#x2b;" d="M466 313Q465 305 454 305L301 305L270 144Q269 134 260 134L228 134Q222 134 220.50 136.50Q219 139 220 144L251 305L96 305Q87 305 88 313L94 342Q95 351 105 351L260 351L290 506Q292 511 294 513.50Q296 516 302 516L334 516Q343 516 340 506L310 351L464 351Q469 351 471 349.50Q473 348 472 342L466 313L466 313Z"  horiz-adv-x="537" vert-adv-y="1000"  />

      
      <glyph glyph-name="uni2c" unicode="&#x2c;" d="M100 23Q100 1 91.50-21.50Q83-44 69-63.50Q55-83 38-99.50Q21-116 3-126Q1-128-3-129Q-7-130-9-128L-18-117Q-21-114-14-107Q27-74 30-32Q35 2 19 26Q15 34 26 42L68 68Q78 75 86 67Q93 59 96.50 46.50Q100 34 100 23Z"  horiz-adv-x="182" vert-adv-y="1000"  />

      
      <glyph glyph-name="uni2d" unicode="&#x2d;" d="M345 307Q342 299 333 299L65 299Q55 299 56 308L63 342Q65 352 76 352L343 352Q353 352 352 342L345 307L345 307Z"  horiz-adv-x="357" vert-adv-y="1000"  />

      
      <glyph glyph-name="uni2e" unicode="&#x2e;" d="M85 46Q85 22 74 6.50Q63-9 38-9Q24-9 15-4Q6 1 6 16Q6 39 16.50 54.50Q27 70 53 70Q66 70 75.50 65Q85 60 85 46Z"  horiz-adv-x="162" vert-adv-y="1000"  />

      
      <glyph glyph-name="uni2f" unicode="&#x2f;" d="M3-57Q1-62-1.50-63.50Q-4-65-9-65L-38-65Q-48-65-43-56L279 683Q283 693 293 693L321 693Q331 693 326 682L3-57Z"  horiz-adv-x="243" vert-adv-y="1000"  />

      
      <glyph glyph-name="uni30" unicode="&#x30;" d="M550 480Q550 445 545 410Q540 375 534 341Q522 277 503 214.50Q484 152 451 102.50Q418 53 366.50 22Q315-9 237-9Q140-9 96 39.50Q52 88 52 181Q52 222 58 262Q64 302 72 341Q84 401 102.50 460Q121 519 153 566Q185 613 234.50 642Q284 671 356 671Q550 671 550 480M354 621Q299 621 262 597.50Q225 574 200.50 537.50Q176 501 161.50 455.50Q147 410 137 365Q129 331 123.50 297Q118 263 116 228Q113 186 116 152Q119 118 133 93.50Q147 69 173.50 56Q200 43 242 43Q297 43 334.50 65Q372 87 397.50 123Q423 159 438.50 204.50Q454 250 465 297Q473 329 479 364.50Q485 400 487 435Q490 480 486 514.50Q482 549 467 572.50Q452 596 424.50 608.50Q397 621 354 621Z"  horiz-adv-x="543" vert-adv-y="1000"  />

      
      <glyph glyph-name="uni31" unicode="&#x31;" d="M418 9Q418 0 406 0L84 0Q73 0 76 9L82 43Q83 52 95 52L223 52L326 587L207 587Q197 587 198 595L201 612Q203 621 212 624L322 656Q331 659 339.50 661Q348 663 356 663L387 663Q395 663 396 659.50Q397 656 396 651L279 52L416 52Q428 52 425 43L418 9Z"  horiz-adv-x="543" vert-adv-y="1000"  />

      
      <glyph glyph-name="uni32" unicode="&#x32;" d="M434 9Q432 1 423 1L18 1Q7 1 9 10L17 48Q19 59 21.50 63Q24 67 29 71Q108 134 186 198.50Q264 263 349 335Q400 379 433 426.50Q466 474 466 523Q466 572 432.50 595Q399 618 324 618Q277 618 235 613Q193 608 155 603Q147 602 145 605.50Q143 609 142 612L143 629Q143 634 144.50 638Q146 642 152 644Q171 651 196 656Q221 661 246.50 664Q272 667 295 668.50Q318 670 333 670Q434 670 477.50 634.50Q521 599 521 533Q521 501 513 472.50Q505 444 489 417Q473 390 448 362.50Q423 335 389 305Q352 273 321 247Q290 221 256 193Q222 165 181 131.50Q140 98 82 52L431 52Q442 52 440 41L434 9L434 9Z"  horiz-adv-x="543" vert-adv-y="1000"  />

      
      <glyph glyph-name="uni33" unicode="&#x33;" d="M148 611Q142 611 139 612.50Q136 614 138 621L145 655Q147 663 156 663L527 663Q535 663 538 660.50Q541 658 539 648L533 616Q531 607 529.50 602Q528 597 523 592L283 400L368 385Q423 374 455 347Q487 320 487 264Q487 194 464 143Q441 92 400.50 58.50Q360 25 305.50 8.50Q251-8 189-8Q174-8 152-6.50Q130-5 106-2Q82 1 59 6Q36 11 20 18Q15 20 15 24Q15 28 17 33L23 50Q25 53 28 56.50Q31 60 39 59Q76 54 117.50 48.50Q159 43 206 43Q242 43 281 54.50Q320 66 353 91Q386 116 407 155Q428 194 428 249Q428 290 403.50 307.50Q379 325 334 333L220 353Q205 356 208 369L213 395Q215 403 218.50 407.50Q222 412 226 415L471 611L148 611Z"  horiz-adv-x="543" vert-adv-y="1000"  />

      
      <glyph glyph-name="uni34" unicode="&#x34;" d="M521 194Q519 186 510 186L424 186L390 12Q388 6 386 3Q384 0 377 0L342 0Q334 0 335 10L370 186L29 186Q21 186 20 189Q19 192 20 196L27 228Q29 236 31.50 241.50Q34 247 42 255L450 652Q457 658 461 660.50Q465 663 473 663L509 663Q517 663 515 655L434 237L518 237Q529 237 527 226L521 194M447 585L89 237L380 237L447 585Z"  horiz-adv-x="543" vert-adv-y="1000"  />

      
      <glyph glyph-name="uni35" unicode="&#x35;" d="M532 620Q529 610 518 610L235 610L168 416L370 384Q421 376 454 348.50Q487 321 488 270Q489 202 467.50 150Q446 98 407 63Q368 28 315 10Q262-8 199-8Q183-8 159-6.50Q135-5 110-2Q85 1 61 6Q37 11 21 18Q13 22 16 33L23 52Q25 57 28 59.50Q31 62 39 60Q77 55 123.50 50.50Q170 46 206 46Q252 46 292 58.50Q332 71 361.50 96.50Q391 122 408 160Q425 198 425 250Q426 288 400 306.50Q374 325 332 332L116 369Q96 372 104 393L194 650Q196 658 199.50 660Q203 662 211 662L529 662Q539 662 538 653L532 620Z"  horiz-adv-x="543" vert-adv-y="1000"  />

      
      <glyph glyph-name="uni36" unicode="&#x36;" d="M542 611Q540 607 537 604.50Q534 602 527 603Q495 607 454.50 611Q414 615 372 615Q315 615 275.50 595.50Q236 576 209 542Q182 508 165.50 463.50Q149 419 137 369Q176 373 206.50 376Q237 379 262.50 381.50Q288 384 311 385Q334 386 358 386Q432 386 469 350Q506 314 505 239Q504 175 484.50 128.50Q465 82 429.50 51.50Q394 21 344.50 6Q295-9 233-9Q179-9 142.50 1Q106 11 84 31Q62 51 53 81Q44 111 44 150Q45 193 52 238Q59 283 70 331Q84 395 104.50 456Q125 517 160 564.50Q195 612 248.50 641Q302 670 381 670Q396 670 417 669Q438 668 460.50 665Q483 662 504.50 657.50Q526 653 543 646Q554 642 549 631L542 611M337 332Q301 332 249 327.50Q197 323 125 315Q115 270 107 223.50Q99 177 101 140Q102 110 113 91Q124 72 143 61Q162 50 187.50 45.50Q213 41 243 41Q339 41 392.50 89.50Q446 138 445 237Q444 285 420 308.50Q396 332 337 332Z"  horiz-adv-x="543" vert-adv-y="1000"  />

      
      <glyph glyph-name="uni37" unicode="&#x37;" d="M569 621Q568 616 565 610Q562 604 558 599L149 2Q142-7 134-3L102 14Q93 19 100 29L501 611L129 611Q119 611 120 620L127 652Q128 663 139 663L565 663Q578 663 575 651L569 621Z"  horiz-adv-x="543" vert-adv-y="1000"  />

      
      <glyph glyph-name="uni38" unicode="&#x38;" d="M228-9Q192-9 155.50-3Q119 3 89.50 19.50Q60 36 42 64Q24 92 24 136Q24 222 71.50 275Q119 328 194 351L194 353Q157 367 133.50 397.50Q110 428 110 469Q110 521 131 559.50Q152 598 186 623Q220 648 264 660Q308 672 355 672Q391 672 424 664.50Q457 657 482.50 640.50Q508 624 523 596Q538 568 538 528Q538 494 527 464Q516 434 496.50 410.50Q477 387 450.50 371.50Q424 356 394 350Q444 336 472 299.50Q500 263 500 211Q500 154 477 112.50Q454 71 415.50 44Q377 17 328 4Q279-9 228-9M478 524Q478 552 467 571Q456 590 438 601Q420 612 397 617Q374 622 350 622Q316 622 283.50 614.50Q251 607 226 589.50Q201 572 186 543.50Q171 515 171 474Q171 448 183.50 431Q196 414 215.50 403Q235 392 258 385Q281 378 301 373Q334 379 366 388.50Q398 398 423 415Q448 432 463 458Q478 484 478 524M439 203Q439 235 424.50 256.50Q410 278 388 292Q366 306 338.50 314.50Q311 323 286 329Q247 321 211 309Q175 297 147 276Q119 255 102.50 223.50Q86 192 86 146Q86 114 99.50 94Q113 74 134.50 62.50Q156 51 182.50 46.50Q209 42 235 42Q272 42 308.50 51.50Q345 61 374 80.50Q403 100 421 130.50Q439 161 439 203Z"  horiz-adv-x="543" vert-adv-y="1000"  />

      
      <glyph glyph-name="uni39" unicode="&#x39;" d="M55 49Q57 54 59.50 56.50Q62 59 70 58Q101 54 142 49.50Q183 45 225 45Q282 45 321 64.50Q360 84 387 118Q414 152 430.50 196.50Q447 241 458 291Q419 287 389 284Q359 281 333.50 279Q308 277 285 276Q262 275 237 275Q166 275 128 310.50Q90 346 91 422Q93 550 165.50 610Q238 670 363 670Q417 670 453.50 660Q490 650 512 630Q534 610 543 580Q552 550 552 511Q552 468 544 423Q536 378 526 329Q512 265 491.50 204.50Q471 144 435.50 96.50Q400 49 346.50 20Q293-9 214-9Q200-9 179-8Q158-7 135.50-4.50Q113-2 91 2.50Q69 7 53 14Q41 19 47 30L55 49M259 329Q294 329 346 333Q398 337 470 345Q479 389 487.50 436Q496 483 495 521Q494 551 482.50 570Q471 589 452.50 600Q434 611 408.50 615Q383 619 353 619Q257 619 203.50 571Q150 523 151 424Q152 376 176 352.50Q200 329 259 329Z"  horiz-adv-x="543" vert-adv-y="1000"  />

      
      <glyph glyph-name="uni3a" unicode="&#x3a;" d="M169 416Q169 393 158.50 377Q148 361 122 361Q108 361 99 366Q90 371 90 386Q90 410 101 425Q112 440 137 440Q151 440 160 435.50Q169 431 169 416M97 47Q97 24 86.50 8Q76-8 50-8Q37-8 27.50-3Q18 2 18 17Q18 40 29 55.50Q40 71 66 71Q79 71 88 66.50Q97 62 97 47Z"  horiz-adv-x="182" vert-adv-y="1000"  />

      
      <glyph glyph-name="uni3b" unicode="&#x3b;" d="M169 416Q169 393 158.50 377Q148 361 122 361Q108 361 99 366Q90 371 90 386Q90 410 101 425Q112 440 137 440Q151 440 160 435.50Q169 431 169 416M98 23Q98 1 89.50-21.50Q81-44 67-63.50Q53-83 36-99.50Q19-116 1-126Q-1-128-5-129Q-9-130-11-128L-20-117Q-23-114-16-107Q24-76 29-32Q32 2 18 26Q12 34 24 42L66 68Q76 75 84 67Q91 59 94.50 46.50Q98 34 98 23Z"  horiz-adv-x="182" vert-adv-y="1000"  />

      
      <glyph glyph-name="uni3c" unicode="&#x3c;" d="M421 117Q419 104 409 111L90 298Q85 300 82.50 303Q80 306 82 313L87 338Q88 344 90.50 346.50Q93 349 99 353L491 547Q506 554 502 541L496 503Q494 495 491 492.50Q488 490 483 487L150 322L149 320L420 163Q425 160 427 156.50Q429 153 427 145L421 117L421 117Z"  horiz-adv-x="543" vert-adv-y="1000"  />

      
      <glyph glyph-name="uni3d" unicode="&#x3d;" d="M485 395Q484 387 473 387L115 387Q106 387 107 395L113 424Q114 434 124 434L482 434Q493 434 491 424L485 395M454 231Q452 223 441 223L83 223Q74 223 75 231L81 260Q82 270 93 270L451 270Q461 270 459 260L454 231Z"  horiz-adv-x="543" vert-adv-y="1000"  />

      
      <glyph glyph-name="uni3e" unicode="&#x3e;" d="M143 538Q145 551 155 544L474 357Q479 355 481.50 352Q484 349 482 342L477 317Q476 311 473.50 308.50Q471 306 465 302L73 108Q58 101 62 114L68 152Q70 160 73 162.50Q76 165 81 168L414 333L415 335L144 492Q139 495 137 498.50Q135 502 137 510L143 538L143 538Z"  horiz-adv-x="543" vert-adv-y="1000"  />

      
      <glyph glyph-name="uni3f" unicode="&#x3f;" d="M284 400Q243 373 210.50 344.50Q178 316 159 274Q154 263 149.50 249.50Q145 236 143 222Q141 212 137.50 194Q134 176 132 162Q130 155 123 155L94 155Q86 155 86 162L86 165Q88 185 91.50 207Q95 229 97 241Q103 273 117.50 299.50Q132 326 153 349.50Q174 373 199.50 393.50Q225 414 252 433Q268 444 283 454Q298 464 309.50 476Q321 488 328 503.50Q335 519 335 541Q335 584 305.50 601Q276 618 222 618Q213 618 199 617.50Q185 617 169.50 616Q154 615 138.50 614Q123 613 111 612Q100 612 100 620L100 639Q100 650 112 654Q141 665 176 668Q211 671 237 671Q268 671 295.50 664.50Q323 658 344 643.50Q365 629 377 606Q389 583 389 550Q389 521 380.50 499Q372 477 357.50 459.50Q343 442 324 427.50Q305 413 284 400M83-9Q51-9 51 15Q51 37 61.50 53Q72 69 98 69Q130 69 130 46Q130 24 120 7.50Q110-9 83-9Z"  horiz-adv-x="345" vert-adv-y="1000"  />

      
      <glyph glyph-name="uni40" unicode="&#x40;" d="M542 247Q540 236 540.50 225Q541 214 547 205.50Q553 197 565 191.50Q577 186 597 186Q637 186 667.50 210Q698 234 718.50 269Q739 304 749.50 345Q760 386 760 421L760 423Q760 475 741 516Q722 557 688 585.50Q654 614 605 629.50Q556 645 496 645Q417 645 347 616Q277 587 224 536.50Q171 486 139.50 417Q108 348 108 268Q108 211 127 165.50Q146 120 181.50 87.50Q217 55 267 38Q317 21 380 21Q385 21 397.50 21.50Q410 22 426 23.50Q442 25 460 27Q478 29 494 33L498 33Q504 33 505 27Q506 26 506 23L508 16L508 9Q506 5 502 4Q473-8 436.50-12.50Q400-17 366-17Q298-17 242.50 3Q187 23 147.50 59Q108 95 86.50 146.50Q65 198 65 261Q65 351 99 428.50Q133 506 192.50 562.50Q252 619 331.50 651.50Q411 684 502 684Q571 684 626.50 666Q682 648 721 615Q760 582 781 535Q802 488 803 430L803 428Q803 383 789.50 333.50Q776 284 750 242Q724 200 684.50 173Q645 146 593 146Q545 146 523.50 164.50Q502 183 497 212L496 213Q484 206 466 197.50Q448 189 427 181.50Q406 174 384.50 169Q363 164 344 164Q296 164 275 187.50Q254 211 254 259Q254 265 255 275.50Q256 286 257.50 298Q259 310 260.50 321.50Q262 333 264 342Q274 388 287 423Q300 458 320 482Q340 506 369 518Q398 530 440 530Q464 530 493.50 523Q523 516 549 504Q551 508 551 513Q553 519 555 520.50Q557 522 564 522L587 522Q596 522 596 517Q596 514 595 512L542 247M497 248Q508 303 519 357.50Q530 412 541 467Q512 479 483.50 484.50Q455 490 431 490Q387 490 362 467Q337 444 320 388Q317 377 315 366Q313 355 310 342Q305 319 302.50 299.50Q300 280 300 260Q300 225 314.50 214.50Q329 204 356 204Q370 204 389.50 209Q409 214 429.50 220.50Q450 227 468 234.50Q486 242 497 248Z"  horiz-adv-x="805" vert-adv-y="1000"  />

      
      <glyph glyph-name="uni41" unicode="&#x41;" d="M477 10Q477 0 468 0L429 0Q419 0 418 9Q412 53 407 95.50Q402 138 396 182L130 182L43 11Q40 3 36 1.50Q32 0 27 0L-14 0Q-21 0-21 4Q-21 8-19 11L317 651Q322 662 333 662L376 662Q383 662 384.50 659Q386 656 387 651L477 10M390 234Q388 251 384 282Q380 313 375.50 347Q371 381 367 412.50Q363 444 360 462L345 597L342 597Q328 569 311.50 535.50Q295 502 275 464L157 234L390 234Z"  horiz-adv-x="535" vert-adv-y="1000"  />

      
      <glyph glyph-name="uni42" unicode="&#x42;" d="M496 190Q493 148 476.50 113Q460 78 433.50 53Q407 28 372 14Q337 0 298 0L41 0Q25 0 28 13L151 650Q154 662 166 662L367 663Q456 663 496.50 620Q537 577 533 507Q531 458 500 412Q469 366 409 344L410 343Q438 333 455.50 315Q473 297 482.50 276Q492 255 494.50 232Q497 209 496 190M155 370L318 370Q347 370 374 379.50Q401 389 422.50 406.50Q444 424 457 449Q470 474 472 504Q475 551 448 580.50Q421 610 356 610L201 610L155 370M435 194Q436 218 429.50 241Q423 264 408 281Q393 298 370 308.50Q347 319 315 319L145 319L93 52L272 52Q344 52 388.50 90.50Q433 129 435 194Z"  horiz-adv-x="538" vert-adv-y="1000"  />

      
      <glyph glyph-name="uni43" unicode="&#x43;" d="M576 612Q574 607 571 604.50Q568 602 560 604Q529 607 486 611Q443 615 401 615Q336 615 292.50 590Q249 565 221 523.50Q193 482 177 430Q161 378 151 324Q144 293 141 262Q138 231 138 206Q138 170 145.50 141Q153 112 171 91Q189 70 218 58.50Q247 47 290 47Q330 47 375 50.50Q420 54 454 58Q467 59 467 49L466 30Q466 19 455 15Q437 8 411.50 3.50Q386-1 360-3.50Q334-6 311.50-7Q289-8 276-8Q221-8 183 6.50Q145 21 121.50 48Q98 75 87.50 112.50Q77 150 77 197Q77 222 80.50 256.50Q84 291 90 324Q102 390 122.50 452.50Q143 515 179 563.50Q215 612 269.50 641Q324 670 404 670Q419 670 442 669Q465 668 489.50 665.50Q514 663 537 658.50Q560 654 577 647Q584 644 585 640Q586 636 584 631L576 612Z"  horiz-adv-x="525" vert-adv-y="1000"  />

      
      <glyph glyph-name="uni44" unicode="&#x44;" d="M51 0Q37 0 37 9L37 11Q37 12 37.50 12Q38 12 38 13L161 650Q164 662 178 662L358 662Q417 662 458 647Q499 632 525 603.50Q551 575 563 533.50Q575 492 575 440Q575 414 572.50 387.50Q570 361 566 333Q555 262 534.50 201Q514 140 478 95.50Q442 51 387.50 25.50Q333 0 255 0L51 0M212 610Q184 470 157.50 331Q131 192 103 52L252 52Q316 52 359.50 74Q403 96 432 133.50Q461 171 477.50 220.50Q494 270 504 325Q509 351 511.50 378Q514 405 514 431Q514 470 506 502.50Q498 535 479.50 559Q461 583 431 596.50Q401 610 356 610L212 610Z"  horiz-adv-x="604" vert-adv-y="1000"  />

      
      <glyph glyph-name="uni45" unicode="&#x45;" d="M520 621Q519 610 506 610L208 610L161 371L430 371Q441 371 439 360L433 330Q432 319 419 319L151 319L99 52L405 52Q417 52 414 41L408 11Q406 0 394 0L43 0Q31 0 34 11L158 651Q161 663 172 663L517 663Q529 663 526 652L520 621Z"  horiz-adv-x="488" vert-adv-y="1000"  />

      
      <glyph glyph-name="uni46" unicode="&#x46;" d="M511 621Q508 610 497 610L204 610L157 371L417 371Q429 371 426 360L420 330Q419 318 406 318L147 318L88 12Q85 0 74 0L40 0Q28 0 29 12L154 651Q155 663 168 663L508 663Q520 663 517 652L511 621Z"  horiz-adv-x="481" vert-adv-y="1000"  />

      
      <glyph glyph-name="uni47" unicode="&#x47;" d="M575 612Q573 607 570 604.50Q567 602 560 604Q528 607 485 611Q442 615 400 615Q335 615 291.50 590Q248 565 220 524.50Q192 484 176 431.50Q160 379 149 324Q143 294 139.50 263.50Q136 233 136 207Q136 172 144 142.50Q152 113 170.50 91.50Q189 70 220 57.50Q251 45 298 45Q311 45 329.50 46.50Q348 48 366.50 50.50Q385 53 403 56.50Q421 60 435 65L479 291L381 291Q368 291 371 303L377 335Q378 345 391 345L536 345Q549 345 546 333L491 47Q488 35 482 27.50Q476 20 462 16Q376-8 285-8Q228-8 188.50 6Q149 20 124 46.50Q99 73 87.50 111Q76 149 76 196Q76 225 79 257Q82 289 89 324Q101 391 122.50 453.50Q144 516 180 564Q216 612 270.50 641Q325 670 403 670Q418 670 441 669Q464 668 488.50 665.50Q513 663 536 658.50Q559 654 576 647Q587 643 582 631L575 612Z"  horiz-adv-x="591" vert-adv-y="1000"  />

      
      <glyph glyph-name="uni48" unicode="&#x48;" d="M474 12Q471 0 461 0L427 0Q414 0 417 12L478 325L153 325L92 12Q89 0 79 0L44 0Q32 0 35 12L159 651Q162 663 173 663L208 663Q219 663 216 651L163 378L488 378L541 651Q544 663 555 663L590 663Q600 663 599 651L474 12Z"  horiz-adv-x="583" vert-adv-y="1000"  />

      
      <glyph glyph-name="uni49" unicode="&#x49;" d="M110 12Q107 0 96 0L62 0Q49 0 52 12L177 651Q180 663 191 663L225 663Q237 663 234 651L110 12Z"  horiz-adv-x="239" vert-adv-y="1000"  />

      
      <glyph glyph-name="uni4a" unicode="&#x4a;" d="M311 161Q303 122 289.50 91Q276 60 252.50 37.50Q229 15 194 3Q159-9 109-9Q96-9 79.50-8Q63-7 46-4.50Q29-2 12.50 1.50Q-4 5-17 11Q-29 16-24 27L-17 47Q-13 56-1 55Q28 50 57 48.50Q86 47 103 47Q143 47 169.50 56Q196 65 213 81.50Q230 98 239.50 121Q249 144 255 173L348 651Q351 663 362 663L397 663Q407 663 406 651L311 161Z"  horiz-adv-x="452" vert-adv-y="1000"  />

      
      <glyph glyph-name="uni4b" unicode="&#x4b;" d="M477 11Q478 10 478 8Q478 0 468 0L431 0Q419 0 415 10Q382 95 348.50 178Q315 261 281 346L123 187Q114 143 105.50 99.50Q97 56 89 11Q87 0 75 0L41 0Q32 0 32 7L32 11L156 651Q159 663 170 663L204 663Q213 663 213 654L213 651L139 274L140 274L263 398L524 654Q529 659 532 661Q535 663 543 663L590 663Q596 663 596 658Q596 655 593 652L323 386Q362 292 400.50 198.50Q439 105 477 11Z"  horiz-adv-x="537" vert-adv-y="1000"  />

      
      <glyph glyph-name="uni4c" unicode="&#x4c;" d="M420 11Q417 0 407 0L46 0Q34 0 37 11L160 650Q164 663 175 663L209 663Q221 663 218 650L102 53L417 53Q427 53 426 42L420 11Z"  horiz-adv-x="471" vert-adv-y="1000"  />

      
      <glyph glyph-name="uni4d" unicode="&#x4d;" d="M615 12Q612 0 602 0L568 0Q558 0 558 8L558 12Q584 144 609.50 275.50Q635 407 661 539L659 539L373 118Q366 108 356 108L332 108Q321 108 317 117L232 414L196 539L194 539Q168 406 142.50 275Q117 144 91 12Q90 0 78 0L45 0Q35 0 35 10L35 12Q67 173 98 332Q129 491 160 652Q163 663 173 663L206 663Q214 663 216 660.50Q218 658 220 652L325 285Q326 282 330.50 266Q335 250 340.50 231.50Q346 213 350 197Q354 181 355 178L357 178L442 306L675 651Q680 658 683.50 660.50Q687 663 696 663L730 663Q740 663 740 655Q740 654 739.50 653.50Q739 653 739 651Q707 490 677 331.50Q647 173 615 12Z"  horiz-adv-x="726" vert-adv-y="1000"  />

      
      <glyph glyph-name="uni4e" unicode="&#x4e;" d="M507 11Q504 0 493 0L463 0Q455 0 452.50 2.50Q450 5 447 11Q399 115 352 218.50Q305 322 257 426Q238 469 227 494.50Q216 520 210 533.50Q204 547 201.50 552Q199 557 198 561Q198 561 197 562Q196 561 195 561L89 12Q86 0 76 0L43 0Q33 0 33 8L33 12L158 652Q160 663 171 663L202 663Q210 663 212.50 660Q215 657 217 652Q265 546 310.50 445.50Q356 345 404 240Q410 228 418.50 208.50Q427 189 436 168Q445 147 453 128.50Q461 110 466 101L468 101Q495 239 522 375.50Q549 512 575 650Q578 663 589 663L622 663Q632 663 632 654L632 650L507 11Z"  horiz-adv-x="616" vert-adv-y="1000"  />

      
      <glyph glyph-name="uni4f" unicode="&#x4f;" d="M603 463Q603 432 599.50 401.50Q596 371 591 341Q579 272 559 208.50Q539 145 503 96.50Q467 48 411.50 19.50Q356-9 274-9Q169-9 121 46Q73 101 73 202Q73 237 77.50 271.50Q82 306 89 341Q101 405 122.50 464.50Q144 524 179.50 570Q215 616 267.50 643.50Q320 671 395 671Q501 671 552 620Q603 569 603 463M545 457Q545 537 509.50 578.50Q474 620 391 620Q329 620 286.50 594Q244 568 216 526.50Q188 485 171.50 433.50Q155 382 145 331Q139 300 135 269Q131 238 131 207Q131 131 164 87Q197 43 278 43Q343 43 386.50 68Q430 93 458.50 133.50Q487 174 503.50 226Q520 278 531 331Q537 362 541 393.50Q545 425 545 457Z"  horiz-adv-x="628" vert-adv-y="1000"  />

      
      <glyph glyph-name="uni50" unicode="&#x50;" d="M520 506Q520 456 503.50 414Q487 372 457.50 342Q428 312 385.50 295Q343 278 291 278L136 278L84 12Q81 0 71 0L37 0Q25 0 28 12L151 652Q154 663 166 663L348 662Q385 662 416.50 652.50Q448 643 471 623.50Q494 604 507 574.50Q520 545 520 506M461 505Q461 561 424.50 585.50Q388 610 333 610L201 610L146 328L292 328Q371 328 416 376.50Q461 425 461 505Z"  horiz-adv-x="495" vert-adv-y="1000"  />

      
      <glyph glyph-name="uni51" unicode="&#x51;" d="M601 439Q600 410 596.50 381.50Q593 353 588 324Q579 276 565 229.50Q551 183 529 142Q507 101 475 68.50Q443 36 398 17L530-22Q535-24 535.50-28.50Q536-33 534-36L512-73Q504-85 492-81L299-8Q292-9 286-9Q280-9 272-9Q217-9 179 5.50Q141 20 118 47.50Q95 75 84.50 114Q74 153 74 201Q74 236 78.50 271Q83 306 90 341Q100 400 121 459Q142 518 177.50 565Q213 612 266.50 641.50Q320 671 396 671Q456 671 496 654.50Q536 638 560 608Q584 578 593.50 535Q603 492 601 439M391 620Q332 620 291 596.50Q250 573 222.50 534Q195 495 177.50 446Q160 397 150 346Q143 317 139.50 288Q136 259 134 229Q132 185 138.50 150.50Q145 116 162 92Q179 68 207.50 55.50Q236 43 279 43Q338 43 380 66Q422 89 451.50 127Q481 165 499 214Q517 263 528 315Q540 374 543 434Q548 526 513.50 573Q479 620 391 620Z"  horiz-adv-x="628" vert-adv-y="1000"  />

      
      <glyph glyph-name="uni52" unicode="&#x52;" d="M139 288L86 12Q83 0 72 0L38 0Q29 0 29 7L29 12L153 652Q156 663 167 663Q215 663 262 662.50Q309 662 357 662Q393 662 423.50 653.50Q454 645 476 626Q498 607 510.50 576.50Q523 546 523 503Q523 425 479 369.50Q435 314 360 296Q381 224 401.50 154Q422 84 442 12Q443 10 443 7Q443 0 434 0L393 0Q385 0 382 1.50Q379 3 377 10L301 288L139 288M202 610L149 338L294 338Q368 338 415.50 380Q463 422 464 497Q464 530 454 551.50Q444 573 426.50 586Q409 599 385.50 604.50Q362 610 335 610L202 610Z"  horiz-adv-x="512" vert-adv-y="1000"  />

      
      <glyph glyph-name="uni53" unicode="&#x53;" d="M518 611Q516 606 513 603.50Q510 601 502 602Q489 604 470 606Q451 608 429 610Q407 612 383.50 613.50Q360 615 339 615Q301 615 268.50 605.50Q236 596 212 577Q188 558 174.50 529.50Q161 501 161 463Q161 439 170.50 423Q180 407 197 397Q214 387 238.50 381Q263 375 293 370Q327 364 359 354.50Q391 345 415.50 328Q440 311 455 283Q470 255 470 211Q470 152 449.50 110.50Q429 69 394 42.50Q359 16 312 3.50Q265-9 211-9Q193-9 166-7Q139-5 111.50-1.50Q84 2 59.50 7Q35 12 21 18Q15 21 14 25Q13 29 15 34L23 53Q26 63 38 61Q61 58 86 55Q111 52 134.50 50.50Q158 49 179 48Q200 47 215 47Q254 47 289 56Q324 65 350.50 84Q377 103 392 132.50Q407 162 407 204Q407 257 373 280Q339 303 281 313Q242 320 209 329Q176 338 152 354Q128 370 114.50 395Q101 420 101 459Q101 512 120 551.50Q139 591 171.50 617Q204 643 248 656Q292 669 342 669Q360 669 383 668Q406 667 430.50 664.50Q455 662 478 657.50Q501 653 519 645Q531 641 525 630L518 611Z"  horiz-adv-x="513" vert-adv-y="1000"  />

      
      <glyph glyph-name="uni54" unicode="&#x54;" d="M534 621Q531 610 520 610L343 610L225 12Q224 0 212 0L179 0Q165 0 168 12L284 610L108 610Q100 610 98 612.50Q96 615 97 621L104 652Q106 663 117 663L531 663Q542 663 539 652L534 621Z"  horiz-adv-x="468" vert-adv-y="1000"  />

      
      <glyph glyph-name="uni55" unicode="&#x55;" d="M536 236Q526 182 507.50 137.50Q489 93 457.50 60.50Q426 28 380 10Q334-8 269-8Q204-8 162 10.50Q120 29 96.50 61.50Q73 94 68 138.50Q63 183 74 236L155 650Q158 663 170 663L203 663Q213 663 213 654Q213 653 212.50 652.50Q212 652 212 650L131 233Q123 194 125.50 159.50Q128 125 143.50 99.50Q159 74 189 59Q219 44 267 44Q358 44 409.50 90Q461 136 479 233L560 650Q563 663 575 663L609 663Q618 663 618 653L618 650Q597 546 577 443Q557 340 536 236Z"  horiz-adv-x="599" vert-adv-y="1000"  />

      
      <glyph glyph-name="uni56" unicode="&#x56;" d="M548 652Q552 662 563 662L603 662Q610 662 610 658Q610 654 608 651L270 10Q266 0 254 0L213 0Q207 0 204.50 1.50Q202 3 201 9Q178 170 156.50 330.50Q135 491 113 652L113 655Q113 662 123 662L157 662Q163 662 165 660Q167 658 169 652L223 245L245 75L247 75Q255 90 266.50 111.50Q278 133 289.50 155.50Q301 178 311 198Q321 218 327 229Q339 253 358 289Q377 325 398 365.50Q419 406 442 449.50Q465 493 485 531.50Q505 570 521.50 602Q538 634 548 652Z"  horiz-adv-x="545" vert-adv-y="1000"  />

      
      <glyph glyph-name="uni57" unicode="&#x57;" d="M444 434Q441 427 426 396.50Q411 366 390.50 323Q370 280 346.50 231Q323 182 301 137Q279 92 262 57.50Q245 23 239 10Q235 0 224 0L181 0Q176 0 173.50 1.50Q171 3 170 10L110 652L110 655Q110 662 120 662L157 662Q167 662 168 653L217 83L220 83L283 214Q286 221 297.50 245.50Q309 270 325 303Q341 336 358.50 373.50Q376 411 392 444Q408 477 419.50 501.50Q431 526 435 533L424 652L424 655Q424 662 434 662L471 662Q481 662 482 653Q483 635 486 603Q489 571 492.50 531.50Q496 492 500 448Q504 404 508 362.50Q512 321 515 285Q518 249 520 225L532 83L534 83L597 215L805 653Q810 662 821 662L859 662Q866 662 866 658Q866 657 864 651L554 11Q548 0 538 0L497 0Q490 0 488 1.50Q486 3 485 10Q484 20 481 53.50Q478 87 473.50 132.50Q469 178 464.50 229Q460 280 455.50 324Q451 368 448 398.50Q445 429 445 434L444 434L444 434Z"  horiz-adv-x="802" vert-adv-y="1000"  />

      
      <glyph glyph-name="uni58" unicode="&#x58;" d="M320 342Q353 258 387 175.50Q421 93 454 10Q455 9 455 7Q455 0 446 0L402 0Q393 0 389 10Q373 51 357.50 91Q342 131 325 172L278 293L193 183L57 10Q52 4 49.50 2Q47 0 39 0L-10 0Q-16 0-16 5Q-16 8-14 10L249 342L125 652Q121 663 133 663L176 663Q184 663 185.50 660.50Q187 658 189 653L243 515L291 391L380 506L495 653Q502 662 512 662L560 662Q567 662 567 657Q567 656 565 652L320 342Z"  horiz-adv-x="509" vert-adv-y="1000"  />

      
      <glyph glyph-name="uni59" unicode="&#x59;" d="M237 12Q234 0 224 0L190 0Q180 0 180 8L180 12L235 294L107 653L107 656Q107 662 116 662L155 662Q161 662 162.50 660Q164 658 166 653Q182 608 197.50 562.50Q213 517 228 472L271 347L497 653Q503 662 512 662L554 662Q559 662 561 659.50Q563 657 559 652L292 294Q278 223 264.50 153Q251 83 237 12Z"  horiz-adv-x="494" vert-adv-y="1000"  />

      
      <glyph glyph-name="uni5a" unicode="&#x5a;" d="M520 623Q519 613 510 601L75 52L401 52Q413 52 410 41L405 12Q402 0 392 0L6 0Q-6 0-3 11L2 37Q4 44 6.50 50Q9 56 14 63L451 610L145 610Q137 610 135 612.50Q133 615 134 621L141 652Q143 663 154 663L518 663Q528 663 526 653L520 623Z"  horiz-adv-x="476" vert-adv-y="1000"  />

      
      <glyph glyph-name="uni5b" unicode="&#x5b;" d="M138 684Q140 695 152 695L280 695Q290 695 288 685L282 657Q280 648 270 648L186 648L50-54L133-54Q137-54 140.50-55.50Q144-57 142-63L137-91Q135-100 125-100L-2-100Q-15-100-12-89L138 684Z"  horiz-adv-x="240" vert-adv-y="1000"  />

      
      <glyph glyph-name="uni5c" unicode="&#x5c;" d="M167-56Q168-65 157-65L129-65Q121-65 120-57L64 682Q63 692 72 692L101 692Q110 692 110 683L167-56L167-56Z"  horiz-adv-x="243" vert-adv-y="1000"  />

      
      <glyph glyph-name="uni5d" unicode="&#x5d;" d="M137-89Q134-100 123-100L-4-100Q-15-100-12-90L-7-63Q-6-58-2-56Q2-54 6-54L89-54L225 648L142 648Q132 648 133 658L139 685Q139 695 150 695L278 695Q290 695 287 684L137-89Z"  horiz-adv-x="240" vert-adv-y="1000"  />

      
      <glyph glyph-name="uni5e" unicode="&#x5e;" d="M430 458Q434 449 428 446L413 437Q404 431 400 437L297 617L114 440Q107 433 100 438L86 449Q82 452 89 461L257 651Q262 656 266.50 659Q271 662 281 662L324 662Q335 662 337.50 659.50Q340 657 342 652L430 458L430 458Z"  horiz-adv-x="426" vert-adv-y="1000"  />

      
      <glyph glyph-name="uni5f" unicode="&#x5f;" d="M443-116Q442-124 432-124L-61-124Q-70-124-69-116L-65-96Q-62-86-53-86L439-86Q449-86 448-96L443-116Z"  horiz-adv-x="500" vert-adv-y="1000"  />

      
      <glyph glyph-name="uni60" unicode="&#x60;" d="M238 679Q230 687 239 692L272 708Q277 711 279.50 710.50Q282 710 286 705L379 569Q386 560 377 556L360 546Q355 544 352.50 544.50Q350 545 347 548L238 679Z"  horiz-adv-x="485" vert-adv-y="1000"  />

      
      <glyph glyph-name="uni61" unicode="&#x61;" d="M400 11Q398 0 387 0L354 0Q342 0 344 11L353 57Q334 46 312 34.50Q290 23 265 13Q240 3 212.50-3Q185-9 157-9Q94-9 65.50 22.50Q37 54 37 120Q37 143 40.50 175.50Q44 208 49 237Q61 301 78 349.50Q95 398 121.50 430.50Q148 463 186.50 479.50Q225 496 280 496Q315 496 354 486.50Q393 477 430 457L431 458L435 477Q437 484 440 485.50Q443 487 450 487L481 487Q493 487 490 474L400 11M423 411Q383 427 346 436.50Q309 446 274 446Q238 446 212 435Q186 424 166.50 399Q147 374 133.50 333.50Q120 293 108 235Q96 172 96 132Q96 79 114.50 60.50Q133 42 175 42Q195 42 221.50 49Q248 56 274.50 66Q301 76 324.50 86.50Q348 97 362 104L423 411Z"  horiz-adv-x="506" vert-adv-y="1000"  />

      
      <glyph glyph-name="uni62" unicode="&#x62;" d="M216-9Q160-9 113-3.50Q66 2 34 12Q25 15 22 21Q19 27 19 33Q19 41 20 45L145 690Q147 698 150 700Q153 702 159 702L191 702Q201 702 201 696Q201 692 200 690Q189 634 178.50 579Q168 524 157 468L159 466Q211 486 250.50 491.50Q290 497 318 497Q361 497 390 487Q419 477 436.50 457.50Q454 438 461.50 410Q469 382 469 346Q469 322 466.50 294.50Q464 267 459 241Q450 186 434 140Q418 94 390 61Q362 28 319.50 9.50Q277-9 216-9M408 335Q408 393 386.50 419.50Q365 446 313 446Q278 446 237 440Q196 434 149 421L78 56Q108 51 144.50 47Q181 43 220 43Q289 43 329 79Q369 115 390 196Q399 230 403.50 267Q408 304 408 335Z"  horiz-adv-x="494" vert-adv-y="1000"  />

      
      <glyph glyph-name="uni63" unicode="&#x63;" d="M436 444Q432 436 418 437Q389 440 351.50 443.50Q314 447 284 447Q246 447 219 436.50Q192 426 171.50 403Q151 380 137 341.50Q123 303 112 248Q107 218 103.50 193Q100 168 100 148Q100 90 125 66Q150 42 206 42Q220 42 238 43Q256 44 274.50 45.50Q293 47 311.50 48.50Q330 50 344 52Q358 54 358 43L358 28Q358 17 347 13Q332 7 311.50 3Q291-1 270-3.50Q249-6 228.50-7Q208-8 192-8Q147-8 118 3Q89 14 71.50 33Q54 52 47 78Q40 104 40 134Q40 159 44 189Q48 219 54 251Q63 300 77 345Q91 390 116.50 423.50Q142 457 183.50 477Q225 497 289 497Q303 497 323 496Q343 495 363.50 492.50Q384 490 404 485.50Q424 481 438 475Q447 472 442 461L436 444Z"  horiz-adv-x="409" vert-adv-y="1000"  />

      
      <glyph glyph-name="uni64" unicode="&#x64;" d="M401 11Q399 0 388 0L354 0Q345 0 345 8L345 11L354 57L337 48Q321 40 300 30.50Q279 21 255 12.50Q231 4 205.50-2Q180-8 156-8Q91-8 64 24.50Q37 57 36 123Q36 158 42.50 201Q49 244 59 284Q65 307 71 328Q77 349 85 367Q113 431 159.50 464Q206 497 287 497Q316 497 354 490Q392 483 433 465Q433 465 435 466Q446 523 456.50 578.50Q467 634 478 691Q480 698 482 700.50Q484 703 491 703L519 703Q524 703 529 702.50Q534 702 534 697Q534 695 533.50 694Q533 693 533 691L401 11M425 421Q382 435 345 441Q308 447 273 447Q225 447 193.50 425Q162 403 140 353Q135 341 130 326.50Q125 312 120 295Q110 257 102.50 212.50Q95 168 95 134Q95 90 113 66Q131 42 173 42Q193 42 220 49Q247 56 274 66Q301 76 325 86.50Q349 97 363 104L425 421Z"  horiz-adv-x="495" vert-adv-y="1000"  />

      
      <glyph glyph-name="uni65" unicode="&#x65;" d="M469 384Q469 341 451 310Q433 279 403.50 257Q374 235 336 221Q298 207 258.50 199Q219 191 180.50 187.50Q142 184 111 184Q104 150 104 125Q104 97 113.50 80.50Q123 64 139.50 55.50Q156 47 177 44.50Q198 42 221 42Q256 42 296 45.50Q336 49 374 53Q381 53 384.50 51.50Q388 50 388 44L388 28Q388 18 377 14Q360 7 337.50 3Q315-1 291.50-3.50Q268-6 244.50-7Q221-8 202-8Q128-8 87.50 21Q47 50 47 127Q47 162 54.50 196Q62 230 69 263Q77 299 91.50 340Q106 381 134.50 415.50Q163 450 208.50 473Q254 496 324 496Q353 496 379.50 488.50Q406 481 426 466.50Q446 452 457.50 431.50Q469 411 469 384M415 371Q415 393 406 407.50Q397 422 383 431Q369 440 351.50 443.50Q334 447 317 447Q259 447 224 425.50Q189 404 169 375Q146 340 136 300.50Q126 261 119 231Q140 231 170.50 233.50Q201 236 234 241.50Q267 247 299.50 256.50Q332 266 357.50 281.50Q383 297 399 319Q415 341 415 371Z"  horiz-adv-x="479" vert-adv-y="1000"  />

      
      <glyph glyph-name="uni66" unicode="&#x66;" d="M107-28Q101-63 89.50-89.50Q78-116 60-134Q42-152 15-161.50Q-12-171-49-171Q-63-171-90-168Q-117-165-145-153Q-157-148-152-136L-146-120Q-143-112-140-111Q-137-110-124-112Q-98-117-80-118.50Q-62-120-51-120Q-3-120 19-99Q41-78 52-28L144 442L82 442Q71 442 72 453L76 475Q79 487 91 487L154 487L168 564Q182 633 218.50 669.50Q255 706 330 706Q344 706 372 703Q400 700 426 688Q438 683 433 672L427 655Q424 648 420 647Q416 646 405 648Q380 653 361.50 654.50Q343 656 332 656Q284 656 259.50 635Q235 614 224 563L209 487L345 487Q356 487 353 476L349 453Q348 442 335 442L199 442L107-28Z"  horiz-adv-x="315" vert-adv-y="1000"  />

      
      <glyph glyph-name="uni67" unicode="&#x67;" d="M404-9Q395-53 381.50-86Q368-119 344-141Q320-163 282.50-174Q245-185 188-185Q170-185 149-184Q128-183 107-180.50Q86-178 66.50-174Q47-170 32-164Q23-160 27-149L33-133Q37-125 46-125L51-125Q84-129 121.50-132Q159-135 192-135Q229-135 255.50-129Q282-123 300-109.50Q318-96 329-74.50Q340-53 346-21L354 20Q352 22 352 22Q299 3 260-2.50Q221-8 193-8Q150-8 121.50 2Q93 12 75.50 31.50Q58 51 51 80Q44 109 44 146Q44 180 48 217Q52 254 60 288Q71 334 88.50 372Q106 410 133.50 438Q161 466 201 481.50Q241 497 296 497Q352 497 398 490.50Q444 484 476 475Q493 470 493 455Q493 452 492.50 449Q492 446 491 442L404-9M103 152Q103 93 125 67Q147 41 198 41Q266 41 362 67L433 432Q404 437 367 441Q330 445 292 445Q224 445 182.50 408Q141 371 121 292Q113 259 108 222Q103 185 103 152Z"  horiz-adv-x="495" vert-adv-y="1000"  />

      
      <glyph glyph-name="uni68" unicode="&#x68;" d="M353 496Q405 496 430 480Q455 464 463 438Q471 412 466.50 379.50Q462 347 456 313L398 11Q397 0 385 0L357 0Q348 0 344 1.50Q340 3 342 11L402 316Q406 341 409.50 364.50Q413 388 407.50 406.50Q402 425 385.50 436Q369 447 334 447Q314 447 286.50 439.50Q259 432 231.50 422Q204 412 179.50 401.50Q155 391 142 385L69 11Q68 0 56 0L25 0Q20 0 16.50 1.50Q13 3 15 11L147 692Q149 703 159 703L195 703Q204 703 202 692L151 430Q171 440 194.50 451.50Q218 463 244 473Q270 483 297.50 489.50Q325 496 353 496Z"  horiz-adv-x="491" vert-adv-y="1000"  />

      
      <glyph glyph-name="uni69" unicode="&#x69;" d="M221 630Q221 609 211 595Q201 581 178 581Q167 581 158.50 585.50Q150 590 150 603Q150 625 159.50 638.50Q169 652 192 652Q203 652 212 648Q221 644 221 630M95 12Q92 0 82 0L50 0Q37 0 40 12L130 475Q131 483 134.50 485Q138 487 144 487L177 487Q188 487 185 475L95 12Z"  horiz-adv-x="210" vert-adv-y="1000"  />

      
      <glyph glyph-name="uni6a" unicode="&#x6a;" d="M232 630Q232 609 222.50 595Q213 581 190 581Q178 581 169.50 585.50Q161 590 161 603Q161 625 171 638.50Q181 652 203 652Q215 652 223.50 648Q232 644 232 630M89-82Q79-129 53-157Q27-185-32-185Q-60-185-84-181.50Q-108-178-125-170Q-134-167-130-156L-124-141Q-122-135-119-133Q-116-131-107-133Q-93-135-73-135.50Q-53-136-40-136Q-1-136 14-118.50Q29-101 35-70L142 476Q143 487 155 487L188 487Q198 487 197 476L89-82Z"  horiz-adv-x="224" vert-adv-y="1000"  />

      
      <glyph glyph-name="uni6b" unicode="&#x6b;" d="M78 11Q76 0 64 0L32 0Q21 0 23 11L155 692Q158 703 168 703L201 703Q208 703 209.50 700.50Q211 698 210 693L119 222Q156 257 191 291.50Q226 326 262 361Q271 370 288.50 386.50Q306 403 324.50 421Q343 439 360 455.50Q377 472 385 480Q387 482 391 485Q395 488 402 488L448 488Q457 488 457 482Q457 478 452 473L251 280L376 12Q378 7 376.50 3.50Q375 0 367 0L331 0Q323 0 320.50 2.50Q318 5 315 11L210 240L102 135L78 11Z"  horiz-adv-x="427" vert-adv-y="1000"  />

      
      <glyph glyph-name="uni6c" unicode="&#x6c;" d="M158 14Q158 5 147 1Q136-3 124.50-4.50Q113-6 103-6Q81-6 68-0.50Q55 5 49 14Q43 23 42.50 36Q42 49 45 64L167 691Q170 703 181 703L213 703Q219 703 221.50 701Q224 699 222 691L104 80Q99 57 109.50 51.50Q120 46 149 46Q159 46 159 39L158 14Z"  horiz-adv-x="220" vert-adv-y="1000"  />

      
      <glyph glyph-name="uni6d" unicode="&#x6d;" d="M698 316Q705 352 707 377Q709 402 703 418Q697 434 681 441Q665 448 637 448Q618 448 593 441Q568 434 542.50 424.50Q517 415 493 404Q469 393 452 384Q451 373 449.50 357.50Q448 342 445 327L384 15Q381 0 367 0L338 0Q330 0 329 3Q328 6 330 15L391 327Q396 351 398 373Q400 395 394.50 411.50Q389 428 373.50 438Q358 448 329 448Q311 448 289.50 442.50Q268 437 244 428.50Q220 420 194.50 408.50Q169 397 145 385L73 15Q70 0 57 0L31 0Q23 0 20.50 3Q18 6 20 15L109 472Q112 487 125 487L150 487Q158 487 161 484Q164 481 162 472L154 430Q170 440 191.50 451.50Q213 463 237.50 473Q262 483 288.50 490Q315 497 341 497Q395 497 421 478Q447 459 452 422Q497 452 548.50 474.50Q600 497 651 497Q694 497 718.50 485.50Q743 474 753.50 452Q764 430 763.50 398.50Q763 367 755 327L694 15Q691 0 677 0L650 0Q642 0 639.50 3Q637 6 639 15L698 316L698 316Z"  horiz-adv-x="793" vert-adv-y="1000"  />

      
      <glyph glyph-name="uni6e" unicode="&#x6e;" d="M352 496Q401 496 425.50 480Q450 464 458.50 438.50Q467 413 464 380Q461 347 455 313L397 11Q396 0 383 0L350 0Q339 0 341 11L401 316Q406 341 409 364.50Q412 388 406.50 406.50Q401 425 384 436Q367 447 333 447Q313 447 285.50 439.50Q258 432 230.50 422Q203 412 178.50 401.50Q154 391 141 385L68 11Q67 0 54 0L22 0Q15 0 14 3Q13 6 14 11L104 475Q107 487 117 487L149 487Q158 487 159.50 484Q161 481 159 475L150 430Q168 440 191.50 451.50Q215 463 241 473Q267 483 295.50 489.50Q324 496 352 496Z"  horiz-adv-x="487" vert-adv-y="1000"  />

      
      <glyph glyph-name="uni6f" unicode="&#x6f;" d="M461 341Q461 295 452 252Q441 196 425.50 148.50Q410 101 382 66Q354 31 311.50 11.50Q269-8 204-8Q123-8 81.50 29Q40 66 40 148Q40 174 43.50 200Q47 226 52 252Q62 303 78.50 347.50Q95 392 122.50 425Q150 458 191 477.50Q232 497 291 497Q372 497 416.50 461Q461 425 461 341M403 338Q403 398 373 422Q343 446 286 446Q239 446 208 429.50Q177 413 157.50 385Q138 357 127 320.50Q116 284 109 245Q104 222 100.50 198.50Q97 175 97 151Q97 94 124 68.50Q151 43 208 43Q257 43 288.50 59Q320 75 340.50 102.50Q361 130 372.50 166.50Q384 203 392 245Q397 268 400 291.50Q403 315 403 338Z"  horiz-adv-x="490" vert-adv-y="1000"  />

      
      <glyph glyph-name="uni70" unicode="&#x70;" d="M89 68Q131 54 167.50 48Q204 42 240 42Q277 42 303 53.50Q329 65 348 90Q367 115 380 155.50Q393 196 404 255Q410 290 413 316.50Q416 343 417 363Q418 413 400 430.50Q382 448 341 448Q320 448 293 440.50Q266 433 239 423Q212 413 188 402.50Q164 392 150 385L89 68M44-160Q42-170 38-173Q34-176 26-176L-1-176Q-14-176-11-160L112 472Q115 487 128 487L155 487Q163 487 166 484Q169 481 167 472L159 428Q170 435 192 446.50Q214 458 241 469Q268 480 298 488.50Q328 497 357 497Q423 497 449 464Q475 431 474 364Q474 341 470.50 313Q467 285 462 253Q451 188 433.50 139Q416 90 388 57.50Q360 25 319.50 8.50Q279-8 224-8Q195-8 159-1.50Q123 5 81 25L80 23L44-160Z"  horiz-adv-x="492" vert-adv-y="1000"  />

      
      <glyph glyph-name="uni71" unicode="&#x71;" d="M294 496Q350 496 397.50 490.50Q445 485 477 475Q493 470 493 455Q493 452 492.50 449Q492 446 491 442L373-163Q370-176 360-176L328-176Q318-176 318-168L318-163L354 20Q354 20 352 21Q300 2 260.50-3Q221-8 193-8Q151-8 122 1.50Q93 11 76 29.50Q59 48 51.50 76Q44 104 44 140Q44 177 49 218Q54 259 62 294Q73 339 91 376Q109 413 136.50 440Q164 467 202.50 481.50Q241 496 294 496M103 148Q103 92 125 66Q147 40 198 40Q267 40 363 66L433 431Q404 436 367 440.50Q330 445 292 445Q224 445 182.50 407.50Q141 370 121 292Q113 258 108 220Q103 182 103 148Z"  horiz-adv-x="495" vert-adv-y="1000"  />

      
      <glyph glyph-name="uni72" unicode="&#x72;" d="M325 419Q284 411 243 400Q202 389 171 377L98 15Q95 0 81 0L54 0Q46 0 43.50 3Q41 6 43 15L132 472Q135 487 148 487L174 487Q182 487 185 484Q188 481 186 472L178 424Q186 429 203.50 438Q221 447 242.50 456Q264 465 287.50 474Q311 483 332 488Q338 490 339 488Q340 486 340 481L337 433Q337 422 325 419Z"  horiz-adv-x="294" vert-adv-y="1000"  />

      
      <glyph glyph-name="uni73" unicode="&#x73;" d="M406 444Q404 439 400 437.50Q396 436 388 436Q359 439 323.50 443Q288 447 257 447Q202 447 165 424.50Q128 402 128 346Q129 311 157 297.50Q185 284 229 277Q251 273 275 266.50Q299 260 319.50 246.50Q340 233 353.50 210.50Q367 188 367 153Q367 106 351 75.50Q335 45 308 26Q281 7 244.50-0.50Q208-8 167-8Q151-8 129.50-6.50Q108-5 86.50-2.50Q65 0 45.50 4Q26 8 13 13Q5 17 8 28L14 43Q16 50 20 51.50Q24 53 31 52Q45 50 64 48.50Q83 47 102.50 45Q122 43 140 42Q158 41 170 41Q200 41 225 45.50Q250 50 269 62Q288 74 298.50 94.50Q309 115 309 147Q309 167 301.50 181Q294 195 281.50 204Q269 213 252 218.50Q235 224 216 227Q190 231 164 237.50Q138 244 117.50 256Q97 268 84 288.50Q71 309 71 341Q71 384 86.50 413.50Q102 443 128.50 461.50Q155 480 189 488.50Q223 497 261 497Q274 497 294 496Q314 495 334.50 492Q355 489 374.50 485Q394 481 408 475Q417 472 412 461L406 444Z"  horiz-adv-x="420" vert-adv-y="1000"  />

      
      <glyph glyph-name="uni74" unicode="&#x74;" d="M265 21Q265 11 256 7Q248 4 236 1.50Q224-1 209.50-3.50Q195-6 179.50-7Q164-8 151-8Q95-8 80.50 17.50Q66 43 75 91L144 442L85 442Q74 442 75 453L80 475Q81 487 95 487L153 487L175 598Q176 609 189 612L220 621Q229 624 231 621Q233 618 231 610L208 487L318 487Q325 487 326.50 484.50Q328 482 327 476L322 453Q321 442 309 442L199 442L134 108Q127 72 135 57.50Q143 43 187 43Q192 43 201 43.50Q210 44 219.50 44.50Q229 45 237.50 45.50Q246 46 252 47Q266 48 266 38L265 21Z"  horiz-adv-x="298" vert-adv-y="1000"  />

      
      <glyph glyph-name="uni75" unicode="&#x75;" d="M108 180Q100 138 98.50 111Q97 84 104.50 68Q112 52 129 45.50Q146 39 175 39Q195 39 223 46.50Q251 54 278.50 64.50Q306 75 330 85.50Q354 96 366 102L438 472Q441 487 455 487L481 487Q489 487 491 484Q493 481 491 472L402 15Q400 6 397.50 3Q395 0 387 0L361 0Q353 0 349.50 3Q346 6 348 15L357 60Q346 53 324.50 41.50Q303 30 276 18.50Q249 7 218-1Q187-9 158-9Q112-9 86.50 3.50Q61 16 50.50 39Q40 62 42 95.50Q44 129 52 170L110 472Q113 487 128 487L155 487Q163 487 165 484Q167 481 165 472L108 180L108 180Z"  horiz-adv-x="497" vert-adv-y="1000"  />

      
      <glyph glyph-name="uni76" unicode="&#x76;" d="M217 9Q212 0 204 0L168 0Q162 0 160 2Q158 4 156 9L75 474Q73 479 75 482.50Q77 486 83 486L119 486Q124 486 125.50 483Q127 480 128 475L183 149Q186 130 189 112Q191 97 193 82.50Q195 68 195 61Q198 68 206 82.50Q214 97 222 113Q232 131 243 152L423 478Q426 483 428 485Q430 487 435 487L475 487Q481 487 480.50 484Q480 481 478 476L217 9Z"  horiz-adv-x="450" vert-adv-y="1000"  />

      
      <glyph glyph-name="uni77" unicode="&#x77;" d="M461 9Q456 0 447 0L412 0Q401 0 400 9L369 243L359 326L314 237L196 9Q191 0 183 0L148 0Q137 0 136 9L74 474Q73 479 74.50 482.50Q76 486 82 486L117 486Q122 486 123.50 483Q125 480 126 475L163 173Q165 146 168 123Q170 103 172 85Q174 67 174 60Q177 67 186.50 85.50Q196 104 206 124Q217 147 231 175L345 402L336 474Q334 479 336 482.50Q338 486 344 486L381 486Q386 486 387.50 483Q389 480 390 475L426 182Q429 153 432 128Q434 107 436 87Q438 67 438 60Q441 67 450.50 86.50Q460 106 471 128Q483 153 498 183L647 478Q650 483 652 485Q654 487 659 487L700 487Q706 487 705.50 484Q705 481 703 476L461 9Z"  horiz-adv-x="675" vert-adv-y="1000"  />

      
      <glyph glyph-name="uni78" unicode="&#x78;" d="M363 12Q368 0 354 0L317 0Q312 0 310 3Q308 6 306 10L216 203L51 10Q47 6 43.50 3Q40 0 34 0L-7 0Q-13 0-14 3.50Q-15 7-11 12L191 249L86 475Q84 480 86 483.50Q88 487 94 487L128 487Q136 487 141 477L227 294L384 477Q388 481 392 484Q396 487 402 487L442 487Q448 487 449 483.50Q450 480 446 475L252 249L363 12L363 12Z"  horiz-adv-x="419" vert-adv-y="1000"  />

      
      <glyph glyph-name="uni79" unicode="&#x79;" d="M134-164Q130-170 125.50-173Q121-176 113-176L84-176Q72-176 79-164L163-8L81 474Q79 479 81 482.50Q83 486 89 486L125 486Q130 486 131.50 483Q133 480 134 475L196 110L203 55L231 113L424 478Q427 483 429 485Q431 487 436 487L475 487Q481 487 480.50 484Q480 481 478 476L134-164Z"  horiz-adv-x="453" vert-adv-y="1000"  />

      
      <glyph glyph-name="uni7a" unicode="&#x7a;" d="M430 454Q428 443 423.50 438Q419 433 415 428L66 49L335 49Q351 49 348 36L344 15Q342 7 339 3.50Q336 0 326 0L2 0Q-9 0-8 10L-4 28Q-2 38 1.50 43.50Q5 49 10 55L366 440L107 440Q98 440 95.50 443.50Q93 447 95 455L99 474Q101 482 104 484.50Q107 487 116 487L420 487Q428 487 432 485.50Q436 484 434 476L430 454L430 454Z"  horiz-adv-x="420" vert-adv-y="1000"  />

      
      <glyph glyph-name="uni7b" unicode="&#x7b;" d="M78 172Q81 190 83.50 207.50Q86 225 83.50 239.50Q81 254 72.50 265Q64 276 46 281Q37 284 38 292L41 306Q43 314 53 317Q73 323 86 334Q99 345 107 360Q115 375 119.50 392Q124 409 127 427L166 620Q169 634 173.50 649Q178 664 187.50 676Q197 688 212.50 695.50Q228 703 251 703Q266 703 277 701.50Q288 700 294 698Q299 696 301.50 694Q304 692 302 685L299 670Q297 663 294 661.50Q291 660 286 660L257 658Q236 656 228.50 647.50Q221 639 217 621L179 423Q175 405 169.50 385.50Q164 366 155 349.50Q146 333 133 319.50Q120 306 102 300L102 298Q117 287 125 274.50Q133 262 135.50 247.50Q138 233 136 215.50Q134 198 130 176L89-33Q85-50 91-58.50Q97-67 120-69L148-71Q153-71 156-72.50Q159-74 157-81L153-99Q151-105 148.50-107Q146-109 141-111Q134-113 122.50-114Q111-115 96-115Q73-115 60-107.50Q47-100 41.50-87.50Q36-75 36.50-59Q37-43 40-25L78 172L78 172Z"  horiz-adv-x="249" vert-adv-y="1000"  />

      
      <glyph glyph-name="uni7c" unicode="&#x7c;" d="M135-104Q135-116 124-116L101-116Q94-116 90.50-114Q87-112 87-104L87 684Q87 692 90.50 694Q94 696 100 696L123 696Q135 696 135 684L135-104L135-104Z"  horiz-adv-x="224" vert-adv-y="1000"  />

      
      <glyph glyph-name="uni7d" unicode="&#x7d;" d="M111-25Q108-39 103-55Q98-71 88.50-84.50Q79-98 64-106.50Q49-115 26-115Q16-115 2.50-113.50Q-11-112-17-110Q-28-107-25-97L-21-81Q-19-74-16.50-73Q-14-72-8-71L20-69Q40-67 48-58.50Q56-50 60-33L101 176Q105 198 109.50 215.50Q114 233 122 247.50Q130 262 142.50 274.50Q155 287 175 298L175 300Q159 306 151.50 319.50Q144 333 142 349.50Q140 366 142 385.50Q144 405 148 423L186 621Q190 639 185.50 647.50Q181 656 160 658L133 660Q128 661 125 662Q122 663 124 670L127 685Q129 692 131.50 694Q134 696 139 698Q146 700 157.50 701.50Q169 703 184 703Q207 703 219.50 695.50Q232 688 236.50 676Q241 664 240.50 649Q240 634 237 620L200 427Q197 409 194.50 392Q192 375 194.50 360Q197 345 206 334Q215 323 233 317Q241 314 240 306L237 291Q236 284 226 281Q205 276 192 265Q179 254 171 239.50Q163 225 158.50 207.50Q154 190 151 172L111-25Z"  horiz-adv-x="249" vert-adv-y="1000"  />

      
      <glyph glyph-name="uni7e" unicode="&#x7e;" d="M340 244Q317 244 294 254Q271 264 248.50 276Q226 288 205 298Q184 308 164 308Q141 308 123.50 297Q106 286 83 263Q77 257 74 254.50Q71 252 64 256L51 265Q44 270 46.50 275Q49 280 52 283Q81 325 113.50 340.50Q146 356 176 356Q200 356 223.50 346Q247 336 269.50 324.50Q292 313 313 303Q334 293 353 293Q378 293 395 305Q412 317 430 336Q435 341 439 345Q443 349 450 344L463 335Q470 330 468.50 326Q467 322 465 320Q439 281 407 262.50Q375 244 340 244Z"  horiz-adv-x="504" vert-adv-y="1000"  />

      
      <glyph glyph-name="uni0385" unicode="&#x0385;" d="M430 625Q430 604 420.50 590.50Q411 577 390 577Q379 577 371 581Q363 585 363 599Q363 619 372 632Q381 645 403 645Q414 645 422 641Q430 637 430 625M251 625Q251 604 241.50 590.50Q232 577 211 577Q199 577 191 581Q183 585 183 599Q183 619 192 632Q201 645 224 645Q235 645 243 641Q251 637 251 625M280 552Q276 545 267 549L251 556Q242 560 249 570L343 704Q348 711 356 707L390 691Q394 689 393.50 685.50Q393 682 390 679L280 552Z"  horiz-adv-x="406" vert-adv-y="1000"  />

      
      <glyph glyph-name="uni0384" unicode="&#x0384;" d="M328 552Q324 545 315 549L299 556Q290 560 297 570L391 704Q396 711 404 707L438 691Q442 689 441.50 685.50Q441 682 438 679L328 552Z"  horiz-adv-x="485" vert-adv-y="1000"  />

      
      <glyph glyph-name="unia8" unicode="&#xa8;" d="M456 625Q456 604 446.50 590.50Q437 577 416 577Q405 577 397 581Q389 585 389 599Q389 619 398 632Q407 645 429 645Q440 645 448 641Q456 637 456 625M277 625Q277 604 267.50 590.50Q258 577 237 577Q225 577 217 581Q209 585 209 599Q209 619 218 632Q227 645 250 645Q261 645 269 641Q277 637 277 625Z"  horiz-adv-x="487" vert-adv-y="1000"  />

      
      <glyph glyph-name="unia3" unicode="&#xa3;" d="M232 497Q224 459 218 422.50Q212 386 204 348L403 348Q410 348 411 345.50Q412 343 412 338L407 313Q404 301 393 301L195 301Q190 278 186 256Q182 234 177 209Q172 186 165.50 162.50Q159 139 150 118Q141 97 129.50 79.50Q118 62 102 52L415 52Q423 52 424.50 49Q426 46 425 41L419 9Q418 0 405 0L17 0Q7 0 8 10L12 33Q14 45 28 51Q65 69 82.50 99Q100 129 110 168Q118 201 125 234Q132 267 138 301L85 301Q76 301 76 304.50Q76 308 76 313L81 338Q82 348 94 348L147 348Q154 386 161 424.50Q168 463 176 501Q190 578 240.50 624Q291 670 380 670Q395 670 415.50 669Q436 668 457.50 665Q479 662 499.50 657.50Q520 653 537 646Q544 643 544 637Q544 631 541 624.50Q538 618 536 612Q533 604 525 604L521 604Q492 607 454.50 611.50Q417 616 375 616Q316 616 279.50 585Q243 554 232 497Z"  horiz-adv-x="524" vert-adv-y="1000"  />

      
      <glyph glyph-name="uni2122" unicode="&#x2122;" d="M464 405Q462 400 459.50 398Q457 396 452 396L436 396Q431 396 428.50 398Q426 400 423 405Q414 425 404 444Q394 463 383 483Q372 506 359.50 529.50Q347 553 336 576L334 576Q334 523 334.50 470.50Q335 418 335 365Q335 355 326 355L302 355Q291 355 291 365L291 655Q291 663 301 663L326 663Q333 663 335 660.50Q337 658 339 654L445 448L446 448L552 654Q554 658 556.50 660.50Q559 663 565 663L589 663Q598 663 598 654L598 365Q598 355 590 355L565 355Q555 355 555 365L555 576Q555 576 553 577L506 484L464 405M171 365Q171 359 168.50 357.50Q166 356 161 356L138 356Q133 356 130 357.50Q127 359 127 365L127 621L42 621Q32 621 32 631L32 654Q32 662 42 662L255 662Q265 662 265 653L265 631Q265 621 255 621L171 621L171 365Z"  horiz-adv-x="641" vert-adv-y="1000"  />

      
      <glyph glyph-name="uniad" unicode="&#xad;" d="M345 307Q342 299 333 299L65 299Q55 299 56 308L63 342Q65 352 76 352L343 352Q353 352 352 342L345 307L345 307Z"  horiz-adv-x="357" vert-adv-y="1000"  />

      
      <glyph glyph-name="uni2020" unicode="&#x2020;" d="M494 447Q493 436 481 436L308 436L216-36Q213-48 203-48L172-48Q165-48 162.50-46Q160-44 162-36L253 436L81 436Q70 436 71 447L77 475Q80 486 90 486L263 486L301 679Q304 691 316 691L347 691Q359 691 356 679L318 486L490 486Q501 486 500 475L494 447Z"  horiz-adv-x="470" vert-adv-y="1000"  />

      
      <glyph glyph-name="uni0393" unicode="&#x0393;" d="M518 621Q515 610 504 610L210 610L94 12Q93 0 81 0L46 0Q35 0 36 12L161 651Q162 663 175 663L514 663Q526 663 523 652L518 621Z"  horiz-adv-x="464" vert-adv-y="1000"  />

      
      <glyph glyph-name="uni0394" unicode="&#x0394;" d="M479 10Q479 0 470 0L-12 0Q-19 0-19 5Q-19 5-17 11L319 651Q323 658 326 660Q329 662 336 662L376 662Q384 662 386 659Q388 656 389 650L479 10M412 51Q409 69 405.50 100Q402 131 397 168.50Q392 206 387 247Q382 288 377.50 325.50Q373 363 369 394Q365 425 363 444L345 597L343 597Q329 568 311.50 533.50Q294 499 274 460Q270 452 254 421Q238 390 216.50 347Q195 304 170 255.50Q145 207 123 164Q101 121 85 90Q69 59 65 51L412 51Z"  horiz-adv-x="535" vert-adv-y="1000"  />

      
      <glyph glyph-name="uni2206" unicode="&#x2206;" d="M479 10Q479 0 470 0L-12 0Q-19 0-19 5Q-19 5-17 11L319 651Q323 658 326 660Q329 662 336 662L376 662Q384 662 386 659Q388 656 389 650L479 10M412 51Q409 69 405.50 100Q402 131 397 168.50Q392 206 387 247Q382 288 377.50 325.50Q373 363 369 394Q365 425 363 444L345 597L343 597Q329 568 311.50 533.50Q294 499 274 460Q270 452 254 421Q238 390 216.50 347Q195 304 170 255.50Q145 207 123 164Q101 121 85 90Q69 59 65 51L412 51Z"  horiz-adv-x="535" vert-adv-y="1000"  />

      
      <glyph glyph-name="uni0398" unicode="&#x0398;" d="M481 329Q479 324 477 321.50Q475 319 468 319L210 319Q203 319 201.50 321Q200 323 201 329L208 362Q209 371 220 371L478 371Q485 371 486.50 369Q488 367 487 362L481 329M603 463Q603 432 599.50 401.50Q596 371 591 341Q579 272 559 208.50Q539 145 503 96.50Q467 48 411.50 19.50Q356-9 274-9Q169-9 121 46Q73 101 73 202Q73 237 77.50 271.50Q82 306 89 341Q101 405 122.50 464.50Q144 524 179.50 570Q215 616 267.50 643.50Q320 671 395 671Q501 671 552 620Q603 569 603 463M545 457Q545 537 509.50 578.50Q474 620 391 620Q329 620 286.50 594Q244 568 216 526.50Q188 485 171.50 433.50Q155 382 145 331Q139 300 135 269Q131 238 131 207Q131 131 164 87Q197 43 278 43Q343 43 386.50 68Q430 93 458.50 133.50Q487 174 503.50 226Q520 278 531 331Q537 362 541 393.50Q545 425 545 457Z"  horiz-adv-x="632" vert-adv-y="1000"  />

      
      <glyph glyph-name="uni039B" unicode="&#x039B;" d="M477 10Q477 0 468 0L428 0Q420 0 417 9Q403 112 392 204Q387 243 382 283Q377 323 372.50 359.50Q368 396 364 426.50Q360 457 358 476Q352 523 348.50 556Q345 589 345 597L342 597Q331 575 318 547.50Q305 520 288 488L42 11Q38 3 34.50 1.50Q31 0 25 0L-14 0Q-21 0-21 4Q-21 8-19 11L317 651Q321 658 324 660Q327 662 334 662L374 662Q382 662 384 659Q386 656 387 650L477 10L477 10Z"  horiz-adv-x="535" vert-adv-y="1000"  />

      
      <glyph glyph-name="uni039E" unicode="&#x039E;" d="M550 621Q549 610 536 610L358 610L311 371L460 371Q471 371 469 360L463 330Q462 319 449 319L301 319L249 52L434 52Q446 52 443 41L437 11Q436 0 423 0L-3 0Q-15 0-14 11L-7 41Q-6 52 6 52L192 52L243 319L94 319Q82 319 85 330L91 360Q93 371 104 371L253 371L300 610L121 610Q108 610 111 621L117 652Q120 663 131 663L546 663Q559 663 556 652L550 621Z"  horiz-adv-x="503" vert-adv-y="1000"  />

      
      <glyph glyph-name="uni03A0" unicode="&#x03A0;" d="M474 12Q471 0 461 0L427 0Q414 0 417 12L533 610L208 610L92 12Q89 0 79 0L44 0Q32 0 35 12L159 651Q162 663 173 663L590 663Q600 663 599 651L474 12Z"  horiz-adv-x="583" vert-adv-y="1000"  />

      
      <glyph glyph-name="unidf" unicode="&#xdf;" d="M65 5Q62-7 51-7L18-7Q9-7 9 0L9 4Q35 133 59.50 260Q84 387 109 516Q119 569 141.50 606Q164 643 192.50 666Q221 689 253.50 699Q286 709 317 709Q348 709 376 702Q404 695 425 680Q446 665 458 641.50Q470 618 470 585Q470 533 445 485Q420 437 365 408Q414 396 431 365.50Q448 335 448 290Q448 230 436 178Q427 136 409.50 102Q392 68 365 43.50Q338 19 301 5.50Q264-8 217-8Q205-8 188-6.50Q171-5 159-1Q147 4 151 14L158 34Q160 41 164 42Q168 43 176 43Q187 42 197 41.50Q207 41 215 41Q281 41 317.50 73.50Q354 106 371 161Q379 184 383.50 215Q388 246 388 275Q388 317 368.50 345Q349 373 297 373L273 373Q268 373 265 375Q262 377 263 382L267 405Q268 414 277 416Q299 421 322.50 434.50Q346 448 366 469Q386 490 399 517Q412 544 412 575Q412 618 386 639Q360 660 313 660Q260 660 219 624Q178 588 165 521L65 5L65 5Z"  horiz-adv-x="487" vert-adv-y="1000"  />

      
      <glyph glyph-name="uniae" unicode="&#xae;" d="M475 506Q475 460 458 420Q441 380 411 350Q381 320 341.50 303Q302 286 257 286Q212 286 172 303Q132 320 102 350Q72 380 55 420Q38 460 38 506Q38 552 55 592Q72 632 102 661.50Q132 691 172 708Q212 725 257 725Q303 725 343 708Q383 691 412.50 661.50Q442 632 458.50 592Q475 552 475 506M445 506Q445 545 430 580Q415 615 389.50 640.50Q364 666 330 681Q296 696 257 696Q218 696 183 681Q148 666 122.50 640.50Q97 615 82 580Q67 545 67 506Q67 466 82 431.50Q97 397 122.50 371Q148 345 183 330Q218 315 257 315Q296 315 330 330Q364 345 389.50 371Q415 397 430 431.50Q445 466 445 506M355 376Q359 368 351 368L330 368Q324 368 320 373L269 480L214 480L214 375Q214 368 206 368L190 368Q183 368 183 375L183 632Q183 638 192 638L271 638Q287 638 301.50 633.50Q316 629 327 620Q338 611 344.50 596.50Q351 582 351 561Q351 538 339.50 516Q328 494 300 485L355 376M320 561Q320 590 304 600Q288 610 265 610L214 610L214 508L267 508Q274 508 283 509.50Q292 511 300.50 516.50Q309 522 314.50 532.50Q320 543 320 561Z"  horiz-adv-x="514" vert-adv-y="1000"  />

      
      <glyph glyph-name="unia9" unicode="&#xa9;" d="M749 335Q749 262 721 198Q693 134 645 87Q597 40 532.50 12.50Q468-15 395-15Q322-15 257.50 12.50Q193 40 145 87Q97 134 69.50 198Q42 262 42 335Q42 408 69.50 472Q97 536 145 583Q193 630 257.50 657.50Q322 685 395 685Q470 685 535 657.50Q600 630 647.50 583Q695 536 722 472Q749 408 749 335M710 335Q710 400 685 457.50Q660 515 617.50 557.50Q575 600 517.50 625Q460 650 395 650Q330 650 272.50 625Q215 600 172.50 557.50Q130 515 105.50 457.50Q81 400 81 335Q81 270 105.50 212.50Q130 155 172.50 112Q215 69 272.50 44.50Q330 20 395 20Q460 20 517.50 44.50Q575 69 617.50 112Q660 155 685 212.50Q710 270 710 335M501 150Q501 147 500 144Q499 141 495 139Q485 135 470.50 133Q456 131 441.50 129.50Q427 128 414.50 127.50Q402 127 395 127Q352 127 324 143Q296 159 279.50 185.50Q263 212 256.50 247Q250 282 250 321Q250 360 256 396Q262 432 278 460Q294 488 323 504.50Q352 521 397 521Q406 521 418.50 520.50Q431 520 444.50 518.50Q458 517 471.50 514.50Q485 512 495 509Q502 505 501 498L499 484Q499 482 497 479Q495 476 490 477Q469 479 445 481Q421 483 397 483Q361 483 340 468.50Q319 454 307.50 431Q296 408 293 379Q290 350 290 321Q290 292 294 264.50Q298 237 309.50 214.50Q321 192 342 178.50Q363 165 396 165Q419 165 442.50 166.50Q466 168 488 170Q495 170 496.50 168Q498 166 500 160Q500 158 500.50 155Q501 152 501 150Z"  horiz-adv-x="789" vert-adv-y="1000"  />

      
      <glyph glyph-name="uni03A3" unicode="&#x03A3;" d="M499 621Q496 610 485 610L164 610L281 364Q286 353 283.50 344Q281 335 273 325L61 52L387 52Q399 52 396 41L391 12Q388 0 378 0L-6 0Q-18 0-15 11L-10 38Q-8 44-5.50 50.50Q-3 57 2 64L224 346L104 601Q100 610 102 623L108 653Q111 663 120 663L495 663Q507 663 505 652L499 621Z"  horiz-adv-x="439" vert-adv-y="1000"  />

      
      <glyph glyph-name="unia7" unicode="&#xa7;" d="M302 669Q318 669 337.50 667.50Q357 666 376.50 662Q396 658 413.50 652.50Q431 647 443 639Q450 635 444 624L434 609Q431 603 421 605Q401 611 365.50 615.50Q330 620 297 619Q236 618 196 592.50Q156 567 156 516Q156 487 173.50 467Q191 447 217 431Q243 415 273 400.50Q303 386 329 367.50Q355 349 372 323.50Q389 298 388 260Q387 224 367 188.50Q347 153 299 120Q320 100 330 76Q340 52 340 31Q340-23 318.50-57.50Q297-92 265.50-112Q234-132 198-139.50Q162-147 133-147Q89-147 50.50-138Q12-129-11-114Q-17-108-12-99L-2-84Q4-76 12-80Q45-91 70.50-96.50Q96-102 123-102Q156-102 186-95.50Q216-89 238.50-74.50Q261-60 274.50-35.50Q288-11 288 25Q288 53 270.50 73Q253 93 227 108.50Q201 124 170.50 138Q140 152 114 169Q88 186 70.50 208Q53 230 53 262Q53 309 76.50 347.50Q100 386 145 421Q120 444 110.50 465Q101 486 101 512Q101 552 118 581.50Q135 611 163 630.50Q191 650 227 659.50Q263 669 302 669M177 396Q152 376 133 349Q114 322 109 294Q105 275 108 260Q111 245 119.50 233Q128 221 140 211.50Q152 202 166 194Q190 180 217.50 169Q245 158 269 145Q302 171 320.50 200Q339 229 339 255Q339 286 322 306Q305 326 280 341Q255 356 227 368.50Q199 381 177 396Z"  horiz-adv-x="413" vert-adv-y="1000"  />

      
      <glyph glyph-name="unib0" unicode="&#xb0;" d="M177 664Q203 664 225.50 654Q248 644 264.50 626.50Q281 609 290.50 586.50Q300 564 300 539Q300 513 290.50 490.50Q281 468 264.50 451.50Q248 435 225.50 425.50Q203 416 177 416Q117 416 84 451.50Q51 487 51 539Q51 564 61 587Q71 610 88 627Q105 644 128 654Q151 664 177 664M256 537Q256 554 249.50 569.50Q243 585 232 596.50Q221 608 206 614.50Q191 621 175 621Q141 621 117.50 596.50Q94 572 94 537Q94 504 117.50 480.50Q141 457 175 457Q208 457 232 480.50Q256 504 256 537Z"  horiz-adv-x="337" vert-adv-y="1000"  />

      
      <glyph glyph-name="unia5" unicode="&#xa5;" d="M45 269Q39 269 39 274L40 278Q41 281 41.50 287Q42 293 44 304Q46 311 54 311L211 311L89 653L89 656Q89 662 98 662L141 662Q147 662 148.50 660Q150 658 152 653L255 345L258 345L482 653Q488 662 498 662L537 662Q545 662 545 658Q545 655 542 652L286 311L449 311Q454 311 455 309Q456 307 456 303L451 275Q449 269 442 269L45 269M430 213Q435 213 436 211Q437 209 437 204L432 177Q430 171 423 171L250 171Q242 131 234.50 91.50Q227 52 219 12Q216 0 205 0L172 0Q162 0 162 9L162 12Q170 52 177.50 91.50Q185 131 193 171L26 171Q20 171 20 178L26 206Q27 209 28.50 211Q30 213 35 213L430 213Z"  horiz-adv-x="519" vert-adv-y="1000"  />

      
      <glyph glyph-name="uni03A6" unicode="&#x03A6;" d="M346 12Q345 0 333 0L298 0Q286 0 289 12L294 36Q229 39 186 58.50Q143 78 117 109.50Q91 141 80 180.50Q69 220 69 262Q69 338 92 403Q115 468 159 517Q203 566 266 595.50Q329 625 409 630L413 651Q416 663 427 663L462 663Q472 663 471 651L467 630Q527 627 568.50 609Q610 591 636.50 562.50Q663 534 674.50 497.50Q686 461 686 419Q686 341 665 273Q644 205 602 154Q560 103 497.50 72Q435 41 351 36L346 12M630 411Q630 442 621.50 471.50Q613 501 593 524.50Q573 548 540 563Q507 578 457 580L360 85Q430 91 481 118.50Q532 146 565 190Q598 234 614 290.50Q630 347 630 411M400 581Q332 576 280.50 549Q229 522 194.50 479.50Q160 437 142.50 381Q125 325 125 264Q125 226 134.50 194.50Q144 163 165.50 140Q187 117 221 103Q255 89 304 85L400 581Z"  horiz-adv-x="708" vert-adv-y="1000"  />

      
      <glyph glyph-name="uni03A8" unicode="&#x03A8;" d="M643 396Q633 345 611 300.50Q589 256 553 222Q517 188 467 167Q417 146 350 143L324 12Q321 0 311 0L276 0Q264 0 267 12L292 143Q233 147 192 168.50Q151 190 127 224.50Q103 259 96 304.50Q89 350 99 401L149 651Q152 663 163 663L197 663Q209 663 206 651L156 396Q138 303 175.50 253Q213 203 303 196L391 651Q394 663 405 663L440 663Q452 663 449 651L360 196Q447 203 507.50 253Q568 303 586 396L636 651Q637 663 650 663L684 663Q694 663 693 651L643 396Z"  horiz-adv-x="677" vert-adv-y="1000"  />

      
      <glyph glyph-name="uni03A9" unicode="&#x03A9;" d="M556 52Q566 52 566 44L566 41L560 12Q557 0 546 0L352 0Q344 0 342.50 3Q341 6 342 11L349 47Q351 53 353.50 56.50Q356 60 364 62Q404 74 434.50 100.50Q465 127 487.50 162Q510 197 525 240Q540 283 549 328Q555 357 558 387.50Q561 418 561 447Q561 484 553.50 515.50Q546 547 527.50 570.50Q509 594 479 607.50Q449 621 404 621Q350 621 308.50 601Q267 581 236 547Q205 513 184.50 467.50Q164 422 152 371Q143 335 138 298.50Q133 262 133 227Q133 167 152.50 123.50Q172 80 218 63Q229 58 227 47L220 11Q218 0 206 0L15 0Q6 0 6 8L6 12L12 41Q13 52 26 52L135 52Q135 52 136 53Q101 82 87.50 125.50Q74 169 74 220Q74 247 77 274.50Q80 302 85 330Q95 391 117.50 451.50Q140 512 179 561Q218 610 274.50 640.50Q331 671 410 671Q469 671 509 654Q549 637 574 607.50Q599 578 609.50 537.50Q620 497 620 450Q620 397 611 342Q604 299 591.50 256.50Q579 214 559.50 176.50Q540 139 513 107Q486 75 451 53L451 52L556 52Z"  horiz-adv-x="645" vert-adv-y="1000"  />

      
      <glyph glyph-name="uniab" unicode="&#xab;" d="M37 169Q32 177 34 182Q36 187 41 191L166 316Q171 321 176 324Q181 327 189 327L232 327Q236 327 236 324Q236 321 233 318L91 178L172 43Q174 39 172.50 35.50Q171 32 166 32L130 32Q121 32 118 35Q115 38 112 43L37 169M175 169Q170 177 172 182Q174 187 179 191L303 316Q308 321 313 324Q318 327 327 327L369 327Q373 327 373 324Q373 321 370 318L228 178L309 43Q311 39 309 35.50Q307 32 302 32L268 32Q258 32 255 35Q252 38 249 43L175 169Z"  horiz-adv-x="384" vert-adv-y="1000"  />

      
      <glyph glyph-name="unibb" unicode="&#xbb;" d="M339 189Q344 181 342 176.50Q340 172 335 167L211 42Q206 37 201 34Q196 31 187 31L146 31Q141 31 141 34Q141 37 144 40L285 181L203 315Q201 319 202.50 322.50Q204 326 209 326L245 326Q254 326 257 323Q260 320 263 315L339 189M203 189Q210 176 199 167L74 42Q69 37 64.50 34Q60 31 51 31L9 31Q5 31 4.50 34Q4 37 7 40L148 181L66 315Q64 319 66 322.50Q68 326 73 326L109 326Q118 326 121 323Q124 320 127 315L203 189Z"  horiz-adv-x="384" vert-adv-y="1000"  />

      
      <glyph glyph-name="uni2026" unicode="&#x2026;" d="M57 69Q88 69 88 44Q88 21 77.50 6Q67-9 41-9Q9-9 9 16Q9 39 20 54Q31 69 57 69M272 69Q290 69 297 62.50Q304 56 304 39Q304 18 292.50 4.50Q281-9 257-9Q226-9 226 16Q226 39 236 54Q246 69 272 69M487 69Q505 69 512 62.50Q519 56 519 39Q519 18 507.50 4.50Q496-9 472-9Q441-9 441 16Q441 39 451 54Q461 69 487 69Z"  horiz-adv-x="604" vert-adv-y="1000"  />

      
      <glyph glyph-name="uni0153" unicode="&#x0153;" d="M800 384Q800 342 782.50 311.50Q765 281 735.50 259.50Q706 238 668.50 224.50Q631 211 591.50 202.50Q552 194 513 191Q474 188 443 187Q438 165 436 150.50Q434 136 434 122Q434 96 444.50 80Q455 64 472 56Q489 48 511 45.50Q533 43 557 43Q595 43 633 46Q671 49 705 53L711 53Q719 53 719 47L719 29Q719 24 717.50 20.50Q716 17 709 15Q692 9 668 4.50Q644 0 618-3Q592-6 567-7Q542-8 524-8Q464-8 430.50 12.50Q397 33 386 75Q359 36 315.50 14Q272-8 203-8Q122-8 81 29Q40 66 40 147Q40 173 43.50 199.50Q47 226 52 252Q62 303 78.50 347.50Q95 392 122.50 425Q150 458 191 477.50Q232 497 291 497Q357 497 397.50 473.50Q438 450 452 397Q480 439 528 467.50Q576 496 654 496Q684 496 710.50 488.50Q737 481 757 466.50Q777 452 788.50 431.50Q800 411 800 384M286 446Q239 446 208 429.50Q177 413 157.50 385Q138 357 127 320.50Q116 284 108 245Q103 222 100 198Q97 174 97 151Q97 94 123.50 68Q150 42 208 42Q257 42 288.50 58Q320 74 340.50 101.50Q361 129 372.50 166Q384 203 392 245Q397 268 400 291.50Q403 315 403 338Q403 398 373 422Q343 446 286 446M744 371Q744 393 735.50 407.50Q727 422 713 431Q699 440 682 443.50Q665 447 648 447Q589 447 554 425.50Q519 404 499 375Q483 352 475.50 327Q468 302 462 279L450 231Q471 231 501 233.50Q531 236 564 241.50Q597 247 629 256.50Q661 266 686.50 281.50Q712 297 728 319Q744 341 744 371Z"  horiz-adv-x="821" vert-adv-y="1000"  />

      
      <glyph glyph-name="uni2015" unicode="&#x2015;" d="M981 241Q979 232 970 232L46 232Q35 232 38 241L42 266Q43 276 55 276L978 276Q987 276 986 266L981 241Z"  horiz-adv-x="1008" vert-adv-y="1000"  />

      
      <glyph glyph-name="uni201C" unicode="&#x201C;" d="M105 518Q105 540 113.50 562.50Q122 585 135.50 604.50Q149 624 166.50 640Q184 656 201 667Q208 672 213 669L222 658Q226 654 218 648Q177 617 174 572Q171 540 184 514Q190 508 179 499L136 473Q126 466 119 474Q111 482 108 494.50Q105 507 105 518M216 518Q216 540 224.50 562.50Q233 585 246.50 604.50Q260 624 277 640Q294 656 312 667Q319 673 323 669L333 658Q337 654 329 648Q288 617 285 572Q283 557 286 541.50Q289 526 295 514Q301 508 289 499L247 473Q237 466 229 474Q221 482 218.50 494.50Q216 507 216 518Z"  horiz-adv-x="276" vert-adv-y="1000"  />

      
      <glyph glyph-name="uni201D" unicode="&#x201D;" d="M322 623Q322 601 313.50 579Q305 557 291 537Q277 517 260 500.50Q243 484 225 474Q223 472 219.50 471.50Q216 471 214 473L205 483Q202 488 209 493Q248 525 253 569Q255 584 252 599.50Q249 615 242 627Q240 630 241 634Q242 638 248 642L291 669Q302 676 308 668Q316 659 319 646.50Q322 634 322 623M211 623Q211 601 202.50 579Q194 557 180.50 537Q167 517 150 500.50Q133 484 115 474Q112 472 108.50 471.50Q105 471 103 473L94 483Q90 488 98 493Q139 526 142 569Q144 584 141 599.50Q138 615 131 627Q129 630 130 634Q131 638 138 642L180 669Q191 675 197 668Q205 659 208 646.50Q211 634 211 623Z"  horiz-adv-x="276" vert-adv-y="1000"  />

      
      <glyph glyph-name="uni2018" unicode="&#x2018;" d="M116 518Q116 540 124.50 562.50Q133 585 146.50 604.50Q160 624 177.50 640Q195 656 212 667Q219 672 224 669L233 658Q237 654 229 648Q188 617 185 572Q182 540 195 514Q201 508 190 499L147 473Q137 466 130 474Q122 482 119 494.50Q116 507 116 518Z"  horiz-adv-x="192" vert-adv-y="1000"  />

      
      <glyph glyph-name="uni2019" unicode="&#x2019;" d="M222 623Q222 601 213.50 579Q205 557 191 537Q177 517 160 500.50Q143 484 125 474Q123 472 119.50 471.50Q116 471 114 473L104 483Q101 487 109 493Q148 525 153 569Q155 584 152 599.50Q149 615 142 627Q140 630 141 634Q142 638 148 642L191 669Q201 675 208 668Q216 659 219 646.50Q222 634 222 623Z"  horiz-adv-x="192" vert-adv-y="1000"  />

      
      <glyph glyph-name="unif7" unicode="&#xf7;" d="M349 482Q346 465 336.50 453Q327 441 303 441Q278 441 274 453Q270 465 273 482Q276 498 285.50 508.50Q295 519 318 519Q342 519 347 509Q352 499 349 482M289 171Q285 154 276 142Q267 130 242 130Q217 130 213.50 142.50Q210 155 213 171Q216 188 225 198.50Q234 209 257 209Q281 209 286.50 198.50Q292 188 289 171M466 312Q465 304 454 304L96 304Q86 304 88 312L93 341Q96 351 105 351L464 351Q473 351 472 341L466 312Z"  horiz-adv-x="537" vert-adv-y="1000"  />

      
      <glyph glyph-name="uni03B1" unicode="&#x03B1;" d="M400 12Q399 0 388 0L353 0Q341 0 344 12L353 57Q334 46 312 34.50Q290 23 265 13Q240 3 212.50-3Q185-9 157-9Q94-9 65.50 22.50Q37 54 37 120Q37 143 41 175.50Q45 208 50 237Q62 301 79 349.50Q96 398 122 430.50Q148 463 186.50 479.50Q225 496 280 496Q315 496 354 486.50Q393 477 430 457L431 458L435 477Q437 484 439.50 485.50Q442 487 449 487L481 487Q493 487 490 474L400 12M423 411Q383 427 346 436.50Q309 446 274 446Q238 446 212 435Q186 424 166.50 399Q147 374 133.50 333.50Q120 293 108 235Q96 172 96 132Q96 79 114.50 60.50Q133 42 175 42Q195 42 221.50 49Q248 56 274.50 66Q301 76 324.50 86.50Q348 97 362 104L423 411Z"  horiz-adv-x="506" vert-adv-y="1000"  />

      
      <glyph glyph-name="uni03B2" unicode="&#x03B2;" d="M206-9Q175-9 139-2Q103 5 69 21Q68 21 68 20.50Q68 20 67 20L38-127Q36-135 33.50-136.50Q31-138 25-138L-2-138Q-7-138-12-137Q-17-136-17-131Q-17-130-16.50-129.50Q-16-129-16-127Q-9-88-2.50-55.50Q4-23 10.50 11Q17 45 25 86Q33 127 44.50 184Q56 241 71 319Q86 397 107 505Q117 557 137.50 595.50Q158 634 186.50 659.50Q215 685 250.50 697Q286 709 325 709Q356 709 383 701.50Q410 694 430 677.50Q450 661 461.50 635.50Q473 610 473 573Q473 548 465 522.50Q457 497 442.50 475Q428 453 408.50 436Q389 419 367 410L367 409Q415 401 434 369.50Q453 338 453 292Q453 278 452 263.50Q451 249 449 235Q442 182 426.50 137.50Q411 93 383 60.50Q355 28 311.50 9.50Q268-9 206-9M316 657Q282 657 256 645Q230 633 211 612.50Q192 592 180 564.50Q168 537 162 506L77 67Q120 53 155 47Q190 41 222 41Q297 41 334.50 85.50Q372 130 387 207Q395 247 395 277Q395 307 386 325Q377 343 362 352.50Q347 362 327.50 365Q308 368 286 368Q274 368 260 367.50Q246 367 229 366Q221 366 217 367Q213 368 215 375L219 398Q221 405 223.50 406.50Q226 408 236 410Q268 414 299.50 426.50Q331 439 356.50 458.50Q382 478 398 506Q414 534 414 570Q414 617 385.50 637Q357 657 316 657Z"  horiz-adv-x="494" vert-adv-y="1000"  />

      
      <glyph glyph-name="uni03C8" unicode="&#x03C8;" d="M234-162Q232-173 221-173L188-173Q179-173 179-167L179-162L209-7Q160-6 125.50 9Q91 24 71 48.50Q51 73 45 107Q39 141 47 181L103 475Q106 487 117 487L150 487Q159 487 159 480Q159 477 158 475Q144 399 129 325.50Q114 252 99 175Q94 148 97 124.50Q100 101 113 83.50Q126 66 151.50 55Q177 44 218 43L310 512Q313 524 324 524L357 524Q366 524 366 517Q366 514 365 512L274 43Q316 44 345.50 54.50Q375 65 395.50 83Q416 101 427.50 124.50Q439 148 445 175Q459 250 473.50 325Q488 400 503 475Q506 487 516 487L543 487Q548 487 556 485Q559 483 559 480Q559 479 558.50 478Q558 477 558 475Q544 400 529 324.50Q514 249 499 173Q491 132 474.50 100Q458 68 430 45Q402 22 361.50 9Q321-4 264-8Q256-48 249-84.50Q242-121 234-162Z"  horiz-adv-x="556" vert-adv-y="1000"  />

      
      <glyph glyph-name="uni03B4" unicode="&#x03B4;" d="M340 710Q354 710 373 709Q392 708 412.50 706Q433 704 452.50 700Q472 696 487 689Q493 686 493 682Q493 678 491 674L485 657Q481 647 467 650Q440 655 404 657.50Q368 660 338 660Q313 660 290.50 655Q268 650 251.50 638Q235 626 225 607.50Q215 589 215 562Q215 545 225.50 532.50Q236 520 253.50 510.50Q271 501 292 493.50Q313 486 334 478Q361 469 384 456.50Q407 444 424 425.50Q441 407 450.50 380.50Q460 354 460 318Q460 269 449.50 212Q439 155 411 100Q399 77 382 57Q365 37 340.50 22.50Q316 8 282 0Q248-8 203-8Q151-8 120 5.50Q89 19 72 42.50Q55 66 49.50 97.50Q44 129 44 164Q44 175 45.50 190.50Q47 206 50 223Q53 240 56.50 257.50Q60 275 64 289Q71 314 82 339.50Q93 365 110 388.50Q127 412 152 432Q177 452 211 466Q185 479 170.50 500.50Q156 522 156 551Q156 592 170 622Q184 652 208.50 671.50Q233 691 266.50 700.50Q300 710 340 710M273 438Q215 426 179 387.50Q143 349 123 286Q113 254 107 217.50Q101 181 101 149Q101 124 106 104.50Q111 85 124 71Q137 57 158.50 49.50Q180 42 212 42Q255 42 285 53.50Q315 65 336 87Q357 109 370.50 141.50Q384 174 393 217Q398 235 400 262Q402 289 402 308Q402 365 370.50 395.50Q339 426 273 438Z"  horiz-adv-x="493" vert-adv-y="1000"  />

      
      <glyph glyph-name="uni03B5" unicode="&#x03B5;" d="M433 447Q429 437 415 438Q386 440 352 443.50Q318 447 288 447Q264 447 238.50 442.50Q213 438 192 427Q171 416 157.50 396Q144 376 144 346Q144 325 154.50 313Q165 301 181.50 295.50Q198 290 217.50 288.50Q237 287 254 287L302 287Q313 287 311 274L306 251Q303 239 293 239L248 239Q219 239 191.50 233.50Q164 228 141.50 214.50Q119 201 105.50 177.50Q92 154 92 118Q92 92 102 77Q112 62 128.50 54.50Q145 47 167.50 44.50Q190 42 214 42Q228 42 245 43Q262 44 280 45.50Q298 47 315.50 48.50Q333 50 348 52Q355 52 358.50 50.50Q362 49 362 43L361 27Q361 17 351 13Q335 7 315 3Q295-1 274-3.50Q253-6 233-7Q213-8 197-8Q164-8 133.50-2Q103 4 80.50 18.50Q58 33 44.50 57Q31 81 31 118Q32 170 63.50 210Q95 250 142 263L142 264Q84 287 84 349Q84 391 103.50 420Q123 449 153 466Q183 483 219.50 490.50Q256 498 291 498Q305 498 324.50 497Q344 496 364 493.50Q384 491 402.50 487Q421 483 434 477Q438 475 439.50 472Q441 469 439 464L433 447Z"  horiz-adv-x="417" vert-adv-y="1000"  />

      
      <glyph glyph-name="uni03C6" unicode="&#x03C6;" d="M263-162Q261-173 251-173L218-173Q209-173 209-166L209-162L239-7Q185-5 149 11Q113 27 90.50 53Q68 79 58.50 114.50Q49 150 49 191Q49 236 60 280.50Q71 325 93 364.50Q115 404 147.50 435.50Q180 467 224 485Q233 490 238 480L247 461Q250 454 240 448Q206 430 180.50 401Q155 372 138 336.50Q121 301 112.50 262.50Q104 224 104 187Q104 119 137.50 81.50Q171 44 249 42Q271 151 292 259Q313 367 334 476Q337 491 348.50 493.50Q360 496 377 496L392 496Q447 496 484 481Q521 466 543.50 441Q566 416 575.50 383Q585 350 585 313Q585 243 567 185.50Q549 128 513 86Q477 44 422 20Q367-4 294-7L263-162M528 309Q528 338 521 362.50Q514 387 497 405.50Q480 424 451.50 434.50Q423 445 381 445L303 42Q363 46 405.50 67.50Q448 89 475.50 124.50Q503 160 515.50 207Q528 254 528 309Z"  horiz-adv-x="619" vert-adv-y="1000"  />

      
      <glyph glyph-name="uni03B3" unicode="&#x03B3;" d="M423 477Q426 482 429 484.50Q432 487 438 487L479 487Q485 487 485 484Q485 480 482 476L210-5L179-164Q176-176 166-176L133-176Q124-176 124-169L124-164L157 3Q139 107 122 210Q105 313 87 417Q84 434 79.50 441.50Q75 449 59 449Q54 449 50.50 449.50Q47 450 47 455L47 477Q48 482 49.50 484Q51 486 58 488Q70 492 78 492.50Q86 493 94 493Q117 493 126.50 477Q136 461 141 430L175 200L196 67L199 67Q208 83 220 106Q232 129 244.50 151.50Q257 174 268.50 194.50Q280 215 286 227L423 477L423 477Z"  horiz-adv-x="436" vert-adv-y="1000"  />

      
      <glyph glyph-name="uni03B7" unicode="&#x03B7;" d="M352 496Q404 496 428.50 478.50Q453 461 461 434Q469 407 465 375Q461 343 455 313L369-119Q366-131 355-131L321-131Q313-131 313-124L313-119L401 316Q406 340 409 363.50Q412 387 406.50 405.50Q401 424 384 435.50Q367 447 333 447Q313 447 285.50 439.50Q258 432 230.50 422Q203 412 178.50 401.50Q154 391 141 385L68 11Q67 0 54 0L22 0Q14 0 14 6L14 11L104 475Q107 487 117 487L149 487Q160 487 160 480Q160 478 159.50 477.50Q159 477 159 475L150 430Q154 432 158 434Q162 436 167 438Q183 447 204.50 457Q226 467 250.50 475.50Q275 484 301 490Q327 496 352 496Z"  horiz-adv-x="487" vert-adv-y="1000"  />

      
      <glyph glyph-name="uni03B9" unicode="&#x03B9;" d="M95 12Q92 0 82 0L50 0Q37 0 40 12L130 475Q131 483 134.50 485Q138 487 144 487L177 487Q188 487 185 475L95 12Z"  horiz-adv-x="210" vert-adv-y="1000"  />

      
      <glyph glyph-name="uni03BE" unicode="&#x03BE;" d="M345 709Q360 709 378.50 707.50Q397 706 415.50 703.50Q434 701 450.50 697Q467 693 478 687Q486 682 483 675L476 657Q473 649 469 648Q465 647 459 648Q433 653 399 655Q365 657 339 657Q304 657 271.50 649.50Q239 642 214.50 625Q190 608 175.50 580.50Q161 553 161 513Q161 486 172.50 467.50Q184 449 203 438Q222 427 245 422.50Q268 418 291 418L374 418Q382 418 384 416Q386 414 385 409L380 383Q377 371 366 371L281 371Q234 371 196.50 356.50Q159 342 133.50 315Q108 288 94.50 250.50Q81 213 81 167Q81 125 98.50 100.50Q116 76 145 63.50Q174 51 211 48Q248 45 286 45L324 45Q341 45 343 34Q345 28 347.50 20Q350 12 350 6Q350 1 347.50-4.50Q345-10 337-20Q329-31 318-48Q307-65 296.50-83Q286-101 276.50-118.50Q267-136 261-148Q254-163 242-159L218-152Q211-150 212-144.50Q213-139 215-133Q220-121 228.50-103.50Q237-86 247.50-68Q258-50 268.50-33Q279-16 288-6Q236-5 188 0Q140 5 103.50 22Q67 39 45 73.50Q23 108 23 168Q23 205 33 241Q43 277 63 307Q83 337 112 360Q141 383 180 395L180 396Q139 408 120 440Q101 472 101 513Q101 561 120 598Q139 635 172 659.50Q205 684 249.50 696.50Q294 709 345 709Z"  horiz-adv-x="387" vert-adv-y="1000"  />

      
      <glyph glyph-name="uni03BA" unicode="&#x03BA;" d="M78 11Q76 0 64 0L32 0Q23 0 23 7L23 11L113 476Q116 487 127 487L160 487Q169 487 169 480Q169 478 168 476L119 222L384 479Q393 488 405 488L448 488Q457 488 457 482Q457 478 452 473L251 280L376 12Q376 11 376.50 10.50Q377 10 377 9Q377 0 367 0L331 0Q323 0 320 2.50Q317 5 315 11L210 240L102 135L78 11L78 11Z"  horiz-adv-x="427" vert-adv-y="1000"  />

      
      <glyph glyph-name="uni03BB" unicode="&#x03BB;" d="M202 306Q177 262 151.50 217Q126 172 102.50 131.50Q79 91 61 59Q43 27 33 10Q28 0 18 0L-21 0Q-29 0-28 4Q-27 8-24 13L253 489Q249 518 246.50 546Q244 574 240 603Q237 628 230 646Q223 664 198 664Q192 664 186.50 664Q181 664 174 663Q169 663 166.50 663.50Q164 664 164 669Q164 674 164 680Q164 686 165 692Q165 700 177 704Q199 709 217 709Q240 709 253.50 703Q267 697 275 686Q283 675 286.50 657.50Q290 640 293 618L363 64Q365 51 368.50 43.50Q372 36 389 36L397 36Q405 36 405 30L403 10Q403 3 393 0Q388-2 379-2.50Q370-3 365-3Q335-3 325 11Q315 25 311 59L267 418L266 418L202 306Z"  horiz-adv-x="438" vert-adv-y="1000"  />

      
      <glyph glyph-name="unib5" unicode="&#xb5;" d="M40-164Q37-176 26-176L-5-176Q-15-176-15-169Q-15-166-14-164L110 475Q111 487 123 487L156 487Q165 487 165 480Q165 477 164 475L103 159Q98 135 96 113.50Q94 92 100 75.50Q106 59 123 49.50Q140 40 174 40Q194 40 221.50 47.50Q249 55 276.50 65Q304 75 328 85.50Q352 96 366 102L438 475Q441 487 453 487L484 487Q494 487 494 480Q494 477 493 475L403 11Q401 0 390 0L358 0Q348 0 348 7L348 11L357 57L356 57Q338 47 314.50 35.50Q291 24 265 14Q239 4 211-2.50Q183-9 155-9Q126-9 107.50-2.50Q89 4 76 18L40-164Z"  horiz-adv-x="497" vert-adv-y="1000"  />

      
      <glyph glyph-name="uni03BC" unicode="&#x03BC;" d="M40-164Q37-176 26-176L-5-176Q-15-176-15-169Q-15-166-14-164L110 475Q111 487 123 487L156 487Q165 487 165 480Q165 477 164 475L103 159Q98 135 96 113.50Q94 92 100 75.50Q106 59 123 49.50Q140 40 174 40Q194 40 221.50 47.50Q249 55 276.50 65Q304 75 328 85.50Q352 96 366 102L438 475Q441 487 453 487L484 487Q494 487 494 480Q494 477 493 475L403 11Q401 0 390 0L358 0Q348 0 348 7L348 11L357 57L356 57Q338 47 314.50 35.50Q291 24 265 14Q239 4 211-2.50Q183-9 155-9Q126-9 107.50-2.50Q89 4 76 18L40-164Z"  horiz-adv-x="497" vert-adv-y="1000"  />

      
      <glyph glyph-name="uni03BD" unicode="&#x03BD;" d="M217 9Q212 0 204 0L168 0Q162 0 160 2Q158 4 156 9L75 474Q73 479 75 482.50Q77 486 83 486L119 486Q124 486 125.50 483Q127 480 128 475L183 149Q186 130 189 112Q191 97 193 82.50Q195 68 195 61Q198 68 206 82.50Q214 97 222 113Q232 131 243 152L423 478Q426 483 428 485Q430 487 435 487L475 487Q481 487 480.50 484Q480 481 478 476L217 9Z"  horiz-adv-x="450" vert-adv-y="1000"  />

      
      <glyph glyph-name="uni03BF" unicode="&#x03BF;" d="M461 341Q461 295 452 252Q441 196 425.50 148.50Q410 101 382 66Q354 31 311.50 11.50Q269-8 204-8Q123-8 81.50 29Q40 66 40 148Q40 174 43.50 200Q47 226 52 252Q62 303 78.50 347.50Q95 392 122.50 425Q150 458 191 477.50Q232 497 291 497Q372 497 416.50 461Q461 425 461 341M403 338Q403 398 373 422Q343 446 286 446Q239 446 208 429.50Q177 413 157.50 385Q138 357 127 320.50Q116 284 109 245Q104 222 100.50 198.50Q97 175 97 151Q97 94 124 68.50Q151 43 208 43Q257 43 288.50 59Q320 75 340.50 102.50Q361 130 372.50 166.50Q384 203 392 245Q397 268 400 291.50Q403 315 403 338Z"  horiz-adv-x="490" vert-adv-y="1000"  />

      
      <glyph glyph-name="uni03C0" unicode="&#x03C0;" d="M403 12Q400 0 389 0L355 0Q344 0 347 12L430 440L157 440L74 12Q71 0 59 0L28 0Q16 0 19 12L110 476Q111 487 124 487L483 487Q494 487 493 476L403 12Z"  horiz-adv-x="496" vert-adv-y="1000"  />

      
      <glyph glyph-name="uni03C1" unicode="&#x03C1;" d="M30-163Q28-170 26-173Q24-176 17-176L-16-176Q-25-176-25-169Q-25-165-24-163L57 259Q82 386 143 441.50Q204 497 300 497Q463 497 463 330Q463 309 460.50 286Q458 263 454 241Q445 187 428 141Q411 95 383.50 61.50Q356 28 315 9.50Q274-9 216-9Q187-9 147.50-3Q108 3 68 20Q67 20 66 19L30-163M293 446Q244 446 212 427.50Q180 409 159.50 380.50Q139 352 128.50 318.50Q118 285 112 255L76 66Q120 52 156.50 46.50Q193 41 228 41Q294 41 333 86.50Q372 132 392 226Q404 283 404 330Q404 365 395 387.50Q386 410 371 423Q356 436 336 441Q316 446 293 446Z"  horiz-adv-x="492" vert-adv-y="1000"  />

      
      <glyph glyph-name="uni03C3" unicode="&#x03C3;" d="M286 436Q242 436 211.50 422Q181 408 160.50 382Q140 356 127.50 320Q115 284 107 239Q98 191 98 155Q98 102 121.50 72Q145 42 209 42Q255 42 287 55.50Q319 69 340 94.50Q361 120 373 156.50Q385 193 393 239Q402 290 402 331Q402 381 376 408.50Q350 436 286 436M532 488Q540 488 540.50 484.50Q541 481 540 476L536 452Q535 441 523 441L416 441Q416 440 415.50 440Q415 440 415 439Q440 421 449.50 392Q459 363 459 329Q459 309 457 288Q455 267 452 246Q445 203 432.50 158Q420 113 393 76Q366 39 320.50 15.50Q275-8 202-8Q154-8 123 5Q92 18 74.50 40Q57 62 50 91Q43 120 43 153Q43 176 45.50 199.50Q48 223 52 246Q58 283 71.50 325.50Q85 368 112 404Q139 440 183 464Q227 488 294 488L532 488Z"  horiz-adv-x="500" vert-adv-y="1000"  />

      
      <glyph glyph-name="uni03C4" unicode="&#x03C4;" d="M355 487Q362 487 363.50 484.50Q365 482 364 476L359 453Q358 442 346 442L225 442L160 108Q153 72 161 57.50Q169 43 213 43Q218 43 227 43.50Q236 44 245.50 44.50Q255 45 263.50 45.50Q272 46 278 47Q292 48 292 38L291 21Q291 11 282 7Q274 4 262 1.50Q250-1 235.50-3.50Q221-6 205.50-7Q190-8 177-8Q121-8 106.50 17.50Q92 43 101 91L170 442L71 442Q60 442 61 453L65 475Q68 487 80 487L355 487Z"  horiz-adv-x="330" vert-adv-y="1000"  />

      
      <glyph glyph-name="uni03B8" unicode="&#x03B8;" d="M215-8Q167-8 135 6.50Q103 21 84.50 47Q66 73 58.50 108.50Q51 144 51 187Q51 226 57.50 269.50Q64 313 72 359Q83 417 100.50 479Q118 541 148.50 592Q179 643 227 676Q275 709 347 709Q395 709 428 696Q461 683 480.50 659Q500 635 509 601.50Q518 568 518 527Q518 495 513 451.50Q508 408 499 362Q486 294 469.50 228Q453 162 422 109.50Q391 57 342 24.50Q293-8 215-8M341 660Q299 660 267.50 642.50Q236 625 212 591.50Q188 558 170 509Q152 460 138 396L449 396Q455 428 458.50 458Q462 488 462 516Q462 549 456 575.50Q450 602 435.50 620.50Q421 639 398 649.50Q375 660 341 660M128 350Q119 300 113.50 258Q108 216 108 181Q108 112 133.50 76.50Q159 41 220 41Q269 41 303.50 59Q338 77 363 115Q388 153 406 211Q424 269 440 350L128 350Z"  horiz-adv-x="512" vert-adv-y="1000"  />

      
      <glyph glyph-name="uni03C9" unicode="&#x03C9;" d="M343 66Q320 36 281.50 14Q243-8 186-8Q147-8 120 3.50Q93 15 77 35.50Q61 56 54 85Q47 114 47 149Q47 169 49.50 192Q52 215 56 239Q62 277 73.50 315.50Q85 354 104.50 387.50Q124 421 154 448.50Q184 476 228 491Q240 495 244 487L254 463Q257 458 254 454.50Q251 451 245 447Q202 426 173.50 385.50Q145 345 129 292Q122 269 117 243.50Q112 218 109 193Q100 116 119.50 79Q139 42 196 42Q235 42 260.50 54.50Q286 67 301.50 86.50Q317 106 325 129.50Q333 153 338 176L367 324Q369 332 371.50 334Q374 336 381 336L413 336Q418 336 420.50 334Q423 332 421 324L392 176Q388 153 387.50 129.50Q387 106 395.50 86.50Q404 67 425.50 54.50Q447 42 486 42Q551 42 588.50 91.50Q626 141 643 238Q648 265 651.50 293Q655 321 654 342Q652 384 637 408Q622 432 596 449Q586 456 594 465L608 485Q615 493 625 489Q674 469 692.50 428.50Q711 388 711 338Q711 314 708.50 289Q706 264 702 239Q694 186 678.50 141Q663 96 636.50 63Q610 30 571 11Q532-8 477-8Q420-8 388 14Q356 36 345 66L343 66Z"  horiz-adv-x="735" vert-adv-y="1000"  />

      
      <glyph glyph-name="uni03C2" unicode="&#x03C2;" d="M406 444Q404 439 400 437.50Q396 436 388 436Q359 439 323.50 443Q288 447 257 447Q202 447 165 424.50Q128 402 128 346Q129 311 157 298Q185 285 229 278Q251 274 275 267.50Q299 261 319.50 247.50Q340 234 353.50 211.50Q367 189 367 153Q367 106 351 75.50Q335 45 308 26Q281 7 244.50-0.50Q208-8 167-8Q151-8 129.50-6.50Q108-5 86.50-2.50Q65 0 45.50 4Q26 8 13 13Q5 17 8 28L14 43Q16 50 20 51.50Q24 53 31 52Q45 50 64 48.50Q83 47 102.50 45Q122 43 140 42Q158 41 170 41Q200 41 225 45.50Q250 50 269 62Q288 74 298.50 94.50Q309 115 309 147Q309 167 301.50 181Q294 195 281.50 204Q269 213 252 218.50Q235 224 216 227Q190 231 164 237.50Q138 244 117.50 256Q97 268 84 288.50Q71 309 71 341Q71 384 86.50 413.50Q102 443 128.50 461.50Q155 480 189 488.50Q223 497 261 497Q274 497 294 496Q314 495 334.50 492Q355 489 374.50 485Q394 481 408 475Q416 472 412 461L406 444Z"  horiz-adv-x="420" vert-adv-y="1000"  />

      
      <glyph glyph-name="uni03C5" unicode="&#x03C5;" d="M432 174Q424 135 408 102Q392 69 365 45Q338 21 299.50 7Q261-7 210-7Q158-7 123.50 6Q89 19 69.50 42.50Q50 66 45.50 99.50Q41 133 49 174L107 475Q111 487 122 487L155 487Q166 487 163 475L105 175Q99 148 99.50 123.50Q100 99 110.50 81Q121 63 145.50 52.50Q170 42 212 42Q252 42 280.50 52Q309 62 328.50 80Q348 98 359.50 122Q371 146 376 175L435 475Q436 487 448 487L483 487Q494 487 491 475L432 174Z"  horiz-adv-x="494" vert-adv-y="1000"  />

      
      <glyph glyph-name="uni03B6" unicode="&#x03B6;" d="M477 450Q476 445 474 439.50Q472 434 466 432Q441 419 403.50 401.50Q366 384 324 361.50Q282 339 239.50 313.50Q197 288 163.50 259Q130 230 109 199Q88 168 88 135Q88 108 104.50 90.50Q121 73 150.50 62.50Q180 52 220 48Q260 44 308 44L345 45Q355 45 358.50 43Q362 41 364 34L370 15Q372 6 370 0Q368-6 358-20Q350-31 339-47.50Q328-64 317.50-81.50Q307-99 298-116.50Q289-134 283-146Q278-154 275.50-157.50Q273-161 265-159L241-150Q235-148 233-144.50Q231-141 236-130Q241-119 249.50-102Q258-85 268.50-67Q279-49 289.50-32.50Q300-16 309-6Q261-5 211.50-1Q162 3 121.50 16.50Q81 30 55.50 55Q30 80 30 123Q30 161 48 195.50Q66 230 96 260.50Q126 291 164 317.50Q202 344 241 366Q280 388 318 406.50Q356 425 385 439L385 440L112 440Q98 440 101 451L106 476Q109 487 121 487L473 487Q484 487 483 477L477 450Z"  horiz-adv-x="441" vert-adv-y="1000"  />

      
      <glyph glyph-name="uni20AC" unicode="&#x20AC;" d="M14 356Q8 356 9 363L14 392Q16 399 24 399L78 399Q90 459 113 508.50Q136 558 172.50 594Q209 630 259.50 650Q310 670 377 670Q392 670 414.50 669Q437 668 460.50 665.50Q484 663 507 658.50Q530 654 547 647Q558 642 553 631L546 612Q544 607 541 604.50Q538 602 531 604Q499 607 456 611Q413 615 371 615Q317 615 278 597.50Q239 580 212 550.50Q185 521 167.50 481.50Q150 442 138 399L428 399Q435 399 434 391L429 363Q427 356 419 356L14 356M408 301Q416 301 415 292L410 265Q409 259 401 259L111 259Q106 215 109.50 176.50Q113 138 129 109Q145 80 176.50 63.50Q208 47 259 47Q299 47 344.50 50.50Q390 54 423 58Q431 59 433.50 56.50Q436 54 437 49L436 30Q436 19 425 15Q407 8 381.50 3.50Q356-1 330-3.50Q304-6 281.50-7Q259-8 246-8Q179-8 138 14.50Q97 37 75.50 74Q54 111 49.50 159Q45 207 51 259L-5 258Q-11 258-10 266L-5 294Q-3 301 5 301L408 301Z"  horiz-adv-x="543" vert-adv-y="1000"  />

      
      <glyph glyph-name="uni2021" unicode="&#x2021;" d="M23 197Q26 208 37 208L209 208Q220 265 231 322Q242 379 253 436L81 436Q71 436 71 444L71 447L77 475Q78 485 90 485L263 485Q271 530 280 575Q289 620 298 665Q299 675 302 683L302 684Q306 692 314 692L345 692Q356 692 356 683Q355 678 354.50 674Q354 670 352 665L318 485L490 485Q500 485 500 479Q500 477 499 475Q498 468 496.50 461Q495 454 494 447Q491 436 480 436L308 436Q297 379 286 322Q275 265 264 208L436 208Q446 208 446 200L446 197L440 169Q439 158 427 158L254 158Q245 109 235 60.50Q225 12 216-36Q213-48 203-48L172-48Q161-48 161-40Q161-36 162-35L199 158L27 158Q18 158 18 165Q18 173 20 181Q22 189 23 197Z"  horiz-adv-x="470" vert-adv-y="1000"  />

      
      <glyph glyph-name="unid8" unicode="&#xd8;" d="M603 463Q603 432 599.50 401.50Q596 371 591 341Q579 272 559 208.50Q539 145 503 96.50Q467 48 411.50 19.50Q356-9 274-9Q168-9 119 48L71-5Q63-14 57-8L42 5Q35 11 42 18L97 79Q84 104 78.50 134.50Q73 165 73 202Q73 237 77.50 271.50Q82 306 89 341Q101 405 122.50 464.50Q144 524 179.50 570Q215 616 267.50 643.50Q320 671 395 671Q516 671 567 601L623 664Q631 674 638 668L653 655Q659 648 653 642L585 567Q603 523 603 463M131 207Q131 184 133.50 165Q136 146 142 129L525 555Q492 620 391 620Q329 620 286.50 594Q244 568 216 526.50Q188 485 171.50 433.50Q155 382 145 331Q139 300 135 269Q131 238 131 207M545 457Q545 489 539 515L159 93Q176 69 205 56Q234 43 278 43Q343 43 386.50 68Q430 93 458.50 133.50Q487 174 503.50 226Q520 278 531 331Q537 362 541 393.50Q545 425 545 457Z"  horiz-adv-x="628" vert-adv-y="1000"  />

      
      <glyph glyph-name="unide" unicode="&#xde;" d="M495 386Q495 336 478.50 294Q462 252 432.50 222Q403 192 360.50 175Q318 158 266 158L113 158L84 12Q81 0 71 0L37 0Q25 0 28 12L150 653Q153 665 164 665L197 665Q210 665 207 653L187 542L323 542Q360 542 391.50 532.50Q423 523 446 503.50Q469 484 482 454.50Q495 425 495 386M436 385Q436 441 399.50 465.50Q363 490 308 490L178 490L123 208L267 208Q346 208 391 256.50Q436 305 436 385Z"  horiz-adv-x="495" vert-adv-y="1000"  />

      
      <glyph glyph-name="unie6" unicode="&#xe6;" d="M532-8Q480-8 444 8Q408 24 389 64Q364 50 339 37Q314 24 286.50 14Q259 4 227.50-2Q196-8 159-8Q103-8 71 15.50Q39 39 39 87Q39 184 98 231Q157 278 260 278Q298 278 330.50 274.50Q363 271 397 264Q402 287 409.50 311Q417 335 419 355Q422 370 422 382Q422 415 398 431Q374 447 311 447Q279 447 239.50 444Q200 441 164 437L159 437Q151 437 151 444L151 462Q152 472 164 477Q182 483 203.50 487Q225 491 247.50 493.50Q270 496 290.50 497Q311 498 327 498Q398 498 432 479.50Q466 461 473 423Q499 456 545 476Q591 496 656 496Q722 496 761 464.50Q800 433 800 379Q800 329 776 295.50Q752 262 713.50 242Q675 222 627 213Q579 204 531 203Q508 203 485.50 204.50Q463 206 443 208Q439 188 436 165Q433 142 433 129Q433 102 442.50 85Q452 68 468.50 58.50Q485 49 506.50 45.50Q528 42 551 42Q584 42 625.50 45.50Q667 49 704 53Q711 53 714.50 51.50Q718 50 718 44Q718 40 717.50 36Q717 32 717 28Q717 18 707 14Q690 7 667.50 3Q645-1 621.50-3.50Q598-6 574.50-7Q551-8 532-8M379 107Q377 116 378 125Q379 134 379 143Q379 160 381 178Q383 196 386 216Q344 225 309.50 228.50Q275 232 247 232Q169 232 133 195.50Q97 159 97 100Q97 68 118.50 54.50Q140 41 178 41Q201 41 227.50 47Q254 53 281 62.50Q308 72 333.50 83.50Q359 95 379 107M744 371Q744 393 735.50 407.50Q727 422 713.50 431Q700 440 683 443.50Q666 447 649 447Q596 447 561.50 429.50Q527 412 507 386Q486 360 473 326Q460 292 452 254Q470 252 491 251Q512 250 532 250Q570 250 608 256.50Q646 263 676 277Q706 291 725 314Q744 337 744 371Z"  horiz-adv-x="813" vert-adv-y="1000"  />

      
      <glyph glyph-name="unif8" unicode="&#xf8;" d="M461 341Q461 295 452 252Q441 196 425.50 148.50Q410 101 382 66Q354 31 311.50 11.50Q269-8 204-8Q124-8 83 27L57-1Q50-10 44-5L30 7Q22 15 29 21L60 55Q40 92 40 148Q40 174 43.50 200Q47 226 52 252Q62 303 78.50 347.50Q95 392 122.50 425Q150 458 191 477.50Q232 497 291 497Q336 497 369.50 486Q403 475 425 452L460 490Q464 494 467 496Q470 498 475 494L488 482Q495 474 489 468L446 421Q461 388 461 341M97 151Q97 121 103 102L385 408Q371 428 346 437Q321 446 286 446Q239 446 208 429.50Q177 413 157.50 385Q138 357 127 320.50Q116 284 109 245Q104 222 100.50 198.50Q97 175 97 151M403 338Q403 356 400 371L122 70Q148 43 208 43Q257 43 288.50 59Q320 75 340.50 102.50Q361 130 372.50 166.50Q384 203 392 245Q397 268 400 291.50Q403 315 403 338Z"  horiz-adv-x="490" vert-adv-y="1000"  />

      
      <glyph glyph-name="uni0152" unicode="&#x0152;" d="M793 621Q790 610 779 610L480 610L434 371L702 371Q714 371 711 360L705 330Q704 319 692 319L424 319L372 53L677 52Q688 52 687 41L680 11Q679 0 667 0L333 0Q295-9 251-9Q146-9 98.50 46Q51 101 51 202Q51 237 55.50 271.50Q60 306 67 341Q79 405 100 464.50Q121 524 157 570Q193 616 245.50 643.50Q298 671 372 671Q412 671 447 663L789 663Q801 663 799 652L793 621M256 43Q287 43 313 49L423 614Q399 620 368 620Q306 620 263.50 594Q221 568 193 526.50Q165 485 148.50 433.50Q132 382 122 331Q115 300 112 269Q109 238 109 207Q109 131 142 87Q175 43 256 43Z"  horiz-adv-x="761" vert-adv-y="1000"  />

      
      <glyph glyph-name="unife" unicode="&#xfe;" d="M89 68Q131 54 167.50 48Q204 42 240 42Q277 42 303 53.50Q329 65 348 90Q367 115 380 155.50Q393 196 404 255Q410 290 413 316.50Q416 343 417 363Q418 413 400 430.50Q382 448 341 448Q320 448 293 440.50Q266 433 239 423Q212 413 188 402.50Q164 392 150 385L89 68M44-160Q42-170 38-173Q34-176 26-176L-1-176Q-14-176-11-160L147 648Q150 663 163 663L190 663Q198 663 201 660Q204 657 202 648L159 428Q170 435 192 446.50Q214 458 241 469Q268 480 298 488.50Q328 497 357 497Q423 497 449 464Q475 431 474 364Q474 341 470.50 313Q467 285 462 253Q451 188 433.50 139Q416 90 388 57.50Q360 25 319.50 8.50Q279-8 224-8Q195-8 159-1.50Q123 5 81 25L80 23L44-160Z"  horiz-adv-x="492" vert-adv-y="1000"  />

      
      <glyph glyph-name="uni0142" unicode="&#x0142;" d="M185 14Q185 5 174 1Q163-3 151.50-4.50Q140-6 130-6Q108-6 95-0.50Q82 5 76 14Q70 23 69.50 36Q69 49 72 64L116 293L31 250Q20 244 16 252L9 272Q6 278 8 281Q10 284 15 286L126 342L194 691Q197 703 208 703L240 703Q246 703 248.50 701Q251 699 249 691L187 373L280 420Q290 426 293 416L301 396Q305 386 294 382L178 324L131 80Q126 57 136.50 51.50Q147 46 176 46Q186 46 186 39L185 14Z"  horiz-adv-x="306" vert-adv-y="1000"  />

      
      <glyph glyph-name="uni0141" unicode="&#x0141;" d="M420 11Q417 0 407 0L46 0Q34 0 37 11L83 251L16 217Q4 212 1 219L-6 240Q-9 246-6.50 249Q-4 252 1 254L92 300L160 650Q164 663 175 663L209 663Q221 663 218 650L156 332L281 395Q286 398 289.50 398Q293 398 295 392L303 372Q306 362 296 358L146 283L102 53L417 53Q427 53 426 42L420 11Z"  horiz-adv-x="479" vert-adv-y="1000"  />

      
      <glyph glyph-name="uni0104" unicode="&#x0104;" d="M477 10Q477 0 468 0L462 0Q433-29 414.50-56.50Q396-84 396-113Q396-149 438-149Q447-149 457.50-148Q468-147 479-144Q486-142 488-147L493-165Q493-170 487-174Q462-187 432-187Q385-188 366.50-169.50Q348-151 348-122Q348-88 369.50-56Q391-24 421 2Q418 3 418 9Q412 53 407 95.50Q402 138 396 182L130 182L43 11Q40 3 36 1.50Q32 0 27 0L-14 0Q-21 0-21 4Q-21 8-19 11L317 651Q322 662 333 662L376 662Q383 662 384.50 659Q386 656 387 651L477 10M390 234Q388 251 384 282Q380 313 375.50 347Q371 381 367 412.50Q363 444 360 462L345 597L342 597Q328 569 311.50 535.50Q295 502 275 464L157 234L390 234Z"  horiz-adv-x="535" vert-adv-y="1000"  />

      
      <glyph glyph-name="uni0105" unicode="&#x0105;" d="M400 11Q398 0 387 0L385 0Q356-29 337.50-56.50Q319-84 319-113Q319-149 361-149Q370-149 380.50-148Q391-147 402-144Q409-142 411-147L416-165Q416-170 410-174Q385-187 355-187Q308-188 289.50-169.50Q271-151 271-122Q271-88 292.50-55.50Q314-23 345 2Q343 4 344 11L353 57Q334 46 312 34.50Q290 23 265 13Q240 3 212.50-3Q185-9 157-9Q94-9 65.50 22.50Q37 54 37 120Q37 143 40.50 175.50Q44 208 49 237Q61 301 78 349.50Q95 398 121.50 430.50Q148 463 186.50 479.50Q225 496 280 496Q315 496 354 486.50Q393 477 430 457L431 458L435 477Q437 484 440 485.50Q443 487 450 487L481 487Q493 487 490 474L400 11M423 411Q383 427 346 436.50Q309 446 274 446Q238 446 212 435Q186 424 166.50 399Q147 374 133.50 333.50Q120 293 108 235Q96 172 96 132Q96 79 114.50 60.50Q133 42 175 42Q195 42 221.50 49Q248 56 274.50 66Q301 76 324.50 86.50Q348 97 362 104L423 411Z"  horiz-adv-x="506" vert-adv-y="1000"  />

      
      <glyph glyph-name="uni0118" unicode="&#x0118;" d="M520 621Q519 610 506 610L208 610L161 371L430 371Q441 371 439 360L433 330Q432 319 419 319L151 319L99 52L405 52Q417 52 414 41L408 11Q406 0 395 0Q366-29 347.50-56.50Q329-84 329-113Q329-149 371-149Q380-149 390.50-148Q401-147 412-144Q419-142 421-147L426-165Q426-170 420-174Q395-187 365-187Q318-188 299.50-169.50Q281-151 281-122Q281-89 302-57.50Q323-26 352 0L43 0Q31 0 34 11L158 651Q161 663 172 663L517 663Q529 663 526 652L520 621Z"  horiz-adv-x="488" vert-adv-y="1000"  />

      
      <glyph glyph-name="uni0110" unicode="&#x0110;" d="M51 0Q37 0 37 9L37 11Q37 12 37.50 12Q38 12 38 13L98 327L42 327Q33 327 34 336L40 366Q42 376 51 376L108 376Q121 445 134 513Q147 581 161 650Q164 662 178 662L358 662Q417 662 458 647Q499 632 525 603.50Q551 575 563 533.50Q575 492 575 440Q575 414 572.50 387.50Q570 361 566 333Q555 262 534.50 201Q514 140 478 95.50Q442 51 387.50 25.50Q333 0 255 0L51 0M292 335Q291 327 281 327L157 327L103 52L252 52Q316 52 359.50 74Q403 96 432 133.50Q461 171 477.50 220.50Q494 270 504 325Q509 351 511.50 378Q514 405 514 431Q514 470 506 502.50Q498 535 479.50 559Q461 583 431 596.50Q401 610 356 610L212 610Q200 551 188.50 493Q177 435 166 376L290 376Q300 376 298 366L292 335Z"  horiz-adv-x="604" vert-adv-y="1000"  />

      
      </font>
</defs>
</svg>
