<?xml version="1.0" standalone="no"?>
  <!DOCTYPE svg PUBLIC "-//W3C//DTD SVG 1.1//EN" "http://www.w3.org/Graphics/SVG/1.1/DTD/svg11.dtd" >
  <svg>
  <metadata>
  Created by font-carrier
  </metadata>
  <defs>
  <font id="PFSquareSansPro-Bold" horiz-adv-x="1818" vert-adv-y="1818" >
    <font-face
      
      font-family="PF Square Sans Pro"
      
      font-weight="400"
      
      font-stretch="normal"
      
      units-per-em="1000"
      
      ascent="750"
      
      descent="-250"
      
    />
      <missing-glyph />

      

      
      <glyph glyph-name="uni21B5" unicode="&#x21B5;" d="M717 693L815 693L815 274L263 274L382 156L313 87L78 323L313 559L382 490L263 371L717 371L717 693Z"  horiz-adv-x="854" vert-adv-y="1000"  />

      
      <glyph glyph-name="uni26" unicode="&#x26;" d="M672-47Q665-56 658-59.50Q651-63 634-55Q619-48 599.50-36.50Q580-25 560-11Q540 3 520.50 17.50Q501 32 485 45Q437 15 381.50 1.50Q326-12 266-12Q219-12 177.50-0.50Q136 11 105 34.50Q74 58 56.50 94.50Q39 131 39 181Q39 247 77.50 302Q116 357 185 399Q164 432 154 463Q144 494 144 512Q144 546 155 575.50Q166 605 188 627.50Q210 650 242.50 663Q275 676 318 676Q357 676 388.50 664Q420 652 442 631.50Q464 611 476 583Q488 555 488 524Q488 473 454.50 429Q421 385 364 360Q379 338 393 319Q407 300 422 283Q437 266 454 248.50Q471 231 492 212Q524 250 546 298Q568 346 576 399Q580 420 582.50 424.50Q585 429 604 429L673 429Q692 429 697.50 423Q703 417 702 394Q700 357 689.50 318.50Q679 280 662.50 244Q646 208 626.50 177Q607 146 589 125Q644 79 704 44Q717 36 716.50 29.50Q716 23 708 11L672-47M275 103Q301 102 330.50 109Q360 116 389 133Q348 174 310.50 219Q273 264 251 298Q217 275 197.50 248.50Q178 222 178 191Q178 147 206 125Q234 103 275 103M353 523Q353 539 342 550Q331 561 312 561Q292 561 281.50 546.50Q271 532 271 517Q271 492 296 457Q322 472 337.50 487.50Q353 503 353 523Z"  horiz-adv-x="746" vert-adv-y="1000"  />

      
      <glyph glyph-name="uni27" unicode="&#x27;" d="M160 438Q160 433 156.50 428.50Q153 424 145 424L80 424Q66 424 66 438L55 647Q55 663 73 663L155 663Q166 663 168.50 657Q171 651 171 647L160 438Z"  horiz-adv-x="228" vert-adv-y="1000"  />

      
      <glyph glyph-name="uni28" unicode="&#x28;" d="M204 305Q204 207 227.50 118.50Q251 30 292-39Q302-56 300.50-63Q299-70 286-77L229-110Q215-118 207.50-117Q200-116 189-102Q161-65 135.50-19.50Q110 26 91 77.50Q72 129 61 186Q50 243 50 305Q50 364 61.50 419.50Q73 475 92 525.50Q111 576 136 620.50Q161 665 189 703Q200 717 207.50 718Q215 719 228 711L286 678Q299 671 301 664Q303 657 292 640Q250 570 227 485Q204 400 204 305Z"  horiz-adv-x="340" vert-adv-y="1000"  />

      
      <glyph glyph-name="uni29" unicode="&#x29;" d="M142 305Q142 400 119 485Q96 570 53 640Q43 657 45 664Q47 671 59 678L117 711Q131 719 138.50 718Q146 717 157 703Q185 665 210 620.50Q235 576 254 525.50Q273 475 284 419.50Q295 364 295 305Q295 243 284 186Q273 129 254 77.50Q235 26 210-19.50Q185-65 157-102Q146-116 138.50-117Q131-118 117-110L59-77Q47-70 45.50-63Q44-56 53-39Q95 30 118.50 118.50Q142 207 142 305Z"  horiz-adv-x="341" vert-adv-y="1000"  />

      
      <glyph glyph-name="uni2a" unicode="&#x2a;" d="M373 381Q365 369 358 368Q351 367 338 373L269 405L263 337Q261 321 258 317.50Q255 314 239 314L192 314Q178 314 174.50 317.50Q171 321 169 337L162 405L96 376Q87 371 79 370.50Q71 370 64 381L41 415Q36 423 37.50 429Q39 435 52 444L110 488L51 525Q40 533 37.50 539.50Q35 546 43 560L59 591Q67 606 75 605.50Q83 605 96 599L163 571L168 641Q169 655 173.50 659.50Q178 664 195 664L235 664Q251 664 257 658.50Q263 653 264 640L268 569L339 602Q352 608 356.50 607.50Q361 607 369 594L389 564Q402 546 388 537L319 490L383 443Q397 434 397 428Q397 422 389 409L373 381Z"  horiz-adv-x="434" vert-adv-y="1000"  />

      
      <glyph glyph-name="uni2b" unicode="&#x2b;" d="M364 380L505 380Q518 380 522 375.50Q526 371 526 360L526 289Q526 278 522 273Q518 268 505 268L364 268L364 121Q364 108 359.50 104.50Q355 101 345 101L254 101Q242 101 237 104.50Q232 108 232 121L232 268L92 268Q72 268 72 289L72 359Q72 380 92 380L232 380L232 518Q232 539 254 539L344 539Q364 539 364 518L364 380Z"  horiz-adv-x="597" vert-adv-y="1000"  />

      
      <glyph glyph-name="uni2c" unicode="&#x2c;" d="M200 32Q200-1 190.50-31.50Q181-62 165.50-87Q150-112 130.50-131.50Q111-151 91-163Q69-175 54-158L28-132Q17-120 17.50-114Q18-108 32-94Q50-76 57.50-56.50Q65-37 65-20Q65 13 42 39Q29 53 28 63Q27 73 45 86L110 136Q125 147 135.50 143Q146 139 158 128Q178 108 189 81.50Q200 55 200 32Z"  horiz-adv-x="238" vert-adv-y="1000"  />

      
      <glyph glyph-name="uni2d" unicode="&#x2d;" d="M364 378Q377 378 381 373.50Q385 369 385 359L385 282Q385 271 381 266Q377 261 364 261L52 261Q31 261 31 282L31 358Q31 378 52 378L364 378Z"  horiz-adv-x="411" vert-adv-y="1000"  />

      
      <glyph glyph-name="uni2e" unicode="&#x2e;" d="M195 66Q195 52 192 38Q189 24 180.50 13.50Q172 3 156-3.50Q140-10 115-10Q89-10 73-3.50Q57 3 48.50 14Q40 25 37.50 38.50Q35 52 35 66Q35 98 51 119.50Q67 141 115 141Q140 141 155.50 135.50Q171 130 180 120Q189 110 192 96Q195 82 195 66Z"  horiz-adv-x="231" vert-adv-y="1000"  />

      
      <glyph glyph-name="uni2f" unicode="&#x2f;" d="M141-46Q139-54 133-58Q127-62 120-62L25-62Q3-62 8-41Q17-1 31 56.50Q45 114 61 180.50Q77 247 94 318Q111 389 126.50 455Q142 521 156 578.50Q170 636 180 676Q183 693 201 693L294 693Q304 693 308 686.50Q312 680 310 669L141-46Z"  horiz-adv-x="319" vert-adv-y="1000"  />

      
      <glyph glyph-name="uni30" unicode="&#x30;" d="M296-9Q234-9 189.50 7.50Q145 24 115.50 52Q86 80 69 116Q52 152 43.50 191Q35 230 32.50 268.50Q30 307 30 341Q30 363 32.50 396.50Q35 430 44 467Q53 504 70.50 541Q88 578 117.50 607Q147 636 190.50 654.50Q234 673 296 673Q388 673 442.50 641Q497 609 525.50 560.50Q554 512 562.50 453.50Q571 395 571 341Q571 311 568.50 273.50Q566 236 556.50 197Q547 158 529 121Q511 84 480.50 55Q450 26 405 8.50Q360-9 296-9M296 539Q263 539 242.50 523Q222 507 210 479.50Q198 452 194 414Q190 376 190 332Q190 290 194 252Q198 214 209.50 186Q221 158 242 141.50Q263 125 296 125Q331 125 353.50 139.50Q376 154 388.50 181Q401 208 406 246.50Q411 285 411 332Q411 381 406.50 419.50Q402 458 389.50 484.50Q377 511 354.50 525Q332 539 296 539Z"  horiz-adv-x="597" vert-adv-y="1000"  />

      
      <glyph glyph-name="uni31" unicode="&#x31;" d="M123 0Q102 0 102 21L102 109Q102 129 123 129L229 129L229 515L135 515Q123 515 117 518Q111 521 111 533L111 582Q111 593 114 601.50Q117 610 130 616L218 653Q235 661 249.50 663Q264 665 281 665L361 665Q384 665 384 642L384 129L500 129Q512 129 516 124Q520 119 520 109L520 21Q520 10 516.50 5Q513 0 500 0L123 0Z"  horiz-adv-x="597" vert-adv-y="1000"  />

      
      <glyph glyph-name="uni32" unicode="&#x32;" d="M273 130L514 130Q527 130 530.50 125Q534 120 534 109L534 21Q534 10 530.50 5Q527 0 515 0L64 0Q43 0 43 21L43 92Q43 102 46 112Q49 122 59 132Q96 167 127 196Q140 208 153 220.50Q166 233 176.50 243Q187 253 194.50 260Q202 267 204 269Q206 271 220 284Q234 297 251.50 313.50Q269 330 285 345Q301 360 307 367Q331 390 346 415Q361 440 361 469Q361 505 341.50 520.50Q322 536 266 536Q221 536 174 532Q127 528 94 524Q76 522 69 525Q62 528 59 545L51 601Q49 613 52.50 623.50Q56 634 79 643Q99 651 126.50 656.50Q154 662 181.50 665.50Q209 669 233 670.50Q257 672 271 672Q340 672 388 659Q436 646 466 621.50Q496 597 510 561.50Q524 526 524 481Q524 448 518 421.50Q512 395 499.50 371.50Q487 348 468.50 326Q450 304 425 279Q407 262 391 246.50Q375 231 357.50 214.50Q340 198 319 179Q298 160 271 135L273 130Z"  horiz-adv-x="597" vert-adv-y="1000"  />

      
      <glyph glyph-name="uni33" unicode="&#x33;" d="M382 233Q382 258 368.50 271Q355 284 323 290L190 314Q172 317 166 324.50Q160 332 160 349L160 387Q160 403 162 410.50Q164 418 172 425Q202 451 232 478Q262 505 293 531Q293 532 292.50 532.50Q292 533 292 534L77 534Q56 534 56 555L56 642Q56 663 77 663L493 663Q507 663 511 657.50Q515 652 515 641L515 586Q515 568 511 554.50Q507 541 493 527Q493 525 477.50 510.50Q462 496 441.50 478Q421 460 402 444Q383 428 377 422Q378 421 378 418L441 403Q497 389 520 348.50Q543 308 543 245Q543 170 523 121Q503 72 466 43.50Q429 15 377.50 3.50Q326-8 262-8Q248-8 224.50-6.50Q201-5 174.50-1.50Q148 2 121.50 7.50Q95 13 75 21Q50 30 44.50 40.50Q39 51 42 65L53 120Q56 134 62.50 139Q69 144 89 142Q130 136 172.50 132Q215 128 252 126Q279 126 303 129Q327 132 344.50 143.50Q362 155 372 176Q382 197 382 233Z"  horiz-adv-x="597" vert-adv-y="1000"  />

      
      <glyph glyph-name="uni34" unicode="&#x34;" d="M336 464L192 280L192 276L341 276L341 463L336 464M492 21Q492 14 488.50 7Q485 0 471 0L360 0Q348 0 343.50 6Q339 12 339 21L339 149L47 149Q36 149 28 154Q20 159 20 173L20 250Q20 257 21.50 265Q23 273 31 282L322 645Q330 654 339 658.50Q348 663 362 663L472 663Q485 663 488.50 656Q492 649 492 643L492 279L558 279Q570 279 574 274Q578 269 578 259L578 170Q578 159 574 154Q570 149 558 149L492 149L492 21Z"  horiz-adv-x="597" vert-adv-y="1000"  />

      
      <glyph glyph-name="uni35" unicode="&#x35;" d="M382 234Q382 259 367 272Q352 285 323 290L102 328Q75 333 68.50 347Q62 361 65 384L105 628Q108 647 117 655.50Q126 664 148 664L489 664Q510 664 510 643L510 556Q510 535 488 535L240 535L225 441L397 416Q463 406 503.50 363.50Q544 321 544 246Q544 171 524 122Q504 73 467.50 43.50Q431 14 379.50 2.50Q328-9 265-9Q251-9 227.50-7.50Q204-6 177.50-2.50Q151 1 124.50 6.50Q98 12 78 20Q53 29 47.50 39.50Q42 50 45 64L56 119Q59 133 65.50 138Q72 143 92 141Q133 135 175.50 131Q218 127 254 127Q282 127 305.50 130.50Q329 134 346 145Q363 156 372.50 177Q382 198 382 234Z"  horiz-adv-x="597" vert-adv-y="1000"  />

      
      <glyph glyph-name="uni36" unicode="&#x36;" d="M565 200Q565 142 542 102Q519 62 481 37.50Q443 13 395 2Q347-9 297-9Q205-9 153.50 15.50Q102 40 76 82.50Q50 125 44 183.50Q38 242 38 311Q38 350 41 392Q44 434 54 474Q64 514 82.50 550Q101 586 131.50 613Q162 640 206.50 656Q251 672 313 672Q323 672 343.50 671.50Q364 671 390 668Q416 665 445 659.50Q474 654 501 644Q524 636 528.50 627Q533 618 530 603L518 548Q514 532 507.50 527Q501 522 487 524Q450 529 405 532.50Q360 536 312 536Q253 536 229.50 503Q206 470 201 413Q227 416 248 417.50Q269 419 287 420Q305 421 321.50 421.50Q338 422 356 422Q459 422 512 367Q565 312 565 200M407 199Q407 247 391 270Q375 293 332 293Q310 293 278.50 291Q247 289 196 284Q195 244 197.50 211.50Q200 179 211 157Q219 142 239 131.50Q259 121 301 121Q321 121 340 124Q359 127 374 136Q389 145 398 160Q407 175 407 199Z"  horiz-adv-x="597" vert-adv-y="1000"  />

      
      <glyph glyph-name="uni37" unicode="&#x37;" d="M259-4Q252-15 245.50-19Q239-23 224-16L132 25Q117 32 116 38.50Q115 45 122 59L360 535L63 535Q43 535 43 555L43 643Q43 665 63 665L524 665Q537 665 541 659Q545 653 545 642L545 581Q545 564 540 552.50Q535 541 527 525L259-4Z"  horiz-adv-x="597" vert-adv-y="1000"  />

      
      <glyph glyph-name="uni38" unicode="&#x38;" d="M296 673Q349 673 394 662Q439 651 471.50 627Q504 603 522.50 566Q541 529 541 478Q541 463 536 445Q531 427 521 410Q511 393 496 377.50Q481 362 461 353L461 352Q512 330 536.50 287Q561 244 561 193Q561 145 541.50 107.50Q522 70 486.50 44Q451 18 401.50 4.50Q352-9 293-9Q234-9 185 2Q136 13 101.50 37Q67 61 48 99Q29 137 29 191Q29 242 53 283.50Q77 325 126 351Q87 370 68 405.50Q49 441 49 475Q49 524 67 561Q85 598 117 623Q149 648 194.50 660.50Q240 673 296 673M382 472Q382 507 357.50 523Q333 539 296 539Q249 539 228.50 520.50Q208 502 208 472Q208 446 231.50 430.50Q255 415 297 406Q345 414 363.50 431.50Q382 449 382 472M401 203Q401 225 392 241Q383 257 368 268Q353 279 333 286Q313 293 290 298Q272 295 254 288.50Q236 282 221 271.50Q206 261 197 244.50Q188 228 188 205Q188 164 217.50 144Q247 124 293 124Q342 124 371.50 146.50Q401 169 401 203Z"  horiz-adv-x="597" vert-adv-y="1000"  />

      
      <glyph glyph-name="uni39" unicode="&#x39;" d="M36 458Q36 516 59 557Q82 598 120 623.50Q158 649 205.50 660.50Q253 672 303 672Q394 672 446 647.50Q498 623 524 580Q550 537 556.50 478.50Q563 420 563 352Q563 313 560 271Q557 229 547 189Q537 149 518 113Q499 77 468.50 50Q438 23 393.50 7Q349-9 287-9Q278-9 257.50-8.50Q237-8 210.50-5.50Q184-3 155 2.50Q126 8 100 19Q78 27 72.50 36Q67 45 72 60L83 114Q88 130 94 135Q100 140 114 138Q151 133 194.50 129.50Q238 126 286 126Q345 126 369.50 158.50Q394 191 399 248Q373 245 352.50 243.50Q332 242 314 241.50Q296 241 279 240.50Q262 240 244 240Q141 240 88.50 293Q36 346 36 458M194 461Q194 413 209.50 391Q225 369 269 369Q290 369 321.50 371Q353 373 404 378Q404 413 401.50 449Q399 485 390 503Q382 519 361 529Q340 539 300 539Q280 539 261 536Q242 533 227 524Q212 515 203 500Q194 485 194 461Z"  horiz-adv-x="597" vert-adv-y="1000"  />

      
      <glyph glyph-name="uni3a" unicode="&#x3a;" d="M197 66Q197 52 194 38Q191 24 182.50 13.50Q174 3 158-3.50Q142-10 117-10Q90-10 74.50-3.50Q59 3 50.50 14Q42 25 39.50 38.50Q37 52 37 66Q37 98 53 119.50Q69 141 117 141Q142 141 157.50 135.50Q173 130 182 120Q191 110 194 96Q197 82 197 66M197 379Q197 365 194 351Q191 337 182.50 326.50Q174 316 158 309.50Q142 303 117 303Q90 303 74.50 309.50Q59 316 50.50 327Q42 338 39.50 351.50Q37 365 37 379Q37 410 53 432Q69 454 117 454Q142 454 157.50 448.50Q173 443 182 433Q191 423 194 409Q197 395 197 379Z"  horiz-adv-x="234" vert-adv-y="1000"  />

      
      <glyph glyph-name="uni3b" unicode="&#x3b;" d="M197 379Q197 365 194 351Q191 337 182.50 326.50Q174 316 158 309.50Q142 303 117 303Q90 303 74.50 309.50Q59 316 50.50 327Q42 338 39.50 351.50Q37 365 37 379Q37 410 53 432Q69 454 117 454Q142 454 157.50 448.50Q173 443 182 433Q191 423 194 409Q197 395 197 379M199 32Q199-1 189.50-31.50Q180-62 165-87Q150-112 130.50-131.50Q111-151 91-163Q70-174 53-158L28-132Q17-120 17.50-114Q18-108 32-94Q50-76 57.50-56.50Q65-37 65-20Q65 13 42 39Q29 53 28 63Q27 73 45 86L110 136Q125 147 135.50 143Q146 139 158 128Q178 108 188.50 81.50Q199 55 199 32Z"  horiz-adv-x="234" vert-adv-y="1000"  />

      
      <glyph glyph-name="uni3c" unicode="&#x3c;" d="M503 196Q511 193 514.50 188.50Q518 184 518 173L518 72Q518 64 513 61.50Q508 59 501 63L96 268Q90 270 85 275Q80 280 80 291L80 361Q80 372 84 376Q88 380 95 384L501 590Q510 595 513.50 590.50Q517 586 517 579L517 483Q517 472 513 468Q509 464 502 460L252 329L252 325L503 196L503 196Z"  horiz-adv-x="597" vert-adv-y="1000"  />

      
      <glyph glyph-name="uni3d" unicode="&#x3d;" d="M505 472Q518 472 522 467Q526 462 526 452L526 380Q526 369 522 364Q518 359 505 359L93 359Q72 359 72 380L72 451Q72 472 93 472L505 472M505 288Q518 288 522 283Q526 278 526 268L526 196Q526 185 522 180Q518 175 505 175L93 175Q72 175 72 196L72 267Q72 288 93 288L505 288Z"  horiz-adv-x="597" vert-adv-y="1000"  />

      
      <glyph glyph-name="uni3e" unicode="&#x3e;" d="M348 325L348 329L97 460Q91 464 86.50 468Q82 472 82 483L82 579Q82 586 85.50 590.50Q89 595 99 590L505 384Q511 380 515 376Q519 372 519 361L519 291Q519 280 514 275Q509 270 504 268L99 63Q91 59 86 61.50Q81 64 81 72L81 173Q81 184 85 188.50Q89 193 96 196L348 325Z"  horiz-adv-x="597" vert-adv-y="1000"  />

      
      <glyph glyph-name="uni3f" unicode="&#x3f;" d="M403 509Q403 482 395 461Q387 440 374 424Q361 408 346 395Q331 382 317 372Q297 358 282.50 344.50Q268 331 258.50 316.50Q249 302 244 284.50Q239 267 239 244L239 206Q239 197 236 190.50Q233 184 222 184L123 184Q112 184 107.50 188Q103 192 101 204Q99 219 98.50 231Q98 243 98 254Q98 291 105.50 318.50Q113 346 127 368Q141 390 161 409.50Q181 429 207 450Q222 463 231 474Q240 485 240 500Q240 526 221.50 536.50Q203 547 160 547Q138 547 112.50 545Q87 543 64 541Q45 539 40.50 542Q36 545 34 558L28 616Q26 630 29 636Q32 642 47 649Q65 656 84.50 661Q104 666 122.50 668Q141 670 157 671Q173 672 185 672Q291 672 347 630.50Q403 589 403 509M248 64Q248 50 245 37Q242 24 233.50 13.50Q225 3 210-3.50Q195-10 170-10Q144-10 129-3.50Q114 3 105.50 13.50Q97 24 94.50 37Q92 50 92 64Q92 79 95.50 92.50Q99 106 108 115.50Q117 125 132 131Q147 137 170 137Q218 137 233 116.50Q248 96 248 64Z"  horiz-adv-x="436" vert-adv-y="1000"  />

      
      <glyph glyph-name="uni40" unicode="&#x40;" d="M469 723Q565 723 636 695Q707 667 753.50 618.50Q800 570 822.50 505Q845 440 845 367Q845 310 828.50 268.50Q812 227 785 199Q758 171 723.50 157.50Q689 144 652 144Q608 144 575 158.50Q542 173 526 202Q500 185 467.50 173.50Q435 162 400 162Q335 162 307 191Q279 220 279 281Q279 353 320.50 383.50Q362 414 438 414Q469 415 482 415.50Q495 416 505 417Q505 447 489.50 456Q474 465 442 465Q428 465 402 463.50Q376 462 344 459Q332 457 324.50 458Q317 459 314 473L307 507Q304 521 310 526.50Q316 532 324 537Q335 543 350.50 547.50Q366 552 384 554.50Q402 557 420.50 558.50Q439 560 455 560Q504 560 535.50 550Q567 540 584 521Q601 502 607.50 474.50Q614 447 614 412L614 281Q614 277 615 270.50Q616 264 620.50 257.50Q625 251 634 246.50Q643 242 659 242Q691 242 714.50 272.50Q738 303 738 363Q738 418 721 466Q704 514 671 549.50Q638 585 588.50 605Q539 625 473 625Q402 625 345 604Q288 583 248 546Q208 509 186.50 459.50Q165 410 165 353Q165 294 181 244Q197 194 231.50 157.50Q266 121 319.50 100.50Q373 80 449 80Q455 80 468.50 81Q482 82 499.50 83.50Q517 85 537 88Q557 91 575 94Q589 96 595 96Q601 96 605 86L614 53Q618 39 617.50 27.50Q617 16 604 9Q589 1 569-4.50Q549-10 527.50-13.50Q506-17 484.50-18.50Q463-20 446-20Q344-20 271 7.50Q198 35 151 84.50Q104 134 81.50 202Q59 270 59 351Q59 432 90 500Q121 568 176 617.50Q231 667 306 695Q381 723 469 723M385 281Q385 267 391.50 258.50Q398 250 417 250Q435 250 458 258.50Q481 267 504 280Q504 293 503.50 306.50Q503 320 503 333L433 333Q410 333 397.50 321.50Q385 310 385 281Z"  horiz-adv-x="905" vert-adv-y="1000"  />

      
      <glyph glyph-name="uni41" unicode="&#x41;" d="M170 28Q165 12 157 6Q149 0 135 0L24 0Q13 0 9 4.50Q5 9 10 26L203 636Q208 650 215 657.50Q222 665 242 665L368 665Q389 665 395.50 657Q402 649 407 635L608 24Q611 12 609 6Q607 0 596 0L472 0Q455 0 449 7.50Q443 15 438 31L405 150L206 150L170 28M340 382L308 504L303 504L270 383L240 272L370 272L340 382Z"  horiz-adv-x="618" vert-adv-y="1000"  />

      
      <glyph glyph-name="uni42" unicode="&#x42;" d="M569 197Q569 150 552 113.50Q535 77 506 51.50Q477 26 439.50 13Q402 0 361 0L90 0Q76 0 71.50 6Q67 12 67 22L67 642Q67 652 71.50 658Q76 664 89 664L343 665Q446 665 498.50 615.50Q551 566 551 480Q551 468 548 451Q545 434 537.50 416Q530 398 515.50 381Q501 364 479 353L480 349Q509 338 526.50 319Q544 300 553.50 278Q563 256 566 234.50Q569 213 569 197M406 205Q406 236 388 258Q370 280 329 280L226 280L226 133L329 133Q373 133 389.50 154Q406 175 406 205M388 469Q388 496 371.50 514Q355 532 317 532L226 532L226 408L322 408Q353 408 370.50 425Q388 442 388 469Z"  horiz-adv-x="620" vert-adv-y="1000"  />

      
      <glyph glyph-name="uni43" unicode="&#x43;" d="M58 329Q58 390 69.50 451.50Q81 513 112.50 562Q144 611 200.50 641.50Q257 672 348 672Q395 672 445.50 664.50Q496 657 536 640Q551 633 559 624.50Q567 616 563 597L550 539Q547 525 540.50 521Q534 517 516 519Q474 524 434.50 527Q395 530 363 530Q321 530 294.50 514.50Q268 499 253 472Q238 445 232.50 409Q227 373 227 332Q227 285 232.50 247.50Q238 210 253 184Q268 158 294.50 144.50Q321 131 362 131Q403 131 436.50 134Q470 137 517 142Q536 144 542 140.50Q548 137 552 122L565 69Q570 50 562.50 40.50Q555 31 540 24Q521 16 497.50 9.50Q474 3 448.50-1.50Q423-6 397.50-8Q372-10 349-10Q259-10 202 19.50Q145 49 113 97Q81 145 69.50 206Q58 267 58 329Z"  horiz-adv-x="593" vert-adv-y="1000"  />

      
      <glyph glyph-name="uni44" unicode="&#x44;" d="M90 0Q76 0 71.50 6Q67 12 67 22L67 642Q67 652 71.50 658Q76 664 89 664L307 664Q394 664 451 637Q508 610 541 565Q574 520 587.50 460Q601 400 601 334Q601 267 588 206.50Q575 146 542 100Q509 54 452 27Q395 0 307 0L90 0M436 327Q436 433 402 482Q368 531 296 531L225 531L225 133L289 133Q323 133 350 143.50Q377 154 396 177Q415 200 425.50 237Q436 274 436 327Z"  horiz-adv-x="658" vert-adv-y="1000"  />

      
      <glyph glyph-name="uni45" unicode="&#x45;" d="M68 642Q68 652 72.50 658.50Q77 665 90 665L487 665Q508 665 508 643L508 552Q508 543 503.50 537Q499 531 486 531L227 531L227 410L453 410Q476 410 476 389L476 298Q476 289 471.50 283Q467 277 453 277L227 277L227 133L491 133Q513 133 513 111L513 20Q513 11 508.50 5.50Q504 0 491 0L90 0Q77 0 72.50 6Q68 12 68 21L68 642Z"  horiz-adv-x="558" vert-adv-y="1000"  />

      
      <glyph glyph-name="uni46" unicode="&#x46;" d="M67 643Q67 652 71.50 658.50Q76 665 90 665L479 665Q501 665 501 643L501 552Q501 543 496.50 537Q492 531 478 531L227 531L227 410L442 410Q464 410 464 389L464 298Q464 288 459.50 282.50Q455 277 442 277L227 277L227 22Q227 14 223.50 7Q220 0 206 0L90 0Q77 0 72.50 6Q68 12 68 22L67 643Z"  horiz-adv-x="525" vert-adv-y="1000"  />

      
      <glyph glyph-name="uni47" unicode="&#x47;" d="M228 332Q228 289 232.50 252Q237 215 251.50 187.50Q266 160 291.50 144.50Q317 129 359 129Q377 129 396.50 131Q416 133 432 136L432 256L364 256Q350 256 345.50 261.50Q341 267 341 277L341 361Q341 371 345.50 376.50Q350 382 364 382L563 382Q574 382 580 375.50Q586 369 586 361Q586 304 586 235.50Q586 167 585 77Q585 60 580 45.50Q575 31 554 23Q530 14 503 7.50Q476 1 448.50-2.50Q421-6 394-8Q367-10 345-10Q258-10 202 17.50Q146 45 114.50 92Q83 139 71 200.50Q59 262 59 330Q59 391 70.50 452Q82 513 113.50 562Q145 611 201.50 641.50Q258 672 348 672Q396 672 446.50 664.50Q497 657 536 640Q551 634 559 625Q567 616 563 597L550 538Q547 523 540.50 520Q534 517 516 519Q474 524 436 527.50Q398 531 366 531Q324 531 297 515.50Q270 500 254.50 473Q239 446 233.50 409.50Q228 373 228 332Z"  horiz-adv-x="645" vert-adv-y="1000"  />

      
      <glyph glyph-name="uni48" unicode="&#x48;" d="M421 642Q421 652 426 658.50Q431 665 443 665L559 665Q573 665 576.50 657.50Q580 650 580 642L580 22Q580 14 576.50 7Q573 0 559 0L443 0Q421 0 421 22L421 278L226 278L226 22Q226 14 222.50 7Q219 0 205 0L89 0Q67 0 67 22L67 642Q67 652 72 658.50Q77 665 89 665L205 665Q219 665 222.50 657.50Q226 650 226 642L226 412L421 412L421 642Z"  horiz-adv-x="647" vert-adv-y="1000"  />

      
      <glyph glyph-name="uni49" unicode="&#x49;" d="M72 642Q72 652 76.50 658.50Q81 665 93 665L210 665Q224 665 227.50 657.50Q231 650 231 642L231 22Q231 14 227.50 7Q224 0 210 0L93 0Q81 0 76.50 6Q72 12 72 22L72 642Z"  horiz-adv-x="304" vert-adv-y="1000"  />

      
      <glyph glyph-name="uni4a" unicode="&#x4a;" d="M236 642Q236 652 240.50 658.50Q245 665 258 665L373 665Q387 665 391 657.50Q395 650 395 642Q395 497 395 381.50Q395 266 394 177Q394 89 341.50 40Q289-9 176-9Q164-9 147.50-8Q131-7 113-4.50Q95-2 76.50 1.50Q58 5 42 11Q16 20 9.50 28Q3 36 8 55L23 120Q28 135 32 137.50Q36 140 50 138Q76 135 101.50 133Q127 131 149 131Q176 131 193 136.50Q210 142 219.50 152Q229 162 232.50 176.50Q236 191 236 208L236 642Z"  horiz-adv-x="473" vert-adv-y="1000"  />

      
      <glyph glyph-name="uni4b" unicode="&#x4b;" d="M222 406L294 500L411 645Q419 655 429.50 660Q440 665 456 665L585 665Q601 665 604 656.50Q607 648 598 637L383 378L606 30Q617 14 611 7Q605 0 594 0L462 0Q444 0 435 7.50Q426 15 418 26L279 253L220 180L220 22Q220 14 216.50 7Q213 0 199 0L83 0Q70 0 65.50 6Q61 12 61 22L61 642Q61 652 65.50 658.50Q70 665 83 665L199 665Q213 665 216.50 657.50Q220 650 220 642L220 406L222 406Z"  horiz-adv-x="619" vert-adv-y="1000"  />

      
      <glyph glyph-name="uni4c" unicode="&#x4c;" d="M227 133L496 133Q514 133 514 116L514 20Q514 11 509.50 5.50Q505 0 492 0L90 0Q77 0 72.50 6Q68 12 68 21L68 642Q68 652 73 658.50Q78 665 90 665L205 665Q227 665 227 642L227 133Z"  horiz-adv-x="525" vert-adv-y="1000"  />

      
      <glyph glyph-name="uni4d" unicode="&#x4d;" d="M394 289L470 446L567 640Q574 652 582 658.50Q590 665 610 665L692 665Q706 665 709 657.50Q712 650 712 643L712 22Q712 14 709 7Q706 0 692 0L580 0Q567 0 562.50 6Q558 12 558 22L558 328L555 329L520 251L457 122Q450 110 441 103Q432 96 415 96L366 96Q348 96 339.50 102.50Q331 109 324 120L259 254L224 330L222 329L222 22Q222 14 218.50 7Q215 0 201 0L89 0Q77 0 72.50 6Q68 12 68 22L68 643Q68 652 72.50 658.50Q77 665 89 665L175 665Q195 665 203.50 659.50Q212 654 219 641L316 444L390 289L394 289Z"  horiz-adv-x="780" vert-adv-y="1000"  />

      
      <glyph glyph-name="uni4e" unicode="&#x4e;" d="M224 372L221 372L221 21Q221 13 217 6.50Q213 0 200 0L89 0Q66 0 66 21L66 642Q66 651 71 657.50Q76 664 88 664L170 664Q193 664 201.50 656Q210 648 218 635Q226 622 244 595Q262 568 284.50 533.50Q307 499 331.50 461.50Q356 424 378.50 389.50Q401 355 418.50 328Q436 301 444 289Q445 289 445.50 289.50Q446 290 447 290L447 641Q447 649 451 656.50Q455 664 469 664L580 664Q592 664 596.50 658Q601 652 601 641L601 21Q601 11 596.50 5.50Q592 0 580 0L498 0Q481 0 472 6Q463 12 455 23Q417 80 379 136.50Q341 193 303 250L224 372Z"  horiz-adv-x="670" vert-adv-y="1000"  />

      
      <glyph glyph-name="uni4f" unicode="&#x4f;" d="M631 341Q631 284 622.50 222.50Q614 161 584 109.50Q554 58 496.50 24.50Q439-9 341-9Q276-9 229.50 6.50Q183 22 151.50 48Q120 74 101.50 109Q83 144 73 183Q63 222 60 262.50Q57 303 57 341Q57 370 60.50 406.50Q64 443 74.50 479.50Q85 516 104 551Q123 586 154.50 613Q186 640 232 656.50Q278 673 342 673Q436 673 492.50 643.50Q549 614 580 566.50Q611 519 621 459.50Q631 400 631 341M468 330Q468 437 441.50 486.50Q415 536 343 536Q276 536 250.50 485.50Q225 435 225 330Q225 229 249.50 178.50Q274 128 343 128Q414 128 441 177.50Q468 227 468 330Z"  horiz-adv-x="689" vert-adv-y="1000"  />

      
      <glyph glyph-name="uni50" unicode="&#x50;" d="M226 22Q226 14 222.50 7Q219 0 205 0L89 0Q67 0 67 22L67 643Q67 652 71.50 658.50Q76 665 89 665L321 665Q368 665 409 652Q450 639 481 613.50Q512 588 529.50 549Q547 510 547 458Q547 423 537.50 385.50Q528 348 503 316.50Q478 285 434 264.50Q390 244 321 244L226 244L226 22M384 454Q384 494 360.50 513Q337 532 298 532L226 532L226 373L300 373Q339 373 361.50 393Q384 413 384 454Z"  horiz-adv-x="567" vert-adv-y="1000"  />

      
      <glyph glyph-name="uni51" unicode="&#x51;" d="M632 341Q632 305 629 266Q626 227 616.50 190.50Q607 154 589.50 120.50Q572 87 543 61L645 32Q661 27 663.50 19.50Q666 12 659-2L623-88Q614-116 582-102L357-8Q352-9 342-9Q277-9 230.50 6.50Q184 22 152.50 48Q121 74 102 109Q83 144 73.50 183Q64 222 61 262.50Q58 303 58 341Q58 370 61.50 406.50Q65 443 75 479.50Q85 516 104 551Q123 586 155 613Q187 640 232.50 656.50Q278 673 342 673Q436 673 493 643.50Q550 614 581 566.50Q612 519 622 459.50Q632 400 632 341M468 330Q468 437 441.50 486.50Q415 536 343 536Q277 536 251 485.50Q225 435 225 330Q225 280 231 242Q237 204 250.50 178.50Q264 153 286.50 140.50Q309 128 343 128Q412 128 440 177.50Q468 227 468 330Z"  horiz-adv-x="692" vert-adv-y="1000"  />

      
      <glyph glyph-name="uni52" unicode="&#x52;" d="M566 25Q571 14 567.50 7Q564 0 553 0L430 0Q415 0 405.50 4.50Q396 9 391 22L289 253L224 253L224 22Q224 14 220.50 7Q217 0 203 0L88 0Q74 0 69.50 6Q65 12 65 22L65 643Q65 652 69.50 658.50Q74 665 88 665L333 665Q373 665 412.50 653Q452 641 483 616.50Q514 592 533 553.50Q552 515 552 462Q552 437 546.50 410.50Q541 384 528 360Q515 336 494 315.50Q473 295 443 281L566 25M388 460Q388 499 364.50 515Q341 531 306 531L224 531L224 382L304 382Q317 382 332 385Q347 388 359.50 396Q372 404 380 419.50Q388 435 388 460Z"  horiz-adv-x="600" vert-adv-y="1000"  />

      
      <glyph glyph-name="uni53" unicode="&#x53;" d="M274-9Q258-9 234-7.50Q210-6 183-2.50Q156 1 128.50 7Q101 13 77 22Q52 32 49 41Q46 50 49 64L61 122Q66 142 73 144Q80 146 100 143Q118 141 140 138.50Q162 136 185 134Q208 132 231 130.50Q254 129 275 129Q326 129 349.50 145Q373 161 373 193Q373 211 368 222.50Q363 234 351.50 242Q340 250 322.50 255.50Q305 261 280 266Q237 275 195 287.50Q153 300 120 322Q87 344 66.50 379Q46 414 46 468Q46 517 63 555Q80 593 111.50 618.50Q143 644 188 657.50Q233 671 288 671Q302 671 324.50 670.50Q347 670 373.50 667Q400 664 427.50 658Q455 652 479 642Q504 633 507 623.50Q510 614 508 600L494 541Q492 531 489 526.50Q486 522 481 520.50Q476 519 468.50 519.50Q461 520 451 521Q417 526 381.50 529Q346 532 300 532Q256 532 234.50 518Q213 504 213 472Q213 456 217.50 446Q222 436 232.50 429Q243 422 260 417.50Q277 413 302 408Q345 399 387 387Q429 375 462 353Q495 331 515.50 294.50Q536 258 536 199Q536 140 514 100Q492 60 455.50 36Q419 12 371.50 1.50Q324-9 274-9Z"  horiz-adv-x="581" vert-adv-y="1000"  />

      
      <glyph glyph-name="uni54" unicode="&#x54;" d="M509 552Q509 543 504.50 537Q500 531 487 531L339 531L339 22Q339 14 335.50 7Q332 0 318 0L203 0Q190 0 185.50 6Q181 12 181 22L181 531L34 531Q20 531 16 537Q12 543 12 552L12 643Q12 653 16 659Q20 665 34 665L487 665Q509 665 509 643L509 552L509 552Z"  horiz-adv-x="521" vert-adv-y="1000"  />

      
      <glyph glyph-name="uni55" unicode="&#x55;" d="M327 128Q378 128 405 158Q432 188 432 251L431 642Q431 652 436 658.50Q441 665 454 665L569 665Q583 665 586.50 657.50Q590 650 590 642L589 247Q589 218 585.50 188.50Q582 159 570 128Q555 91 529.50 65Q504 39 471.50 22.50Q439 6 402-1.50Q365-9 327-9Q264-10 215.50 8.50Q167 27 134 61Q101 95 84 142.50Q67 190 67 247L67 642Q67 652 71.50 658.50Q76 665 89 665L204 665Q218 665 221.50 657.50Q225 650 225 642L225 251Q225 128 327 128Z"  horiz-adv-x="656" vert-adv-y="1000"  />

      
      <glyph glyph-name="uni56" unicode="&#x56;" d="M254 402L318 185L323 185L385 404L452 634Q457 649 465.50 657Q474 665 491 665L607 665Q622 665 622.50 657Q623 649 620 640L417 29Q412 16 404.50 8Q397 0 374 0L261 0Q241 0 232 7Q223 14 219 28L17 640Q12 651 15 658Q18 665 33 665L140 665Q160 665 168.50 659Q177 653 181 637L254 402Z"  horiz-adv-x="637" vert-adv-y="1000"  />

      
      <glyph glyph-name="uni57" unicode="&#x57;" d="M438 267L410 180L363 29Q358 16 351 8Q344 0 321 0L228 0Q208 0 199 7Q190 14 186 28L15 640Q12 651 15 658Q18 665 32 665L146 665Q163 665 170.50 659Q178 653 182 638Q200 567 214 510Q220 486 226 462Q232 438 237 418.50Q242 399 245.50 386Q249 373 250 370L286 215L290 215L321 324Q322 327 329 352.50Q336 378 345 408Q354 438 361.50 463.50Q369 489 370 492L323 640Q320 649 322.50 657Q325 665 336 665L442 665Q459 665 467.50 659.50Q476 654 480 638Q499 562 516 500Q523 474 529.50 448Q536 422 542 401Q548 380 551.50 366.50Q555 353 556 350L589 215L594 215L624 362Q625 365 628 378.50Q631 392 635.50 412Q640 432 646 456.50Q652 481 658 506Q672 565 689 638Q693 653 702 659Q711 665 729 665L837 665Q851 665 854 657.50Q857 650 853 639L692 29Q688 15 679 7.50Q670 0 649 0L558 0Q535 0 527.50 8Q520 16 515 29L469 180L443 267L438 267Z"  horiz-adv-x="877" vert-adv-y="1000"  />

      
      <glyph glyph-name="uni58" unicode="&#x58;" d="M378 339L563 26Q568 18 567 9Q566 0 550 0L425 0Q413 0 405.50 4Q398 8 390 21L341 115L291 214L242 115L194 24Q187 10 179 5Q171 0 156 0L31 0Q17 0 15 8.50Q13 17 20 28L204 339L31 636Q25 647 28 656Q31 665 45 665L169 665Q184 665 189.50 660.50Q195 656 202 643L248 554L292 466L337 559L380 642Q386 654 392.50 659Q399 664 412 664L539 664Q559 665 560 656Q561 647 556 639L378 339Z"  horiz-adv-x="589" vert-adv-y="1000"  />

      
      <glyph glyph-name="uni59" unicode="&#x59;" d="M228 244L13 640Q8 650 11 657.50Q14 665 25 665L144 665Q161 665 168 660Q175 655 183 641L249 510L308 390L314 390L376 511L440 634Q448 649 455 657Q462 665 479 665L599 665Q611 665 614 658Q617 651 612 643L386 244L386 22Q386 14 382.50 7Q379 0 366 0L250 0Q228 0 228 22L228 244Z"  horiz-adv-x="629" vert-adv-y="1000"  />

      
      <glyph glyph-name="uni5a" unicode="&#x5a;" d="M219 133L487 133Q501 133 505 127Q509 121 509 112L509 22Q509 12 505 6Q501 0 488 0L64 0Q42 0 42 21L42 102Q42 110 44.50 120.50Q47 131 55 142L328 531L84 531Q70 531 66 537Q62 543 62 552L62 643Q62 653 66 659Q70 665 84 665L486 665Q495 665 501 659Q507 653 507 644L506 571Q506 555 503 544.50Q500 534 493 523L219 133Z"  horiz-adv-x="550" vert-adv-y="1000"  />

      
      <glyph glyph-name="uni5b" unicode="&#x5b;" d="M178 25L236 25Q257 25 257 4L257-75Q257-95 236-95L58-95Q45-95 40.50-89Q36-83 36-73L36 674Q36 683 40.50 689Q45 695 57 695L235 695Q256 695 256 675L256 593Q256 585 251.50 579.50Q247 574 235 574L178 574L178 25Z"  horiz-adv-x="294" vert-adv-y="1000"  />

      
      <glyph glyph-name="uni5c" unicode="&#x5c;" d="M9 669Q7 680 11 686.50Q15 693 25 693L118 693Q135 693 140 676L311-41Q316-62 294-62L200-62Q192-62 186.50-58Q181-54 179-46L9 669Z"  horiz-adv-x="319" vert-adv-y="1000"  />

      
      <glyph glyph-name="uni5d" unicode="&#x5d;" d="M119 574L61 574Q39 574 39 593L39 675Q39 684 45 689.50Q51 695 60 695L239 695Q252 695 256.50 689Q261 683 261 674L261-74Q261-83 256.50-89Q252-95 239-95L60-95Q48-95 43.50-89.50Q39-84 39-75L39 4Q39 14 45 19.50Q51 25 60 25L119 25L119 574Z"  horiz-adv-x="294" vert-adv-y="1000"  />

      
      <glyph glyph-name="uni5e" unicode="&#x5e;" d="M288 545L101 335Q92 327 85.50 326.50Q79 326 70 334L33 363Q24 371 24 375.50Q24 380 32 390L212 646Q220 656 227 660Q234 664 252 664L334 663Q355 663 361 659Q367 655 373 646L543 390Q551 379 550.50 374Q550 369 542 362L503 333Q495 325 488.50 325.50Q482 326 474 334L288 545Z"  horiz-adv-x="576" vert-adv-y="1000"  />

      
      <glyph glyph-name="uni5f" unicode="&#x5f;" d="M497-47Q510-47 514-51.50Q518-56 518-67L518-121Q518-132 514-137Q510-142 497-142L3-142Q-18-142-18-122L-18-68Q-18-47 3-47L497-47Z"  horiz-adv-x="500" vert-adv-y="1000"  />

      
      <glyph glyph-name="uni60" unicode="&#x60;" d="M229 769Q236 773 243 773.50Q250 774 258 763L369 604Q376 595 373.50 589.50Q371 584 366 580L319 543Q312 537 305.50 539.50Q299 542 294 547L158 686Q142 704 160 716L229 769Z"  horiz-adv-x="536" vert-adv-y="1000"  />

      
      <glyph glyph-name="uni61" unicode="&#x61;" d="M343 208L253 208Q225 208 209 195Q193 182 193 147Q193 124 202.50 115Q212 106 238 106Q261 106 291.50 117Q322 128 343 141L343 208M358 60Q338 42 315 29Q292 16 268 7.50Q244-1 221-4.50Q198-8 179-8Q135-8 107.50 4.50Q80 17 65 37Q50 57 44.50 83.50Q39 110 39 139Q38 185 51.50 217Q65 249 90 268.50Q115 288 151 296.50Q187 305 231 305L346 305L346 321Q346 337 342.50 348Q339 359 329.50 366Q320 373 303 376.50Q286 380 258 380Q247 380 230.50 379Q214 378 196 377Q178 376 160 374Q142 372 127 371Q106 369 99.50 371Q93 373 89 388L78 440Q76 453 81.50 461.50Q87 470 110 479Q127 485 149.50 489.50Q172 494 195.50 497Q219 500 242 501.50Q265 503 282 503Q352 503 394.50 490Q437 477 459.50 453Q482 429 489 394Q496 359 496 314L496 156Q496 140 497.50 131Q499 122 503 117.50Q507 113 514 111Q521 109 533 108Q546 107 550 103.50Q554 100 554 91L554 27Q554 7 525 1Q497-6 463-6Q426-6 398 6.50Q370 19 360 59L358 60Z"  horiz-adv-x="573" vert-adv-y="1000"  />

      
      <glyph glyph-name="uni62" unicode="&#x62;" d="M199 486Q228 495 253.50 499Q279 503 300 503Q366 503 407 484.50Q448 466 470.50 432.50Q493 399 501 353Q509 307 509 252Q509 193 500 144.50Q491 96 465.50 62Q440 28 395.50 9.50Q351-9 280-9Q255-9 227-7Q199-5 172-1.50Q145 2 120 7.50Q95 13 76 21Q57 29 51.50 41Q46 53 46 70L46 684Q46 694 50.50 700Q55 706 68 706L178 706Q192 706 195.50 698.50Q199 691 199 684L199 486M352 244Q352 281 347.50 305.50Q343 330 334 344.50Q325 359 311 365.50Q297 372 278 372Q258 372 243 370Q228 368 199 361L199 129Q216 126 233.50 125Q251 124 265 124Q283 124 299 128Q315 132 327 144.50Q339 157 345.50 180.50Q352 204 352 244Z"  horiz-adv-x="551" vert-adv-y="1000"  />

      
      <glyph glyph-name="uni63" unicode="&#x63;" d="M450 59Q454 42 450 32.50Q446 23 424 14Q394 3 350.50-3Q307-9 271-9Q196-9 150.50 13Q105 35 81 71Q57 107 49 153.50Q41 200 41 249Q41 294 49.50 339.50Q58 385 82.50 421.50Q107 458 152 480.50Q197 503 271 503Q311 503 353.50 497.50Q396 492 428 478Q453 468 449 441L438 380Q434 364 427.50 362.50Q421 361 400 363Q370 366 343 368Q316 370 292 370Q241 370 219 341.50Q197 313 197 252Q197 179 217.50 151.50Q238 124 290 124Q311 124 344.50 126Q378 128 410 132Q426 134 431.50 132Q437 130 440 114L450 59Z"  horiz-adv-x="478" vert-adv-y="1000"  />

      
      <glyph glyph-name="uni64" unicode="&#x64;" d="M503 21Q503 13 499.50 6.50Q496 0 482 0L372 0Q360 0 356 5Q352 10 352 20L352 46Q351 46 350.50 46.50Q350 47 349 47Q316 22 279 7Q242-8 207-8Q156-8 123.50 10.50Q91 29 72.50 62Q54 95 47 140.50Q40 186 40 240Q40 300 47.50 348.50Q55 397 77 431.50Q99 466 139 485Q179 504 243 504Q277 504 302.50 499.50Q328 495 351 488Q351 488 352 489L352 683Q352 693 356 699.50Q360 706 373 706L482 706Q496 706 499.50 698.50Q503 691 503 683L503 21M351 362Q325 369 307 371Q289 373 273 373Q252 373 237 367.50Q222 362 212.50 347.50Q203 333 199 308.50Q195 284 195 245Q195 208 198.50 185.50Q202 163 209.50 150.50Q217 138 228.50 134Q240 130 255 130Q267 130 280 133Q293 136 306 140.50Q319 145 330.50 150.50Q342 156 351 160L351 362Z"  horiz-adv-x="553" vert-adv-y="1000"  />

      
      <glyph glyph-name="uni65" unicode="&#x65;" d="M198 211Q199 182 207 164Q215 146 228.50 135.50Q242 125 261.50 121.50Q281 118 306 118Q329 118 361 121Q393 124 424 128Q444 130 449 127.50Q454 125 458 106L466 59Q469 42 466 32.50Q463 23 440 14Q425 9 404.50 4.50Q384 0 362.50-3Q341-6 319-7.50Q297-9 279-9Q204-9 157.50 12Q111 33 85.50 67.50Q60 102 51 147.50Q42 193 42 243Q42 279 48 324Q54 369 77 409Q100 449 145.50 476Q191 503 270 503Q342 503 386 482.50Q430 462 454.50 429Q479 396 488 355.50Q497 315 497 275Q497 244 485.50 227.50Q474 211 442 211L198 211M270 386Q235 386 218.50 364.50Q202 343 200 301L339 301Q339 337 324 361.50Q309 386 270 386Z"  horiz-adv-x="533" vert-adv-y="1000"  />

      
      <glyph glyph-name="uni66" unicode="&#x66;" d="M247 22Q247 14 243.50 7Q240 0 226 0L117 0Q104 0 99.50 6Q95 12 95 22L95 374L53 374Q31 374 31 397L31 472Q31 494 53 494L96 494L96 541Q96 621 142.50 669Q189 717 290 717Q304 717 322 716Q340 715 358.50 712Q377 709 396 704Q415 699 431 692Q448 685 449 675.50Q450 666 448 656L436 593Q433 581 426.50 579.50Q420 578 403 580Q374 584 349 585.50Q324 587 316 587Q278 587 263 569.50Q248 552 248 519L248 494L357 494Q371 494 374.50 488.50Q378 483 378 473L378 397Q378 386 374.50 380Q371 374 357 374L247 374L247 22Z"  horiz-adv-x="429" vert-adv-y="1000"  />

      
      <glyph glyph-name="uni67" unicode="&#x67;" d="M280 504Q304 504 330.50 502Q357 500 382.50 496.50Q408 493 432 487.50Q456 482 475 475Q495 467 500 454.50Q505 442 505 425L505 17Q505-31 498.50-72Q492-113 468.50-143Q445-173 398-190.50Q351-208 270-208Q228-208 184.50-202Q141-196 111-185Q88-176 83.50-166.50Q79-157 81-145L93-89Q96-73 103-71Q110-69 127-72Q162-77 198-79.50Q234-82 262-82Q290-82 308-77.50Q326-73 336-64Q346-55 349.50-41Q353-27 353-7L353 17Q324 8 298.50 4Q273 0 253 0Q189 0 148.50 18.50Q108 37 84.50 69.50Q61 102 52 147Q43 192 43 246Q43 302 53.50 349.50Q64 397 90.50 431.50Q117 466 163 485Q209 504 280 504M200 255Q200 218 204.50 194Q209 170 218.50 156Q228 142 243 136.50Q258 131 278 131Q293 131 311 133.50Q329 136 353 142L353 365Q318 371 287 371Q269 371 253 367.50Q237 364 225.50 352Q214 340 207 317Q200 294 200 255Z"  horiz-adv-x="552" vert-adv-y="1000"  />

      
      <glyph glyph-name="uni68" unicode="&#x68;" d="M511 22Q511 14 507.50 7Q504 0 490 0L380 0Q358 0 358 22Q358 38 358 76Q358 114 358.50 156.50Q359 199 359 237Q359 275 359 291Q359 332 344.50 349Q330 366 298 366Q287 366 273.50 363Q260 360 246.50 355.50Q233 351 221 346Q209 341 200 337L200 22Q200 14 196.50 7Q193 0 179 0L69 0Q57 0 52.50 6Q48 12 48 22L48 684Q48 694 52.50 700Q57 706 69 706L180 706Q194 706 197.50 699Q201 692 201 684L201 458Q232 475 272 489Q312 503 350 503Q406 503 438.50 485.50Q471 468 487 439.50Q503 411 507 376Q511 341 511 306L511 22Z"  horiz-adv-x="558" vert-adv-y="1000"  />

      
      <glyph glyph-name="uni69" unicode="&#x69;" d="M218 624Q218 610 215 596.50Q212 583 203.50 572.50Q195 562 179.50 555.50Q164 549 139 549Q113 549 97 555.50Q81 562 72.50 573Q64 584 61.50 597Q59 610 59 624Q59 655 75 676.50Q91 698 139 698Q163 698 178.50 692.50Q194 687 203 677Q212 667 215 653.50Q218 640 218 624M213 22Q213 14 209.50 7Q206 0 193 0L83 0Q70 0 65.50 6Q61 12 61 22L61 472Q61 483 65.50 488.50Q70 494 83 494L193 494Q206 494 209.50 486.50Q213 479 213 472L213 22Z"  horiz-adv-x="277" vert-adv-y="1000"  />

      
      <glyph glyph-name="uni6a" unicode="&#x6a;" d="M228 19Q228-48 210.50-93.50Q193-139 159.50-166Q126-193 77-203.50Q28-214-35-212Q-42-212-51-208Q-60-204-61-190L-68-112Q-70-97-66.50-93.50Q-63-90-49-87Q-13-79 10.50-72.50Q34-66 48.50-55.50Q63-45 69-28.50Q75-12 75 16L75 472Q75 494 98 494L207 494Q221 494 224.50 486.50Q228 479 228 472L228 19M232 624Q232 610 229 596.50Q226 583 217 572.50Q208 562 192.50 555.50Q177 549 152 549Q126 549 110.50 555.50Q95 562 86.50 573Q78 584 75.50 597Q73 610 73 624Q73 655 89 676.50Q105 698 152 698Q177 698 192.50 692.50Q208 687 217 677Q226 667 229 653.50Q232 640 232 624Z"  horiz-adv-x="292" vert-adv-y="1000"  />

      
      <glyph glyph-name="uni6b" unicode="&#x6b;" d="M204 332L267 404L327 472Q336 483 345 488.50Q354 494 374 494L488 494Q506 494 508.50 486Q511 478 500 467L347 302L522 28Q530 16 525 8Q520 0 506 0L396 0Q373 0 363.50 6.50Q354 13 348 24L247 192L201 142L201 22Q201 14 197.50 7Q194 0 180 0L71 0Q58 0 53.50 6Q49 12 49 22L49 684Q49 694 53.50 700.50Q58 707 71 707L180 707Q194 707 197.50 699.50Q201 692 201 684L201 333L204 332Z"  horiz-adv-x="530" vert-adv-y="1000"  />

      
      <glyph glyph-name="uni6c" unicode="&#x6c;" d="M212 153Q212 132 222 127Q232 122 255 121Q270 120 273 118Q276 116 278 105L283 30Q284 16 267 8Q249 0 225-2.50Q201-5 187-5Q122-5 91 24.50Q60 54 60 123L60 684Q60 694 64.50 700Q69 706 82 706L191 706Q205 706 208.50 699Q212 692 212 684L212 153Z"  horiz-adv-x="300" vert-adv-y="1000"  />

      
      <glyph glyph-name="uni6d" unicode="&#x6d;" d="M794 21Q794 13 790.50 6.50Q787 0 774 0L664 0Q651 0 646.50 5.50Q642 11 642 21L642 284Q642 330 628 345Q614 360 586 360Q568 360 542 350.50Q516 341 497 331L497 21Q497 13 493.50 6.50Q490 0 476 0L366 0Q354 0 349.50 5.50Q345 11 345 21L345 287Q345 329 331.50 344.50Q318 360 291 360Q273 360 247.50 351Q222 342 201 331L201 21Q201 13 197 6.50Q193 0 179 0L69 0Q57 0 52.50 5.50Q48 11 48 21L48 471Q48 481 52.50 487Q57 493 69 493L179 493Q193 493 197 486Q201 479 201 471L201 448L202 447Q234 473 272 487.50Q310 502 349 502Q394 502 428 485.50Q462 469 478 434Q513 463 557.50 482.50Q602 502 647 502Q700 502 729.50 484.50Q759 467 773.50 439Q788 411 791 376Q794 341 794 306L794 21L794 21Z"  horiz-adv-x="843" vert-adv-y="1000"  />

      
      <glyph glyph-name="uni6e" unicode="&#x6e;" d="M510 21Q510 13 506.50 6.50Q503 0 489 0L379 0Q357 0 357 21Q357 87 357.50 152Q358 217 358 283Q358 325 343.50 342.50Q329 360 297 360Q273 360 245 348.50Q217 337 199 331L199 21Q199 13 195.50 6.50Q192 0 178 0L69 0Q56 0 51.50 5.50Q47 11 47 21L47 471Q47 481 51.50 487Q56 493 69 493L178 493Q192 493 195.50 486Q199 479 199 471L199 447Q200 447 200.50 446.50Q201 446 202 446Q235 471 279 486.50Q323 502 359 502Q412 502 442.50 484.50Q473 467 488 438.50Q503 410 506.50 375Q510 340 510 305L510 21L510 21Z"  horiz-adv-x="558" vert-adv-y="1000"  />

      
      <glyph glyph-name="uni6f" unicode="&#x6f;" d="M508 254Q508 213 502 167Q496 121 472 82Q448 43 400.50 17.50Q353-8 271-8Q190-8 144.50 17.50Q99 43 76 82Q53 121 47.50 167Q42 213 42 254Q42 288 49 331Q56 374 79.50 412.50Q103 451 148.50 477Q194 503 271 503Q348 503 395 480.50Q442 458 467 422Q492 386 500 341.50Q508 297 508 254M352 248Q352 311 337.50 342Q323 373 273 373Q227 373 211.50 341Q196 309 196 248Q196 182 211 152Q226 122 271 122Q321 122 336.50 153Q352 184 352 248Z"  horiz-adv-x="549" vert-adv-y="1000"  />

      
      <glyph glyph-name="uni70" unicode="&#x70;" d="M512 248Q512 188 503.50 140Q495 92 472 59Q449 26 409.50 8Q370-10 309-10Q288-10 258-6.50Q228-3 201 5L200 5L200-173Q200-180 196.50-187.50Q193-195 179-195L69-195Q56-195 52-189Q48-183 48-173L48 471Q48 481 52.50 487Q57 493 69 493L179 493Q193 493 196.50 486Q200 479 200 471L200 447Q201 447 201 446.50Q201 446 202 446Q235 470 272 485.50Q309 501 344 501Q396 501 428.50 481.50Q461 462 479.50 428Q498 394 505 347.50Q512 301 512 248M355 246Q355 282 351.50 304Q348 326 340.50 339Q333 352 321.50 356.50Q310 361 295 361Q272 361 245 350.50Q218 340 200 332L200 131Q224 124 242.50 122Q261 120 278 120Q299 120 313.50 125Q328 130 337.50 144Q347 158 351 182.50Q355 207 355 246Z"  horiz-adv-x="550" vert-adv-y="1000"  />

      
      <glyph glyph-name="uni71" unicode="&#x71;" d="M504-173Q504-181 501-188Q498-195 484-195L374-195Q360-195 355.50-189Q351-183 351-173L351 7Q322-1 297-4.50Q272-8 252-8Q188-8 147.50 10.50Q107 29 83.50 62Q60 95 51 141Q42 187 42 242Q42 299 52.50 347Q63 395 89.50 429.50Q116 464 162 483.50Q208 503 279 503Q329 503 383 496Q437 489 475 474Q494 466 499 453.50Q504 441 504 424L504-173M353 365Q317 371 286 371Q268 371 252 367Q236 363 224.50 350.50Q213 338 206 314Q199 290 199 251Q199 213 203.50 188Q208 163 218 148Q228 133 242.50 127Q257 121 277 121Q305 121 353 133L353 365Z"  horiz-adv-x="552" vert-adv-y="1000"  />

      
      <glyph glyph-name="uni72" unicode="&#x72;" d="M216 424L218 422Q231 436 249.50 448.50Q268 461 288 471.50Q308 482 327.50 489Q347 496 363 499Q379 501 386.50 498Q394 495 396 476L408 378Q409 371 409 366.50Q409 362 406 358.50Q403 355 397 352.50Q391 350 380 348Q290 331 216 305L216 22Q216 14 212.50 7Q209 0 195 0L85 0Q72 0 67.50 6Q63 12 63 22L63 472Q63 482 67.50 488Q72 494 85 494L194 494Q208 494 212 486.50Q216 479 216 472L216 424Z"  horiz-adv-x="411" vert-adv-y="1000"  />

      
      <glyph glyph-name="uni73" unicode="&#x73;" d="M451 156Q451 109 432.50 77.50Q414 46 383 27Q352 8 312.50-0.50Q273-9 230-9Q212-9 191-7.50Q170-6 148.50-3Q127 0 107.50 4Q88 8 73 13Q48 22 41 31.50Q34 41 39 61L50 109Q53 123 59 126Q65 129 82 126Q117 120 158 116.50Q199 113 225 113Q263 113 279 121.50Q295 130 295 150Q295 172 283 179.50Q271 187 239 191Q198 197 162.50 205Q127 213 100 229Q73 245 57.50 272Q42 299 42 343Q42 383 57.50 413Q73 443 100 463Q127 483 164.50 493Q202 503 246 503Q263 503 283.50 501.50Q304 500 325 497.50Q346 495 365.50 491Q385 487 401 481Q421 474 430.50 466.50Q440 459 435 440L424 389Q420 375 415.50 372Q411 369 394 371Q377 373 357 375.50Q337 378 317.50 379.50Q298 381 281 382Q264 383 252 383Q214 384 204.50 374.50Q195 365 195 349Q195 330 212.50 324.50Q230 319 257 314Q296 309 331 301.50Q366 294 392.50 277Q419 260 435 231.50Q451 203 451 156Z"  horiz-adv-x="488" vert-adv-y="1000"  />

      
      <glyph glyph-name="uni74" unicode="&#x74;" d="M401 45Q404 34 398.50 25Q393 16 383 13Q365 7 344.50 3Q324-1 304-3.50Q284-6 266.50-7Q249-8 237-8Q190-8 161 5.50Q132 19 116 41Q100 63 94.50 91.50Q89 120 89 151L89 374L45 374Q33 374 28.50 379.50Q24 385 24 396L24 471Q24 482 28.50 487.50Q33 493 45 493L90 493L90 591Q90 603 96 608.50Q102 614 112 617L213 644Q224 648 231 643.50Q238 639 238 627L238 493L340 493Q354 493 357.50 488Q361 483 361 472L361 396Q361 385 357.50 379.50Q354 374 340 374L237 374L238 188Q238 174 239.50 164Q241 154 247 147.50Q253 141 265 137.50Q277 134 299 134Q311 134 330 135Q349 136 368 138Q378 138 384 136Q390 134 392 117L401 45Z"  horiz-adv-x="409" vert-adv-y="1000"  />

      
      <glyph glyph-name="uni75" unicode="&#x75;" d="M506 21Q506 11 501.50 5.50Q497 0 484 0L374 0Q360 0 356.50 6.50Q353 13 353 21L353 46Q352 46 352 46.50Q352 47 351 47Q317 21 273.50 6.50Q230-8 194-8Q141-8 111.50 8Q82 24 67.50 50.50Q53 77 49.50 111.50Q46 146 46 184L46 471Q46 479 49.50 486Q53 493 67 493L177 493Q189 493 193.50 487Q198 481 198 471L198 209Q198 171 211.50 151.50Q225 132 259 132Q271 132 284 135.50Q297 139 309.50 143.50Q322 148 333.50 153Q345 158 353 161L353 471Q353 479 356.50 486Q360 493 374 493L484 493Q497 493 501.50 487Q506 481 506 471L506 21L506 21Z"  horiz-adv-x="555" vert-adv-y="1000"  />

      
      <glyph glyph-name="uni76" unicode="&#x76;" d="M276 167Q276 169 282 189.50Q288 210 296 235Q305 264 316 300L374 473Q377 484 383 489Q389 494 407 494L510 494Q527 494 530 488Q533 482 528 469L363 31Q357 14 348 7Q339 0 319 0L226 0Q205 0 197 7Q189 14 183 31L19 468Q9 494 34 494L144 494Q158 494 165 491Q172 488 177 471L233 295Q244 259 252 232Q259 208 264.50 188.50Q270 169 271 167L276 167Z"  horiz-adv-x="545" vert-adv-y="1000"  />

      
      <glyph glyph-name="uni77" unicode="&#x77;" d="M432 469Q446 424 459 379.50Q472 335 485 290L515 186L519 186L551 311L592 470Q596 484 600.50 488.50Q605 493 616 493L728 493Q742 493 744 486.50Q746 480 743 472L605 31Q600 16 593 8Q586 0 566 0L482 0Q465 0 458 5.50Q451 11 445 29L421 101L388 199L385 199L348 98L323 29Q318 16 311.50 8Q305 0 283 0L206 0Q186 0 178.50 6Q171 12 166 28L17 471Q16 474 16 479Q16 493 32 493L145 493Q158 493 164 489Q170 485 174 472L219 305L254 177L259 177L295 290L322 369L287 471Q284 479 287.50 486Q291 493 302 493L402 493Q417 493 422 489.50Q427 486 432 469Z"  horiz-adv-x="759" vert-adv-y="1000"  />

      
      <glyph glyph-name="uni78" unicode="&#x78;" d="M345 252L503 27Q510 16 506.50 8Q503 0 489 0L372 0Q360 0 353 3Q346 6 340 17L258 148L177 18Q166 0 142 0L24 0Q11 0 7.50 7Q4 14 13 27L171 252L23 468Q17 477 19 485.50Q21 494 35 494L152 494Q166 494 171 490.50Q176 487 183 477L258 356L333 476Q338 486 343.50 490Q349 494 360 494L484 494Q502 494 504 486Q506 478 499 468L345 252Z"  horiz-adv-x="518" vert-adv-y="1000"  />

      
      <glyph glyph-name="uni79" unicode="&#x79;" d="M263 191Q268 205 275.50 228Q283 251 291 274Q300 300 309 330Q320 362 332 402Q344 442 355 473Q359 484 365 489Q371 494 389 494L489 494Q506 494 508 487Q510 480 505 468L267-172Q262-186 255-190.50Q248-195 231-195L135-195Q120-195 116.50-189.50Q113-184 119-170L187 13L14 469Q4 494 30 494L137 494Q151 494 157.50 491Q164 488 169 473L216 328L258 191L263 191Z"  horiz-adv-x="522" vert-adv-y="1000"  />

      
      <glyph glyph-name="uni7a" unicode="&#x7a;" d="M418 122Q440 122 440 100L440 22Q440 0 418 0L48 0Q35 0 31.50 5Q28 10 28 20L28 84Q28 92 30 101Q32 110 43 123L252 373L63 373Q42 373 42 395L42 473Q42 494 63 494L413 494Q426 494 430 489.50Q434 485 434 474L434 407Q434 398 431.50 389Q429 380 419 368L213 122L418 122Z"  horiz-adv-x="471" vert-adv-y="1000"  />

      
      <glyph glyph-name="uni7b" unicode="&#x7b;" d="M227 42Q227 20 234.50 10Q242 0 264-2L290-4Q299-5 304-8.50Q309-12 309-23L309-87Q309-104 292-106Q268-110 245.50-110.50Q223-111 206-111Q173-111 150-101Q127-91 113-74.50Q99-58 93-37Q87-16 87 5L87 174Q87 190 86.50 203.50Q86 217 82 227Q78 237 69.50 244Q61 251 46 256Q29 261 29 275L29 328Q29 342 44 345Q76 354 81.50 375Q87 396 87 429L87 584Q87 606 94.50 627.50Q102 649 117 666Q132 683 155 693Q178 703 210 703Q227 703 245 701.50Q263 700 292 697Q303 696 306 691Q309 686 309 677L309 612Q309 601 304 597Q299 593 290 593L263 591Q242 589 235 578.50Q228 568 228 546L228 415Q228 402 225.50 385Q223 368 216 351Q209 334 196 320Q183 306 162 299L162 296Q186 287 199 275Q212 263 218 248Q224 233 225.50 216.50Q227 200 227 184L227 42Z"  horiz-adv-x="344" vert-adv-y="1000"  />

      
      <glyph glyph-name="uni7c" unicode="&#x7c;" d="M82 675Q82 697 104 697L194 697Q208 697 211 690Q214 683 214 675L214-89Q214-97 211-104Q208-111 194-111L104-111Q82-111 82-89L82 675Z"  horiz-adv-x="297" vert-adv-y="1000"  />

      
      <glyph glyph-name="uni7d" unicode="&#x7d;" d="M109 184Q109 200 110.50 216.50Q112 233 118 248Q124 263 137 275Q150 287 174 296L174 299Q153 306 140 320Q127 334 120 351Q113 368 110.50 385Q108 402 108 415L108 546Q108 568 101 578.50Q94 589 73 591L46 593Q37 593 32.50 597Q28 601 28 612L28 677Q28 695 44 697Q71 701 90 701.50Q109 702 126 702Q157 702 180.50 692Q204 682 219 665.50Q234 649 241.50 627.50Q249 606 249 584L249 429Q249 396 254.50 375Q260 354 292 345Q307 342 307 328L307 275Q307 261 291 256Q275 251 266.50 244Q258 237 254 227Q250 217 249.50 203.50Q249 190 249 174L249 5Q249-16 243-37Q237-58 223-74.50Q209-91 186.50-101Q164-111 131-111Q114-111 91-110.50Q68-110 44-106Q28-104 28-87L28-23Q28-12 32.50-8.50Q37-5 46-4L72-2Q94 0 101.50 10Q109 20 109 42L109 184Z"  horiz-adv-x="344" vert-adv-y="1000"  />

      
      <glyph glyph-name="uni7e" unicode="&#x7e;" d="M396 219Q376 219 351.50 227Q327 235 301 245Q275 255 250.50 263Q226 271 208 271Q191 271 176.50 262.50Q162 254 142 230Q136 223 132.50 220Q129 217 116 224L74 247Q69 249 64.50 255Q60 261 65 269Q92 332 132.50 356Q173 380 212 380Q237 380 264 372.50Q291 365 317 355.50Q343 346 366.50 338.50Q390 331 408 331Q425 331 437.50 340.50Q450 350 463 369Q468 377 473.50 379Q479 381 490 374L532 349Q542 343 544.50 339Q547 335 543 326Q529 294 512.50 273.50Q496 253 477.50 241Q459 229 438.50 224Q418 219 396 219Z"  horiz-adv-x="597" vert-adv-y="1000"  />

      
      <glyph glyph-name="uni0385" unicode="&#x0385;" d="M96 546Q71 546 56.50 552Q42 558 34.50 567.50Q27 577 25 590Q23 603 23 617Q23 646 37 665.50Q51 685 96 685Q142 685 156 666.50Q170 648 170 617Q170 603 167.50 590Q165 577 157 567Q149 557 134.50 551.50Q120 546 96 546M414 546Q390 546 375.50 552Q361 558 353.50 567.50Q346 577 343.50 590Q341 603 341 617Q341 646 355.50 665.50Q370 685 414 685Q461 685 474.50 666.50Q488 648 488 617Q488 603 485.50 590Q483 577 475 567Q467 557 452.50 551.50Q438 546 414 546M357 739Q380 731 365 710L266 547Q261 539 256 535Q251 531 242 535L187 557Q180 560 177 564.50Q174 569 178 580L250 761Q255 772 262 774Q269 776 276 773L357 739Z"  horiz-adv-x="515" vert-adv-y="1000"  />

      
      <glyph glyph-name="uni0384" unicode="&#x0384;" d="M405 729Q426 718 410 699L293 548Q288 541 282 537.50Q276 534 267 539L215 567Q209 571 206.50 576Q204 581 209 591L301 763Q307 774 314.50 775Q322 776 329 772L405 729Z"  horiz-adv-x="536" vert-adv-y="1000"  />

      
      <glyph glyph-name="unia8" unicode="&#xa8;" d="M177 546Q152 546 137.50 552Q123 558 115.50 567.50Q108 577 106 590Q104 603 104 617Q104 646 118 665.50Q132 685 177 685Q223 685 237 666.50Q251 648 251 617Q251 603 248.50 590Q246 577 238 567Q230 557 215.50 551.50Q201 546 177 546M386 546Q362 546 347.50 552Q333 558 325.50 567.50Q318 577 315.50 590Q313 603 313 617Q313 646 327.50 665.50Q342 685 386 685Q433 685 446.50 666.50Q460 648 460 617Q460 603 457.50 590Q455 577 447 567Q439 557 424.50 551.50Q410 546 386 546Z"  horiz-adv-x="536" vert-adv-y="1000"  />

      
      <glyph glyph-name="unia3" unicode="&#xa3;" d="M334 669Q348 669 370 668Q392 667 417.50 664Q443 661 469 655.50Q495 650 518 641Q531 636 534 630.50Q537 625 535 615L524 544Q522 530 516.50 526.50Q511 523 502 525Q469 530 437.50 533Q406 536 371 536Q326 536 305 517.50Q284 499 280 467Q278 448 277.50 428.50Q277 409 279 390L418 390Q430 390 434.50 386Q439 382 439 371L439 300Q439 288 434.50 284Q430 280 418 280L283 280Q283 262 281.50 240.50Q280 219 277 197.50Q274 176 268.50 157Q263 138 254 125Q276 125 306.50 125Q337 125 371 124.50Q405 124 440.50 124Q476 124 508 124Q528 124 528 105L528 19Q528 7 524 3.50Q520 0 508 0L80 0Q59 0 59 19Q58 38 58 56Q58 74 58 92Q58 100 63 109.50Q68 119 81 129Q102 143 113 168Q124 193 128 216Q130 226 131 242Q132 258 132 280L83 280Q71 280 66 284Q61 288 61 300L61 371Q61 382 66 386Q71 390 83 390L129 390Q128 406 128 421Q128 436 128 451Q128 467 128 482Q128 497 129 511Q132 546 145 575Q158 604 182.50 625Q207 646 244.50 657.50Q282 669 334 669Z"  horiz-adv-x="597" vert-adv-y="1000"  />

      
      <glyph glyph-name="uni2122" unicode="&#x2122;" d="M673 663Q686 663 686 650L686 362Q686 348 673 348L608 348Q594 348 594 362L594 510L592 510L577 481L539 414Q531 402 520 402L499 402Q491 402 487.50 404.50Q484 407 481 412L448 476L430 510Q429 510 429 510.50Q429 511 428 511L428 362Q428 348 414 348L348 348Q334 348 334 362L334 650Q334 663 348 663L414 663Q422 663 425.50 659.50Q429 656 433 650L511 511L512 511Q511 511 523.50 532.50Q536 554 551 580Q569 611 590 650Q594 656 597.50 659.50Q601 663 609 663L673 663M308 598Q308 583 294 583L213 583L213 362Q213 348 198 348L134 348Q119 348 119 362L119 583L40 583Q26 583 26 598L26 649Q26 662 38 662L295 662Q308 662 308 649L308 598Z"  horiz-adv-x="726" vert-adv-y="1000"  />

      
      <glyph glyph-name="uni2022" unicode="&#x2022;" d="M197 140Q168 140 142.50 151Q117 162 98.50 181Q80 200 69 226Q58 252 58 282Q58 312 69 338Q80 364 98.50 383.50Q117 403 142.50 414Q168 425 197 425Q226 425 251.50 414Q277 403 296 383.50Q315 364 326 338Q337 312 337 282Q337 252 326 226Q315 200 296 181Q277 162 251.50 151Q226 140 197 140Z"  horiz-adv-x="394" vert-adv-y="1000"  />

      
      <glyph glyph-name="uniad" unicode="&#xad;" d="M364 378Q377 378 381 373.50Q385 369 385 359L385 282Q385 271 381 266Q377 261 364 261L52 261Q31 261 31 282L31 358Q31 378 52 378L364 378Z"  horiz-adv-x="411" vert-adv-y="1000"  />

      
      <glyph glyph-name="uni2020" unicode="&#x2020;" d="M48 386Q38 386 32 390.50Q26 395 26 408L26 488Q26 502 33.50 505Q41 508 48 508L189 508L189 670Q189 680 193.50 686.50Q198 693 211 693L314 693Q328 693 331.50 685.50Q335 678 335 670L335 508L478 508Q485 508 492.50 505Q500 502 500 488L500 408Q500 395 494 390.50Q488 386 478 386L335 386L335-24Q335-31 331.50-38.50Q328-46 314-46L211-46Q198-46 193.50-40.50Q189-35 189-24L189 386L48 386Z"  horiz-adv-x="524" vert-adv-y="1000"  />

      
      <glyph glyph-name="uni0393" unicode="&#x0393;" d="M227 22Q227 14 223.50 7Q220 0 206 0L90 0Q77 0 72.50 6Q68 12 68 22L67 643Q67 652 71.50 658.50Q76 665 89 665L479 665Q501 665 501 643L501 552Q501 543 496.50 537Q492 531 478 531L227 531L227 22Z"  horiz-adv-x="517" vert-adv-y="1000"  />

      
      <glyph glyph-name="uni0394" unicode="&#x0394;" d="M607 23Q609 17 609 14Q609 0 595 0L24 0Q8 0 8 14Q8 17 10 25L205 635Q210 649 217 656.50Q224 664 246 664L364 664Q386 664 392.50 656.50Q399 649 404 634L607 23M409 131Q401 161 388.50 205Q376 249 361.50 299.50Q347 350 333 402.50Q319 455 307 500L302 500Q294 467 286.50 438Q279 409 268 372Q266 366 260.50 346.50Q255 327 247.50 301.50Q240 276 231.50 248Q223 220 215.50 195.50Q208 171 202.50 153Q197 135 196 131L409 131Z"  horiz-adv-x="618" vert-adv-y="1000"  />

      
      <glyph glyph-name="uni2206" unicode="&#x2206;" d="M607 23Q609 17 609 14Q609 0 595 0L24 0Q8 0 8 14Q8 17 10 25L205 635Q210 649 217 656.50Q224 664 246 664L364 664Q386 664 392.50 656.50Q399 649 404 634L607 23M409 131Q401 161 388.50 205Q376 249 361.50 299.50Q347 350 333 402.50Q319 455 307 500L302 500Q294 467 286.50 438Q279 409 268 372Q266 366 260.50 346.50Q255 327 247.50 301.50Q240 276 231.50 248Q223 220 215.50 195.50Q208 171 202.50 153Q197 135 196 131L409 131Z"  horiz-adv-x="618" vert-adv-y="1000"  />

      
      <glyph glyph-name="uni0398" unicode="&#x0398;" d="M635 341Q635 284 626 222.50Q617 161 587 109.50Q557 58 499 24.50Q441-9 343-9Q245-9 188 24.50Q131 58 102 109.50Q73 161 65 222.50Q57 284 57 341Q57 370 60.50 406.50Q64 443 74.50 479.50Q85 516 104 551Q123 586 155 613Q187 640 233 656.50Q279 673 343 673Q437 673 494.50 643.50Q552 614 583 566.50Q614 519 624.50 459.50Q635 400 635 341M471 330Q471 384 465 422.50Q459 461 444 486.50Q429 512 404.50 524Q380 536 344 536Q277 536 251 485.50Q225 435 225 330Q225 229 250.50 178.50Q276 128 344 128Q413 128 442 177.50Q471 227 471 330M283 273Q275 273 268 276.50Q261 280 261 294L261 378Q261 390 267 394Q273 398 283 398L411 398Q421 398 426.50 394Q432 390 432 378L432 294Q432 280 425 276.50Q418 273 411 273L283 273Z"  horiz-adv-x="692" vert-adv-y="1000"  />

      
      <glyph glyph-name="uni039B" unicode="&#x039B;" d="M607 23Q609 17 609 14Q609 0 595 0L472 0Q456 0 450 7Q444 14 439 30Q416 111 391 196.50Q366 282 342 369L307 500L302 500Q294 467 287 437.50Q280 408 269 372Q266 362 258 334.50Q250 307 240 271Q230 235 218 195Q206 155 196 120Q186 85 178.50 59.50Q171 34 169 27Q164 11 156 5.50Q148 0 134 0L24 0Q8 0 8 14Q8 17 10 25L205 635Q210 649 217 656.50Q224 664 246 664L364 664Q386 664 392.50 656.50Q399 649 404 634L607 23Z"  horiz-adv-x="618" vert-adv-y="1000"  />

      
      <glyph glyph-name="uni039E" unicode="&#x039E;" d="M507 665Q529 665 529 643L529 552Q529 543 524.50 537Q520 531 507 531L367 531L367 410L473 410Q495 410 495 389L495 298Q495 289 490.50 283Q486 277 473 277L367 277L367 133L517 133Q539 133 539 111L539 20Q539 11 534.50 5.50Q530 0 516 0L61 0Q48 0 43.50 5.50Q39 11 39 20L39 111Q39 133 61 133L211 133L211 277L105 277Q92 277 87.50 283Q83 289 83 298L83 389Q83 410 105 410L211 410L211 531L71 531Q58 531 53.50 537Q49 543 49 552L49 643Q49 665 71 665L507 665L507 665Z"  horiz-adv-x="579" vert-adv-y="1000"  />

      
      <glyph glyph-name="uni03A0" unicode="&#x03A0;" d="M560 665Q573 665 576.50 657.50Q580 650 580 642L580 22Q580 14 576.50 7Q573 0 560 0L444 0Q431 0 426.50 6Q422 12 422 22L422 531L226 531L226 22Q226 14 222.50 7Q219 0 205 0L89 0Q77 0 72.50 6Q68 12 68 22L68 642Q68 652 72.50 658.50Q77 665 89 665L560 665Z"  horiz-adv-x="648" vert-adv-y="1000"  />

      
      <glyph glyph-name="unidf" unicode="&#xdf;" d="M200 5Q200-3 196-10Q192-17 178-17L68-17Q56-17 51.50-11Q47-5 47 5L47 505Q47 562 67 602Q87 642 118 667Q149 692 185.50 703Q222 714 255 714Q350 714 407.50 668.50Q465 623 465 532Q465 521 462.50 505Q460 489 454 472Q448 455 437.50 438Q427 421 411 409Q442 397 461.50 377Q481 357 491.50 332Q502 307 505.50 277.50Q509 248 509 218Q509-13 312-12Q303-12 292-11.50Q281-11 271-9Q263-7 254-2Q245 3 246 20L251 92Q252 103 255.50 105Q259 107 272 110Q318 116 336 141.50Q354 167 353 226Q353 279 335 305Q317 331 266 334Q255 335 251.50 340.50Q248 346 248 351L248 405Q248 418 254.50 422Q261 426 266 428Q298 440 310.50 463.50Q323 487 323 518Q323 547 308 567Q293 587 261 587Q235 587 217.50 568Q200 549 200 508L200 5Z"  horiz-adv-x="552" vert-adv-y="1000"  />

      
      <glyph glyph-name="uniae" unicode="&#xae;" d="M375 390Q380 379 369 379L320 379Q309 379 303 389Q301 394 296 406Q291 418 285 431Q279 444 274 456Q269 468 266 473L246 473L246 390Q246 387 245 383Q244 379 237 379L191 379Q184 379 182.50 382Q181 385 181 390L181 623Q181 634 192 634L285 634Q300 634 315.50 629.50Q331 625 343 615.50Q355 606 362.50 591Q370 576 370 555Q370 535 361.50 516Q353 497 330 486L375 390M303 554Q303 568 294.50 573.50Q286 579 275 579L246 579L246 527L275 527Q284 527 293.50 532Q303 537 303 554M273 277Q225 277 183.50 294.50Q142 312 110.50 343Q79 374 61 415Q43 456 43 504Q43 552 61 593Q79 634 110.50 665Q142 696 183.50 713.50Q225 731 273 731Q321 731 363 713.50Q405 696 436 665Q467 634 484.50 593Q502 552 502 504Q502 456 484 415Q466 374 435 343Q404 312 362.50 294.50Q321 277 273 277M273 676Q237 676 205.50 662.50Q174 649 150 625.50Q126 602 112.50 571Q99 540 99 504Q99 468 112.50 437Q126 406 150 382.50Q174 359 205.50 345.50Q237 332 273 332Q309 332 340 345.50Q371 359 394.50 382.50Q418 406 431.50 437Q445 468 445 504Q445 540 431.50 571Q418 602 394.50 625.50Q371 649 340 662.50Q309 676 273 676Z"  horiz-adv-x="537" vert-adv-y="1000"  />

      
      <glyph glyph-name="unia9" unicode="&#xa9;" d="M412-14Q338-14 273.50 13.50Q209 41 161 88Q113 135 85.50 199Q58 263 58 336Q58 409 85.50 473Q113 537 161 584Q209 631 273.50 658.50Q338 686 412 686Q487 686 552 658.50Q617 631 665 584Q713 537 740 473Q767 409 767 336Q767 263 739 199Q711 135 663 88Q615 41 550 13.50Q485-14 412-14M412 605Q356 605 307 584Q258 563 221 526.50Q184 490 163 441Q142 392 142 336Q142 280 163 231Q184 182 221 145Q258 108 307 87Q356 66 412 66Q468 66 517.50 87Q567 108 603.50 145Q640 182 661.50 231Q683 280 683 336Q683 392 661.50 441Q640 490 603.50 526.50Q567 563 517.50 584Q468 605 412 605M242 329Q242 366 249 402Q256 438 274.50 467Q293 496 326.50 514Q360 532 414 532Q441 532 471 528Q501 524 524 514Q533 510 538 505Q543 500 541 489L534 454Q530 440 513 443Q493 446 467.50 447.50Q442 449 422 449Q397 449 381.50 439.50Q366 430 357 414Q348 398 344.50 376.50Q341 355 341 331Q341 303 344.50 281Q348 259 357 243.50Q366 228 381.50 220Q397 212 422 212Q446 212 466 213Q486 214 514 217Q530 220 535 206L542 175Q545 164 540.50 158Q536 152 527 148Q504 138 473 133.50Q442 129 414 129Q361 129 327.50 146.50Q294 164 275 192Q256 220 249 256Q242 292 242 329Z"  horiz-adv-x="826" vert-adv-y="1000"  />

      
      <glyph glyph-name="uni03A3" unicode="&#x03A3;" d="M504 21Q504 11 500 5.50Q496 0 482 0L63 0Q42 0 42 21L42 88Q42 105 47 117Q52 129 64 149L180 341L54 522Q42 539 39.50 550.50Q37 562 37 575L37 638Q37 648 43 655.50Q49 663 60 663L466 663Q480 663 484 657Q488 651 488 641L488 550Q488 541 484 535Q480 529 466 529L215 529L324 378Q332 367 338 357Q344 347 344 339Q344 333 341.50 327.50Q339 322 334 314L218 132L482 132Q496 132 500 126.50Q504 121 504 112L504 21L504 21Z"  horiz-adv-x="529" vert-adv-y="1000"  />

      
      <glyph glyph-name="unia7" unicode="&#xa7;" d="M237 675Q285 675 330 666Q375 657 399 643Q410 637 414.50 630Q419 623 415 611L398 559Q395 548 390.50 543.50Q386 539 380.50 538.50Q375 538 368 539.50Q361 541 352 543Q329 547 300.50 550.50Q272 554 252 554Q220 554 196 542.50Q172 531 172 510Q172 496 182.50 484.50Q193 473 207.50 464Q222 455 238 448Q254 441 265 435Q292 422 320 408.50Q348 395 371.50 376.50Q395 358 410 332.50Q425 307 425 270Q425 235 411 200Q397 165 364 131Q391 106 407.50 76Q424 46 424 6Q424-43 404-75.50Q384-108 353-127.50Q322-147 284.50-155.50Q247-164 213-164Q166-164 122.50-155Q79-146 56-132Q45-126 40.50-119Q36-112 40-100L57-48Q60-37 64.50-32.50Q69-28 74.50-27.50Q80-27 87-29Q94-31 103-32Q134-37 159-40Q184-43 206-43Q245-43 266-30.50Q287-18 287 4Q287 22 267 38.50Q247 55 220.50 69Q194 83 167 94Q140 105 126 113Q109 123 92.50 135Q76 147 63 162.50Q50 178 42.50 198Q35 218 35 244Q35 278 49.50 314Q64 350 95 383Q66 406 50.50 436.50Q35 467 35 508Q35 552 52.50 583.50Q70 615 98.50 635.50Q127 656 163.50 665.50Q200 675 237 675M290 250Q290 266 279 277Q268 288 252 297Q239 305 224.50 311Q210 317 194 325Q181 308 175 292Q169 276 169 264Q169 250 177.50 240Q186 230 200 221Q214 212 231 204.50Q248 197 266 190Q281 208 285.50 222.50Q290 237 290 250Z"  horiz-adv-x="456" vert-adv-y="1000"  />

      
      <glyph glyph-name="unib0" unicode="&#xb0;" d="M200 364Q162 364 131.50 376Q101 388 80 409Q59 430 47.50 458.50Q36 487 36 519Q36 550 49 578Q62 606 84.50 627.50Q107 649 136.50 661.50Q166 674 200 674Q234 674 263.50 661.50Q293 649 314.50 627.50Q336 606 348.50 578Q361 550 361 519Q361 487 348.50 458.50Q336 430 314 409Q292 388 263 376Q234 364 200 364M198 581Q172 581 152.50 562Q133 543 133 517Q133 491 151.50 472Q170 453 198 453Q224 453 243 472Q262 491 262 517Q262 543 243 562Q224 581 198 581Z"  horiz-adv-x="393" vert-adv-y="1000"  />

      
      <glyph glyph-name="unib7" unicode="&#xb7;" d="M197 269Q197 255 194 241Q191 227 182.50 216.50Q174 206 158 199.50Q142 193 117 193Q90 193 74.50 199.50Q59 206 50.50 217Q42 228 39.50 241.50Q37 255 37 269Q37 300 53 322Q69 344 117 344Q142 344 157.50 338.50Q173 333 182 323Q191 313 194 299Q197 285 197 269Z"  horiz-adv-x="234" vert-adv-y="1000"  />

      
      <glyph glyph-name="unia5" unicode="&#xa5;" d="M84 257Q73 257 68.50 260.50Q64 264 64 275L64 319Q64 336 84 336L176 336L29 638Q27 642 27 648Q27 663 43 663L157 663Q174 663 180.50 658.50Q187 654 195 639L299 389L305 389Q331 450 355 511Q379 572 405 632Q413 647 419.50 655Q426 663 443 663L559 663Q567 663 571 658.50Q575 654 575 648Q575 642 572 638Q534 563 496 487.50Q458 412 420 336L511 336Q524 336 527.50 332.50Q531 329 531 319L531 275Q531 264 527.50 260.50Q524 257 511 257L84 257M511 220Q524 220 527.50 216Q531 212 531 202L531 159Q531 148 527.50 144Q524 140 511 140L375 140L375 22Q375 14 371.50 7Q368 0 355 0L241 0Q229 0 224.50 6Q220 12 220 22L220 140L84 140Q64 140 64 159L64 202Q64 220 84 220L511 220Z"  horiz-adv-x="599" vert-adv-y="1000"  />

      
      <glyph glyph-name="uni03A6" unicode="&#x03A6;" d="M340 642Q340 652 344.50 658.50Q349 665 362 665L477 665Q491 665 495 657.50Q499 650 499 642L499 626Q583 619 636.50 590.50Q690 562 720 522.50Q750 483 761.50 436.50Q773 390 773 347Q773 303 761.50 254.50Q750 206 719.50 164.50Q689 123 636 93Q583 63 499 55L499 22Q499 14 495 7Q491 0 477 0L362 0Q349 0 344.50 6Q340 12 340 22L340 54Q280 58 235.50 73Q191 88 159.50 111Q128 134 108 163Q88 192 76.50 223.50Q65 255 60.50 286.50Q56 318 56 347Q56 369 60.50 397.50Q65 426 77 455.50Q89 485 109.50 513.50Q130 542 161.50 565.50Q193 589 237 605.50Q281 622 340 626L340 642M221 340Q221 271 249 233Q277 195 340 186L340 496Q278 488 249.50 447Q221 406 221 340M613 339Q613 402 587 444Q561 486 499 494L499 188Q557 196 585 234.50Q613 273 613 339Z"  horiz-adv-x="830" vert-adv-y="1000"  />

      
      <glyph glyph-name="uni03A8" unicode="&#x03A8;" d="M319 642Q319 652 324 658.50Q329 665 342 665L458 665Q472 665 475 657.50Q478 650 478 642L478 284Q523 289 554 322.50Q585 356 585 414L585 642Q585 652 589.50 658.50Q594 665 607 665L718 665Q732 665 735 657.50Q738 650 738 642Q738 619 738 608.50Q738 598 738.50 579.50Q739 561 739 524.50Q739 488 739 413Q739 357 722 310.50Q705 264 671.50 229.50Q638 195 589.50 174.50Q541 154 478 151L478 22Q478 14 474.50 7Q471 0 457 0L342 0Q319 0 319 22L319 151Q247 154 197.50 175.50Q148 197 117 232Q86 267 72 313.50Q58 360 58 413L58 642Q58 652 62.50 658.50Q67 665 79 665L192 665Q206 665 209.50 657.50Q213 650 213 642L213 414Q213 355 243.50 321.50Q274 288 319 284L319 642Z"  horiz-adv-x="799" vert-adv-y="1000"  />

      
      <glyph glyph-name="uni03A9" unicode="&#x03A9;" d="M571 132Q571 131 571.50 130.50Q572 130 572 129L626 129Q640 129 644 123.50Q648 118 648 109L648 21Q648 11 644 5.50Q640 0 626 0L405 0Q390 0 386.50 7Q383 14 383 21L383 127Q383 139 389.50 144.50Q396 150 402 155Q442 178 458.50 221.50Q475 265 475 330Q475 377 469 415Q463 453 448.50 479.50Q434 506 409.50 520.50Q385 535 348 535Q313 535 289.50 520Q266 505 252 478Q238 451 231.50 413.50Q225 376 225 330Q225 258 239 217Q253 176 285 157Q291 152 297.50 146.50Q304 141 304 127L304 21Q304 15 301 7.50Q298 0 283 0L63 0Q49 0 45.50 5.50Q42 11 42 21L42 109Q42 118 46 123.50Q50 129 64 129L121 129L123 131Q103 146 90.50 172Q78 198 71 228Q64 258 61 288Q58 318 58 341Q58 372 62.50 409Q67 446 78.50 483Q90 520 110.50 554Q131 588 163 614Q195 640 240 656Q285 672 346 672Q436 672 493 642.50Q550 613 582 565.50Q614 518 626 459Q638 400 638 341Q638 320 634.50 292Q631 264 623 235Q615 206 602.50 178.50Q590 151 571 132Z"  horiz-adv-x="694" vert-adv-y="1000"  />

      
      <glyph glyph-name="uniab" unicode="&#xab;" d="M150 354Q155 359 162.50 365Q170 371 180 371L299 371Q308 371 310.50 366.50Q313 362 308 357L180 200L302 46Q305 42 304.50 35Q304 28 296 28L178 28Q167 28 160.50 34.50Q154 41 149 47L42 182Q32 195 33 203.50Q34 212 42 221L150 354M361 354Q366 359 373.50 365Q381 371 391 371L510 371Q519 371 521.50 366.50Q524 362 519 357L391 200L513 46Q516 42 515.50 35Q515 28 507 28L389 28Q378 28 371.50 34.50Q365 41 360 47L253 182Q243 195 244.50 203.50Q246 212 253 221L361 354Z"  horiz-adv-x="555" vert-adv-y="1000"  />

      
      <glyph glyph-name="unibb" unicode="&#xbb;" d="M512 220Q520 209 520.50 201Q521 193 512 182L404 47Q399 41 392.50 34.50Q386 28 376 28L256 28Q248 28 247.50 34.50Q247 41 250 45L374 200L248 356Q243 361 245.50 366Q248 371 257 371L374 371Q385 371 392.50 365Q400 359 405 353L512 220M301 220Q309 210 309.50 201.50Q310 193 301 182L193 47Q188 41 181.50 34.50Q175 28 165 28L45 28Q37 28 37 34.50Q37 41 40 45L164 200L37 356Q33 361 35 366Q37 371 47 371L163 371Q174 371 181.50 365Q189 359 194 353L301 220Z"  horiz-adv-x="555" vert-adv-y="1000"  />

      
      <glyph glyph-name="uni2026" unicode="&#x2026;" d="M195 66Q195 52 192 38Q189 24 180 13.50Q171 3 155.50-3.50Q140-10 115-10Q88-10 72-3.50Q56 3 47.50 14Q39 25 36.50 38.50Q34 52 34 66Q34 82 37.50 95.50Q41 109 50 119Q59 129 75 135Q91 141 115 141Q140 141 155.50 135.50Q171 130 180 120Q189 110 192 96Q195 82 195 66M454 66Q454 52 451 38Q448 24 439 13.50Q430 3 414.50-3.50Q399-10 374-10Q347-10 331.50-3.50Q316 3 307.50 14Q299 25 296.50 38.50Q294 52 294 66Q294 98 310 119.50Q326 141 374 141Q399 141 414.50 135.50Q430 130 439 120Q448 110 451 96Q454 82 454 66M716 66Q716 52 713 38Q710 24 701 13.50Q692 3 676-3.50Q660-10 635-10Q609-10 593-3.50Q577 3 568.50 14Q560 25 557.50 38.50Q555 52 555 66Q555 98 571 119.50Q587 141 635 141Q684 141 700 120Q716 99 716 66Z"  horiz-adv-x="750" vert-adv-y="1000"  />

      
      <glyph glyph-name="uni0153" unicode="&#x0153;" d="M512 208Q513 179 520.50 161Q528 143 541 133Q554 123 573 119.50Q592 116 618 116Q641 116 674 118.50Q707 121 739 126Q758 128 764 124.50Q770 121 773 104L781 57Q785 39 781.50 30Q778 21 755 12Q740 6 719.50 1.50Q699-3 676.50-6Q654-9 632-10.50Q610-12 592-12Q533-12 493 3.50Q453 19 428 47Q405 22 366 7Q327-8 271-8Q190-8 144.50 17.50Q99 43 76 82Q53 121 47.50 167Q42 213 42 254Q42 288 49 331Q56 374 79.50 412.50Q103 451 148.50 477Q194 503 271 503Q328 503 367.50 487.50Q407 472 433 446Q457 470 494 485Q531 500 584 500Q656 500 700 479.50Q744 459 769 426.50Q794 394 803 353Q812 312 812 272Q812 241 800.50 224.50Q789 208 757 208L512 208M352 248Q352 311 337.50 342Q323 373 273 373Q227 373 211.50 341Q196 309 196 248Q196 182 211 152Q226 122 271 122Q321 122 336.50 153Q352 184 352 248M585 381Q549 381 533 360.50Q517 340 515 302L652 302Q652 317 648.50 331Q645 345 637.50 356Q630 367 617 374Q604 381 585 381Z"  horiz-adv-x="848" vert-adv-y="1000"  />

      
      <glyph glyph-name="uni2013" unicode="&#x2013;" d="M459 305Q473 305 476.50 300Q480 295 480 285L480 223Q480 212 476.50 207Q473 202 460 202L40 202Q19 202 19 223L19 284Q19 305 40 305L459 305Z"  horiz-adv-x="500" vert-adv-y="1000"  />

      
      <glyph glyph-name="uni2015" unicode="&#x2015;" d="M950 305Q964 305 967.50 300Q971 295 971 285L971 223Q971 212 967.50 207Q964 202 951 202L49 202Q28 202 28 223L28 284Q28 305 49 305L950 305Z"  horiz-adv-x="1000" vert-adv-y="1000"  />

      
      <glyph glyph-name="uni201C" unicode="&#x201C;" d="M51 520Q51 553 60.50 583Q70 613 85.50 638Q101 663 120.50 682.50Q140 702 160 714Q182 726 197 709L223 683Q234 671 233.50 665Q233 659 219 645Q201 627 193.50 607.50Q186 588 186 571Q186 539 208 512Q222 498 223 488Q224 478 206 465L141 415Q126 404 115.50 408Q105 412 93 423Q73 443 62 470Q51 497 51 520M243 520Q243 553 252.50 583Q262 613 277.50 638Q293 663 312.50 682.50Q332 702 352 714Q374 726 389 709L415 683Q426 671 425.50 665Q425 659 411 645Q393 627 385 607.50Q377 588 377 571Q377 555 383 540Q389 525 400 512Q414 498 415 488Q416 478 398 465L333 415Q318 404 307.50 408Q297 412 285 423Q265 443 254 470Q243 497 243 520Z"  horiz-adv-x="472" vert-adv-y="1000"  />

      
      <glyph glyph-name="uni201D" unicode="&#x201D;" d="M428 606Q428 573 418.50 543Q409 513 393.50 488Q378 463 358.50 443.50Q339 424 319 412Q298 401 282 417L256 443Q245 455 245.50 461Q246 467 260 481Q278 499 286 518.50Q294 538 294 555Q294 571 288 586Q282 601 271 614Q257 628 256 638Q255 648 273 661L338 711Q354 722 364 718Q374 714 386 703Q406 683 417 656Q428 629 428 606M236 606Q236 573 226.50 543Q217 513 201.50 488Q186 463 166.50 443.50Q147 424 127 412Q106 401 90 417L64 443Q53 455 54 461Q55 467 68 481Q86 499 94 518.50Q102 538 102 555Q102 571 96 586Q90 601 79 614Q65 628 64.50 638Q64 648 81 661L147 711Q162 722 172 718Q182 714 194 703Q214 683 225 656Q236 629 236 606Z"  horiz-adv-x="472" vert-adv-y="1000"  />

      
      <glyph glyph-name="uni2018" unicode="&#x2018;" d="M55 519Q55 552 64.50 582Q74 612 89.50 637Q105 662 124.50 681.50Q144 701 164 713Q175 720 184 718Q193 716 201 708L227 682Q238 670 237 664Q236 658 223 644Q205 626 197 606.50Q189 587 189 570Q189 537 212 511Q226 497 226.50 487.50Q227 478 210 464L144 414Q129 403 119 407Q109 411 97 422Q77 442 66 469Q55 496 55 519Z"  horiz-adv-x="284" vert-adv-y="1000"  />

      
      <glyph glyph-name="uni2019" unicode="&#x2019;" d="M236 606Q236 573 226.50 542.50Q217 512 201.50 487Q186 462 166.50 442.50Q147 423 127 411Q106 400 90 416L64 443Q53 454 54 460Q55 466 68 480Q86 498 94 517.50Q102 537 102 554Q102 570 96 585Q90 600 79 613Q65 627 64.50 637Q64 647 81 660L147 710Q162 721 172 717Q182 713 194 702Q214 683 225 656Q236 629 236 606Z"  horiz-adv-x="284" vert-adv-y="1000"  />

      
      <glyph glyph-name="unif7" unicode="&#xf7;" d="M93 269Q72 269 72 290L72 360Q72 380 93 380L505 380Q518 380 522 375.50Q526 371 526 360L526 290Q526 279 522 274Q518 269 505 269L93 269M297 423Q270 423 254.50 429.50Q239 436 231 446.50Q223 457 220.50 470.50Q218 484 218 499Q218 515 221 528Q224 541 233 550.50Q242 560 257.50 565.50Q273 571 297 571Q321 571 336.50 566Q352 561 360.50 551.50Q369 542 372 528.50Q375 515 375 499Q375 484 372.50 470Q370 456 361.50 445.50Q353 435 337.50 429Q322 423 297 423M297 71Q270 71 254.50 77Q239 83 231 93.50Q223 104 220.50 117.50Q218 131 218 146Q218 162 221 175Q224 188 233 198Q242 208 257.50 213.50Q273 219 297 219Q321 219 336.50 214Q352 209 360.50 199.50Q369 190 372 176.50Q375 163 375 146Q375 131 372.50 117.50Q370 104 361.50 93.50Q353 83 337.50 77Q322 71 297 71Z"  horiz-adv-x="597" vert-adv-y="1000"  />

      
      <glyph glyph-name="uni03B1" unicode="&#x03B1;" d="M195 240Q195 204 198.50 181.50Q202 159 209.50 146.50Q217 134 228.50 129Q240 124 256 124Q277 124 305 134Q333 144 352 154L352 346Q327 357 307.50 360.50Q288 364 277 364Q235 364 215 334.50Q195 305 195 240M504 150Q504 136 505 128Q506 120 508.50 116Q511 112 516.50 110.50Q522 109 531 108Q544 107 547.50 103.50Q551 100 551 91L551 27Q551 7 523 1Q495-6 461-6Q423-6 398 6.50Q373 19 363 59L361 60Q319 22 278.50 7Q238-8 202-8Q152-8 120.50 11Q89 30 71 64Q53 98 46.50 143.50Q40 189 40 242Q40 295 50.50 342Q61 389 84.50 424.50Q108 460 144.50 481Q181 502 234 502Q258 502 290.50 494Q323 486 355 463L357 464L357 475Q357 485 360.50 489.50Q364 494 378 494L483 494Q497 494 500.50 486.50Q504 479 504 472L504 150Z"  horiz-adv-x="579" vert-adv-y="1000"  />

      
      <glyph glyph-name="uni03B2" unicode="&#x03B2;" d="M510 241Q510 180 500.50 133.50Q491 87 468 55Q445 23 407 6.50Q369-10 313-10Q285-10 256-6Q227-2 198 4L198-134Q198-142 194.50-149Q191-156 177-156L67-156Q54-156 49.50-150Q45-144 45-134L45 483Q45 539 61.50 581.50Q78 624 107 653Q136 682 175.50 697Q215 712 261 712Q309 712 348 699.50Q387 687 415 663.50Q443 640 458 606.50Q473 573 473 530Q473 518 470 502Q467 486 459.50 469.50Q452 453 440.50 438Q429 423 412 412Q445 399 464.50 379Q484 359 494 336Q504 313 507 288.50Q510 264 510 241M353 240Q353 295 337 316.50Q321 338 284 340Q275 340 269.50 340Q264 340 251 339Q245 339 240 341.50Q235 344 235 352L235 419Q235 427 237 432Q239 437 248 440Q263 444 276.50 450Q290 456 300.50 466Q311 476 317 490Q323 504 323 525Q323 549 307.50 568Q292 587 262 587Q241 587 228.50 577Q216 567 209 551.50Q202 536 200 517Q198 498 198 479L198 131Q223 123 242.50 121.50Q262 120 276 120Q297 120 311.50 125.50Q326 131 335 144.50Q344 158 348.50 181Q353 204 353 240Z"  horiz-adv-x="551" vert-adv-y="1000"  />

      
      <glyph glyph-name="uni03C8" unicode="&#x03C8;" d="M432-153Q432-161 428.50-168Q425-175 412-175L302-175Q289-175 284.50-169Q280-163 280-153L280-7Q226-7 182.50 8Q139 23 108.50 50Q78 77 62 115Q46 153 46 198L46 471Q46 479 49.50 486Q53 493 67 493L177 493Q189 493 193.50 487Q198 481 198 471L198 201Q198 169 219.50 143.50Q241 118 280 119L280 524Q280 534 284.50 540Q289 546 302 546L412 546Q425 546 428.50 539Q432 532 432 524L432 119Q479 121 498 145Q517 169 517 201L517 471Q517 479 520.50 486Q524 493 538 493L648 493Q660 493 664.50 487Q669 481 669 471L669 198Q669 156 653.50 119Q638 82 607.50 54.50Q577 27 533 10.50Q489-6 432-8L432-153L432-153Z"  horiz-adv-x="717" vert-adv-y="1000"  />

      
      <glyph glyph-name="uni03B4" unicode="&#x03B4;" d="M283 715Q317 716 360 710.50Q403 705 435 693Q456 686 465 678.50Q474 671 470 652L460 605Q456 588 448.50 584.50Q441 581 418 585Q382 590 347.50 592.50Q313 595 289 595Q257 596 244.50 587.50Q232 579 232 561Q232 547 246 537Q260 527 282.50 517Q305 507 332.50 496.50Q360 486 387 470Q415 453 438 433.50Q461 414 476.50 388Q492 362 500.50 327.50Q509 293 509 247Q509 207 501.50 162Q494 117 469.50 79.50Q445 42 398.50 17Q352-8 273-8Q193-8 147 17Q101 42 78 79.50Q55 117 48.50 162Q42 207 42 247Q42 269 47 297Q52 325 64 352.50Q76 380 96 404.50Q116 429 146 444Q109 466 94 493Q79 520 79 555Q79 595 94.50 625Q110 655 137 675Q164 695 201.50 705Q239 715 283 715M272 121Q321 121 337.50 153.50Q354 186 354 240Q354 263 351 284Q348 305 338.50 322.50Q329 340 312.50 352.50Q296 365 270 370Q236 356 217.50 323Q199 290 199 240Q199 178 213.50 149.50Q228 121 272 121Z"  horiz-adv-x="552" vert-adv-y="1000"  />

      
      <glyph glyph-name="uni03B5" unicode="&#x03B5;" d="M109 259Q77 275 63.50 299.50Q50 324 50 348Q50 395 71 425.50Q92 456 123.50 473.50Q155 491 192.50 498Q230 505 263 505Q281 505 303 503.50Q325 502 347 499Q369 496 389.50 491Q410 486 426 479Q439 473 445 465.50Q451 458 447 442L437 390Q434 374 428 371.50Q422 369 400 371Q385 373 367 374.50Q349 376 331.50 377.50Q314 379 298 379.50Q282 380 271 380Q245 380 227.50 372.50Q210 365 210 342Q210 331 216.50 324Q223 317 233 313Q243 309 255.50 307.50Q268 306 280 306L330 306Q344 306 348 302.50Q352 299 352 288L352 222Q352 211 347.50 207Q343 203 330 203L271 203Q259 203 246.50 202Q234 201 224.50 196.50Q215 192 208.50 184Q202 176 202 163Q202 138 217.50 127Q233 116 271 116Q306 116 342 118.50Q378 121 415 126Q431 128 436.50 125Q442 122 445 108L455 60Q459 42 455.50 33Q452 24 429 15Q413 9 392 4.50Q371 0 349.50-3Q328-6 307.50-7.50Q287-9 271-9Q235-9 194.50-3.50Q154 2 120 19Q86 36 64 67.50Q42 99 42 150Q42 179 57.50 209Q73 239 109 257L109 259Z"  horiz-adv-x="481" vert-adv-y="1000"  />

      
      <glyph glyph-name="uni03C6" unicode="&#x03C6;" d="M439 505Q517 505 568 482.50Q619 460 648.50 423.50Q678 387 690 341Q702 295 702 249Q702 196 687.50 150.50Q673 105 642.50 70.50Q612 36 563.50 15Q515-6 447-10L447-154Q447-162 443.50-169Q440-176 426-176L317-176Q304-176 299.50-170Q295-164 295-154L295-11Q210-9 160 15.50Q110 40 83.50 77.50Q57 115 49.50 160.50Q42 206 42 251Q42 288 48.50 322Q55 356 71.50 386Q88 416 116 440Q144 464 186 481Q194 485 203.50 484.50Q213 484 220 472L262 397Q267 389 264 384.50Q261 380 254 375Q221 352 207.50 318.50Q194 285 194 243Q194 221 198.50 199Q203 177 214.50 159Q226 141 245.50 130Q265 119 295 118L295 447Q295 477 313 491Q331 505 360 505L439 505M448 120Q501 120 525 155.50Q549 191 549 242Q549 266 544.50 289Q540 312 529 330.50Q518 349 498 360Q478 371 448 371L448 120Z"  horiz-adv-x="744" vert-adv-y="1000"  />

      
      <glyph glyph-name="uni03B3" unicode="&#x03B3;" d="M375 473Q378 483 384 488Q390 493 409 493L511 493Q527 493 530 488.50Q533 484 530 473Q530 473 529 470.50Q528 468 523 454.50Q518 441 507 412.50Q496 384 476 332Q456 280 425 200Q394 120 349 3L349-173Q349-181 345.50-188Q342-195 328-195L218-195Q205-195 200.50-189Q196-183 196-173L196-3L67 353Q63 364 58.50 371.50Q54 379 40 379L33 379Q25 379 22 380Q19 381 17 389L3 468Q1 476 3 480.50Q5 485 14 489Q29 495 51.50 500Q74 505 92 505Q117 505 134 498.50Q151 492 162 480.50Q173 469 180 452Q187 435 194 414L272 170L277 170L326 327L375 473Z"  horiz-adv-x="539" vert-adv-y="1000"  />

      
      <glyph glyph-name="uni03B7" unicode="&#x03B7;" d="M510 21Q510 13 506.50 6.50Q503 0 489 0L379 0Q357 0 357 21L357 283Q357 325 343 342.50Q329 360 297 360Q286 360 273 356.50Q260 353 246.50 348.50Q233 344 220.50 339Q208 334 199 331L199 21Q199 13 195.50 6.50Q192 0 178 0L69 0Q56 0 51.50 5.50Q47 11 47 21L47 471Q47 481 51.50 487Q56 493 69 493L178 493Q192 493 195.50 486Q199 479 199 471L199 447Q200 447 200.50 446.50Q201 446 202 446Q235 471 279 486.50Q323 502 359 502Q412 502 442.50 484.50Q473 467 488 438.50Q503 410 506.50 375Q510 340 510 305L510 21L510 21Z"  horiz-adv-x="557" vert-adv-y="1000"  />

      
      <glyph glyph-name="uni03B9" unicode="&#x03B9;" d="M213 22Q213 14 209.50 7Q206 0 193 0L83 0Q70 0 65.50 6Q61 12 61 22L61 472Q61 483 65.50 488.50Q70 494 83 494L193 494Q206 494 209.50 486.50Q213 479 213 472L213 22Z"  horiz-adv-x="277" vert-adv-y="1000"  />

      
      <glyph glyph-name="uni03BE" unicode="&#x03BE;" d="M126 378Q103 387 87.50 401.50Q72 416 62 433Q52 450 48 468.50Q44 487 44 504Q44 555 61 593Q78 631 109 657Q140 683 182 696Q224 709 275 709Q293 709 315.50 707.50Q338 706 360.50 703Q383 700 404.50 694.50Q426 689 442 682Q454 677 460 669.50Q466 662 463 646L452 594Q449 578 443 576Q437 574 415 576Q400 577 382 578.50Q364 580 345.50 581.50Q327 583 310.50 583.50Q294 584 282 584Q240 584 221 560.50Q202 537 203 503Q204 466 233.50 451.50Q263 437 300 437L390 437Q404 437 408.50 432Q413 427 413 416L413 346Q413 335 408.50 329.50Q404 324 390 324L310 324Q253 324 223 295Q193 266 193 203Q193 170 207.50 151Q222 132 245.50 123Q269 114 298.50 112Q328 110 358 110L403 110Q423 110 430 106Q437 102 444 88L465 42Q470 33 470 23Q470 13 460-4Q452-18 443-37Q434-56 424.50-76.50Q415-97 406.50-118Q398-139 391-158Q383-180 376-186Q369-192 351-184L286-161Q274-156 269-150.50Q264-145 269-128Q275-108 285.50-77Q296-46 313-15Q255-13 204.50-2Q154 9 116.50 33.50Q79 58 57 99Q35 140 35 203Q35 223 39 247Q43 271 53.50 294.50Q64 318 81 338.50Q98 359 125 373L126 378Z"  horiz-adv-x="472" vert-adv-y="1000"  />

      
      <glyph glyph-name="uni03BB" unicode="&#x03BB;" d="M504 29Q506 12 493 6Q468-4 426-4Q373-4 345 21.50Q317 47 299 110L250 279L247 279L150 16Q145 0 131 0L18 0Q5 0 5 11Q5 14 7 20Q52 134 96 245.50Q140 357 185 470Q179 488 174 506.50Q169 525 163 543Q155 569 146 580Q137 591 112 591Q107 591 101 590.50Q95 590 90 590Q77 590 76 602L64 670Q62 679 63.50 685Q65 691 76 695Q100 703 123.50 706.50Q147 710 164 710Q219 710 250 690Q281 670 298 614L446 138Q451 124 455.50 116Q460 108 476 108L486 108Q494 108 496 105.50Q498 103 499 96L504 29Z"  horiz-adv-x="510" vert-adv-y="1000"  />

      
      <glyph glyph-name="unib5" unicode="&#xb5;" d="M506 21Q506 11 501.50 5.50Q497 0 484 0L374 0Q360 0 356.50 6.50Q353 13 353 21L353 45Q352 46 352 47Q327 28 293.50 14.50Q260 1 227 1Q212 1 199 4Q199-9 199-23.50Q199-38 198.50-57.50Q198-77 198-105Q198-133 198-173Q198-180 194.50-187.50Q191-195 177-195L67-195Q54-195 50-189Q46-183 46-173L46 471Q46 481 50.50 487Q55 493 67 493L178 493Q192 493 195.50 486Q199 479 199 471L199 202Q199 162 213.50 147Q228 132 259 132Q283 132 309.50 141Q336 150 353 161L353 471Q353 479 356.50 486Q360 493 374 493L484 493Q497 493 501.50 487Q506 481 506 471L506 21L506 21Z"  horiz-adv-x="555" vert-adv-y="1000"  />

      
      <glyph glyph-name="uni03BC" unicode="&#x03BC;" d="M506 21Q506 11 501.50 5.50Q497 0 484 0L374 0Q360 0 356.50 6.50Q353 13 353 21L353 45Q352 46 352 47Q327 28 293.50 14.50Q260 1 227 1Q212 1 199 4Q199-9 199-23.50Q199-38 198.50-57.50Q198-77 198-105Q198-133 198-173Q198-180 194.50-187.50Q191-195 177-195L67-195Q54-195 50-189Q46-183 46-173L46 471Q46 481 50.50 487Q55 493 67 493L178 493Q192 493 195.50 486Q199 479 199 471L199 202Q199 162 213.50 147Q228 132 259 132Q283 132 309.50 141Q336 150 353 161L353 471Q353 479 356.50 486Q360 493 374 493L484 493Q497 493 501.50 487Q506 481 506 471L506 21L506 21Z"  horiz-adv-x="555" vert-adv-y="1000"  />

      
      <glyph glyph-name="uni03BF" unicode="&#x03BF;" d="M508 254Q508 213 502 167Q496 121 472 82Q448 43 400.50 17.50Q353-8 271-8Q190-8 144.50 17.50Q99 43 76 82Q53 121 47.50 167Q42 213 42 254Q42 288 49 331Q56 374 79.50 412.50Q103 451 148.50 477Q194 503 271 503Q348 503 395 480.50Q442 458 467 422Q492 386 500 341.50Q508 297 508 254M352 248Q352 311 337.50 342Q323 373 273 373Q227 373 211.50 341Q196 309 196 248Q196 182 211 152Q226 122 271 122Q321 122 336.50 153Q352 184 352 248Z"  horiz-adv-x="549" vert-adv-y="1000"  />

      
      <glyph glyph-name="uni03C0" unicode="&#x03C0;" d="M512 22Q512 14 508 7Q504 0 490 0L381 0Q368 0 363.50 6Q359 12 359 22L360 371L201 371L201 22Q201 14 197 7Q193 0 179 0L70 0Q57 0 52.50 6Q48 12 48 22L48 472Q48 494 70 494L491 494Q504 494 508 489Q512 484 512 473L512 22Z"  horiz-adv-x="560" vert-adv-y="1000"  />

      
      <glyph glyph-name="uni03C1" unicode="&#x03C1;" d="M46 245Q46 371 104.50 437.50Q163 504 278 504Q347 504 392.50 484Q438 464 464 429.50Q490 395 500.50 348.50Q511 302 511 248Q511 188 502.50 140.50Q494 93 471 59Q448 25 408 7Q368-11 306-11Q286-11 256-6.50Q226-2 198 6L198-173Q198-181 194.50-188.50Q191-196 177-196L68-196Q54-196 50-189.50Q46-183 46-173L46 245M354 250Q354 319 333 344.50Q312 370 278 370Q254 370 238.50 361.50Q223 353 214 338Q205 323 201.50 304Q198 285 198 264L198 131Q222 124 240.50 122Q259 120 276 120Q296 120 311 125.50Q326 131 335.50 145.50Q345 160 349.50 185Q354 210 354 250Z"  horiz-adv-x="553" vert-adv-y="1000"  />

      
      <glyph glyph-name="uni03C3" unicode="&#x03C3;" d="M464 369Q487 343 494.50 308Q502 273 502 240Q502 205 496 162Q490 119 466 81Q442 43 395 17.50Q348-8 267-8Q186-8 140.50 17.50Q95 43 73 81Q51 119 46 164.50Q41 210 41 251Q41 285 48.50 327.50Q56 370 81 407Q106 444 152.50 469Q199 494 277 494L529 494Q543 494 546.50 489Q550 484 550 473L550 395Q550 384 546.50 378.50Q543 373 529 373L466 373L464 369M349 245Q349 311 333 340Q317 369 269 369Q227 369 210 340Q193 311 193 245Q193 175 209.50 147.50Q226 120 268 120Q313 120 331 147Q349 174 349 245Z"  horiz-adv-x="568" vert-adv-y="1000"  />

      
      <glyph glyph-name="uni03C4" unicode="&#x03C4;" d="M364 494Q378 494 381.50 488.50Q385 483 385 473L385 395Q385 384 381.50 378.50Q378 373 364 373L259 373L259 199Q259 169 263 154Q267 139 280 133Q293 127 318 127.50Q343 128 384 131Q398 132 403 130Q408 128 410 115L421 48Q423 34 417 27Q411 20 402 17Q384 9 363.50 4Q343-1 323-3.50Q303-6 285-7Q267-8 255-8Q175-8 142.50 30Q110 68 110 135L110 373L36 373Q14 373 14 395L14 472Q14 494 36 494L364 494Z"  horiz-adv-x="434" vert-adv-y="1000"  />

      
      <glyph glyph-name="uni03B8" unicode="&#x03B8;" d="M534 360Q534 320 531.50 276.50Q529 233 521 192.50Q513 152 497 115.50Q481 79 453 51.50Q425 24 383.50 8Q342-8 284-8Q198-8 149.50 24.50Q101 57 77 109.50Q53 162 47 228Q41 294 41 360Q41 394 43.50 433.50Q46 473 54.50 511.50Q63 550 79.50 586Q96 622 123 649Q150 676 189.50 692.50Q229 709 284 709Q366 709 415.50 680.50Q465 652 491 603.50Q517 555 525.50 492Q534 429 534 360M198 313Q198 213 216.50 166Q235 119 285 119Q311 119 329 129.50Q347 140 357.50 163Q368 186 372.50 223Q377 260 377 313L198 313M285 583Q243 583 222.50 541.50Q202 500 200 422L375 422Q372 506 353 544.50Q334 583 285 583Z"  horiz-adv-x="574" vert-adv-y="1000"  />

      
      <glyph glyph-name="uni03C9" unicode="&#x03C9;" d="M463 196Q463 166 477 142.50Q491 119 525 119Q555 119 572.50 145.50Q590 172 590 243Q590 273 587 295.50Q584 318 576 336Q568 354 553.50 368.50Q539 383 516 398Q499 408 498 414.50Q497 421 503 432L532 489Q539 503 549.50 505.50Q560 508 579 502Q630 484 662.50 455Q695 426 713.50 391Q732 356 738.50 318Q745 280 745 244Q745 196 736.50 151Q728 106 704.50 70.50Q681 35 640.50 13.50Q600-8 537-8Q493-8 454 9.50Q415 27 395 60L390 60Q370 27 331.50 9.50Q293-8 249-8Q186-8 146 13Q106 34 82.50 69Q59 104 50.50 149.50Q42 195 42 244Q42 280 48.50 318Q55 356 73 390.50Q91 425 123 454.50Q155 484 207 502Q226 508 236 506.50Q246 505 253 491L284 432Q290 421 288.50 414.50Q287 408 270 398Q247 383 232.50 368Q218 353 210 335Q202 317 199 294.50Q196 272 196 243Q196 119 261 119Q298 119 311 142.50Q324 166 324 196L324 316Q324 326 328.50 331.50Q333 337 346 337L442 337Q456 337 459.50 330Q463 323 463 316L463 196Z"  horiz-adv-x="786" vert-adv-y="1000"  />

      
      <glyph glyph-name="uni03C2" unicode="&#x03C2;" d="M451 156Q451 109 432.50 77.50Q414 46 383 27Q352 8 312.50-0.50Q273-9 230-9Q212-9 191-7.50Q170-6 148.50-3.50Q127-1 107.50 3Q88 7 73 13Q50 21 43 31Q36 41 39 61L46 105Q49 122 57 125Q65 128 81 125Q116 120 157.50 116.50Q199 113 225 113Q263 113 279 121.50Q295 130 295 150Q295 172 283 179.50Q271 187 239 191Q198 197 162.50 205Q127 213 100 229Q73 245 57.50 272Q42 299 42 343Q42 383 57.50 413Q73 443 100 463Q127 483 164.50 493Q202 503 246 503Q263 503 283.50 501.50Q304 500 325 497.50Q346 495 365.50 491Q385 487 401 481Q421 474 430.50 466.50Q440 459 435 440L425 392Q421 375 411.50 372Q402 369 376 373Q341 378 308 380.50Q275 383 252 383Q214 384 204.50 374.50Q195 365 195 349Q195 330 212.50 324.50Q230 319 257 314Q296 309 331 301.50Q366 294 392.50 277Q419 260 435 231.50Q451 203 451 156Z"  horiz-adv-x="488" vert-adv-y="1000"  />

      
      <glyph glyph-name="uni03C5" unicode="&#x03C5;" d="M201 201Q201 185 203.50 170.50Q206 156 214 145Q222 134 236.50 127.50Q251 121 274 121Q318 121 335.50 145Q353 169 353 201L353 472Q353 479 357 486.50Q361 494 375 494L485 494Q497 494 501.50 488Q506 482 506 472L506 192Q506 151 491.50 114.50Q477 78 448.50 51Q420 24 376 8.50Q332-7 274-7Q215-7 172.50 7.50Q130 22 102.50 48Q75 74 62 111Q49 148 49 192L49 472Q49 479 52.50 486.50Q56 494 70 494L179 494Q192 494 196.50 488.50Q201 483 201 472L201 201L201 201Z"  horiz-adv-x="555" vert-adv-y="1000"  />

      
      <glyph glyph-name="uni03B6" unicode="&#x03B6;" d="M41 159Q41 192 57 223Q73 254 99 281.50Q125 309 158 331.50Q191 354 225 371L77 371Q55 371 55 394L55 473Q55 494 77 494L476 494Q490 494 493.50 489Q497 484 497 474L497 412Q497 401 495 390.50Q493 380 480 373Q442 353 395.50 328Q349 303 308 276Q267 249 239 220.50Q211 192 211 166Q211 149 224.50 138Q238 127 260.50 121Q283 115 312 113Q341 111 373 111Q375 111 383 111Q391 111 399.50 111.50Q408 112 416 112Q424 112 426 112Q446 112 453 108Q460 104 468 89L489 43Q494 33 494 23.50Q494 14 484-3Q467-32 448.50-71.50Q430-111 416-151Q408-173 400.50-179Q393-185 375-177L303-151Q290-146 286-138Q282-130 287-113Q293-92 303-69Q313-46 331-14Q271-12 218-1.50Q165 9 125.50 29Q86 49 63.50 81Q41 113 41 159Z"  horiz-adv-x="521" vert-adv-y="1000"  />

      
      <glyph glyph-name="uni20AC" unicode="&#x20AC;" d="M453 312Q465 312 468.50 308.50Q472 305 472 295L472 252Q472 242 469 238Q466 234 454 234L262 234Q270 186 299.50 158.50Q329 131 387 131Q408 131 423 131.50Q438 132 453 133.50Q468 135 485 136.50Q502 138 526 141Q542 143 549.50 139Q557 135 561 120L574 68Q579 49 571.50 39Q564 29 549 23Q511 6 465.50-2Q420-10 373-10Q301-10 250.50 9.50Q200 29 167 62.50Q134 96 115.50 140.50Q97 185 90 234L41 234Q30 234 25.50 237.50Q21 241 21 252L21 295Q21 312 41 312L453 312M41 349Q21 349 21 367L21 410Q21 428 41 428L90 428Q98 477 116 521Q134 565 166.50 598.50Q199 632 249.50 652Q300 672 372 672Q419 672 463 665.50Q507 659 547 642Q562 635 569.50 626.50Q577 618 573 599L561 541Q558 527 550 523Q542 519 526 521Q494 525 457 527.50Q420 530 388 530Q331 530 302.50 503Q274 476 264 428L453 428Q466 428 469 424.50Q472 421 472 410L472 367Q472 357 469 353Q466 349 454 349L41 349Z"  horiz-adv-x="597" vert-adv-y="1000"  />

      
      <glyph glyph-name="uni2014" unicode="&#x2014;" d="M949 305Q962 305 965.50 300Q969 295 969 285L969 223Q969 212 965.50 207Q962 202 949 202L51 202Q31 202 31 223L31 284Q31 305 52 305L949 305Z"  horiz-adv-x="1000" vert-adv-y="1000"  />

      
      <glyph glyph-name="unic6" unicode="&#xc6;" d="M440 150L241 150L173 23Q159 0 133 0L20 0Q-3 0 10 25L339 640Q347 654 355.50 659.50Q364 665 385 665L858 665Q881 665 881 643L881 552Q881 543 876.50 537Q872 531 858 531L600 531L600 410L826 410Q848 410 848 389L848 298Q848 289 843.50 283Q839 277 826 277L600 277L600 133L864 133Q885 133 885 111L885 20Q885 11 880.50 5.50Q876 0 863 0L462 0Q448 0 444 6Q440 12 440 20L440 150M438 529L305 272L440 272L440 529L438 529Z"  horiz-adv-x="930" vert-adv-y="1000"  />

      
      <glyph glyph-name="unid8" unicode="&#xd8;" d="M631 341Q631 284 622.50 222.50Q614 161 584 109.50Q554 58 496.50 24.50Q439-9 341-9Q284-9 241.50 3Q199 15 168 36L142 2Q134-9 130-11Q126-13 116-5L90 15Q80 23 80.50 27Q81 31 89 41L120 81Q99 108 87 140Q75 172 68 206Q61 240 59 274.50Q57 309 57 341Q57 370 60.50 406.50Q64 443 74.50 479.50Q85 516 104 551Q123 586 154.50 613Q186 640 232 656.50Q278 673 342 673Q405 673 450.50 659Q496 645 528 622L551 652Q559 663 563 665Q567 667 577 659L603 639Q613 631 612.50 627Q612 623 604 613L575 574Q609 526 620 464.50Q631 403 631 341M225 330Q225 301 226.50 276Q228 251 232 230L434 497Q405 536 343 536Q276 536 250.50 485.50Q225 435 225 330M468 330Q468 357 466.50 380.50Q465 404 461 424L262 160Q288 128 343 128Q414 128 441 177.50Q468 227 468 330Z"  horiz-adv-x="689" vert-adv-y="1000"  />

      
      <glyph glyph-name="uni0192" unicode="&#x0192;" d="M46 5Q50 20 55 23Q60 26 72 24Q84 22 100.50 21Q117 20 127 20Q146 20 158.50 27Q171 34 178.50 47Q186 60 190.50 79.50Q195 99 199 123L229 310L165 310Q152 310 147.50 314Q143 318 143 330L143 396Q143 410 146.50 414Q150 418 164 418L242 418L258 516Q262 543 272.50 572.50Q283 602 303.50 626.50Q324 651 356 667Q388 683 436 683Q464 683 494.50 679.50Q525 676 556 665Q568 661 562 643L546 575Q543 564 538.50 562Q534 560 521 562Q504 565 491.50 566Q479 567 474 567Q453 567 440 562.50Q427 558 419 548Q411 538 407 522.50Q403 507 399 485L388 418L466 418Q479 418 484 414.50Q489 411 489 399L489 330Q489 316 485 313Q481 310 467 310L375 310L333 47Q328 17 316.50-9.50Q305-36 285-56.50Q265-77 234.50-88.50Q204-100 162-100Q134-100 99.50-95Q65-90 45-82Q28-77 33-55L46 5Z"  horiz-adv-x="597" vert-adv-y="1000"  />

      
      <glyph glyph-name="uni2021" unicode="&#x2021;" d="M48 386Q38 386 32 390.50Q26 395 26 407L26 488Q26 502 33.50 505Q41 508 48 508L189 508L189 672Q189 681 193.50 687Q198 693 210 693L313 693Q327 693 330.50 686Q334 679 334 671L334 508L478 508Q485 508 492.50 505Q500 502 500 488L500 407Q500 395 493.50 390.50Q487 386 477 386L334 386L334 261L477 261Q485 261 492.50 257.50Q500 254 500 240L500 160Q500 147 493.50 143Q487 139 478 139L334 139L334-25Q334-31 331-38.50Q328-46 314-46L211-46Q198-46 193.50-40Q189-34 189-25L189 139L48 139Q38 139 32 143Q26 147 26 160L26 240Q26 254 33.50 257.50Q41 261 48 261L189 261L189 386L48 386Z"  horiz-adv-x="524" vert-adv-y="1000"  />

      
      <glyph glyph-name="unie6" unicode="&#xe6;" d="M579 502Q651 502 695.50 481.50Q740 461 764.50 428Q789 395 798 354Q807 313 807 272Q807 241 795 223.50Q783 206 752 206L506 206Q508 177 515.50 160Q523 143 536 133.50Q549 124 568 121Q587 118 613 118Q636 118 669.50 120.50Q703 123 734 128Q748 130 756 129Q764 128 768 108L777 58Q780 41 776 32Q772 23 750 14Q735 8 714.50 4Q694 0 671.50-3Q649-6 627-7.50Q605-9 587-9Q514-9 468.50 9.50Q423 28 397 61Q354 26 302 9Q250-8 191-8Q144-8 115 4Q86 16 70 36.50Q54 57 49 83Q44 109 44 138Q44 227 94.50 263.50Q145 300 235 300L351 300L351 321Q351 337 347.50 348Q344 359 334.50 366Q325 373 307.50 376.50Q290 380 263 380Q252 380 236 379Q220 378 202 377Q184 376 165.50 374Q147 372 132 371Q118 369 108 369.50Q98 370 94 387L83 439Q80 453 86.50 461.50Q93 470 114 478Q131 484 154 488.50Q177 493 200.50 496Q224 499 247 500.50Q270 502 287 502Q345 502 382 491.50Q419 481 443 456Q467 477 500.50 489.50Q534 502 579 502M242 105Q253 105 268.50 108.50Q284 112 300.50 117Q317 122 332.50 128.50Q348 135 359 141Q355 158 353.50 173Q352 188 350 206L265 206Q229 206 213.50 192Q198 178 198 145Q198 124 207.50 114.50Q217 105 242 105M647 299Q647 314 643.50 329Q640 344 632.50 356Q625 368 612 375.50Q599 383 579 383Q543 383 527.50 360Q512 337 510 299L647 299Z"  horiz-adv-x="840" vert-adv-y="1000"  />

      
      <glyph glyph-name="unif8" unicode="&#xf8;" d="M508 254Q508 213 502 167Q496 121 472 82Q448 43 400.50 17.50Q353-8 271-8Q226-8 192.50 0.50Q159 9 134 23L111-5Q103-15 98.50-17Q94-19 85-11L60 11Q50 19 51 23Q52 27 60 37L85 68Q70 88 61.50 111Q53 134 48.50 158.50Q44 183 43 207Q42 231 42 254Q42 288 49 331Q56 374 79.50 412.50Q103 451 148.50 477Q194 503 271 503Q317 503 351.50 494.50Q386 486 412 471L445 511Q453 521 457.50 522.50Q462 524 471 516L496 495Q506 487 505 483Q504 479 496 469L462 427Q490 391 499 345Q508 299 508 254M352 248Q352 259 351.50 269.50Q351 280 350 289L225 135Q241 122 271 122Q321 122 336.50 153Q352 184 352 248M196 248Q196 237 196 226.50Q196 216 197 206L322 360Q304 373 273 373Q227 373 211.50 341Q196 309 196 248Z"  horiz-adv-x="549" vert-adv-y="1000"  />

      
      <glyph glyph-name="unide" unicode="&#xde;" d="M224 22Q224 14 220.50 7Q217 0 203 0L87 0Q74 0 69.50 6Q65 12 65 22L65 642Q65 652 69.50 658.50Q74 665 87 665L202 665Q216 665 220 657.50Q224 650 224 642L224 551L318 551Q364 551 405.50 538Q447 525 478 499.50Q509 474 527 435Q545 396 545 344Q545 309 535.50 271.50Q526 234 500.50 203Q475 172 431 151.50Q387 131 319 131L224 131L224 22M382 341Q382 381 358.50 399.50Q335 418 296 418L224 418L224 259L299 259Q338 259 360 279.50Q382 300 382 341Z"  horiz-adv-x="571" vert-adv-y="1000"  />

      
      <glyph glyph-name="unife" unicode="&#xfe;" d="M514 248Q514 188 505.50 140Q497 92 474 59Q451 26 411.50 8Q372-10 311-10Q290-10 260-6.50Q230-3 203 5L202 5L202-173Q202-180 198.50-187.50Q195-195 181-195L72-195Q58-195 53.50-189Q49-183 49-173L49 642Q49 651 54 657.50Q59 664 72 664L181 664Q195 664 198.50 657Q202 650 202 642L202 447Q203 447 203 446.50Q203 446 204 446Q238 470 274.50 485.50Q311 501 346 501Q398 501 431 481.50Q464 462 482.50 428Q501 394 507.50 347.50Q514 301 514 248M358 246Q358 282 354 304Q350 326 342.50 339Q335 352 323.50 356.50Q312 361 297 361Q274 361 247 350.50Q220 340 202 332L202 131Q226 124 244.50 122Q263 120 280 120Q301 120 316 125Q331 130 340 144Q349 158 353.50 182.50Q358 207 358 246Z"  horiz-adv-x="551" vert-adv-y="1000"  />

      
      <glyph glyph-name="uni0152" unicode="&#x0152;" d="M798 19Q798 10 793.50 5Q789 0 776 0L423 0Q382-9 335-9Q270-9 223.50 6.50Q177 22 145 48Q113 74 94.50 109Q76 144 66 183Q56 222 53 262.50Q50 303 50 341Q50 370 53.50 406Q57 442 67.50 479Q78 516 97 550.50Q116 585 147.50 612Q179 639 225 655.50Q271 672 335 672Q379 672 419 664L771 664Q793 664 793 642L793 551Q793 542 788.50 536.50Q784 531 771 531L521 531L521 410L738 410Q760 410 760 388L760 297Q760 288 755.50 282.50Q751 277 738 277L521 277L521 132L776 132Q798 132 798 110L798 19M336 127Q349 127 361 130L361 532Q349 535 336 535Q269 535 243.50 485Q218 435 218 330Q218 279 224 241Q230 203 243.50 177.50Q257 152 279.50 139.50Q302 127 336 127Z"  horiz-adv-x="843" vert-adv-y="1000"  />

      
      </font>
</defs>
</svg>
